M48
; DRILL file {KiCad 5.1.10-88a1d61d58~88~ubuntu18.04.1} date Tue Dec 28 00:12:05 2021
; FORMAT={-:-/ absolute / inch / decimal}
; #@! TF.CreationDate,2021-12-28T00:12:05+01:00
; #@! TF.GenerationSoftware,Kicad,Pcbnew,5.1.10-88a1d61d58~88~ubuntu18.04.1
; #@! TF.FileFunction,Plated,1,2,PTH
FMAT,2
INCH
T1C0.0315
T2C0.0335
T3C0.0354
T4C0.0394
T5C0.0433
T6C0.0591
T7C0.1181
%
G90
G05
T1
X4.2Y-3.35
X4.5Y-3.35
X4.75Y-3.25
X4.8Y-2.7
X4.8Y-2.8
X4.8Y-2.9
X4.8Y-3.0
X5.05Y-3.25
X5.1Y-2.7
X5.1Y-2.8
X5.1Y-2.9
X5.1Y-3.0
X5.35Y-2.7
X5.35Y-3.0
X5.5Y-2.6
X5.5Y-2.9
X5.65Y-2.5
X5.65Y-2.8
T2
X4.45Y-2.55
X4.6Y-2.5516
T3
X4.15Y-2.45
X4.15Y-2.5287
X4.15Y-2.6075
X4.85Y-2.3
X4.9Y-2.3
X4.95Y-2.3
X5.0Y-2.3
T4
X5.5Y-3.25
X5.5Y-3.35
X5.5Y-3.45
X5.5Y-3.55
X5.5Y-3.65
X5.5Y-3.75
T5
X4.2441Y-2.9728
X4.2441Y-3.15
X4.5Y-2.9728
X4.5Y-3.15
X4.8Y-3.5
X4.8Y-3.6772
X5.0559Y-3.5
X5.0559Y-3.6772
T6
X4.15Y-2.3673
X4.15Y-2.6902
T7
X4.2Y-3.7
X5.7Y-2.2
T0
M30
