%TF.GenerationSoftware,KiCad,Pcbnew,5.1.10-88a1d61d58~88~ubuntu18.04.1*%
%TF.CreationDate,2021-12-28T00:11:02+01:00*%
%TF.ProjectId,tuchoVen,74756368-6f56-4656-9e2e-6b696361645f,rev?*%
%TF.SameCoordinates,Original*%
%TF.FileFunction,Soldermask,Bot*%
%TF.FilePolarity,Negative*%
%FSLAX46Y46*%
G04 Gerber Fmt 4.6, Leading zero omitted, Abs format (unit mm)*
G04 Created by KiCad (PCBNEW 5.1.10-88a1d61d58~88~ubuntu18.04.1) date 2021-12-28 00:11:02*
%MOMM*%
%LPD*%
G01*
G04 APERTURE LIST*
%ADD10C,6.000000*%
%ADD11O,1.600000X1.600000*%
%ADD12R,1.600000X1.600000*%
%ADD13C,2.000000*%
%ADD14O,3.500000X2.200000*%
%ADD15O,2.500000X1.500000*%
%ADD16R,2.500000X1.500000*%
%ADD17C,1.600000*%
%ADD18C,2.200000*%
%ADD19O,1.700000X1.700000*%
%ADD20R,1.700000X1.700000*%
%ADD21O,1.070000X1.800000*%
%ADD22R,1.070000X1.800000*%
G04 APERTURE END LIST*
D10*
%TO.C,h*%
X144780000Y-55880000D03*
%TD*%
%TO.C,h*%
X106680000Y-93980000D03*
%TD*%
D11*
%TO.C,U1*%
X129540000Y-68580000D03*
X121920000Y-76200000D03*
X129540000Y-71120000D03*
X121920000Y-73660000D03*
X129540000Y-73660000D03*
X121920000Y-71120000D03*
X129540000Y-76200000D03*
D12*
X121920000Y-68580000D03*
%TD*%
D13*
%TO.C,SW3*%
X128420000Y-88900000D03*
X128420000Y-93400000D03*
X121920000Y-88900000D03*
X121920000Y-93400000D03*
%TD*%
%TO.C,SW2*%
X107800000Y-80010000D03*
X107800000Y-75510000D03*
X114300000Y-80010000D03*
X114300000Y-75510000D03*
%TD*%
D14*
%TO.C,SW1*%
X105410000Y-68330000D03*
X105410000Y-60130000D03*
D15*
X105410000Y-66230000D03*
X105410000Y-64230000D03*
D16*
X105410000Y-62230000D03*
%TD*%
D11*
%TO.C,R5*%
X128270000Y-82550000D03*
D17*
X120650000Y-82550000D03*
%TD*%
D11*
%TO.C,R4*%
X106680000Y-85090000D03*
D17*
X114300000Y-85090000D03*
%TD*%
D11*
%TO.C,R3*%
X135890000Y-76200000D03*
D17*
X135890000Y-68580000D03*
%TD*%
D11*
%TO.C,R2*%
X139700000Y-73660000D03*
D17*
X139700000Y-66040000D03*
%TD*%
D11*
%TO.C,R1*%
X143510000Y-71120000D03*
D17*
X143510000Y-63500000D03*
%TD*%
D18*
%TO.C,J3*%
X113030000Y-54570000D03*
G36*
G01*
X113955000Y-64094999D02*
X113955000Y-65445001D01*
G75*
G02*
X113705001Y-65695000I-249999J0D01*
G01*
X112354999Y-65695000D01*
G75*
G02*
X112105000Y-65445001I0J249999D01*
G01*
X112105000Y-64094999D01*
G75*
G02*
X112354999Y-63845000I249999J0D01*
G01*
X113705001Y-63845000D01*
G75*
G02*
X113955000Y-64094999I0J-249999D01*
G01*
G37*
%TD*%
%TO.C,J2*%
X116840000Y-54610000D03*
G36*
G01*
X117765000Y-64134999D02*
X117765000Y-65485001D01*
G75*
G02*
X117515001Y-65735000I-249999J0D01*
G01*
X116164999Y-65735000D01*
G75*
G02*
X115915000Y-65485001I0J249999D01*
G01*
X115915000Y-64134999D01*
G75*
G02*
X116164999Y-63885000I249999J0D01*
G01*
X117515001Y-63885000D01*
G75*
G02*
X117765000Y-64134999I0J-249999D01*
G01*
G37*
%TD*%
D19*
%TO.C,J1*%
X139700000Y-95250000D03*
X139700000Y-92710000D03*
X139700000Y-90170000D03*
X139700000Y-87630000D03*
X139700000Y-85090000D03*
D20*
X139700000Y-82550000D03*
%TD*%
D21*
%TO.C,D1*%
X123190000Y-58420000D03*
D22*
X124460000Y-58420000D03*
D21*
X125730000Y-58420000D03*
X127000000Y-58420000D03*
%TD*%
M02*
