%TF.GenerationSoftware,KiCad,Pcbnew,5.1.10-88a1d61d58~88~ubuntu18.04.1*%
%TF.CreationDate,2021-12-28T00:11:02+01:00*%
%TF.ProjectId,tuchoVen,74756368-6f56-4656-9e2e-6b696361645f,rev?*%
%TF.SameCoordinates,Original*%
%TF.FileFunction,Legend,Top*%
%TF.FilePolarity,Positive*%
%FSLAX46Y46*%
G04 Gerber Fmt 4.6, Leading zero omitted, Abs format (unit mm)*
G04 Created by KiCad (PCBNEW 5.1.10-88a1d61d58~88~ubuntu18.04.1) date 2021-12-28 00:11:02*
%MOMM*%
%LPD*%
G01*
G04 APERTURE LIST*
%ADD10C,0.150000*%
%ADD11C,0.300000*%
%ADD12C,0.120000*%
G04 APERTURE END LIST*
D10*
X123420380Y-87272761D02*
X123515619Y-87320380D01*
X123706095Y-87320380D01*
X123801333Y-87272761D01*
X123848952Y-87177523D01*
X123848952Y-87129904D01*
X123801333Y-87034666D01*
X123706095Y-86987047D01*
X123563238Y-86987047D01*
X123468000Y-86939428D01*
X123420380Y-86844190D01*
X123420380Y-86796571D01*
X123468000Y-86701333D01*
X123563238Y-86653714D01*
X123706095Y-86653714D01*
X123801333Y-86701333D01*
X124134666Y-86653714D02*
X124515619Y-86653714D01*
X124277523Y-86320380D02*
X124277523Y-87177523D01*
X124325142Y-87272761D01*
X124420380Y-87320380D01*
X124515619Y-87320380D01*
X125277523Y-87320380D02*
X125277523Y-86796571D01*
X125229904Y-86701333D01*
X125134666Y-86653714D01*
X124944190Y-86653714D01*
X124848952Y-86701333D01*
X125277523Y-87272761D02*
X125182285Y-87320380D01*
X124944190Y-87320380D01*
X124848952Y-87272761D01*
X124801333Y-87177523D01*
X124801333Y-87082285D01*
X124848952Y-86987047D01*
X124944190Y-86939428D01*
X125182285Y-86939428D01*
X125277523Y-86891809D01*
X125753714Y-87320380D02*
X125753714Y-86653714D01*
X125753714Y-86844190D02*
X125801333Y-86748952D01*
X125848952Y-86701333D01*
X125944190Y-86653714D01*
X126039428Y-86653714D01*
X126229904Y-86653714D02*
X126610857Y-86653714D01*
X126372761Y-86320380D02*
X126372761Y-87177523D01*
X126420380Y-87272761D01*
X126515619Y-87320380D01*
X126610857Y-87320380D01*
X109505952Y-74112380D02*
X109505952Y-73445714D01*
X109505952Y-73636190D02*
X109553571Y-73540952D01*
X109601190Y-73493333D01*
X109696428Y-73445714D01*
X109791666Y-73445714D01*
X110505952Y-74064761D02*
X110410714Y-74112380D01*
X110220238Y-74112380D01*
X110125000Y-74064761D01*
X110077380Y-73969523D01*
X110077380Y-73588571D01*
X110125000Y-73493333D01*
X110220238Y-73445714D01*
X110410714Y-73445714D01*
X110505952Y-73493333D01*
X110553571Y-73588571D01*
X110553571Y-73683809D01*
X110077380Y-73779047D01*
X110934523Y-74064761D02*
X111029761Y-74112380D01*
X111220238Y-74112380D01*
X111315476Y-74064761D01*
X111363095Y-73969523D01*
X111363095Y-73921904D01*
X111315476Y-73826666D01*
X111220238Y-73779047D01*
X111077380Y-73779047D01*
X110982142Y-73731428D01*
X110934523Y-73636190D01*
X110934523Y-73588571D01*
X110982142Y-73493333D01*
X111077380Y-73445714D01*
X111220238Y-73445714D01*
X111315476Y-73493333D01*
X112172619Y-74064761D02*
X112077380Y-74112380D01*
X111886904Y-74112380D01*
X111791666Y-74064761D01*
X111744047Y-73969523D01*
X111744047Y-73588571D01*
X111791666Y-73493333D01*
X111886904Y-73445714D01*
X112077380Y-73445714D01*
X112172619Y-73493333D01*
X112220238Y-73588571D01*
X112220238Y-73683809D01*
X111744047Y-73779047D01*
X112505952Y-73445714D02*
X112886904Y-73445714D01*
X112648809Y-73112380D02*
X112648809Y-73969523D01*
X112696428Y-74064761D01*
X112791666Y-74112380D01*
X112886904Y-74112380D01*
X146629523Y-93765714D02*
X146629523Y-94575238D01*
X146581904Y-94670476D01*
X146534285Y-94718095D01*
X146439047Y-94765714D01*
X146296190Y-94765714D01*
X146200952Y-94718095D01*
X146629523Y-94384761D02*
X146534285Y-94432380D01*
X146343809Y-94432380D01*
X146248571Y-94384761D01*
X146200952Y-94337142D01*
X146153333Y-94241904D01*
X146153333Y-93956190D01*
X146200952Y-93860952D01*
X146248571Y-93813333D01*
X146343809Y-93765714D01*
X146534285Y-93765714D01*
X146629523Y-93813333D01*
X147105714Y-93765714D02*
X147105714Y-94432380D01*
X147105714Y-93860952D02*
X147153333Y-93813333D01*
X147248571Y-93765714D01*
X147391428Y-93765714D01*
X147486666Y-93813333D01*
X147534285Y-93908571D01*
X147534285Y-94432380D01*
X148439047Y-94432380D02*
X148439047Y-93432380D01*
X148439047Y-94384761D02*
X148343809Y-94432380D01*
X148153333Y-94432380D01*
X148058095Y-94384761D01*
X148010476Y-94337142D01*
X147962857Y-94241904D01*
X147962857Y-93956190D01*
X148010476Y-93860952D01*
X148058095Y-93813333D01*
X148153333Y-93765714D01*
X148343809Y-93765714D01*
X148439047Y-93813333D01*
X146415238Y-91892380D02*
X146415238Y-91225714D01*
X146415238Y-91416190D02*
X146462857Y-91320952D01*
X146510476Y-91273333D01*
X146605714Y-91225714D01*
X146700952Y-91225714D01*
X147415238Y-91844761D02*
X147320000Y-91892380D01*
X147129523Y-91892380D01*
X147034285Y-91844761D01*
X146986666Y-91749523D01*
X146986666Y-91368571D01*
X147034285Y-91273333D01*
X147129523Y-91225714D01*
X147320000Y-91225714D01*
X147415238Y-91273333D01*
X147462857Y-91368571D01*
X147462857Y-91463809D01*
X146986666Y-91559047D01*
X147843809Y-91844761D02*
X147939047Y-91892380D01*
X148129523Y-91892380D01*
X148224761Y-91844761D01*
X148272380Y-91749523D01*
X148272380Y-91701904D01*
X148224761Y-91606666D01*
X148129523Y-91559047D01*
X147986666Y-91559047D01*
X147891428Y-91511428D01*
X147843809Y-91416190D01*
X147843809Y-91368571D01*
X147891428Y-91273333D01*
X147986666Y-91225714D01*
X148129523Y-91225714D01*
X148224761Y-91273333D01*
X145796190Y-89352380D02*
X145796190Y-88685714D01*
X145796190Y-88780952D02*
X145843809Y-88733333D01*
X145939047Y-88685714D01*
X146081904Y-88685714D01*
X146177142Y-88733333D01*
X146224761Y-88828571D01*
X146224761Y-89352380D01*
X146224761Y-88828571D02*
X146272380Y-88733333D01*
X146367619Y-88685714D01*
X146510476Y-88685714D01*
X146605714Y-88733333D01*
X146653333Y-88828571D01*
X146653333Y-89352380D01*
X147272380Y-89352380D02*
X147177142Y-89304761D01*
X147129523Y-89257142D01*
X147081904Y-89161904D01*
X147081904Y-88876190D01*
X147129523Y-88780952D01*
X147177142Y-88733333D01*
X147272380Y-88685714D01*
X147415238Y-88685714D01*
X147510476Y-88733333D01*
X147558095Y-88780952D01*
X147605714Y-88876190D01*
X147605714Y-89161904D01*
X147558095Y-89257142D01*
X147510476Y-89304761D01*
X147415238Y-89352380D01*
X147272380Y-89352380D01*
X147986666Y-89304761D02*
X148081904Y-89352380D01*
X148272380Y-89352380D01*
X148367619Y-89304761D01*
X148415238Y-89209523D01*
X148415238Y-89161904D01*
X148367619Y-89066666D01*
X148272380Y-89019047D01*
X148129523Y-89019047D01*
X148034285Y-88971428D01*
X147986666Y-88876190D01*
X147986666Y-88828571D01*
X148034285Y-88733333D01*
X148129523Y-88685714D01*
X148272380Y-88685714D01*
X148367619Y-88733333D01*
X148843809Y-89352380D02*
X148843809Y-88685714D01*
X148843809Y-88352380D02*
X148796190Y-88400000D01*
X148843809Y-88447619D01*
X148891428Y-88400000D01*
X148843809Y-88352380D01*
X148843809Y-88447619D01*
X145796190Y-86812380D02*
X145796190Y-86145714D01*
X145796190Y-86240952D02*
X145843809Y-86193333D01*
X145939047Y-86145714D01*
X146081904Y-86145714D01*
X146177142Y-86193333D01*
X146224761Y-86288571D01*
X146224761Y-86812380D01*
X146224761Y-86288571D02*
X146272380Y-86193333D01*
X146367619Y-86145714D01*
X146510476Y-86145714D01*
X146605714Y-86193333D01*
X146653333Y-86288571D01*
X146653333Y-86812380D01*
X147129523Y-86812380D02*
X147129523Y-86145714D01*
X147129523Y-85812380D02*
X147081904Y-85860000D01*
X147129523Y-85907619D01*
X147177142Y-85860000D01*
X147129523Y-85812380D01*
X147129523Y-85907619D01*
X147558095Y-86764761D02*
X147653333Y-86812380D01*
X147843809Y-86812380D01*
X147939047Y-86764761D01*
X147986666Y-86669523D01*
X147986666Y-86621904D01*
X147939047Y-86526666D01*
X147843809Y-86479047D01*
X147700952Y-86479047D01*
X147605714Y-86431428D01*
X147558095Y-86336190D01*
X147558095Y-86288571D01*
X147605714Y-86193333D01*
X147700952Y-86145714D01*
X147843809Y-86145714D01*
X147939047Y-86193333D01*
X148558095Y-86812380D02*
X148462857Y-86764761D01*
X148415238Y-86717142D01*
X148367619Y-86621904D01*
X148367619Y-86336190D01*
X148415238Y-86240952D01*
X148462857Y-86193333D01*
X148558095Y-86145714D01*
X148700952Y-86145714D01*
X148796190Y-86193333D01*
X148843809Y-86240952D01*
X148891428Y-86336190D01*
X148891428Y-86621904D01*
X148843809Y-86717142D01*
X148796190Y-86764761D01*
X148700952Y-86812380D01*
X148558095Y-86812380D01*
X146272380Y-84224761D02*
X146367619Y-84272380D01*
X146558095Y-84272380D01*
X146653333Y-84224761D01*
X146700952Y-84129523D01*
X146700952Y-84081904D01*
X146653333Y-83986666D01*
X146558095Y-83939047D01*
X146415238Y-83939047D01*
X146320000Y-83891428D01*
X146272380Y-83796190D01*
X146272380Y-83748571D01*
X146320000Y-83653333D01*
X146415238Y-83605714D01*
X146558095Y-83605714D01*
X146653333Y-83653333D01*
X147558095Y-84224761D02*
X147462857Y-84272380D01*
X147272380Y-84272380D01*
X147177142Y-84224761D01*
X147129523Y-84177142D01*
X147081904Y-84081904D01*
X147081904Y-83796190D01*
X147129523Y-83700952D01*
X147177142Y-83653333D01*
X147272380Y-83605714D01*
X147462857Y-83605714D01*
X147558095Y-83653333D01*
X147986666Y-84272380D02*
X147986666Y-83272380D01*
X148081904Y-83891428D02*
X148367619Y-84272380D01*
X148367619Y-83605714D02*
X147986666Y-83986666D01*
X146367619Y-80732380D02*
X146700952Y-81732380D01*
X147034285Y-80732380D01*
X147367619Y-81351428D02*
X148129523Y-81351428D01*
X147748571Y-81732380D02*
X147748571Y-80970476D01*
D11*
X134588571Y-56471428D02*
X134660000Y-56400000D01*
X134802857Y-56328571D01*
X135160000Y-56328571D01*
X135302857Y-56400000D01*
X135374285Y-56471428D01*
X135445714Y-56614285D01*
X135445714Y-56757142D01*
X135374285Y-56971428D01*
X134517142Y-57828571D01*
X135445714Y-57828571D01*
X136374285Y-56328571D02*
X136517142Y-56328571D01*
X136660000Y-56400000D01*
X136731428Y-56471428D01*
X136802857Y-56614285D01*
X136874285Y-56900000D01*
X136874285Y-57257142D01*
X136802857Y-57542857D01*
X136731428Y-57685714D01*
X136660000Y-57757142D01*
X136517142Y-57828571D01*
X136374285Y-57828571D01*
X136231428Y-57757142D01*
X136160000Y-57685714D01*
X136088571Y-57542857D01*
X136017142Y-57257142D01*
X136017142Y-56900000D01*
X136088571Y-56614285D01*
X136160000Y-56471428D01*
X136231428Y-56400000D01*
X136374285Y-56328571D01*
X137445714Y-56471428D02*
X137517142Y-56400000D01*
X137660000Y-56328571D01*
X138017142Y-56328571D01*
X138160000Y-56400000D01*
X138231428Y-56471428D01*
X138302857Y-56614285D01*
X138302857Y-56757142D01*
X138231428Y-56971428D01*
X137374285Y-57828571D01*
X138302857Y-57828571D01*
X139731428Y-57828571D02*
X138874285Y-57828571D01*
X139302857Y-57828571D02*
X139302857Y-56328571D01*
X139160000Y-56542857D01*
X139017142Y-56685714D01*
X138874285Y-56757142D01*
X121667142Y-52911428D02*
X121667142Y-54911428D01*
X121667142Y-53006666D02*
X121857619Y-52911428D01*
X122238571Y-52911428D01*
X122429047Y-53006666D01*
X122524285Y-53101904D01*
X122619523Y-53292380D01*
X122619523Y-53863809D01*
X122524285Y-54054285D01*
X122429047Y-54149523D01*
X122238571Y-54244761D01*
X121857619Y-54244761D01*
X121667142Y-54149523D01*
X123476666Y-54244761D02*
X123476666Y-52911428D01*
X123476666Y-53292380D02*
X123571904Y-53101904D01*
X123667142Y-53006666D01*
X123857619Y-52911428D01*
X124048095Y-52911428D01*
X125000476Y-54244761D02*
X124810000Y-54149523D01*
X124714761Y-54054285D01*
X124619523Y-53863809D01*
X124619523Y-53292380D01*
X124714761Y-53101904D01*
X124810000Y-53006666D01*
X125000476Y-52911428D01*
X125286190Y-52911428D01*
X125476666Y-53006666D01*
X125571904Y-53101904D01*
X125667142Y-53292380D01*
X125667142Y-53863809D01*
X125571904Y-54054285D01*
X125476666Y-54149523D01*
X125286190Y-54244761D01*
X125000476Y-54244761D01*
X126238571Y-52911428D02*
X127000476Y-52911428D01*
X126524285Y-54244761D02*
X126524285Y-52530476D01*
X126619523Y-52340000D01*
X126810000Y-52244761D01*
X127000476Y-52244761D01*
X128429047Y-54149523D02*
X128238571Y-54244761D01*
X127857619Y-54244761D01*
X127667142Y-54149523D01*
X127571904Y-53959047D01*
X127571904Y-53197142D01*
X127667142Y-53006666D01*
X127857619Y-52911428D01*
X128238571Y-52911428D01*
X128429047Y-53006666D01*
X128524285Y-53197142D01*
X128524285Y-53387619D01*
X127571904Y-53578095D01*
X129095714Y-52244761D02*
X129762380Y-54244761D01*
X130429047Y-52244761D01*
X131857619Y-54149523D02*
X131667142Y-54244761D01*
X131286190Y-54244761D01*
X131095714Y-54149523D01*
X131000476Y-53959047D01*
X131000476Y-53197142D01*
X131095714Y-53006666D01*
X131286190Y-52911428D01*
X131667142Y-52911428D01*
X131857619Y-53006666D01*
X131952857Y-53197142D01*
X131952857Y-53387619D01*
X131000476Y-53578095D01*
X132810000Y-52911428D02*
X132810000Y-54244761D01*
X132810000Y-53101904D02*
X132905238Y-53006666D01*
X133095714Y-52911428D01*
X133381428Y-52911428D01*
X133571904Y-53006666D01*
X133667142Y-53197142D01*
X133667142Y-54244761D01*
X136524285Y-52244761D02*
X136714761Y-52244761D01*
X136905238Y-52340000D01*
X137000476Y-52435238D01*
X137095714Y-52625714D01*
X137190952Y-53006666D01*
X137190952Y-53482857D01*
X137095714Y-53863809D01*
X137000476Y-54054285D01*
X136905238Y-54149523D01*
X136714761Y-54244761D01*
X136524285Y-54244761D01*
X136333809Y-54149523D01*
X136238571Y-54054285D01*
X136143333Y-53863809D01*
X136048095Y-53482857D01*
X136048095Y-53006666D01*
X136143333Y-52625714D01*
X136238571Y-52435238D01*
X136333809Y-52340000D01*
X136524285Y-52244761D01*
X138048095Y-54054285D02*
X138143333Y-54149523D01*
X138048095Y-54244761D01*
X137952857Y-54149523D01*
X138048095Y-54054285D01*
X138048095Y-54244761D01*
X138905238Y-52435238D02*
X139000476Y-52340000D01*
X139190952Y-52244761D01*
X139667142Y-52244761D01*
X139857619Y-52340000D01*
X139952857Y-52435238D01*
X140048095Y-52625714D01*
X140048095Y-52816190D01*
X139952857Y-53101904D01*
X138810000Y-54244761D01*
X140048095Y-54244761D01*
D12*
%TO.C,U1*%
X124730000Y-67250000D02*
X123080000Y-67250000D01*
X123080000Y-67250000D02*
X123080000Y-77530000D01*
X123080000Y-77530000D02*
X128380000Y-77530000D01*
X128380000Y-77530000D02*
X128380000Y-67250000D01*
X128380000Y-67250000D02*
X126730000Y-67250000D01*
X126730000Y-67250000D02*
G75*
G02*
X124730000Y-67250000I-1000000J0D01*
G01*
%TO.C,SW3*%
X122920000Y-94400000D02*
X127420000Y-94400000D01*
X121670000Y-90400000D02*
X121670000Y-91900000D01*
X127420000Y-87900000D02*
X122920000Y-87900000D01*
X128670000Y-91900000D02*
X128670000Y-90400000D01*
%TO.C,SW2*%
X113300000Y-74510000D02*
X108800000Y-74510000D01*
X114550000Y-78510000D02*
X114550000Y-77010000D01*
X108800000Y-81010000D02*
X113300000Y-81010000D01*
X107550000Y-77010000D02*
X107550000Y-78510000D01*
D10*
%TO.C,SW1*%
X107710000Y-59930000D02*
X107710000Y-68530000D01*
X103110000Y-59930000D02*
X103110000Y-62130000D01*
X103110000Y-66230000D02*
X103110000Y-68530000D01*
D12*
%TO.C,R5*%
X121190000Y-81510000D02*
X121190000Y-81180000D01*
X121190000Y-81180000D02*
X127730000Y-81180000D01*
X127730000Y-81180000D02*
X127730000Y-81510000D01*
X121190000Y-83590000D02*
X121190000Y-83920000D01*
X121190000Y-83920000D02*
X127730000Y-83920000D01*
X127730000Y-83920000D02*
X127730000Y-83590000D01*
%TO.C,R4*%
X113760000Y-86130000D02*
X113760000Y-86460000D01*
X113760000Y-86460000D02*
X107220000Y-86460000D01*
X107220000Y-86460000D02*
X107220000Y-86130000D01*
X113760000Y-84050000D02*
X113760000Y-83720000D01*
X113760000Y-83720000D02*
X107220000Y-83720000D01*
X107220000Y-83720000D02*
X107220000Y-84050000D01*
%TO.C,R3*%
X136930000Y-69120000D02*
X137260000Y-69120000D01*
X137260000Y-69120000D02*
X137260000Y-75660000D01*
X137260000Y-75660000D02*
X136930000Y-75660000D01*
X134850000Y-69120000D02*
X134520000Y-69120000D01*
X134520000Y-69120000D02*
X134520000Y-75660000D01*
X134520000Y-75660000D02*
X134850000Y-75660000D01*
%TO.C,R2*%
X140740000Y-66580000D02*
X141070000Y-66580000D01*
X141070000Y-66580000D02*
X141070000Y-73120000D01*
X141070000Y-73120000D02*
X140740000Y-73120000D01*
X138660000Y-66580000D02*
X138330000Y-66580000D01*
X138330000Y-66580000D02*
X138330000Y-73120000D01*
X138330000Y-73120000D02*
X138660000Y-73120000D01*
%TO.C,R1*%
X144550000Y-64040000D02*
X144880000Y-64040000D01*
X144880000Y-64040000D02*
X144880000Y-70580000D01*
X144880000Y-70580000D02*
X144550000Y-70580000D01*
X142470000Y-64040000D02*
X142140000Y-64040000D01*
X142140000Y-64040000D02*
X142140000Y-70580000D01*
X142140000Y-70580000D02*
X142470000Y-70580000D01*
%TO.C,J3*%
X112070000Y-63585000D02*
X112070000Y-55530000D01*
X113990000Y-63585000D02*
X113990000Y-55530000D01*
%TO.C,J2*%
X115880000Y-63625000D02*
X115880000Y-55570000D01*
X117800000Y-63625000D02*
X117800000Y-55570000D01*
%TO.C,J1*%
X141140000Y-81220000D02*
X141140000Y-96580000D01*
X141140000Y-96580000D02*
X143800000Y-96580000D01*
X143800000Y-96580000D02*
X143800000Y-81220000D01*
X143800000Y-81220000D02*
X141140000Y-81220000D01*
X143800000Y-82170000D02*
X149800000Y-82170000D01*
X149800000Y-82170000D02*
X149800000Y-82930000D01*
X149800000Y-82930000D02*
X143800000Y-82930000D01*
X143800000Y-82230000D02*
X149800000Y-82230000D01*
X143800000Y-82350000D02*
X149800000Y-82350000D01*
X143800000Y-82470000D02*
X149800000Y-82470000D01*
X143800000Y-82590000D02*
X149800000Y-82590000D01*
X143800000Y-82710000D02*
X149800000Y-82710000D01*
X143800000Y-82830000D02*
X149800000Y-82830000D01*
X140810000Y-82170000D02*
X141140000Y-82170000D01*
X140810000Y-82930000D02*
X141140000Y-82930000D01*
X141140000Y-83820000D02*
X143800000Y-83820000D01*
X143800000Y-84710000D02*
X149800000Y-84710000D01*
X149800000Y-84710000D02*
X149800000Y-85470000D01*
X149800000Y-85470000D02*
X143800000Y-85470000D01*
X140742929Y-84710000D02*
X141140000Y-84710000D01*
X140742929Y-85470000D02*
X141140000Y-85470000D01*
X141140000Y-86360000D02*
X143800000Y-86360000D01*
X143800000Y-87250000D02*
X149800000Y-87250000D01*
X149800000Y-87250000D02*
X149800000Y-88010000D01*
X149800000Y-88010000D02*
X143800000Y-88010000D01*
X140742929Y-87250000D02*
X141140000Y-87250000D01*
X140742929Y-88010000D02*
X141140000Y-88010000D01*
X141140000Y-88900000D02*
X143800000Y-88900000D01*
X143800000Y-89790000D02*
X149800000Y-89790000D01*
X149800000Y-89790000D02*
X149800000Y-90550000D01*
X149800000Y-90550000D02*
X143800000Y-90550000D01*
X140742929Y-89790000D02*
X141140000Y-89790000D01*
X140742929Y-90550000D02*
X141140000Y-90550000D01*
X141140000Y-91440000D02*
X143800000Y-91440000D01*
X143800000Y-92330000D02*
X149800000Y-92330000D01*
X149800000Y-92330000D02*
X149800000Y-93090000D01*
X149800000Y-93090000D02*
X143800000Y-93090000D01*
X140742929Y-92330000D02*
X141140000Y-92330000D01*
X140742929Y-93090000D02*
X141140000Y-93090000D01*
X141140000Y-93980000D02*
X143800000Y-93980000D01*
X143800000Y-94870000D02*
X149800000Y-94870000D01*
X149800000Y-94870000D02*
X149800000Y-95630000D01*
X149800000Y-95630000D02*
X143800000Y-95630000D01*
X140742929Y-94870000D02*
X141140000Y-94870000D01*
X140742929Y-95630000D02*
X141140000Y-95630000D01*
X138430000Y-82550000D02*
X138430000Y-81280000D01*
X138430000Y-81280000D02*
X139700000Y-81280000D01*
%TO.C,D1*%
X127655000Y-59965000D02*
X127655000Y-59500000D01*
X127655000Y-57340000D02*
X127655000Y-56875000D01*
X122840521Y-57339571D02*
G75*
G02*
X127349684Y-57340000I2254479J-1080429D01*
G01*
X122840521Y-59500429D02*
G75*
G03*
X127349684Y-59500000I2254479J1080429D01*
G01*
X122307185Y-57339173D02*
G75*
G02*
X127655000Y-56875170I2787815J-1080827D01*
G01*
X122307185Y-59500827D02*
G75*
G03*
X127655000Y-59964830I2787815J1080827D01*
G01*
%TO.C,h*%
D10*
X144565714Y-52332380D02*
X144565714Y-51332380D01*
X144994285Y-52332380D02*
X144994285Y-51808571D01*
X144946666Y-51713333D01*
X144851428Y-51665714D01*
X144708571Y-51665714D01*
X144613333Y-51713333D01*
X144565714Y-51760952D01*
X106465714Y-90432380D02*
X106465714Y-89432380D01*
X106894285Y-90432380D02*
X106894285Y-89908571D01*
X106846666Y-89813333D01*
X106751428Y-89765714D01*
X106608571Y-89765714D01*
X106513333Y-89813333D01*
X106465714Y-89860952D01*
%TO.C,U1*%
X124968095Y-65702380D02*
X124968095Y-66511904D01*
X125015714Y-66607142D01*
X125063333Y-66654761D01*
X125158571Y-66702380D01*
X125349047Y-66702380D01*
X125444285Y-66654761D01*
X125491904Y-66607142D01*
X125539523Y-66511904D01*
X125539523Y-65702380D01*
X126539523Y-66702380D02*
X125968095Y-66702380D01*
X126253809Y-66702380D02*
X126253809Y-65702380D01*
X126158571Y-65845238D01*
X126063333Y-65940476D01*
X125968095Y-65988095D01*
%TO.C,SW3*%
X124142666Y-95908761D02*
X124285523Y-95956380D01*
X124523619Y-95956380D01*
X124618857Y-95908761D01*
X124666476Y-95861142D01*
X124714095Y-95765904D01*
X124714095Y-95670666D01*
X124666476Y-95575428D01*
X124618857Y-95527809D01*
X124523619Y-95480190D01*
X124333142Y-95432571D01*
X124237904Y-95384952D01*
X124190285Y-95337333D01*
X124142666Y-95242095D01*
X124142666Y-95146857D01*
X124190285Y-95051619D01*
X124237904Y-95004000D01*
X124333142Y-94956380D01*
X124571238Y-94956380D01*
X124714095Y-95004000D01*
X125047428Y-94956380D02*
X125285523Y-95956380D01*
X125476000Y-95242095D01*
X125666476Y-95956380D01*
X125904571Y-94956380D01*
X126190285Y-94956380D02*
X126809333Y-94956380D01*
X126476000Y-95337333D01*
X126618857Y-95337333D01*
X126714095Y-95384952D01*
X126761714Y-95432571D01*
X126809333Y-95527809D01*
X126809333Y-95765904D01*
X126761714Y-95861142D01*
X126714095Y-95908761D01*
X126618857Y-95956380D01*
X126333142Y-95956380D01*
X126237904Y-95908761D01*
X126190285Y-95861142D01*
%TO.C,SW2*%
X109716666Y-82414761D02*
X109859523Y-82462380D01*
X110097619Y-82462380D01*
X110192857Y-82414761D01*
X110240476Y-82367142D01*
X110288095Y-82271904D01*
X110288095Y-82176666D01*
X110240476Y-82081428D01*
X110192857Y-82033809D01*
X110097619Y-81986190D01*
X109907142Y-81938571D01*
X109811904Y-81890952D01*
X109764285Y-81843333D01*
X109716666Y-81748095D01*
X109716666Y-81652857D01*
X109764285Y-81557619D01*
X109811904Y-81510000D01*
X109907142Y-81462380D01*
X110145238Y-81462380D01*
X110288095Y-81510000D01*
X110621428Y-81462380D02*
X110859523Y-82462380D01*
X111050000Y-81748095D01*
X111240476Y-82462380D01*
X111478571Y-81462380D01*
X111811904Y-81557619D02*
X111859523Y-81510000D01*
X111954761Y-81462380D01*
X112192857Y-81462380D01*
X112288095Y-81510000D01*
X112335714Y-81557619D01*
X112383333Y-81652857D01*
X112383333Y-81748095D01*
X112335714Y-81890952D01*
X111764285Y-82462380D01*
X112383333Y-82462380D01*
%TO.C,SW1*%
X109414761Y-64963333D02*
X109462380Y-64820476D01*
X109462380Y-64582380D01*
X109414761Y-64487142D01*
X109367142Y-64439523D01*
X109271904Y-64391904D01*
X109176666Y-64391904D01*
X109081428Y-64439523D01*
X109033809Y-64487142D01*
X108986190Y-64582380D01*
X108938571Y-64772857D01*
X108890952Y-64868095D01*
X108843333Y-64915714D01*
X108748095Y-64963333D01*
X108652857Y-64963333D01*
X108557619Y-64915714D01*
X108510000Y-64868095D01*
X108462380Y-64772857D01*
X108462380Y-64534761D01*
X108510000Y-64391904D01*
X108462380Y-64058571D02*
X109462380Y-63820476D01*
X108748095Y-63630000D01*
X109462380Y-63439523D01*
X108462380Y-63201428D01*
X109462380Y-62296666D02*
X109462380Y-62868095D01*
X109462380Y-62582380D02*
X108462380Y-62582380D01*
X108605238Y-62677619D01*
X108700476Y-62772857D01*
X108748095Y-62868095D01*
%TO.C,R5*%
X124293333Y-80632380D02*
X123960000Y-80156190D01*
X123721904Y-80632380D02*
X123721904Y-79632380D01*
X124102857Y-79632380D01*
X124198095Y-79680000D01*
X124245714Y-79727619D01*
X124293333Y-79822857D01*
X124293333Y-79965714D01*
X124245714Y-80060952D01*
X124198095Y-80108571D01*
X124102857Y-80156190D01*
X123721904Y-80156190D01*
X125198095Y-79632380D02*
X124721904Y-79632380D01*
X124674285Y-80108571D01*
X124721904Y-80060952D01*
X124817142Y-80013333D01*
X125055238Y-80013333D01*
X125150476Y-80060952D01*
X125198095Y-80108571D01*
X125245714Y-80203809D01*
X125245714Y-80441904D01*
X125198095Y-80537142D01*
X125150476Y-80584761D01*
X125055238Y-80632380D01*
X124817142Y-80632380D01*
X124721904Y-80584761D01*
X124674285Y-80537142D01*
%TO.C,R4*%
X110323333Y-87912380D02*
X109990000Y-87436190D01*
X109751904Y-87912380D02*
X109751904Y-86912380D01*
X110132857Y-86912380D01*
X110228095Y-86960000D01*
X110275714Y-87007619D01*
X110323333Y-87102857D01*
X110323333Y-87245714D01*
X110275714Y-87340952D01*
X110228095Y-87388571D01*
X110132857Y-87436190D01*
X109751904Y-87436190D01*
X111180476Y-87245714D02*
X111180476Y-87912380D01*
X110942380Y-86864761D02*
X110704285Y-87579047D01*
X111323333Y-87579047D01*
%TO.C,R3*%
X133183333Y-69032380D02*
X132850000Y-68556190D01*
X132611904Y-69032380D02*
X132611904Y-68032380D01*
X132992857Y-68032380D01*
X133088095Y-68080000D01*
X133135714Y-68127619D01*
X133183333Y-68222857D01*
X133183333Y-68365714D01*
X133135714Y-68460952D01*
X133088095Y-68508571D01*
X132992857Y-68556190D01*
X132611904Y-68556190D01*
X133516666Y-68032380D02*
X134135714Y-68032380D01*
X133802380Y-68413333D01*
X133945238Y-68413333D01*
X134040476Y-68460952D01*
X134088095Y-68508571D01*
X134135714Y-68603809D01*
X134135714Y-68841904D01*
X134088095Y-68937142D01*
X134040476Y-68984761D01*
X133945238Y-69032380D01*
X133659523Y-69032380D01*
X133564285Y-68984761D01*
X133516666Y-68937142D01*
%TO.C,R2*%
X136993333Y-66492380D02*
X136660000Y-66016190D01*
X136421904Y-66492380D02*
X136421904Y-65492380D01*
X136802857Y-65492380D01*
X136898095Y-65540000D01*
X136945714Y-65587619D01*
X136993333Y-65682857D01*
X136993333Y-65825714D01*
X136945714Y-65920952D01*
X136898095Y-65968571D01*
X136802857Y-66016190D01*
X136421904Y-66016190D01*
X137374285Y-65587619D02*
X137421904Y-65540000D01*
X137517142Y-65492380D01*
X137755238Y-65492380D01*
X137850476Y-65540000D01*
X137898095Y-65587619D01*
X137945714Y-65682857D01*
X137945714Y-65778095D01*
X137898095Y-65920952D01*
X137326666Y-66492380D01*
X137945714Y-66492380D01*
%TO.C,R1*%
X140803333Y-63952380D02*
X140470000Y-63476190D01*
X140231904Y-63952380D02*
X140231904Y-62952380D01*
X140612857Y-62952380D01*
X140708095Y-63000000D01*
X140755714Y-63047619D01*
X140803333Y-63142857D01*
X140803333Y-63285714D01*
X140755714Y-63380952D01*
X140708095Y-63428571D01*
X140612857Y-63476190D01*
X140231904Y-63476190D01*
X141755714Y-63952380D02*
X141184285Y-63952380D01*
X141470000Y-63952380D02*
X141470000Y-62952380D01*
X141374761Y-63095238D01*
X141279523Y-63190476D01*
X141184285Y-63238095D01*
%TO.C,J3*%
X112696666Y-66342380D02*
X112696666Y-67056666D01*
X112649047Y-67199523D01*
X112553809Y-67294761D01*
X112410952Y-67342380D01*
X112315714Y-67342380D01*
X113077619Y-66342380D02*
X113696666Y-66342380D01*
X113363333Y-66723333D01*
X113506190Y-66723333D01*
X113601428Y-66770952D01*
X113649047Y-66818571D01*
X113696666Y-66913809D01*
X113696666Y-67151904D01*
X113649047Y-67247142D01*
X113601428Y-67294761D01*
X113506190Y-67342380D01*
X113220476Y-67342380D01*
X113125238Y-67294761D01*
X113077619Y-67247142D01*
%TO.C,J2*%
X116506666Y-66382380D02*
X116506666Y-67096666D01*
X116459047Y-67239523D01*
X116363809Y-67334761D01*
X116220952Y-67382380D01*
X116125714Y-67382380D01*
X116935238Y-66477619D02*
X116982857Y-66430000D01*
X117078095Y-66382380D01*
X117316190Y-66382380D01*
X117411428Y-66430000D01*
X117459047Y-66477619D01*
X117506666Y-66572857D01*
X117506666Y-66668095D01*
X117459047Y-66810952D01*
X116887619Y-67382380D01*
X117506666Y-67382380D01*
%TO.C,J1*%
X143751666Y-79732380D02*
X143751666Y-80446666D01*
X143704047Y-80589523D01*
X143608809Y-80684761D01*
X143465952Y-80732380D01*
X143370714Y-80732380D01*
X144751666Y-80732380D02*
X144180238Y-80732380D01*
X144465952Y-80732380D02*
X144465952Y-79732380D01*
X144370714Y-79875238D01*
X144275476Y-79970476D01*
X144180238Y-80018095D01*
%TO.C,D1*%
X124356904Y-62832380D02*
X124356904Y-61832380D01*
X124595000Y-61832380D01*
X124737857Y-61880000D01*
X124833095Y-61975238D01*
X124880714Y-62070476D01*
X124928333Y-62260952D01*
X124928333Y-62403809D01*
X124880714Y-62594285D01*
X124833095Y-62689523D01*
X124737857Y-62784761D01*
X124595000Y-62832380D01*
X124356904Y-62832380D01*
X125880714Y-62832380D02*
X125309285Y-62832380D01*
X125595000Y-62832380D02*
X125595000Y-61832380D01*
X125499761Y-61975238D01*
X125404523Y-62070476D01*
X125309285Y-62118095D01*
%TD*%
M02*
