%TF.GenerationSoftware,KiCad,Pcbnew,5.1.10-88a1d61d58~88~ubuntu18.04.1*%
%TF.CreationDate,2021-11-17T00:59:38+01:00*%
%TF.ProjectId,tuchoVen,74756368-6f56-4656-9e2e-6b696361645f,rev?*%
%TF.SameCoordinates,Original*%
%TF.FileFunction,Legend,Top*%
%TF.FilePolarity,Positive*%
%FSLAX46Y46*%
G04 Gerber Fmt 4.6, Leading zero omitted, Abs format (unit mm)*
G04 Created by KiCad (PCBNEW 5.1.10-88a1d61d58~88~ubuntu18.04.1) date 2021-11-17 00:59:38*
%MOMM*%
%LPD*%
G01*
G04 APERTURE LIST*
%ADD10C,0.150000*%
%ADD11C,0.120000*%
G04 APERTURE END LIST*
D10*
X204146190Y-79171904D02*
X204108095Y-79248095D01*
X204108095Y-79400476D01*
X204146190Y-79476666D01*
X204222380Y-79514761D01*
X204260476Y-79514761D01*
X204336666Y-79476666D01*
X204374761Y-79400476D01*
X204374761Y-79286190D01*
X204412857Y-79210000D01*
X204489047Y-79171904D01*
X204527142Y-79171904D01*
X204603333Y-79210000D01*
X204641428Y-79286190D01*
X204641428Y-79400476D01*
X204603333Y-79476666D01*
X204146190Y-80200476D02*
X204108095Y-80124285D01*
X204108095Y-79971904D01*
X204146190Y-79895714D01*
X204184285Y-79857619D01*
X204260476Y-79819523D01*
X204489047Y-79819523D01*
X204565238Y-79857619D01*
X204603333Y-79895714D01*
X204641428Y-79971904D01*
X204641428Y-80124285D01*
X204603333Y-80200476D01*
X204108095Y-80543333D02*
X204908095Y-80543333D01*
X204412857Y-80619523D02*
X204108095Y-80848095D01*
X204641428Y-80848095D02*
X204336666Y-80543333D01*
X201568095Y-78790952D02*
X202101428Y-78790952D01*
X202025238Y-78790952D02*
X202063333Y-78829047D01*
X202101428Y-78905238D01*
X202101428Y-79019523D01*
X202063333Y-79095714D01*
X201987142Y-79133809D01*
X201568095Y-79133809D01*
X201987142Y-79133809D02*
X202063333Y-79171904D01*
X202101428Y-79248095D01*
X202101428Y-79362380D01*
X202063333Y-79438571D01*
X201987142Y-79476666D01*
X201568095Y-79476666D01*
X201568095Y-79857619D02*
X202101428Y-79857619D01*
X202368095Y-79857619D02*
X202330000Y-79819523D01*
X202291904Y-79857619D01*
X202330000Y-79895714D01*
X202368095Y-79857619D01*
X202291904Y-79857619D01*
X201606190Y-80200476D02*
X201568095Y-80276666D01*
X201568095Y-80429047D01*
X201606190Y-80505238D01*
X201682380Y-80543333D01*
X201720476Y-80543333D01*
X201796666Y-80505238D01*
X201834761Y-80429047D01*
X201834761Y-80314761D01*
X201872857Y-80238571D01*
X201949047Y-80200476D01*
X201987142Y-80200476D01*
X202063333Y-80238571D01*
X202101428Y-80314761D01*
X202101428Y-80429047D01*
X202063333Y-80505238D01*
X201568095Y-81000476D02*
X201606190Y-80924285D01*
X201644285Y-80886190D01*
X201720476Y-80848095D01*
X201949047Y-80848095D01*
X202025238Y-80886190D01*
X202063333Y-80924285D01*
X202101428Y-81000476D01*
X202101428Y-81114761D01*
X202063333Y-81190952D01*
X202025238Y-81229047D01*
X201949047Y-81267142D01*
X201720476Y-81267142D01*
X201644285Y-81229047D01*
X201606190Y-81190952D01*
X201568095Y-81114761D01*
X201568095Y-81000476D01*
X199028095Y-78790952D02*
X199561428Y-78790952D01*
X199485238Y-78790952D02*
X199523333Y-78829047D01*
X199561428Y-78905238D01*
X199561428Y-79019523D01*
X199523333Y-79095714D01*
X199447142Y-79133809D01*
X199028095Y-79133809D01*
X199447142Y-79133809D02*
X199523333Y-79171904D01*
X199561428Y-79248095D01*
X199561428Y-79362380D01*
X199523333Y-79438571D01*
X199447142Y-79476666D01*
X199028095Y-79476666D01*
X199028095Y-79971904D02*
X199066190Y-79895714D01*
X199104285Y-79857619D01*
X199180476Y-79819523D01*
X199409047Y-79819523D01*
X199485238Y-79857619D01*
X199523333Y-79895714D01*
X199561428Y-79971904D01*
X199561428Y-80086190D01*
X199523333Y-80162380D01*
X199485238Y-80200476D01*
X199409047Y-80238571D01*
X199180476Y-80238571D01*
X199104285Y-80200476D01*
X199066190Y-80162380D01*
X199028095Y-80086190D01*
X199028095Y-79971904D01*
X199066190Y-80543333D02*
X199028095Y-80619523D01*
X199028095Y-80771904D01*
X199066190Y-80848095D01*
X199142380Y-80886190D01*
X199180476Y-80886190D01*
X199256666Y-80848095D01*
X199294761Y-80771904D01*
X199294761Y-80657619D01*
X199332857Y-80581428D01*
X199409047Y-80543333D01*
X199447142Y-80543333D01*
X199523333Y-80581428D01*
X199561428Y-80657619D01*
X199561428Y-80771904D01*
X199523333Y-80848095D01*
X199028095Y-81229047D02*
X199561428Y-81229047D01*
X199828095Y-81229047D02*
X199790000Y-81190952D01*
X199751904Y-81229047D01*
X199790000Y-81267142D01*
X199828095Y-81229047D01*
X199751904Y-81229047D01*
X196397619Y-79105238D02*
X197064285Y-79105238D01*
X196873809Y-79105238D02*
X196969047Y-79152857D01*
X197016666Y-79200476D01*
X197064285Y-79295714D01*
X197064285Y-79390952D01*
X196445238Y-80105238D02*
X196397619Y-80010000D01*
X196397619Y-79819523D01*
X196445238Y-79724285D01*
X196540476Y-79676666D01*
X196921428Y-79676666D01*
X197016666Y-79724285D01*
X197064285Y-79819523D01*
X197064285Y-80010000D01*
X197016666Y-80105238D01*
X196921428Y-80152857D01*
X196826190Y-80152857D01*
X196730952Y-79676666D01*
X196445238Y-80533809D02*
X196397619Y-80629047D01*
X196397619Y-80819523D01*
X196445238Y-80914761D01*
X196540476Y-80962380D01*
X196588095Y-80962380D01*
X196683333Y-80914761D01*
X196730952Y-80819523D01*
X196730952Y-80676666D01*
X196778571Y-80581428D01*
X196873809Y-80533809D01*
X196921428Y-80533809D01*
X197016666Y-80581428D01*
X197064285Y-80676666D01*
X197064285Y-80819523D01*
X197016666Y-80914761D01*
X194524285Y-79319523D02*
X193714761Y-79319523D01*
X193619523Y-79271904D01*
X193571904Y-79224285D01*
X193524285Y-79129047D01*
X193524285Y-78986190D01*
X193571904Y-78890952D01*
X193905238Y-79319523D02*
X193857619Y-79224285D01*
X193857619Y-79033809D01*
X193905238Y-78938571D01*
X193952857Y-78890952D01*
X194048095Y-78843333D01*
X194333809Y-78843333D01*
X194429047Y-78890952D01*
X194476666Y-78938571D01*
X194524285Y-79033809D01*
X194524285Y-79224285D01*
X194476666Y-79319523D01*
X194524285Y-79795714D02*
X193857619Y-79795714D01*
X194429047Y-79795714D02*
X194476666Y-79843333D01*
X194524285Y-79938571D01*
X194524285Y-80081428D01*
X194476666Y-80176666D01*
X194381428Y-80224285D01*
X193857619Y-80224285D01*
X193857619Y-81129047D02*
X194857619Y-81129047D01*
X193905238Y-81129047D02*
X193857619Y-81033809D01*
X193857619Y-80843333D01*
X193905238Y-80748095D01*
X193952857Y-80700476D01*
X194048095Y-80652857D01*
X194333809Y-80652857D01*
X194429047Y-80700476D01*
X194476666Y-80748095D01*
X194524285Y-80843333D01*
X194524285Y-81033809D01*
X194476666Y-81129047D01*
X207224285Y-79152857D02*
X206557619Y-79390952D01*
X207224285Y-79629047D01*
X206938571Y-80010000D02*
X206938571Y-80771904D01*
X206557619Y-80390952D02*
X207319523Y-80390952D01*
X208483809Y-77002142D02*
X208445714Y-77049761D01*
X208331428Y-77097380D01*
X208255238Y-77097380D01*
X208140952Y-77049761D01*
X208064761Y-76954523D01*
X208026666Y-76859285D01*
X207988571Y-76668809D01*
X207988571Y-76525952D01*
X208026666Y-76335476D01*
X208064761Y-76240238D01*
X208140952Y-76145000D01*
X208255238Y-76097380D01*
X208331428Y-76097380D01*
X208445714Y-76145000D01*
X208483809Y-76192619D01*
X209283809Y-77002142D02*
X209245714Y-77049761D01*
X209131428Y-77097380D01*
X209055238Y-77097380D01*
X208940952Y-77049761D01*
X208864761Y-76954523D01*
X208826666Y-76859285D01*
X208788571Y-76668809D01*
X208788571Y-76525952D01*
X208826666Y-76335476D01*
X208864761Y-76240238D01*
X208940952Y-76145000D01*
X209055238Y-76097380D01*
X209131428Y-76097380D01*
X209245714Y-76145000D01*
X209283809Y-76192619D01*
X209626666Y-77002142D02*
X209664761Y-77049761D01*
X209626666Y-77097380D01*
X209588571Y-77049761D01*
X209626666Y-77002142D01*
X209626666Y-77097380D01*
X209626666Y-76478333D02*
X209664761Y-76525952D01*
X209626666Y-76573571D01*
X209588571Y-76525952D01*
X209626666Y-76478333D01*
X209626666Y-76573571D01*
X210502857Y-76097380D02*
X210960000Y-76097380D01*
X210731428Y-77097380D02*
X210731428Y-76097380D01*
X211569523Y-76430714D02*
X211569523Y-77097380D01*
X211226666Y-76430714D02*
X211226666Y-76954523D01*
X211264761Y-77049761D01*
X211340952Y-77097380D01*
X211455238Y-77097380D01*
X211531428Y-77049761D01*
X211569523Y-77002142D01*
X212293333Y-77049761D02*
X212217142Y-77097380D01*
X212064761Y-77097380D01*
X211988571Y-77049761D01*
X211950476Y-77002142D01*
X211912380Y-76906904D01*
X211912380Y-76621190D01*
X211950476Y-76525952D01*
X211988571Y-76478333D01*
X212064761Y-76430714D01*
X212217142Y-76430714D01*
X212293333Y-76478333D01*
X212636190Y-77097380D02*
X212636190Y-76097380D01*
X212979047Y-77097380D02*
X212979047Y-76573571D01*
X212940952Y-76478333D01*
X212864761Y-76430714D01*
X212750476Y-76430714D01*
X212674285Y-76478333D01*
X212636190Y-76525952D01*
X213474285Y-77097380D02*
X213398095Y-77049761D01*
X213360000Y-77002142D01*
X213321904Y-76906904D01*
X213321904Y-76621190D01*
X213360000Y-76525952D01*
X213398095Y-76478333D01*
X213474285Y-76430714D01*
X213588571Y-76430714D01*
X213664761Y-76478333D01*
X213702857Y-76525952D01*
X213740952Y-76621190D01*
X213740952Y-76906904D01*
X213702857Y-77002142D01*
X213664761Y-77049761D01*
X213588571Y-77097380D01*
X213474285Y-77097380D01*
X214693333Y-77097380D02*
X214693333Y-76097380D01*
X214960000Y-76811666D01*
X215226666Y-76097380D01*
X215226666Y-77097380D01*
X215912380Y-77049761D02*
X215836190Y-77097380D01*
X215683809Y-77097380D01*
X215607619Y-77049761D01*
X215569523Y-76954523D01*
X215569523Y-76573571D01*
X215607619Y-76478333D01*
X215683809Y-76430714D01*
X215836190Y-76430714D01*
X215912380Y-76478333D01*
X215950476Y-76573571D01*
X215950476Y-76668809D01*
X215569523Y-76764047D01*
X215836190Y-76049761D02*
X215721904Y-76192619D01*
X216293333Y-76430714D02*
X216293333Y-77097380D01*
X216293333Y-76525952D02*
X216331428Y-76478333D01*
X216407619Y-76430714D01*
X216521904Y-76430714D01*
X216598095Y-76478333D01*
X216636190Y-76573571D01*
X216636190Y-77097380D01*
X217360000Y-77097380D02*
X217360000Y-76097380D01*
X217360000Y-77049761D02*
X217283809Y-77097380D01*
X217131428Y-77097380D01*
X217055238Y-77049761D01*
X217017142Y-77002142D01*
X216979047Y-76906904D01*
X216979047Y-76621190D01*
X217017142Y-76525952D01*
X217055238Y-76478333D01*
X217131428Y-76430714D01*
X217283809Y-76430714D01*
X217360000Y-76478333D01*
X218045714Y-77049761D02*
X217969523Y-77097380D01*
X217817142Y-77097380D01*
X217740952Y-77049761D01*
X217702857Y-76954523D01*
X217702857Y-76573571D01*
X217740952Y-76478333D01*
X217817142Y-76430714D01*
X217969523Y-76430714D01*
X218045714Y-76478333D01*
X218083809Y-76573571D01*
X218083809Y-76668809D01*
X217702857Y-76764047D01*
X218350476Y-76430714D02*
X218769523Y-76430714D01*
X218350476Y-77097380D01*
X218769523Y-77097380D01*
X211988571Y-77842619D02*
X212026666Y-77795000D01*
X212102857Y-77747380D01*
X212293333Y-77747380D01*
X212369523Y-77795000D01*
X212407619Y-77842619D01*
X212445714Y-77937857D01*
X212445714Y-78033095D01*
X212407619Y-78175952D01*
X211950476Y-78747380D01*
X212445714Y-78747380D01*
X212940952Y-77747380D02*
X213017142Y-77747380D01*
X213093333Y-77795000D01*
X213131428Y-77842619D01*
X213169523Y-77937857D01*
X213207619Y-78128333D01*
X213207619Y-78366428D01*
X213169523Y-78556904D01*
X213131428Y-78652142D01*
X213093333Y-78699761D01*
X213017142Y-78747380D01*
X212940952Y-78747380D01*
X212864761Y-78699761D01*
X212826666Y-78652142D01*
X212788571Y-78556904D01*
X212750476Y-78366428D01*
X212750476Y-78128333D01*
X212788571Y-77937857D01*
X212826666Y-77842619D01*
X212864761Y-77795000D01*
X212940952Y-77747380D01*
X213512380Y-77842619D02*
X213550476Y-77795000D01*
X213626666Y-77747380D01*
X213817142Y-77747380D01*
X213893333Y-77795000D01*
X213931428Y-77842619D01*
X213969523Y-77937857D01*
X213969523Y-78033095D01*
X213931428Y-78175952D01*
X213474285Y-78747380D01*
X213969523Y-78747380D01*
X214731428Y-78747380D02*
X214274285Y-78747380D01*
X214502857Y-78747380D02*
X214502857Y-77747380D01*
X214426666Y-77890238D01*
X214350476Y-77985476D01*
X214274285Y-78033095D01*
X207470952Y-51252380D02*
X207470952Y-50252380D01*
X207851904Y-50252380D01*
X207947142Y-50300000D01*
X207994761Y-50347619D01*
X208042380Y-50442857D01*
X208042380Y-50585714D01*
X207994761Y-50680952D01*
X207947142Y-50728571D01*
X207851904Y-50776190D01*
X207470952Y-50776190D01*
X208470952Y-51252380D02*
X208470952Y-50585714D01*
X208470952Y-50776190D02*
X208518571Y-50680952D01*
X208566190Y-50633333D01*
X208661428Y-50585714D01*
X208756666Y-50585714D01*
X209232857Y-51252380D02*
X209137619Y-51204761D01*
X209090000Y-51157142D01*
X209042380Y-51061904D01*
X209042380Y-50776190D01*
X209090000Y-50680952D01*
X209137619Y-50633333D01*
X209232857Y-50585714D01*
X209375714Y-50585714D01*
X209470952Y-50633333D01*
X209518571Y-50680952D01*
X209566190Y-50776190D01*
X209566190Y-51061904D01*
X209518571Y-51157142D01*
X209470952Y-51204761D01*
X209375714Y-51252380D01*
X209232857Y-51252380D01*
X209851904Y-50585714D02*
X210232857Y-50585714D01*
X209994761Y-51252380D02*
X209994761Y-50395238D01*
X210042380Y-50300000D01*
X210137619Y-50252380D01*
X210232857Y-50252380D01*
X210947142Y-51204761D02*
X210851904Y-51252380D01*
X210661428Y-51252380D01*
X210566190Y-51204761D01*
X210518571Y-51109523D01*
X210518571Y-50728571D01*
X210566190Y-50633333D01*
X210661428Y-50585714D01*
X210851904Y-50585714D01*
X210947142Y-50633333D01*
X210994761Y-50728571D01*
X210994761Y-50823809D01*
X210518571Y-50919047D01*
X211280476Y-50252380D02*
X211613809Y-51252380D01*
X211947142Y-50252380D01*
X212661428Y-51204761D02*
X212566190Y-51252380D01*
X212375714Y-51252380D01*
X212280476Y-51204761D01*
X212232857Y-51109523D01*
X212232857Y-50728571D01*
X212280476Y-50633333D01*
X212375714Y-50585714D01*
X212566190Y-50585714D01*
X212661428Y-50633333D01*
X212709047Y-50728571D01*
X212709047Y-50823809D01*
X212232857Y-50919047D01*
X213137619Y-50585714D02*
X213137619Y-51252380D01*
X213137619Y-50680952D02*
X213185238Y-50633333D01*
X213280476Y-50585714D01*
X213423333Y-50585714D01*
X213518571Y-50633333D01*
X213566190Y-50728571D01*
X213566190Y-51252380D01*
X214994761Y-50252380D02*
X215090000Y-50252380D01*
X215185238Y-50300000D01*
X215232857Y-50347619D01*
X215280476Y-50442857D01*
X215328095Y-50633333D01*
X215328095Y-50871428D01*
X215280476Y-51061904D01*
X215232857Y-51157142D01*
X215185238Y-51204761D01*
X215090000Y-51252380D01*
X214994761Y-51252380D01*
X214899523Y-51204761D01*
X214851904Y-51157142D01*
X214804285Y-51061904D01*
X214756666Y-50871428D01*
X214756666Y-50633333D01*
X214804285Y-50442857D01*
X214851904Y-50347619D01*
X214899523Y-50300000D01*
X214994761Y-50252380D01*
X215756666Y-51157142D02*
X215804285Y-51204761D01*
X215756666Y-51252380D01*
X215709047Y-51204761D01*
X215756666Y-51157142D01*
X215756666Y-51252380D01*
X216756666Y-51252380D02*
X216185238Y-51252380D01*
X216470952Y-51252380D02*
X216470952Y-50252380D01*
X216375714Y-50395238D01*
X216280476Y-50490476D01*
X216185238Y-50538095D01*
D11*
%TO.C,D1*%
X212280000Y-52685000D02*
X211815000Y-52685000D01*
X214905000Y-52685000D02*
X214440000Y-52685000D01*
X214440827Y-58032815D02*
G75*
G03*
X214904830Y-52685000I-1080827J2787815D01*
G01*
X212279173Y-58032815D02*
G75*
G02*
X211815170Y-52685000I1080827J2787815D01*
G01*
X214440429Y-57499479D02*
G75*
G03*
X214440000Y-52990316I-1080429J2254479D01*
G01*
X212279571Y-57499479D02*
G75*
G02*
X212280000Y-52990316I1080429J2254479D01*
G01*
%TO.C,J1*%
X207010000Y-68580000D02*
X207010000Y-69850000D01*
X205740000Y-68580000D02*
X207010000Y-68580000D01*
X192660000Y-70892929D02*
X192660000Y-71290000D01*
X193420000Y-70892929D02*
X193420000Y-71290000D01*
X192660000Y-79950000D02*
X192660000Y-73950000D01*
X193420000Y-79950000D02*
X192660000Y-79950000D01*
X193420000Y-73950000D02*
X193420000Y-79950000D01*
X194310000Y-71290000D02*
X194310000Y-73950000D01*
X195200000Y-70892929D02*
X195200000Y-71290000D01*
X195960000Y-70892929D02*
X195960000Y-71290000D01*
X195200000Y-79950000D02*
X195200000Y-73950000D01*
X195960000Y-79950000D02*
X195200000Y-79950000D01*
X195960000Y-73950000D02*
X195960000Y-79950000D01*
X196850000Y-71290000D02*
X196850000Y-73950000D01*
X197740000Y-70892929D02*
X197740000Y-71290000D01*
X198500000Y-70892929D02*
X198500000Y-71290000D01*
X197740000Y-79950000D02*
X197740000Y-73950000D01*
X198500000Y-79950000D02*
X197740000Y-79950000D01*
X198500000Y-73950000D02*
X198500000Y-79950000D01*
X199390000Y-71290000D02*
X199390000Y-73950000D01*
X200280000Y-70892929D02*
X200280000Y-71290000D01*
X201040000Y-70892929D02*
X201040000Y-71290000D01*
X200280000Y-79950000D02*
X200280000Y-73950000D01*
X201040000Y-79950000D02*
X200280000Y-79950000D01*
X201040000Y-73950000D02*
X201040000Y-79950000D01*
X201930000Y-71290000D02*
X201930000Y-73950000D01*
X202820000Y-70892929D02*
X202820000Y-71290000D01*
X203580000Y-70892929D02*
X203580000Y-71290000D01*
X202820000Y-79950000D02*
X202820000Y-73950000D01*
X203580000Y-79950000D02*
X202820000Y-79950000D01*
X203580000Y-73950000D02*
X203580000Y-79950000D01*
X204470000Y-71290000D02*
X204470000Y-73950000D01*
X205360000Y-70960000D02*
X205360000Y-71290000D01*
X206120000Y-70960000D02*
X206120000Y-71290000D01*
X205460000Y-73950000D02*
X205460000Y-79950000D01*
X205580000Y-73950000D02*
X205580000Y-79950000D01*
X205700000Y-73950000D02*
X205700000Y-79950000D01*
X205820000Y-73950000D02*
X205820000Y-79950000D01*
X205940000Y-73950000D02*
X205940000Y-79950000D01*
X206060000Y-73950000D02*
X206060000Y-79950000D01*
X205360000Y-79950000D02*
X205360000Y-73950000D01*
X206120000Y-79950000D02*
X205360000Y-79950000D01*
X206120000Y-73950000D02*
X206120000Y-79950000D01*
X207070000Y-73950000D02*
X207070000Y-71290000D01*
X191710000Y-73950000D02*
X207070000Y-73950000D01*
X191710000Y-71290000D02*
X191710000Y-73950000D01*
X207070000Y-71290000D02*
X191710000Y-71290000D01*
%TO.C,R1*%
X196120000Y-49430000D02*
X196120000Y-49760000D01*
X202660000Y-49430000D02*
X196120000Y-49430000D01*
X202660000Y-49760000D02*
X202660000Y-49430000D01*
X196120000Y-52170000D02*
X196120000Y-51840000D01*
X202660000Y-52170000D02*
X196120000Y-52170000D01*
X202660000Y-51840000D02*
X202660000Y-52170000D01*
%TO.C,R2*%
X196120000Y-54510000D02*
X196120000Y-54840000D01*
X202660000Y-54510000D02*
X196120000Y-54510000D01*
X202660000Y-54840000D02*
X202660000Y-54510000D01*
X196120000Y-57250000D02*
X196120000Y-56920000D01*
X202660000Y-57250000D02*
X196120000Y-57250000D01*
X202660000Y-56920000D02*
X202660000Y-57250000D01*
%TO.C,R3*%
X178530000Y-62330000D02*
X178530000Y-62000000D01*
X171990000Y-62330000D02*
X178530000Y-62330000D01*
X171990000Y-62000000D02*
X171990000Y-62330000D01*
X178530000Y-59590000D02*
X178530000Y-59920000D01*
X171990000Y-59590000D02*
X178530000Y-59590000D01*
X171990000Y-59920000D02*
X171990000Y-59590000D01*
%TO.C,R4*%
X202660000Y-65810000D02*
X202660000Y-66140000D01*
X202660000Y-66140000D02*
X196120000Y-66140000D01*
X196120000Y-66140000D02*
X196120000Y-65810000D01*
X202660000Y-63730000D02*
X202660000Y-63400000D01*
X202660000Y-63400000D02*
X196120000Y-63400000D01*
X196120000Y-63400000D02*
X196120000Y-63730000D01*
%TO.C,R5*%
X202660000Y-62000000D02*
X202660000Y-62330000D01*
X202660000Y-62330000D02*
X196120000Y-62330000D01*
X196120000Y-62330000D02*
X196120000Y-62000000D01*
X202660000Y-59920000D02*
X202660000Y-59590000D01*
X202660000Y-59590000D02*
X196120000Y-59590000D01*
X196120000Y-59590000D02*
X196120000Y-59920000D01*
D10*
%TO.C,SW1*%
X172960000Y-72580000D02*
X172960000Y-74880000D01*
X172960000Y-66280000D02*
X172960000Y-68480000D01*
X177560000Y-66280000D02*
X177560000Y-74880000D01*
D11*
%TO.C,SW2*%
X171050000Y-52880000D02*
X171050000Y-54380000D01*
X172300000Y-56880000D02*
X176800000Y-56880000D01*
X178050000Y-54380000D02*
X178050000Y-52880000D01*
X176800000Y-50380000D02*
X172300000Y-50380000D01*
%TO.C,SW3*%
X211820000Y-69000000D02*
X216320000Y-69000000D01*
X210570000Y-65000000D02*
X210570000Y-66500000D01*
X216320000Y-62500000D02*
X211820000Y-62500000D01*
X217570000Y-66500000D02*
X217570000Y-65000000D01*
%TO.C,U1*%
X189340000Y-49470000D02*
X187690000Y-49470000D01*
X189340000Y-59750000D02*
X189340000Y-49470000D01*
X184040000Y-59750000D02*
X189340000Y-59750000D01*
X184040000Y-49470000D02*
X184040000Y-59750000D01*
X185690000Y-49470000D02*
X184040000Y-49470000D01*
X187690000Y-49470000D02*
G75*
G02*
X185690000Y-49470000I-1000000J0D01*
G01*
%TO.C,J2*%
X187850000Y-67350000D02*
X187850000Y-77480000D01*
X185530000Y-67350000D02*
X185530000Y-77480000D01*
%TO.C,J3*%
X182570000Y-69765000D02*
X182570000Y-77820000D01*
X180650000Y-69765000D02*
X180650000Y-77820000D01*
%TO.C,D1*%
D10*
X217772380Y-55983095D02*
X216772380Y-55983095D01*
X216772380Y-55745000D01*
X216820000Y-55602142D01*
X216915238Y-55506904D01*
X217010476Y-55459285D01*
X217200952Y-55411666D01*
X217343809Y-55411666D01*
X217534285Y-55459285D01*
X217629523Y-55506904D01*
X217724761Y-55602142D01*
X217772380Y-55745000D01*
X217772380Y-55983095D01*
X217772380Y-54459285D02*
X217772380Y-55030714D01*
X217772380Y-54745000D02*
X216772380Y-54745000D01*
X216915238Y-54840238D01*
X217010476Y-54935476D01*
X217058095Y-55030714D01*
%TO.C,J1*%
X207462380Y-74568333D02*
X208176666Y-74568333D01*
X208319523Y-74615952D01*
X208414761Y-74711190D01*
X208462380Y-74854047D01*
X208462380Y-74949285D01*
X208462380Y-73568333D02*
X208462380Y-74139761D01*
X208462380Y-73854047D02*
X207462380Y-73854047D01*
X207605238Y-73949285D01*
X207700476Y-74044523D01*
X207748095Y-74139761D01*
%TO.C,R1*%
X199223333Y-51252380D02*
X198890000Y-50776190D01*
X198651904Y-51252380D02*
X198651904Y-50252380D01*
X199032857Y-50252380D01*
X199128095Y-50300000D01*
X199175714Y-50347619D01*
X199223333Y-50442857D01*
X199223333Y-50585714D01*
X199175714Y-50680952D01*
X199128095Y-50728571D01*
X199032857Y-50776190D01*
X198651904Y-50776190D01*
X200175714Y-51252380D02*
X199604285Y-51252380D01*
X199890000Y-51252380D02*
X199890000Y-50252380D01*
X199794761Y-50395238D01*
X199699523Y-50490476D01*
X199604285Y-50538095D01*
%TO.C,R2*%
X199223333Y-56332380D02*
X198890000Y-55856190D01*
X198651904Y-56332380D02*
X198651904Y-55332380D01*
X199032857Y-55332380D01*
X199128095Y-55380000D01*
X199175714Y-55427619D01*
X199223333Y-55522857D01*
X199223333Y-55665714D01*
X199175714Y-55760952D01*
X199128095Y-55808571D01*
X199032857Y-55856190D01*
X198651904Y-55856190D01*
X199604285Y-55427619D02*
X199651904Y-55380000D01*
X199747142Y-55332380D01*
X199985238Y-55332380D01*
X200080476Y-55380000D01*
X200128095Y-55427619D01*
X200175714Y-55522857D01*
X200175714Y-55618095D01*
X200128095Y-55760952D01*
X199556666Y-56332380D01*
X200175714Y-56332380D01*
%TO.C,R3*%
X175093333Y-61412380D02*
X174760000Y-60936190D01*
X174521904Y-61412380D02*
X174521904Y-60412380D01*
X174902857Y-60412380D01*
X174998095Y-60460000D01*
X175045714Y-60507619D01*
X175093333Y-60602857D01*
X175093333Y-60745714D01*
X175045714Y-60840952D01*
X174998095Y-60888571D01*
X174902857Y-60936190D01*
X174521904Y-60936190D01*
X175426666Y-60412380D02*
X176045714Y-60412380D01*
X175712380Y-60793333D01*
X175855238Y-60793333D01*
X175950476Y-60840952D01*
X175998095Y-60888571D01*
X176045714Y-60983809D01*
X176045714Y-61221904D01*
X175998095Y-61317142D01*
X175950476Y-61364761D01*
X175855238Y-61412380D01*
X175569523Y-61412380D01*
X175474285Y-61364761D01*
X175426666Y-61317142D01*
%TO.C,R4*%
X199223333Y-65222380D02*
X198890000Y-64746190D01*
X198651904Y-65222380D02*
X198651904Y-64222380D01*
X199032857Y-64222380D01*
X199128095Y-64270000D01*
X199175714Y-64317619D01*
X199223333Y-64412857D01*
X199223333Y-64555714D01*
X199175714Y-64650952D01*
X199128095Y-64698571D01*
X199032857Y-64746190D01*
X198651904Y-64746190D01*
X200080476Y-64555714D02*
X200080476Y-65222380D01*
X199842380Y-64174761D02*
X199604285Y-64889047D01*
X200223333Y-64889047D01*
%TO.C,R5*%
X199223333Y-61412380D02*
X198890000Y-60936190D01*
X198651904Y-61412380D02*
X198651904Y-60412380D01*
X199032857Y-60412380D01*
X199128095Y-60460000D01*
X199175714Y-60507619D01*
X199223333Y-60602857D01*
X199223333Y-60745714D01*
X199175714Y-60840952D01*
X199128095Y-60888571D01*
X199032857Y-60936190D01*
X198651904Y-60936190D01*
X200128095Y-60412380D02*
X199651904Y-60412380D01*
X199604285Y-60888571D01*
X199651904Y-60840952D01*
X199747142Y-60793333D01*
X199985238Y-60793333D01*
X200080476Y-60840952D01*
X200128095Y-60888571D01*
X200175714Y-60983809D01*
X200175714Y-61221904D01*
X200128095Y-61317142D01*
X200080476Y-61364761D01*
X199985238Y-61412380D01*
X199747142Y-61412380D01*
X199651904Y-61364761D01*
X199604285Y-61317142D01*
%TO.C,SW1*%
X179264761Y-71313333D02*
X179312380Y-71170476D01*
X179312380Y-70932380D01*
X179264761Y-70837142D01*
X179217142Y-70789523D01*
X179121904Y-70741904D01*
X179026666Y-70741904D01*
X178931428Y-70789523D01*
X178883809Y-70837142D01*
X178836190Y-70932380D01*
X178788571Y-71122857D01*
X178740952Y-71218095D01*
X178693333Y-71265714D01*
X178598095Y-71313333D01*
X178502857Y-71313333D01*
X178407619Y-71265714D01*
X178360000Y-71218095D01*
X178312380Y-71122857D01*
X178312380Y-70884761D01*
X178360000Y-70741904D01*
X178312380Y-70408571D02*
X179312380Y-70170476D01*
X178598095Y-69980000D01*
X179312380Y-69789523D01*
X178312380Y-69551428D01*
X179312380Y-68646666D02*
X179312380Y-69218095D01*
X179312380Y-68932380D02*
X178312380Y-68932380D01*
X178455238Y-69027619D01*
X178550476Y-69122857D01*
X178598095Y-69218095D01*
%TO.C,SW2*%
X173216666Y-53744761D02*
X173359523Y-53792380D01*
X173597619Y-53792380D01*
X173692857Y-53744761D01*
X173740476Y-53697142D01*
X173788095Y-53601904D01*
X173788095Y-53506666D01*
X173740476Y-53411428D01*
X173692857Y-53363809D01*
X173597619Y-53316190D01*
X173407142Y-53268571D01*
X173311904Y-53220952D01*
X173264285Y-53173333D01*
X173216666Y-53078095D01*
X173216666Y-52982857D01*
X173264285Y-52887619D01*
X173311904Y-52840000D01*
X173407142Y-52792380D01*
X173645238Y-52792380D01*
X173788095Y-52840000D01*
X174121428Y-52792380D02*
X174359523Y-53792380D01*
X174550000Y-53078095D01*
X174740476Y-53792380D01*
X174978571Y-52792380D01*
X175311904Y-52887619D02*
X175359523Y-52840000D01*
X175454761Y-52792380D01*
X175692857Y-52792380D01*
X175788095Y-52840000D01*
X175835714Y-52887619D01*
X175883333Y-52982857D01*
X175883333Y-53078095D01*
X175835714Y-53220952D01*
X175264285Y-53792380D01*
X175883333Y-53792380D01*
%TO.C,SW3*%
X212736666Y-66444761D02*
X212879523Y-66492380D01*
X213117619Y-66492380D01*
X213212857Y-66444761D01*
X213260476Y-66397142D01*
X213308095Y-66301904D01*
X213308095Y-66206666D01*
X213260476Y-66111428D01*
X213212857Y-66063809D01*
X213117619Y-66016190D01*
X212927142Y-65968571D01*
X212831904Y-65920952D01*
X212784285Y-65873333D01*
X212736666Y-65778095D01*
X212736666Y-65682857D01*
X212784285Y-65587619D01*
X212831904Y-65540000D01*
X212927142Y-65492380D01*
X213165238Y-65492380D01*
X213308095Y-65540000D01*
X213641428Y-65492380D02*
X213879523Y-66492380D01*
X214070000Y-65778095D01*
X214260476Y-66492380D01*
X214498571Y-65492380D01*
X214784285Y-65492380D02*
X215403333Y-65492380D01*
X215070000Y-65873333D01*
X215212857Y-65873333D01*
X215308095Y-65920952D01*
X215355714Y-65968571D01*
X215403333Y-66063809D01*
X215403333Y-66301904D01*
X215355714Y-66397142D01*
X215308095Y-66444761D01*
X215212857Y-66492380D01*
X214927142Y-66492380D01*
X214831904Y-66444761D01*
X214784285Y-66397142D01*
%TO.C,U1*%
X185928095Y-47922380D02*
X185928095Y-48731904D01*
X185975714Y-48827142D01*
X186023333Y-48874761D01*
X186118571Y-48922380D01*
X186309047Y-48922380D01*
X186404285Y-48874761D01*
X186451904Y-48827142D01*
X186499523Y-48731904D01*
X186499523Y-47922380D01*
X187499523Y-48922380D02*
X186928095Y-48922380D01*
X187213809Y-48922380D02*
X187213809Y-47922380D01*
X187118571Y-48065238D01*
X187023333Y-48160476D01*
X186928095Y-48208095D01*
%TO.C,J2*%
X186356666Y-63242380D02*
X186356666Y-63956666D01*
X186309047Y-64099523D01*
X186213809Y-64194761D01*
X186070952Y-64242380D01*
X185975714Y-64242380D01*
X186785238Y-63337619D02*
X186832857Y-63290000D01*
X186928095Y-63242380D01*
X187166190Y-63242380D01*
X187261428Y-63290000D01*
X187309047Y-63337619D01*
X187356666Y-63432857D01*
X187356666Y-63528095D01*
X187309047Y-63670952D01*
X186737619Y-64242380D01*
X187356666Y-64242380D01*
%TO.C,J3*%
X181276666Y-65912380D02*
X181276666Y-66626666D01*
X181229047Y-66769523D01*
X181133809Y-66864761D01*
X180990952Y-66912380D01*
X180895714Y-66912380D01*
X181657619Y-65912380D02*
X182276666Y-65912380D01*
X181943333Y-66293333D01*
X182086190Y-66293333D01*
X182181428Y-66340952D01*
X182229047Y-66388571D01*
X182276666Y-66483809D01*
X182276666Y-66721904D01*
X182229047Y-66817142D01*
X182181428Y-66864761D01*
X182086190Y-66912380D01*
X181800476Y-66912380D01*
X181705238Y-66864761D01*
X181657619Y-66817142D01*
%TD*%
M02*
