M48
; DRILL file {KiCad 5.1.10-88a1d61d58~88~ubuntu18.04.1} date Wed Nov 17 00:59:45 2021
; FORMAT={-:-/ absolute / inch / decimal}
; #@! TF.CreationDate,2021-11-17T00:59:45+01:00
; #@! TF.GenerationSoftware,Kicad,Pcbnew,5.1.10-88a1d61d58~88~ubuntu18.04.1
; #@! TF.FileFunction,Plated,1,2,PTH
FMAT,2
INCH
T1C0.0157
T2C0.0315
T3C0.0335
T4C0.0354
T5C0.0394
T6C0.0433
T7C0.0591
%
G90
G05
T1
X7.55Y-2.55
T2
X6.75Y-2.4
X7.05Y-2.4
X7.2Y-2.0
X7.2Y-2.1
X7.2Y-2.2
X7.2Y-2.3
X7.5Y-2.0
X7.5Y-2.1
X7.5Y-2.2
X7.5Y-2.3
X7.7Y-2.0
X7.7Y-2.2
X7.7Y-2.4
X7.7Y-2.55
X8.0Y-2.0
X8.0Y-2.2
X8.0Y-2.4
X8.0Y-2.55
T3
X7.15Y-2.7
T4
X6.9Y-2.7
X6.9Y-2.7787
X6.9Y-2.8575
X8.4Y-2.1
X8.4Y-2.15
X8.4Y-2.2
X8.4Y-2.25
T5
X7.6Y-2.75
X7.7Y-2.75
X7.8Y-2.75
X7.9Y-2.75
X8.0Y-2.75
X8.1Y-2.75
T6
X6.7441Y-2.0228
X6.7441Y-2.2
X7.0Y-2.0228
X7.0Y-2.2
X7.35Y-2.6
X8.3Y-2.5
X8.3Y-2.6772
X8.5559Y-2.5
X8.5559Y-2.6772
T7
X6.9Y-2.6173
X6.9Y-2.9402
T0
M30
