%TF.GenerationSoftware,KiCad,Pcbnew,5.1.10-88a1d61d58~88~ubuntu18.04.1*%
%TF.CreationDate,2021-11-17T00:59:38+01:00*%
%TF.ProjectId,tuchoVen,74756368-6f56-4656-9e2e-6b696361645f,rev?*%
%TF.SameCoordinates,Original*%
%TF.FileFunction,Copper,L1,Top*%
%TF.FilePolarity,Positive*%
%FSLAX46Y46*%
G04 Gerber Fmt 4.6, Leading zero omitted, Abs format (unit mm)*
G04 Created by KiCad (PCBNEW 5.1.10-88a1d61d58~88~ubuntu18.04.1) date 2021-11-17 00:59:38*
%MOMM*%
%LPD*%
G01*
G04 APERTURE LIST*
%TA.AperFunction,ComponentPad*%
%ADD10R,1.800000X1.070000*%
%TD*%
%TA.AperFunction,ComponentPad*%
%ADD11O,1.800000X1.070000*%
%TD*%
%TA.AperFunction,ComponentPad*%
%ADD12R,1.700000X1.700000*%
%TD*%
%TA.AperFunction,ComponentPad*%
%ADD13O,1.700000X1.700000*%
%TD*%
%TA.AperFunction,ComponentPad*%
%ADD14C,1.600000*%
%TD*%
%TA.AperFunction,ComponentPad*%
%ADD15O,1.600000X1.600000*%
%TD*%
%TA.AperFunction,ComponentPad*%
%ADD16R,2.500000X1.500000*%
%TD*%
%TA.AperFunction,ComponentPad*%
%ADD17O,2.500000X1.500000*%
%TD*%
%TA.AperFunction,ComponentPad*%
%ADD18O,3.500000X2.200000*%
%TD*%
%TA.AperFunction,ComponentPad*%
%ADD19C,2.000000*%
%TD*%
%TA.AperFunction,ComponentPad*%
%ADD20R,1.600000X1.600000*%
%TD*%
%TA.AperFunction,ViaPad*%
%ADD21C,0.800000*%
%TD*%
%TA.AperFunction,Conductor*%
%ADD22C,0.250000*%
%TD*%
G04 APERTURE END LIST*
D10*
%TO.P,D1,1*%
%TO.N,Net-(D1-Pad1)*%
X213360000Y-53340000D03*
D11*
%TO.P,D1,2*%
%TO.N,Net-(D1-Pad2)*%
X213360000Y-54610000D03*
%TO.P,D1,3*%
%TO.N,/g0*%
X213360000Y-55880000D03*
%TO.P,D1,4*%
%TO.N,Net-(D1-Pad4)*%
X213360000Y-57150000D03*
%TD*%
D12*
%TO.P,J1,1*%
%TO.N,/v0*%
X205740000Y-69850000D03*
D13*
%TO.P,J1,2*%
%TO.N,Net-(J1-Pad2)*%
X203200000Y-69850000D03*
%TO.P,J1,3*%
%TO.N,Net-(J1-Pad3)*%
X200660000Y-69850000D03*
%TO.P,J1,4*%
%TO.N,Net-(J1-Pad4)*%
X198120000Y-69850000D03*
%TO.P,J1,5*%
%TO.N,Net-(J1-Pad5)*%
X195580000Y-69850000D03*
%TO.P,J1,6*%
%TO.N,/g0*%
X193040000Y-69850000D03*
%TD*%
D14*
%TO.P,R1,1*%
%TO.N,Net-(D1-Pad1)*%
X203200000Y-50800000D03*
D15*
%TO.P,R1,2*%
%TO.N,Net-(J1-Pad2)*%
X195580000Y-50800000D03*
%TD*%
D14*
%TO.P,R2,1*%
%TO.N,Net-(D1-Pad2)*%
X203200000Y-55880000D03*
D15*
%TO.P,R2,2*%
%TO.N,Net-(J1-Pad3)*%
X195580000Y-55880000D03*
%TD*%
D14*
%TO.P,R3,1*%
%TO.N,Net-(R3-Pad1)*%
X171450000Y-60960000D03*
D15*
%TO.P,R3,2*%
%TO.N,/g0*%
X179070000Y-60960000D03*
%TD*%
%TO.P,R4,2*%
%TO.N,/g0*%
X195580000Y-64770000D03*
D14*
%TO.P,R4,1*%
%TO.N,Net-(R4-Pad1)*%
X203200000Y-64770000D03*
%TD*%
D15*
%TO.P,R5,2*%
%TO.N,Net-(J1-Pad4)*%
X195580000Y-60960000D03*
D14*
%TO.P,R5,1*%
%TO.N,Net-(D1-Pad4)*%
X203200000Y-60960000D03*
%TD*%
D16*
%TO.P,SW1,1*%
%TO.N,/g0*%
X175260000Y-68580000D03*
D17*
%TO.P,SW1,2*%
%TO.N,Net-(J3-Pad1)*%
X175260000Y-70580000D03*
%TO.P,SW1,3*%
%TO.N,N/C*%
X175260000Y-72580000D03*
D18*
%TO.P,SW1,*%
%TO.N,*%
X175260000Y-66480000D03*
X175260000Y-74680000D03*
%TD*%
D19*
%TO.P,SW2,2*%
%TO.N,/v0*%
X177800000Y-51380000D03*
%TO.P,SW2,1*%
%TO.N,Net-(R3-Pad1)*%
X177800000Y-55880000D03*
%TO.P,SW2,2*%
%TO.N,/v0*%
X171300000Y-51380000D03*
%TO.P,SW2,1*%
%TO.N,Net-(R3-Pad1)*%
X171300000Y-55880000D03*
%TD*%
%TO.P,SW3,1*%
%TO.N,Net-(R4-Pad1)*%
X217320000Y-63500000D03*
%TO.P,SW3,2*%
%TO.N,/v0*%
X217320000Y-68000000D03*
%TO.P,SW3,1*%
%TO.N,Net-(R4-Pad1)*%
X210820000Y-63500000D03*
%TO.P,SW3,2*%
%TO.N,/v0*%
X210820000Y-68000000D03*
%TD*%
D20*
%TO.P,U1,1*%
%TO.N,Net-(J1-Pad5)*%
X182880000Y-50800000D03*
D15*
%TO.P,U1,5*%
%TO.N,Net-(J1-Pad4)*%
X190500000Y-58420000D03*
%TO.P,U1,2*%
%TO.N,Net-(R3-Pad1)*%
X182880000Y-53340000D03*
%TO.P,U1,6*%
%TO.N,Net-(J1-Pad3)*%
X190500000Y-55880000D03*
%TO.P,U1,3*%
%TO.N,Net-(R4-Pad1)*%
X182880000Y-55880000D03*
%TO.P,U1,7*%
%TO.N,Net-(J1-Pad2)*%
X190500000Y-53340000D03*
%TO.P,U1,4*%
%TO.N,/g0*%
X182880000Y-58420000D03*
%TO.P,U1,8*%
%TO.N,/v0*%
X190500000Y-50800000D03*
%TD*%
%TO.P,J2,1*%
%TO.N,/v0*%
%TA.AperFunction,ComponentPad*%
G36*
G01*
X185640000Y-66840001D02*
X185640000Y-65239999D01*
G75*
G02*
X185889999Y-64990000I249999J0D01*
G01*
X187490001Y-64990000D01*
G75*
G02*
X187740000Y-65239999I0J-249999D01*
G01*
X187740000Y-66840001D01*
G75*
G02*
X187490001Y-67090000I-249999J0D01*
G01*
X185889999Y-67090000D01*
G75*
G02*
X185640000Y-66840001I0J249999D01*
G01*
G37*
%TD.AperFunction*%
%TD*%
%TO.P,J3,1*%
%TO.N,Net-(J3-Pad1)*%
%TA.AperFunction,ComponentPad*%
G36*
G01*
X180685000Y-69255001D02*
X180685000Y-67904999D01*
G75*
G02*
X180934999Y-67655000I249999J0D01*
G01*
X182285001Y-67655000D01*
G75*
G02*
X182535000Y-67904999I0J-249999D01*
G01*
X182535000Y-69255001D01*
G75*
G02*
X182285001Y-69505000I-249999J0D01*
G01*
X180934999Y-69505000D01*
G75*
G02*
X180685000Y-69255001I0J249999D01*
G01*
G37*
%TD.AperFunction*%
%TD*%
D21*
%TO.N,Net-(R4-Pad1)*%
X191770000Y-64770000D03*
%TD*%
D22*
%TO.N,Net-(D1-Pad1)*%
X205740000Y-53340000D02*
X203200000Y-50800000D01*
X213360000Y-53340000D02*
X205740000Y-53340000D01*
%TO.N,Net-(D1-Pad2)*%
X204470000Y-54610000D02*
X203200000Y-55880000D01*
X213360000Y-54610000D02*
X204470000Y-54610000D01*
%TO.N,Net-(D1-Pad4)*%
X207010000Y-57150000D02*
X203200000Y-60960000D01*
X213360000Y-57150000D02*
X207010000Y-57150000D01*
%TO.N,Net-(J1-Pad2)*%
X195580000Y-50800000D02*
X198120000Y-50800000D01*
X198120000Y-50800000D02*
X200660000Y-53340000D01*
X200660000Y-67310000D02*
X203200000Y-69850000D01*
X200660000Y-53340000D02*
X200660000Y-67310000D01*
X193040000Y-50800000D02*
X190500000Y-53340000D01*
X195580000Y-50800000D02*
X193040000Y-50800000D01*
%TO.N,Net-(J1-Pad3)*%
X198120000Y-58420000D02*
X195580000Y-55880000D01*
X200660000Y-69850000D02*
X198120000Y-67310000D01*
X198120000Y-67310000D02*
X198120000Y-58420000D01*
X195580000Y-55880000D02*
X190500000Y-55880000D01*
%TO.N,Net-(J1-Pad4)*%
X198120000Y-69850000D02*
X196850000Y-68580000D01*
X196850000Y-62230000D02*
X195580000Y-60960000D01*
X196850000Y-68580000D02*
X196850000Y-62230000D01*
X193040000Y-60960000D02*
X190500000Y-58420000D01*
X195580000Y-60960000D02*
X193040000Y-60960000D01*
%TO.N,Net-(R3-Pad1)*%
X171300000Y-60810000D02*
X171450000Y-60960000D01*
X171300000Y-55880000D02*
X171300000Y-60810000D01*
X180340000Y-53340000D02*
X177800000Y-55880000D01*
X182880000Y-53340000D02*
X180340000Y-53340000D01*
%TO.N,Net-(R4-Pad1)*%
X204470000Y-63500000D02*
X203200000Y-64770000D01*
X210820000Y-63500000D02*
X204470000Y-63500000D01*
X182880000Y-55880000D02*
X191770000Y-64770000D01*
%TO.N,/v0*%
X207590000Y-68000000D02*
X205740000Y-69850000D01*
X210820000Y-68000000D02*
X207590000Y-68000000D01*
X205740000Y-69850000D02*
X205740000Y-72390000D01*
X205740000Y-72390000D02*
X204470000Y-73660000D01*
X194310000Y-73660000D02*
X186690000Y-66040000D01*
X204470000Y-73660000D02*
X194310000Y-73660000D01*
X177800000Y-51380000D02*
X180340000Y-48840000D01*
X188540000Y-48840000D02*
X190500000Y-50800000D01*
X180340000Y-48840000D02*
X188540000Y-48840000D01*
X180340000Y-66040000D02*
X186690000Y-66040000D01*
X175260000Y-60960000D02*
X180340000Y-66040000D01*
X177800000Y-51380000D02*
X175260000Y-53920000D01*
X175260000Y-53920000D02*
X175260000Y-60960000D01*
%TO.N,Net-(J3-Pad1)*%
X179610000Y-70580000D02*
X175260000Y-70580000D01*
X181610000Y-68580000D02*
X179610000Y-70580000D01*
%TD*%
M02*
