%TF.GenerationSoftware,KiCad,Pcbnew,5.1.10-88a1d61d58~88~ubuntu18.04.1*%
%TF.CreationDate,2021-12-28T00:11:02+01:00*%
%TF.ProjectId,tuchoVen,74756368-6f56-4656-9e2e-6b696361645f,rev?*%
%TF.SameCoordinates,Original*%
%TF.FileFunction,Legend,Bot*%
%TF.FilePolarity,Positive*%
%FSLAX46Y46*%
G04 Gerber Fmt 4.6, Leading zero omitted, Abs format (unit mm)*
G04 Created by KiCad (PCBNEW 5.1.10-88a1d61d58~88~ubuntu18.04.1) date 2021-12-28 00:11:02*
%MOMM*%
%LPD*%
G01*
G04 APERTURE LIST*
%ADD10C,0.300000*%
G04 APERTURE END LIST*
D10*
X148129523Y-70359523D02*
X148224761Y-70169047D01*
X148224761Y-69788095D01*
X148129523Y-69597619D01*
X148034285Y-69502380D01*
X147843809Y-69407142D01*
X147272380Y-69407142D01*
X147081904Y-69502380D01*
X146986666Y-69597619D01*
X146891428Y-69788095D01*
X146891428Y-70169047D01*
X146986666Y-70359523D01*
X148129523Y-72073809D02*
X148224761Y-71883333D01*
X148224761Y-71502380D01*
X148129523Y-71311904D01*
X148034285Y-71216666D01*
X147843809Y-71121428D01*
X147272380Y-71121428D01*
X147081904Y-71216666D01*
X146986666Y-71311904D01*
X146891428Y-71502380D01*
X146891428Y-71883333D01*
X146986666Y-72073809D01*
X148034285Y-72930952D02*
X148129523Y-73026190D01*
X148224761Y-72930952D01*
X148129523Y-72835714D01*
X148034285Y-72930952D01*
X148224761Y-72930952D01*
X146986666Y-72930952D02*
X147081904Y-73026190D01*
X147177142Y-72930952D01*
X147081904Y-72835714D01*
X146986666Y-72930952D01*
X147177142Y-72930952D01*
X146891428Y-75121428D02*
X146891428Y-75883333D01*
X146224761Y-75407142D02*
X147939047Y-75407142D01*
X148129523Y-75502380D01*
X148224761Y-75692857D01*
X148224761Y-75883333D01*
X146891428Y-77407142D02*
X148224761Y-77407142D01*
X146891428Y-76550000D02*
X147939047Y-76550000D01*
X148129523Y-76645238D01*
X148224761Y-76835714D01*
X148224761Y-77121428D01*
X148129523Y-77311904D01*
X148034285Y-77407142D01*
X148129523Y-79216666D02*
X148224761Y-79026190D01*
X148224761Y-78645238D01*
X148129523Y-78454761D01*
X148034285Y-78359523D01*
X147843809Y-78264285D01*
X147272380Y-78264285D01*
X147081904Y-78359523D01*
X146986666Y-78454761D01*
X146891428Y-78645238D01*
X146891428Y-79026190D01*
X146986666Y-79216666D01*
X148224761Y-80073809D02*
X146224761Y-80073809D01*
X148224761Y-80930952D02*
X147177142Y-80930952D01*
X146986666Y-80835714D01*
X146891428Y-80645238D01*
X146891428Y-80359523D01*
X146986666Y-80169047D01*
X147081904Y-80073809D01*
X148224761Y-82169047D02*
X148129523Y-81978571D01*
X148034285Y-81883333D01*
X147843809Y-81788095D01*
X147272380Y-81788095D01*
X147081904Y-81883333D01*
X146986666Y-81978571D01*
X146891428Y-82169047D01*
X146891428Y-82454761D01*
X146986666Y-82645238D01*
X147081904Y-82740476D01*
X147272380Y-82835714D01*
X147843809Y-82835714D01*
X148034285Y-82740476D01*
X148129523Y-82645238D01*
X148224761Y-82454761D01*
X148224761Y-82169047D01*
X148224761Y-85216666D02*
X146891428Y-85216666D01*
X147081904Y-85216666D02*
X146986666Y-85311904D01*
X146891428Y-85502380D01*
X146891428Y-85788095D01*
X146986666Y-85978571D01*
X147177142Y-86073809D01*
X148224761Y-86073809D01*
X147177142Y-86073809D02*
X146986666Y-86169047D01*
X146891428Y-86359523D01*
X146891428Y-86645238D01*
X146986666Y-86835714D01*
X147177142Y-86930952D01*
X148224761Y-86930952D01*
X148129523Y-88645238D02*
X148224761Y-88454761D01*
X148224761Y-88073809D01*
X148129523Y-87883333D01*
X147939047Y-87788095D01*
X147177142Y-87788095D01*
X146986666Y-87883333D01*
X146891428Y-88073809D01*
X146891428Y-88454761D01*
X146986666Y-88645238D01*
X147177142Y-88740476D01*
X147367619Y-88740476D01*
X147558095Y-87788095D01*
X146891428Y-89597619D02*
X148224761Y-89597619D01*
X147081904Y-89597619D02*
X146986666Y-89692857D01*
X146891428Y-89883333D01*
X146891428Y-90169047D01*
X146986666Y-90359523D01*
X147177142Y-90454761D01*
X148224761Y-90454761D01*
X148224761Y-92264285D02*
X146224761Y-92264285D01*
X148129523Y-92264285D02*
X148224761Y-92073809D01*
X148224761Y-91692857D01*
X148129523Y-91502380D01*
X148034285Y-91407142D01*
X147843809Y-91311904D01*
X147272380Y-91311904D01*
X147081904Y-91407142D01*
X146986666Y-91502380D01*
X146891428Y-91692857D01*
X146891428Y-92073809D01*
X146986666Y-92264285D01*
X148129523Y-93978571D02*
X148224761Y-93788095D01*
X148224761Y-93407142D01*
X148129523Y-93216666D01*
X147939047Y-93121428D01*
X147177142Y-93121428D01*
X146986666Y-93216666D01*
X146891428Y-93407142D01*
X146891428Y-93788095D01*
X146986666Y-93978571D01*
X147177142Y-94073809D01*
X147367619Y-94073809D01*
X147558095Y-93121428D01*
X146891428Y-94740476D02*
X146891428Y-95788095D01*
X148224761Y-94740476D01*
X148224761Y-95788095D01*
M02*
