%TF.GenerationSoftware,KiCad,Pcbnew,5.1.10-88a1d61d58~88~ubuntu18.04.1*%
%TF.CreationDate,2021-12-28T00:11:02+01:00*%
%TF.ProjectId,tuchoVen,74756368-6f56-4656-9e2e-6b696361645f,rev?*%
%TF.SameCoordinates,Original*%
%TF.FileFunction,Copper,L2,Bot*%
%TF.FilePolarity,Positive*%
%FSLAX46Y46*%
G04 Gerber Fmt 4.6, Leading zero omitted, Abs format (unit mm)*
G04 Created by KiCad (PCBNEW 5.1.10-88a1d61d58~88~ubuntu18.04.1) date 2021-12-28 00:11:02*
%MOMM*%
%LPD*%
G01*
G04 APERTURE LIST*
%TA.AperFunction,ComponentPad*%
%ADD10C,6.000000*%
%TD*%
%TA.AperFunction,ComponentPad*%
%ADD11O,1.600000X1.600000*%
%TD*%
%TA.AperFunction,ComponentPad*%
%ADD12R,1.600000X1.600000*%
%TD*%
%TA.AperFunction,ComponentPad*%
%ADD13C,2.000000*%
%TD*%
%TA.AperFunction,ComponentPad*%
%ADD14O,3.500000X2.200000*%
%TD*%
%TA.AperFunction,ComponentPad*%
%ADD15O,2.500000X1.500000*%
%TD*%
%TA.AperFunction,ComponentPad*%
%ADD16R,2.500000X1.500000*%
%TD*%
%TA.AperFunction,ComponentPad*%
%ADD17C,1.600000*%
%TD*%
%TA.AperFunction,ComponentPad*%
%ADD18O,1.700000X1.700000*%
%TD*%
%TA.AperFunction,ComponentPad*%
%ADD19R,1.700000X1.700000*%
%TD*%
%TA.AperFunction,ComponentPad*%
%ADD20O,1.070000X1.800000*%
%TD*%
%TA.AperFunction,ComponentPad*%
%ADD21R,1.070000X1.800000*%
%TD*%
%TA.AperFunction,Conductor*%
%ADD22C,0.250000*%
%TD*%
%TA.AperFunction,Conductor*%
%ADD23C,0.254000*%
%TD*%
%TA.AperFunction,Conductor*%
%ADD24C,0.100000*%
%TD*%
G04 APERTURE END LIST*
D10*
%TO.P,h,1*%
%TO.N,N/C*%
X144780000Y-55880000D03*
%TD*%
%TO.P,h,1*%
%TO.N,N/C*%
X106680000Y-93980000D03*
%TD*%
D11*
%TO.P,U1,8*%
%TO.N,/v0*%
X129540000Y-68580000D03*
%TO.P,U1,4*%
%TO.N,/g0*%
X121920000Y-76200000D03*
%TO.P,U1,7*%
%TO.N,Net-(J1-Pad2)*%
X129540000Y-71120000D03*
%TO.P,U1,3*%
%TO.N,Net-(R5-Pad1)*%
X121920000Y-73660000D03*
%TO.P,U1,6*%
%TO.N,Net-(J1-Pad3)*%
X129540000Y-73660000D03*
%TO.P,U1,2*%
%TO.N,Net-(R4-Pad1)*%
X121920000Y-71120000D03*
%TO.P,U1,5*%
%TO.N,Net-(J1-Pad4)*%
X129540000Y-76200000D03*
D12*
%TO.P,U1,1*%
%TO.N,Net-(J1-Pad5)*%
X121920000Y-68580000D03*
%TD*%
D13*
%TO.P,SW3,1*%
%TO.N,Net-(R5-Pad1)*%
X128420000Y-88900000D03*
%TO.P,SW3,2*%
%TO.N,/v0*%
X128420000Y-93400000D03*
%TO.P,SW3,1*%
%TO.N,Net-(R5-Pad1)*%
X121920000Y-88900000D03*
%TO.P,SW3,2*%
%TO.N,/v0*%
X121920000Y-93400000D03*
%TD*%
%TO.P,SW2,1*%
%TO.N,Net-(R4-Pad1)*%
X107800000Y-80010000D03*
%TO.P,SW2,2*%
%TO.N,/v0*%
X107800000Y-75510000D03*
%TO.P,SW2,1*%
%TO.N,Net-(R4-Pad1)*%
X114300000Y-80010000D03*
%TO.P,SW2,2*%
%TO.N,/v0*%
X114300000Y-75510000D03*
%TD*%
D14*
%TO.P,SW1,*%
%TO.N,*%
X105410000Y-68330000D03*
X105410000Y-60130000D03*
D15*
%TO.P,SW1,3*%
%TO.N,N/C*%
X105410000Y-66230000D03*
%TO.P,SW1,2*%
%TO.N,Net-(J3-Pad1)*%
X105410000Y-64230000D03*
D16*
%TO.P,SW1,1*%
%TO.N,/g0*%
X105410000Y-62230000D03*
%TD*%
D11*
%TO.P,R5,2*%
%TO.N,/g0*%
X128270000Y-82550000D03*
D17*
%TO.P,R5,1*%
%TO.N,Net-(R5-Pad1)*%
X120650000Y-82550000D03*
%TD*%
D11*
%TO.P,R4,2*%
%TO.N,/g0*%
X106680000Y-85090000D03*
D17*
%TO.P,R4,1*%
%TO.N,Net-(R4-Pad1)*%
X114300000Y-85090000D03*
%TD*%
D11*
%TO.P,R3,2*%
%TO.N,Net-(J1-Pad4)*%
X135890000Y-76200000D03*
D17*
%TO.P,R3,1*%
%TO.N,Net-(D1-Pad4)*%
X135890000Y-68580000D03*
%TD*%
D11*
%TO.P,R2,2*%
%TO.N,Net-(J1-Pad3)*%
X139700000Y-73660000D03*
D17*
%TO.P,R2,1*%
%TO.N,Net-(D1-Pad2)*%
X139700000Y-66040000D03*
%TD*%
D11*
%TO.P,R1,2*%
%TO.N,Net-(J1-Pad2)*%
X143510000Y-71120000D03*
D17*
%TO.P,R1,1*%
%TO.N,Net-(D1-Pad1)*%
X143510000Y-63500000D03*
%TD*%
%TO.P,J3,1*%
%TO.N,Net-(J3-Pad1)*%
%TA.AperFunction,ComponentPad*%
G36*
G01*
X113955000Y-64094999D02*
X113955000Y-65445001D01*
G75*
G02*
X113705001Y-65695000I-249999J0D01*
G01*
X112354999Y-65695000D01*
G75*
G02*
X112105000Y-65445001I0J249999D01*
G01*
X112105000Y-64094999D01*
G75*
G02*
X112354999Y-63845000I249999J0D01*
G01*
X113705001Y-63845000D01*
G75*
G02*
X113955000Y-64094999I0J-249999D01*
G01*
G37*
%TD.AperFunction*%
%TD*%
%TO.P,J2,1*%
%TO.N,/v0*%
%TA.AperFunction,ComponentPad*%
G36*
G01*
X117765000Y-64134999D02*
X117765000Y-65485001D01*
G75*
G02*
X117515001Y-65735000I-249999J0D01*
G01*
X116164999Y-65735000D01*
G75*
G02*
X115915000Y-65485001I0J249999D01*
G01*
X115915000Y-64134999D01*
G75*
G02*
X116164999Y-63885000I249999J0D01*
G01*
X117515001Y-63885000D01*
G75*
G02*
X117765000Y-64134999I0J-249999D01*
G01*
G37*
%TD.AperFunction*%
%TD*%
D18*
%TO.P,J1,6*%
%TO.N,/g0*%
X139700000Y-95250000D03*
%TO.P,J1,5*%
%TO.N,Net-(J1-Pad5)*%
X139700000Y-92710000D03*
%TO.P,J1,4*%
%TO.N,Net-(J1-Pad4)*%
X139700000Y-90170000D03*
%TO.P,J1,3*%
%TO.N,Net-(J1-Pad3)*%
X139700000Y-87630000D03*
%TO.P,J1,2*%
%TO.N,Net-(J1-Pad2)*%
X139700000Y-85090000D03*
D19*
%TO.P,J1,1*%
%TO.N,/v0*%
X139700000Y-82550000D03*
%TD*%
D20*
%TO.P,D1,4*%
%TO.N,Net-(D1-Pad4)*%
X123190000Y-58420000D03*
D21*
%TO.P,D1,3*%
%TO.N,/g0*%
X124460000Y-58420000D03*
D20*
%TO.P,D1,2*%
%TO.N,Net-(D1-Pad2)*%
X125730000Y-58420000D03*
%TO.P,D1,1*%
%TO.N,Net-(D1-Pad1)*%
X127000000Y-58420000D03*
%TD*%
D22*
%TO.N,/v0*%
X139700000Y-82550000D02*
X137160000Y-82550000D01*
X137160000Y-82550000D02*
X133350000Y-78740000D01*
X133350000Y-78740000D02*
X133350000Y-72390000D01*
X133350000Y-72390000D02*
X129540000Y-68580000D01*
X137160000Y-84660000D02*
X128420000Y-93400000D01*
X137160000Y-82550000D02*
X137160000Y-84660000D01*
%TD*%
D23*
%TO.N,/g0*%
X148463000Y-53392606D02*
X148463000Y-96467394D01*
X147267394Y-97663000D01*
X104192606Y-97663000D01*
X102997000Y-96467394D01*
X102997000Y-93621984D01*
X103045000Y-93621984D01*
X103045000Y-94338016D01*
X103184691Y-95040290D01*
X103458705Y-95701818D01*
X103856511Y-96297177D01*
X104362823Y-96803489D01*
X104958182Y-97201295D01*
X105619710Y-97475309D01*
X106321984Y-97615000D01*
X107038016Y-97615000D01*
X107740290Y-97475309D01*
X108401818Y-97201295D01*
X108997177Y-96803489D01*
X109503489Y-96297177D01*
X109901295Y-95701818D01*
X109940615Y-95606890D01*
X138258524Y-95606890D01*
X138303175Y-95754099D01*
X138428359Y-96016920D01*
X138602412Y-96250269D01*
X138818645Y-96445178D01*
X139068748Y-96594157D01*
X139343109Y-96691481D01*
X139573000Y-96570814D01*
X139573000Y-95377000D01*
X139827000Y-95377000D01*
X139827000Y-96570814D01*
X140056891Y-96691481D01*
X140331252Y-96594157D01*
X140581355Y-96445178D01*
X140797588Y-96250269D01*
X140971641Y-96016920D01*
X141096825Y-95754099D01*
X141141476Y-95606890D01*
X141020155Y-95377000D01*
X139827000Y-95377000D01*
X139573000Y-95377000D01*
X138379845Y-95377000D01*
X138258524Y-95606890D01*
X109940615Y-95606890D01*
X110175309Y-95040290D01*
X110315000Y-94338016D01*
X110315000Y-93621984D01*
X110238814Y-93238967D01*
X120285000Y-93238967D01*
X120285000Y-93561033D01*
X120347832Y-93876912D01*
X120471082Y-94174463D01*
X120650013Y-94442252D01*
X120877748Y-94669987D01*
X121145537Y-94848918D01*
X121443088Y-94972168D01*
X121758967Y-95035000D01*
X122081033Y-95035000D01*
X122396912Y-94972168D01*
X122694463Y-94848918D01*
X122962252Y-94669987D01*
X123189987Y-94442252D01*
X123368918Y-94174463D01*
X123492168Y-93876912D01*
X123555000Y-93561033D01*
X123555000Y-93238967D01*
X126785000Y-93238967D01*
X126785000Y-93561033D01*
X126847832Y-93876912D01*
X126971082Y-94174463D01*
X127150013Y-94442252D01*
X127377748Y-94669987D01*
X127645537Y-94848918D01*
X127943088Y-94972168D01*
X128258967Y-95035000D01*
X128581033Y-95035000D01*
X128896912Y-94972168D01*
X129194463Y-94848918D01*
X129462252Y-94669987D01*
X129689987Y-94442252D01*
X129868918Y-94174463D01*
X129992168Y-93876912D01*
X130055000Y-93561033D01*
X130055000Y-93238967D01*
X129992168Y-92923088D01*
X129986177Y-92908624D01*
X137671003Y-85223799D01*
X137700001Y-85200001D01*
X137794974Y-85084276D01*
X137865546Y-84952247D01*
X137909003Y-84808986D01*
X137920000Y-84697333D01*
X137923677Y-84660000D01*
X137920000Y-84622667D01*
X137920000Y-83310000D01*
X138211928Y-83310000D01*
X138211928Y-83400000D01*
X138224188Y-83524482D01*
X138260498Y-83644180D01*
X138319463Y-83754494D01*
X138398815Y-83851185D01*
X138495506Y-83930537D01*
X138605820Y-83989502D01*
X138678380Y-84011513D01*
X138546525Y-84143368D01*
X138384010Y-84386589D01*
X138272068Y-84656842D01*
X138215000Y-84943740D01*
X138215000Y-85236260D01*
X138272068Y-85523158D01*
X138384010Y-85793411D01*
X138546525Y-86036632D01*
X138753368Y-86243475D01*
X138927760Y-86360000D01*
X138753368Y-86476525D01*
X138546525Y-86683368D01*
X138384010Y-86926589D01*
X138272068Y-87196842D01*
X138215000Y-87483740D01*
X138215000Y-87776260D01*
X138272068Y-88063158D01*
X138384010Y-88333411D01*
X138546525Y-88576632D01*
X138753368Y-88783475D01*
X138927760Y-88900000D01*
X138753368Y-89016525D01*
X138546525Y-89223368D01*
X138384010Y-89466589D01*
X138272068Y-89736842D01*
X138215000Y-90023740D01*
X138215000Y-90316260D01*
X138272068Y-90603158D01*
X138384010Y-90873411D01*
X138546525Y-91116632D01*
X138753368Y-91323475D01*
X138927760Y-91440000D01*
X138753368Y-91556525D01*
X138546525Y-91763368D01*
X138384010Y-92006589D01*
X138272068Y-92276842D01*
X138215000Y-92563740D01*
X138215000Y-92856260D01*
X138272068Y-93143158D01*
X138384010Y-93413411D01*
X138546525Y-93656632D01*
X138753368Y-93863475D01*
X138935534Y-93985195D01*
X138818645Y-94054822D01*
X138602412Y-94249731D01*
X138428359Y-94483080D01*
X138303175Y-94745901D01*
X138258524Y-94893110D01*
X138379845Y-95123000D01*
X139573000Y-95123000D01*
X139573000Y-95103000D01*
X139827000Y-95103000D01*
X139827000Y-95123000D01*
X141020155Y-95123000D01*
X141141476Y-94893110D01*
X141096825Y-94745901D01*
X140971641Y-94483080D01*
X140797588Y-94249731D01*
X140581355Y-94054822D01*
X140464466Y-93985195D01*
X140646632Y-93863475D01*
X140853475Y-93656632D01*
X141015990Y-93413411D01*
X141127932Y-93143158D01*
X141185000Y-92856260D01*
X141185000Y-92563740D01*
X141127932Y-92276842D01*
X141015990Y-92006589D01*
X140853475Y-91763368D01*
X140646632Y-91556525D01*
X140472240Y-91440000D01*
X140646632Y-91323475D01*
X140853475Y-91116632D01*
X141015990Y-90873411D01*
X141127932Y-90603158D01*
X141185000Y-90316260D01*
X141185000Y-90023740D01*
X141127932Y-89736842D01*
X141015990Y-89466589D01*
X140853475Y-89223368D01*
X140646632Y-89016525D01*
X140472240Y-88900000D01*
X140646632Y-88783475D01*
X140853475Y-88576632D01*
X141015990Y-88333411D01*
X141127932Y-88063158D01*
X141185000Y-87776260D01*
X141185000Y-87483740D01*
X141127932Y-87196842D01*
X141015990Y-86926589D01*
X140853475Y-86683368D01*
X140646632Y-86476525D01*
X140472240Y-86360000D01*
X140646632Y-86243475D01*
X140853475Y-86036632D01*
X141015990Y-85793411D01*
X141127932Y-85523158D01*
X141185000Y-85236260D01*
X141185000Y-84943740D01*
X141127932Y-84656842D01*
X141015990Y-84386589D01*
X140853475Y-84143368D01*
X140721620Y-84011513D01*
X140794180Y-83989502D01*
X140904494Y-83930537D01*
X141001185Y-83851185D01*
X141080537Y-83754494D01*
X141139502Y-83644180D01*
X141175812Y-83524482D01*
X141188072Y-83400000D01*
X141188072Y-81700000D01*
X141175812Y-81575518D01*
X141139502Y-81455820D01*
X141080537Y-81345506D01*
X141001185Y-81248815D01*
X140904494Y-81169463D01*
X140794180Y-81110498D01*
X140674482Y-81074188D01*
X140550000Y-81061928D01*
X138850000Y-81061928D01*
X138725518Y-81074188D01*
X138605820Y-81110498D01*
X138495506Y-81169463D01*
X138398815Y-81248815D01*
X138319463Y-81345506D01*
X138260498Y-81455820D01*
X138224188Y-81575518D01*
X138211928Y-81700000D01*
X138211928Y-81790000D01*
X137474802Y-81790000D01*
X134110000Y-78425199D01*
X134110000Y-76058665D01*
X134455000Y-76058665D01*
X134455000Y-76341335D01*
X134510147Y-76618574D01*
X134618320Y-76879727D01*
X134775363Y-77114759D01*
X134975241Y-77314637D01*
X135210273Y-77471680D01*
X135471426Y-77579853D01*
X135748665Y-77635000D01*
X136031335Y-77635000D01*
X136308574Y-77579853D01*
X136569727Y-77471680D01*
X136804759Y-77314637D01*
X137004637Y-77114759D01*
X137161680Y-76879727D01*
X137269853Y-76618574D01*
X137325000Y-76341335D01*
X137325000Y-76058665D01*
X137269853Y-75781426D01*
X137161680Y-75520273D01*
X137004637Y-75285241D01*
X136804759Y-75085363D01*
X136569727Y-74928320D01*
X136308574Y-74820147D01*
X136031335Y-74765000D01*
X135748665Y-74765000D01*
X135471426Y-74820147D01*
X135210273Y-74928320D01*
X134975241Y-75085363D01*
X134775363Y-75285241D01*
X134618320Y-75520273D01*
X134510147Y-75781426D01*
X134455000Y-76058665D01*
X134110000Y-76058665D01*
X134110000Y-73518665D01*
X138265000Y-73518665D01*
X138265000Y-73801335D01*
X138320147Y-74078574D01*
X138428320Y-74339727D01*
X138585363Y-74574759D01*
X138785241Y-74774637D01*
X139020273Y-74931680D01*
X139281426Y-75039853D01*
X139558665Y-75095000D01*
X139841335Y-75095000D01*
X140118574Y-75039853D01*
X140379727Y-74931680D01*
X140614759Y-74774637D01*
X140814637Y-74574759D01*
X140971680Y-74339727D01*
X141079853Y-74078574D01*
X141135000Y-73801335D01*
X141135000Y-73518665D01*
X141079853Y-73241426D01*
X140971680Y-72980273D01*
X140814637Y-72745241D01*
X140614759Y-72545363D01*
X140379727Y-72388320D01*
X140118574Y-72280147D01*
X139841335Y-72225000D01*
X139558665Y-72225000D01*
X139281426Y-72280147D01*
X139020273Y-72388320D01*
X138785241Y-72545363D01*
X138585363Y-72745241D01*
X138428320Y-72980273D01*
X138320147Y-73241426D01*
X138265000Y-73518665D01*
X134110000Y-73518665D01*
X134110000Y-72427325D01*
X134113676Y-72390000D01*
X134110000Y-72352675D01*
X134110000Y-72352667D01*
X134099003Y-72241014D01*
X134055546Y-72097753D01*
X133984974Y-71965724D01*
X133890001Y-71849999D01*
X133861003Y-71826201D01*
X133013467Y-70978665D01*
X142075000Y-70978665D01*
X142075000Y-71261335D01*
X142130147Y-71538574D01*
X142238320Y-71799727D01*
X142395363Y-72034759D01*
X142595241Y-72234637D01*
X142830273Y-72391680D01*
X143091426Y-72499853D01*
X143368665Y-72555000D01*
X143651335Y-72555000D01*
X143928574Y-72499853D01*
X144189727Y-72391680D01*
X144424759Y-72234637D01*
X144624637Y-72034759D01*
X144781680Y-71799727D01*
X144889853Y-71538574D01*
X144945000Y-71261335D01*
X144945000Y-70978665D01*
X144889853Y-70701426D01*
X144781680Y-70440273D01*
X144624637Y-70205241D01*
X144424759Y-70005363D01*
X144189727Y-69848320D01*
X143928574Y-69740147D01*
X143651335Y-69685000D01*
X143368665Y-69685000D01*
X143091426Y-69740147D01*
X142830273Y-69848320D01*
X142595241Y-70005363D01*
X142395363Y-70205241D01*
X142238320Y-70440273D01*
X142130147Y-70701426D01*
X142075000Y-70978665D01*
X133013467Y-70978665D01*
X130938688Y-68903887D01*
X130975000Y-68721335D01*
X130975000Y-68438665D01*
X134455000Y-68438665D01*
X134455000Y-68721335D01*
X134510147Y-68998574D01*
X134618320Y-69259727D01*
X134775363Y-69494759D01*
X134975241Y-69694637D01*
X135210273Y-69851680D01*
X135471426Y-69959853D01*
X135748665Y-70015000D01*
X136031335Y-70015000D01*
X136308574Y-69959853D01*
X136569727Y-69851680D01*
X136804759Y-69694637D01*
X137004637Y-69494759D01*
X137161680Y-69259727D01*
X137269853Y-68998574D01*
X137325000Y-68721335D01*
X137325000Y-68438665D01*
X137269853Y-68161426D01*
X137161680Y-67900273D01*
X137004637Y-67665241D01*
X136804759Y-67465363D01*
X136569727Y-67308320D01*
X136308574Y-67200147D01*
X136031335Y-67145000D01*
X135748665Y-67145000D01*
X135471426Y-67200147D01*
X135210273Y-67308320D01*
X134975241Y-67465363D01*
X134775363Y-67665241D01*
X134618320Y-67900273D01*
X134510147Y-68161426D01*
X134455000Y-68438665D01*
X130975000Y-68438665D01*
X130919853Y-68161426D01*
X130811680Y-67900273D01*
X130654637Y-67665241D01*
X130454759Y-67465363D01*
X130219727Y-67308320D01*
X129958574Y-67200147D01*
X129681335Y-67145000D01*
X129398665Y-67145000D01*
X129121426Y-67200147D01*
X128860273Y-67308320D01*
X128625241Y-67465363D01*
X128425363Y-67665241D01*
X128268320Y-67900273D01*
X128160147Y-68161426D01*
X128105000Y-68438665D01*
X128105000Y-68721335D01*
X128160147Y-68998574D01*
X128268320Y-69259727D01*
X128425363Y-69494759D01*
X128625241Y-69694637D01*
X128857759Y-69850000D01*
X128625241Y-70005363D01*
X128425363Y-70205241D01*
X128268320Y-70440273D01*
X128160147Y-70701426D01*
X128105000Y-70978665D01*
X128105000Y-71261335D01*
X128160147Y-71538574D01*
X128268320Y-71799727D01*
X128425363Y-72034759D01*
X128625241Y-72234637D01*
X128857759Y-72390000D01*
X128625241Y-72545363D01*
X128425363Y-72745241D01*
X128268320Y-72980273D01*
X128160147Y-73241426D01*
X128105000Y-73518665D01*
X128105000Y-73801335D01*
X128160147Y-74078574D01*
X128268320Y-74339727D01*
X128425363Y-74574759D01*
X128625241Y-74774637D01*
X128857759Y-74930000D01*
X128625241Y-75085363D01*
X128425363Y-75285241D01*
X128268320Y-75520273D01*
X128160147Y-75781426D01*
X128105000Y-76058665D01*
X128105000Y-76341335D01*
X128160147Y-76618574D01*
X128268320Y-76879727D01*
X128425363Y-77114759D01*
X128625241Y-77314637D01*
X128860273Y-77471680D01*
X129121426Y-77579853D01*
X129398665Y-77635000D01*
X129681335Y-77635000D01*
X129958574Y-77579853D01*
X130219727Y-77471680D01*
X130454759Y-77314637D01*
X130654637Y-77114759D01*
X130811680Y-76879727D01*
X130919853Y-76618574D01*
X130975000Y-76341335D01*
X130975000Y-76058665D01*
X130919853Y-75781426D01*
X130811680Y-75520273D01*
X130654637Y-75285241D01*
X130454759Y-75085363D01*
X130222241Y-74930000D01*
X130454759Y-74774637D01*
X130654637Y-74574759D01*
X130811680Y-74339727D01*
X130919853Y-74078574D01*
X130975000Y-73801335D01*
X130975000Y-73518665D01*
X130919853Y-73241426D01*
X130811680Y-72980273D01*
X130654637Y-72745241D01*
X130454759Y-72545363D01*
X130222241Y-72390000D01*
X130454759Y-72234637D01*
X130654637Y-72034759D01*
X130811680Y-71799727D01*
X130919853Y-71538574D01*
X130975000Y-71261335D01*
X130975000Y-71089802D01*
X132590001Y-72704803D01*
X132590000Y-78702677D01*
X132586324Y-78740000D01*
X132590000Y-78777322D01*
X132590000Y-78777332D01*
X132600997Y-78888985D01*
X132644454Y-79032246D01*
X132715026Y-79164276D01*
X132754871Y-79212826D01*
X132809999Y-79280001D01*
X132839003Y-79303804D01*
X136400000Y-82864802D01*
X136400001Y-84345197D01*
X128911376Y-91833823D01*
X128896912Y-91827832D01*
X128581033Y-91765000D01*
X128258967Y-91765000D01*
X127943088Y-91827832D01*
X127645537Y-91951082D01*
X127377748Y-92130013D01*
X127150013Y-92357748D01*
X126971082Y-92625537D01*
X126847832Y-92923088D01*
X126785000Y-93238967D01*
X123555000Y-93238967D01*
X123492168Y-92923088D01*
X123368918Y-92625537D01*
X123189987Y-92357748D01*
X122962252Y-92130013D01*
X122694463Y-91951082D01*
X122396912Y-91827832D01*
X122081033Y-91765000D01*
X121758967Y-91765000D01*
X121443088Y-91827832D01*
X121145537Y-91951082D01*
X120877748Y-92130013D01*
X120650013Y-92357748D01*
X120471082Y-92625537D01*
X120347832Y-92923088D01*
X120285000Y-93238967D01*
X110238814Y-93238967D01*
X110175309Y-92919710D01*
X109901295Y-92258182D01*
X109503489Y-91662823D01*
X108997177Y-91156511D01*
X108401818Y-90758705D01*
X107740290Y-90484691D01*
X107038016Y-90345000D01*
X106321984Y-90345000D01*
X105619710Y-90484691D01*
X104958182Y-90758705D01*
X104362823Y-91156511D01*
X103856511Y-91662823D01*
X103458705Y-92258182D01*
X103184691Y-92919710D01*
X103045000Y-93621984D01*
X102997000Y-93621984D01*
X102997000Y-88738967D01*
X120285000Y-88738967D01*
X120285000Y-89061033D01*
X120347832Y-89376912D01*
X120471082Y-89674463D01*
X120650013Y-89942252D01*
X120877748Y-90169987D01*
X121145537Y-90348918D01*
X121443088Y-90472168D01*
X121758967Y-90535000D01*
X122081033Y-90535000D01*
X122396912Y-90472168D01*
X122694463Y-90348918D01*
X122962252Y-90169987D01*
X123189987Y-89942252D01*
X123368918Y-89674463D01*
X123492168Y-89376912D01*
X123555000Y-89061033D01*
X123555000Y-88738967D01*
X126785000Y-88738967D01*
X126785000Y-89061033D01*
X126847832Y-89376912D01*
X126971082Y-89674463D01*
X127150013Y-89942252D01*
X127377748Y-90169987D01*
X127645537Y-90348918D01*
X127943088Y-90472168D01*
X128258967Y-90535000D01*
X128581033Y-90535000D01*
X128896912Y-90472168D01*
X129194463Y-90348918D01*
X129462252Y-90169987D01*
X129689987Y-89942252D01*
X129868918Y-89674463D01*
X129992168Y-89376912D01*
X130055000Y-89061033D01*
X130055000Y-88738967D01*
X129992168Y-88423088D01*
X129868918Y-88125537D01*
X129689987Y-87857748D01*
X129462252Y-87630013D01*
X129194463Y-87451082D01*
X128896912Y-87327832D01*
X128581033Y-87265000D01*
X128258967Y-87265000D01*
X127943088Y-87327832D01*
X127645537Y-87451082D01*
X127377748Y-87630013D01*
X127150013Y-87857748D01*
X126971082Y-88125537D01*
X126847832Y-88423088D01*
X126785000Y-88738967D01*
X123555000Y-88738967D01*
X123492168Y-88423088D01*
X123368918Y-88125537D01*
X123189987Y-87857748D01*
X122962252Y-87630013D01*
X122694463Y-87451082D01*
X122396912Y-87327832D01*
X122081033Y-87265000D01*
X121758967Y-87265000D01*
X121443088Y-87327832D01*
X121145537Y-87451082D01*
X120877748Y-87630013D01*
X120650013Y-87857748D01*
X120471082Y-88125537D01*
X120347832Y-88423088D01*
X120285000Y-88738967D01*
X102997000Y-88738967D01*
X102997000Y-85439039D01*
X105288096Y-85439039D01*
X105328754Y-85573087D01*
X105448963Y-85827420D01*
X105616481Y-86053414D01*
X105824869Y-86242385D01*
X106066119Y-86387070D01*
X106330960Y-86481909D01*
X106553000Y-86360624D01*
X106553000Y-85217000D01*
X106807000Y-85217000D01*
X106807000Y-86360624D01*
X107029040Y-86481909D01*
X107293881Y-86387070D01*
X107535131Y-86242385D01*
X107743519Y-86053414D01*
X107911037Y-85827420D01*
X108031246Y-85573087D01*
X108071904Y-85439039D01*
X107949915Y-85217000D01*
X106807000Y-85217000D01*
X106553000Y-85217000D01*
X105410085Y-85217000D01*
X105288096Y-85439039D01*
X102997000Y-85439039D01*
X102997000Y-84740961D01*
X105288096Y-84740961D01*
X105410085Y-84963000D01*
X106553000Y-84963000D01*
X106553000Y-83819376D01*
X106807000Y-83819376D01*
X106807000Y-84963000D01*
X107949915Y-84963000D01*
X107957790Y-84948665D01*
X112865000Y-84948665D01*
X112865000Y-85231335D01*
X112920147Y-85508574D01*
X113028320Y-85769727D01*
X113185363Y-86004759D01*
X113385241Y-86204637D01*
X113620273Y-86361680D01*
X113881426Y-86469853D01*
X114158665Y-86525000D01*
X114441335Y-86525000D01*
X114718574Y-86469853D01*
X114979727Y-86361680D01*
X115214759Y-86204637D01*
X115414637Y-86004759D01*
X115571680Y-85769727D01*
X115679853Y-85508574D01*
X115735000Y-85231335D01*
X115735000Y-84948665D01*
X115679853Y-84671426D01*
X115571680Y-84410273D01*
X115414637Y-84175241D01*
X115214759Y-83975363D01*
X114979727Y-83818320D01*
X114718574Y-83710147D01*
X114441335Y-83655000D01*
X114158665Y-83655000D01*
X113881426Y-83710147D01*
X113620273Y-83818320D01*
X113385241Y-83975363D01*
X113185363Y-84175241D01*
X113028320Y-84410273D01*
X112920147Y-84671426D01*
X112865000Y-84948665D01*
X107957790Y-84948665D01*
X108071904Y-84740961D01*
X108031246Y-84606913D01*
X107911037Y-84352580D01*
X107743519Y-84126586D01*
X107535131Y-83937615D01*
X107293881Y-83792930D01*
X107029040Y-83698091D01*
X106807000Y-83819376D01*
X106553000Y-83819376D01*
X106330960Y-83698091D01*
X106066119Y-83792930D01*
X105824869Y-83937615D01*
X105616481Y-84126586D01*
X105448963Y-84352580D01*
X105328754Y-84606913D01*
X105288096Y-84740961D01*
X102997000Y-84740961D01*
X102997000Y-82408665D01*
X119215000Y-82408665D01*
X119215000Y-82691335D01*
X119270147Y-82968574D01*
X119378320Y-83229727D01*
X119535363Y-83464759D01*
X119735241Y-83664637D01*
X119970273Y-83821680D01*
X120231426Y-83929853D01*
X120508665Y-83985000D01*
X120791335Y-83985000D01*
X121068574Y-83929853D01*
X121329727Y-83821680D01*
X121564759Y-83664637D01*
X121764637Y-83464759D01*
X121921680Y-83229727D01*
X122029853Y-82968574D01*
X122043684Y-82899039D01*
X126878096Y-82899039D01*
X126918754Y-83033087D01*
X127038963Y-83287420D01*
X127206481Y-83513414D01*
X127414869Y-83702385D01*
X127656119Y-83847070D01*
X127920960Y-83941909D01*
X128143000Y-83820624D01*
X128143000Y-82677000D01*
X128397000Y-82677000D01*
X128397000Y-83820624D01*
X128619040Y-83941909D01*
X128883881Y-83847070D01*
X129125131Y-83702385D01*
X129333519Y-83513414D01*
X129501037Y-83287420D01*
X129621246Y-83033087D01*
X129661904Y-82899039D01*
X129539915Y-82677000D01*
X128397000Y-82677000D01*
X128143000Y-82677000D01*
X127000085Y-82677000D01*
X126878096Y-82899039D01*
X122043684Y-82899039D01*
X122085000Y-82691335D01*
X122085000Y-82408665D01*
X122043685Y-82200961D01*
X126878096Y-82200961D01*
X127000085Y-82423000D01*
X128143000Y-82423000D01*
X128143000Y-81279376D01*
X128397000Y-81279376D01*
X128397000Y-82423000D01*
X129539915Y-82423000D01*
X129661904Y-82200961D01*
X129621246Y-82066913D01*
X129501037Y-81812580D01*
X129333519Y-81586586D01*
X129125131Y-81397615D01*
X128883881Y-81252930D01*
X128619040Y-81158091D01*
X128397000Y-81279376D01*
X128143000Y-81279376D01*
X127920960Y-81158091D01*
X127656119Y-81252930D01*
X127414869Y-81397615D01*
X127206481Y-81586586D01*
X127038963Y-81812580D01*
X126918754Y-82066913D01*
X126878096Y-82200961D01*
X122043685Y-82200961D01*
X122029853Y-82131426D01*
X121921680Y-81870273D01*
X121764637Y-81635241D01*
X121564759Y-81435363D01*
X121329727Y-81278320D01*
X121068574Y-81170147D01*
X120791335Y-81115000D01*
X120508665Y-81115000D01*
X120231426Y-81170147D01*
X119970273Y-81278320D01*
X119735241Y-81435363D01*
X119535363Y-81635241D01*
X119378320Y-81870273D01*
X119270147Y-82131426D01*
X119215000Y-82408665D01*
X102997000Y-82408665D01*
X102997000Y-79848967D01*
X106165000Y-79848967D01*
X106165000Y-80171033D01*
X106227832Y-80486912D01*
X106351082Y-80784463D01*
X106530013Y-81052252D01*
X106757748Y-81279987D01*
X107025537Y-81458918D01*
X107323088Y-81582168D01*
X107638967Y-81645000D01*
X107961033Y-81645000D01*
X108276912Y-81582168D01*
X108574463Y-81458918D01*
X108842252Y-81279987D01*
X109069987Y-81052252D01*
X109248918Y-80784463D01*
X109372168Y-80486912D01*
X109435000Y-80171033D01*
X109435000Y-79848967D01*
X112665000Y-79848967D01*
X112665000Y-80171033D01*
X112727832Y-80486912D01*
X112851082Y-80784463D01*
X113030013Y-81052252D01*
X113257748Y-81279987D01*
X113525537Y-81458918D01*
X113823088Y-81582168D01*
X114138967Y-81645000D01*
X114461033Y-81645000D01*
X114776912Y-81582168D01*
X115074463Y-81458918D01*
X115342252Y-81279987D01*
X115569987Y-81052252D01*
X115748918Y-80784463D01*
X115872168Y-80486912D01*
X115935000Y-80171033D01*
X115935000Y-79848967D01*
X115872168Y-79533088D01*
X115748918Y-79235537D01*
X115569987Y-78967748D01*
X115342252Y-78740013D01*
X115074463Y-78561082D01*
X114776912Y-78437832D01*
X114461033Y-78375000D01*
X114138967Y-78375000D01*
X113823088Y-78437832D01*
X113525537Y-78561082D01*
X113257748Y-78740013D01*
X113030013Y-78967748D01*
X112851082Y-79235537D01*
X112727832Y-79533088D01*
X112665000Y-79848967D01*
X109435000Y-79848967D01*
X109372168Y-79533088D01*
X109248918Y-79235537D01*
X109069987Y-78967748D01*
X108842252Y-78740013D01*
X108574463Y-78561082D01*
X108276912Y-78437832D01*
X107961033Y-78375000D01*
X107638967Y-78375000D01*
X107323088Y-78437832D01*
X107025537Y-78561082D01*
X106757748Y-78740013D01*
X106530013Y-78967748D01*
X106351082Y-79235537D01*
X106227832Y-79533088D01*
X106165000Y-79848967D01*
X102997000Y-79848967D01*
X102997000Y-75348967D01*
X106165000Y-75348967D01*
X106165000Y-75671033D01*
X106227832Y-75986912D01*
X106351082Y-76284463D01*
X106530013Y-76552252D01*
X106757748Y-76779987D01*
X107025537Y-76958918D01*
X107323088Y-77082168D01*
X107638967Y-77145000D01*
X107961033Y-77145000D01*
X108276912Y-77082168D01*
X108574463Y-76958918D01*
X108842252Y-76779987D01*
X109069987Y-76552252D01*
X109248918Y-76284463D01*
X109372168Y-75986912D01*
X109435000Y-75671033D01*
X109435000Y-75348967D01*
X112665000Y-75348967D01*
X112665000Y-75671033D01*
X112727832Y-75986912D01*
X112851082Y-76284463D01*
X113030013Y-76552252D01*
X113257748Y-76779987D01*
X113525537Y-76958918D01*
X113823088Y-77082168D01*
X114138967Y-77145000D01*
X114461033Y-77145000D01*
X114776912Y-77082168D01*
X115074463Y-76958918D01*
X115342252Y-76779987D01*
X115569987Y-76552252D01*
X115572133Y-76549039D01*
X120528096Y-76549039D01*
X120568754Y-76683087D01*
X120688963Y-76937420D01*
X120856481Y-77163414D01*
X121064869Y-77352385D01*
X121306119Y-77497070D01*
X121570960Y-77591909D01*
X121793000Y-77470624D01*
X121793000Y-76327000D01*
X122047000Y-76327000D01*
X122047000Y-77470624D01*
X122269040Y-77591909D01*
X122533881Y-77497070D01*
X122775131Y-77352385D01*
X122983519Y-77163414D01*
X123151037Y-76937420D01*
X123271246Y-76683087D01*
X123311904Y-76549039D01*
X123189915Y-76327000D01*
X122047000Y-76327000D01*
X121793000Y-76327000D01*
X120650085Y-76327000D01*
X120528096Y-76549039D01*
X115572133Y-76549039D01*
X115748918Y-76284463D01*
X115872168Y-75986912D01*
X115935000Y-75671033D01*
X115935000Y-75348967D01*
X115872168Y-75033088D01*
X115748918Y-74735537D01*
X115569987Y-74467748D01*
X115342252Y-74240013D01*
X115074463Y-74061082D01*
X114776912Y-73937832D01*
X114461033Y-73875000D01*
X114138967Y-73875000D01*
X113823088Y-73937832D01*
X113525537Y-74061082D01*
X113257748Y-74240013D01*
X113030013Y-74467748D01*
X112851082Y-74735537D01*
X112727832Y-75033088D01*
X112665000Y-75348967D01*
X109435000Y-75348967D01*
X109372168Y-75033088D01*
X109248918Y-74735537D01*
X109069987Y-74467748D01*
X108842252Y-74240013D01*
X108574463Y-74061082D01*
X108276912Y-73937832D01*
X107961033Y-73875000D01*
X107638967Y-73875000D01*
X107323088Y-73937832D01*
X107025537Y-74061082D01*
X106757748Y-74240013D01*
X106530013Y-74467748D01*
X106351082Y-74735537D01*
X106227832Y-75033088D01*
X106165000Y-75348967D01*
X102997000Y-75348967D01*
X102997000Y-68330000D01*
X103016606Y-68330000D01*
X103050105Y-68670119D01*
X103149314Y-68997168D01*
X103310421Y-69298578D01*
X103527234Y-69562766D01*
X103791422Y-69779579D01*
X104092832Y-69940686D01*
X104419881Y-70039895D01*
X104674775Y-70065000D01*
X106145225Y-70065000D01*
X106400119Y-70039895D01*
X106727168Y-69940686D01*
X107028578Y-69779579D01*
X107292766Y-69562766D01*
X107509579Y-69298578D01*
X107670686Y-68997168D01*
X107769895Y-68670119D01*
X107803394Y-68330000D01*
X107769895Y-67989881D01*
X107706229Y-67780000D01*
X120481928Y-67780000D01*
X120481928Y-69380000D01*
X120494188Y-69504482D01*
X120530498Y-69624180D01*
X120589463Y-69734494D01*
X120668815Y-69831185D01*
X120765506Y-69910537D01*
X120875820Y-69969502D01*
X120995518Y-70005812D01*
X121003961Y-70006643D01*
X120805363Y-70205241D01*
X120648320Y-70440273D01*
X120540147Y-70701426D01*
X120485000Y-70978665D01*
X120485000Y-71261335D01*
X120540147Y-71538574D01*
X120648320Y-71799727D01*
X120805363Y-72034759D01*
X121005241Y-72234637D01*
X121237759Y-72390000D01*
X121005241Y-72545363D01*
X120805363Y-72745241D01*
X120648320Y-72980273D01*
X120540147Y-73241426D01*
X120485000Y-73518665D01*
X120485000Y-73801335D01*
X120540147Y-74078574D01*
X120648320Y-74339727D01*
X120805363Y-74574759D01*
X121005241Y-74774637D01*
X121240273Y-74931680D01*
X121250865Y-74936067D01*
X121064869Y-75047615D01*
X120856481Y-75236586D01*
X120688963Y-75462580D01*
X120568754Y-75716913D01*
X120528096Y-75850961D01*
X120650085Y-76073000D01*
X121793000Y-76073000D01*
X121793000Y-76053000D01*
X122047000Y-76053000D01*
X122047000Y-76073000D01*
X123189915Y-76073000D01*
X123311904Y-75850961D01*
X123271246Y-75716913D01*
X123151037Y-75462580D01*
X122983519Y-75236586D01*
X122775131Y-75047615D01*
X122589135Y-74936067D01*
X122599727Y-74931680D01*
X122834759Y-74774637D01*
X123034637Y-74574759D01*
X123191680Y-74339727D01*
X123299853Y-74078574D01*
X123355000Y-73801335D01*
X123355000Y-73518665D01*
X123299853Y-73241426D01*
X123191680Y-72980273D01*
X123034637Y-72745241D01*
X122834759Y-72545363D01*
X122602241Y-72390000D01*
X122834759Y-72234637D01*
X123034637Y-72034759D01*
X123191680Y-71799727D01*
X123299853Y-71538574D01*
X123355000Y-71261335D01*
X123355000Y-70978665D01*
X123299853Y-70701426D01*
X123191680Y-70440273D01*
X123034637Y-70205241D01*
X122836039Y-70006643D01*
X122844482Y-70005812D01*
X122964180Y-69969502D01*
X123074494Y-69910537D01*
X123171185Y-69831185D01*
X123250537Y-69734494D01*
X123309502Y-69624180D01*
X123345812Y-69504482D01*
X123358072Y-69380000D01*
X123358072Y-67780000D01*
X123345812Y-67655518D01*
X123309502Y-67535820D01*
X123250537Y-67425506D01*
X123171185Y-67328815D01*
X123074494Y-67249463D01*
X122964180Y-67190498D01*
X122844482Y-67154188D01*
X122720000Y-67141928D01*
X121120000Y-67141928D01*
X120995518Y-67154188D01*
X120875820Y-67190498D01*
X120765506Y-67249463D01*
X120668815Y-67328815D01*
X120589463Y-67425506D01*
X120530498Y-67535820D01*
X120494188Y-67655518D01*
X120481928Y-67780000D01*
X107706229Y-67780000D01*
X107670686Y-67662832D01*
X107509579Y-67361422D01*
X107292766Y-67097234D01*
X107101006Y-66939861D01*
X107195764Y-66762581D01*
X107274960Y-66501507D01*
X107301701Y-66230000D01*
X107274960Y-65958493D01*
X107195764Y-65697419D01*
X107067157Y-65456812D01*
X106894081Y-65245919D01*
X106874684Y-65230000D01*
X106894081Y-65214081D01*
X107067157Y-65003188D01*
X107195764Y-64762581D01*
X107274960Y-64501507D01*
X107301701Y-64230000D01*
X107288405Y-64094999D01*
X111466928Y-64094999D01*
X111466928Y-65445001D01*
X111483992Y-65618255D01*
X111534528Y-65784851D01*
X111616595Y-65938387D01*
X111727038Y-66072962D01*
X111861613Y-66183405D01*
X112015149Y-66265472D01*
X112181745Y-66316008D01*
X112354999Y-66333072D01*
X113705001Y-66333072D01*
X113878255Y-66316008D01*
X114044851Y-66265472D01*
X114198387Y-66183405D01*
X114332962Y-66072962D01*
X114443405Y-65938387D01*
X114525472Y-65784851D01*
X114576008Y-65618255D01*
X114593072Y-65445001D01*
X114593072Y-64134999D01*
X115276928Y-64134999D01*
X115276928Y-65485001D01*
X115293992Y-65658255D01*
X115344528Y-65824851D01*
X115426595Y-65978387D01*
X115537038Y-66112962D01*
X115671613Y-66223405D01*
X115825149Y-66305472D01*
X115991745Y-66356008D01*
X116164999Y-66373072D01*
X117515001Y-66373072D01*
X117688255Y-66356008D01*
X117854851Y-66305472D01*
X118008387Y-66223405D01*
X118142962Y-66112962D01*
X118253405Y-65978387D01*
X118296017Y-65898665D01*
X138265000Y-65898665D01*
X138265000Y-66181335D01*
X138320147Y-66458574D01*
X138428320Y-66719727D01*
X138585363Y-66954759D01*
X138785241Y-67154637D01*
X139020273Y-67311680D01*
X139281426Y-67419853D01*
X139558665Y-67475000D01*
X139841335Y-67475000D01*
X140118574Y-67419853D01*
X140379727Y-67311680D01*
X140614759Y-67154637D01*
X140814637Y-66954759D01*
X140971680Y-66719727D01*
X141079853Y-66458574D01*
X141135000Y-66181335D01*
X141135000Y-65898665D01*
X141079853Y-65621426D01*
X140971680Y-65360273D01*
X140814637Y-65125241D01*
X140614759Y-64925363D01*
X140379727Y-64768320D01*
X140118574Y-64660147D01*
X139841335Y-64605000D01*
X139558665Y-64605000D01*
X139281426Y-64660147D01*
X139020273Y-64768320D01*
X138785241Y-64925363D01*
X138585363Y-65125241D01*
X138428320Y-65360273D01*
X138320147Y-65621426D01*
X138265000Y-65898665D01*
X118296017Y-65898665D01*
X118335472Y-65824851D01*
X118386008Y-65658255D01*
X118403072Y-65485001D01*
X118403072Y-64134999D01*
X118386008Y-63961745D01*
X118335472Y-63795149D01*
X118253405Y-63641613D01*
X118142962Y-63507038D01*
X118008387Y-63396595D01*
X117937426Y-63358665D01*
X142075000Y-63358665D01*
X142075000Y-63641335D01*
X142130147Y-63918574D01*
X142238320Y-64179727D01*
X142395363Y-64414759D01*
X142595241Y-64614637D01*
X142830273Y-64771680D01*
X143091426Y-64879853D01*
X143368665Y-64935000D01*
X143651335Y-64935000D01*
X143928574Y-64879853D01*
X144189727Y-64771680D01*
X144424759Y-64614637D01*
X144624637Y-64414759D01*
X144781680Y-64179727D01*
X144889853Y-63918574D01*
X144945000Y-63641335D01*
X144945000Y-63358665D01*
X144889853Y-63081426D01*
X144781680Y-62820273D01*
X144624637Y-62585241D01*
X144424759Y-62385363D01*
X144189727Y-62228320D01*
X143928574Y-62120147D01*
X143651335Y-62065000D01*
X143368665Y-62065000D01*
X143091426Y-62120147D01*
X142830273Y-62228320D01*
X142595241Y-62385363D01*
X142395363Y-62585241D01*
X142238320Y-62820273D01*
X142130147Y-63081426D01*
X142075000Y-63358665D01*
X117937426Y-63358665D01*
X117854851Y-63314528D01*
X117688255Y-63263992D01*
X117515001Y-63246928D01*
X116164999Y-63246928D01*
X115991745Y-63263992D01*
X115825149Y-63314528D01*
X115671613Y-63396595D01*
X115537038Y-63507038D01*
X115426595Y-63641613D01*
X115344528Y-63795149D01*
X115293992Y-63961745D01*
X115276928Y-64134999D01*
X114593072Y-64134999D01*
X114593072Y-64094999D01*
X114576008Y-63921745D01*
X114525472Y-63755149D01*
X114443405Y-63601613D01*
X114332962Y-63467038D01*
X114198387Y-63356595D01*
X114044851Y-63274528D01*
X113878255Y-63223992D01*
X113705001Y-63206928D01*
X112354999Y-63206928D01*
X112181745Y-63223992D01*
X112015149Y-63274528D01*
X111861613Y-63356595D01*
X111727038Y-63467038D01*
X111616595Y-63601613D01*
X111534528Y-63755149D01*
X111483992Y-63921745D01*
X111466928Y-64094999D01*
X107288405Y-64094999D01*
X107274960Y-63958493D01*
X107195764Y-63697419D01*
X107071060Y-63464114D01*
X107111185Y-63431185D01*
X107190537Y-63334494D01*
X107249502Y-63224180D01*
X107285812Y-63104482D01*
X107298072Y-62980000D01*
X107295000Y-62515750D01*
X107136250Y-62357000D01*
X105537000Y-62357000D01*
X105537000Y-62377000D01*
X105283000Y-62377000D01*
X105283000Y-62357000D01*
X103683750Y-62357000D01*
X103525000Y-62515750D01*
X103521928Y-62980000D01*
X103534188Y-63104482D01*
X103570498Y-63224180D01*
X103629463Y-63334494D01*
X103708815Y-63431185D01*
X103748940Y-63464114D01*
X103624236Y-63697419D01*
X103545040Y-63958493D01*
X103518299Y-64230000D01*
X103545040Y-64501507D01*
X103624236Y-64762581D01*
X103752843Y-65003188D01*
X103925919Y-65214081D01*
X103945316Y-65230000D01*
X103925919Y-65245919D01*
X103752843Y-65456812D01*
X103624236Y-65697419D01*
X103545040Y-65958493D01*
X103518299Y-66230000D01*
X103545040Y-66501507D01*
X103624236Y-66762581D01*
X103718994Y-66939861D01*
X103527234Y-67097234D01*
X103310421Y-67361422D01*
X103149314Y-67662832D01*
X103050105Y-67989881D01*
X103016606Y-68330000D01*
X102997000Y-68330000D01*
X102997000Y-60130000D01*
X103016606Y-60130000D01*
X103050105Y-60470119D01*
X103149314Y-60797168D01*
X103310421Y-61098578D01*
X103527234Y-61362766D01*
X103533008Y-61367504D01*
X103521928Y-61480000D01*
X103525000Y-61944250D01*
X103683750Y-62103000D01*
X105283000Y-62103000D01*
X105283000Y-62083000D01*
X105537000Y-62083000D01*
X105537000Y-62103000D01*
X107136250Y-62103000D01*
X107295000Y-61944250D01*
X107298072Y-61480000D01*
X107286992Y-61367504D01*
X107292766Y-61362766D01*
X107509579Y-61098578D01*
X107670686Y-60797168D01*
X107769895Y-60470119D01*
X107803394Y-60130000D01*
X107769895Y-59789881D01*
X107670686Y-59462832D01*
X107509579Y-59161422D01*
X107292766Y-58897234D01*
X107028578Y-58680421D01*
X106727168Y-58519314D01*
X106400119Y-58420105D01*
X106145225Y-58395000D01*
X104674775Y-58395000D01*
X104419881Y-58420105D01*
X104092832Y-58519314D01*
X103791422Y-58680421D01*
X103527234Y-58897234D01*
X103310421Y-59161422D01*
X103149314Y-59462832D01*
X103050105Y-59789881D01*
X103016606Y-60130000D01*
X102997000Y-60130000D01*
X102997000Y-57997523D01*
X122020000Y-57997523D01*
X122020000Y-58842476D01*
X122036929Y-59014359D01*
X122103831Y-59234905D01*
X122212474Y-59438161D01*
X122358682Y-59616318D01*
X122536838Y-59762526D01*
X122740094Y-59871169D01*
X122960640Y-59938071D01*
X123190000Y-59960661D01*
X123419359Y-59938071D01*
X123620256Y-59877129D01*
X123680820Y-59909502D01*
X123800518Y-59945812D01*
X123925000Y-59958072D01*
X124174250Y-59955000D01*
X124333000Y-59796250D01*
X124333000Y-59047560D01*
X124343071Y-59014360D01*
X124360000Y-58842477D01*
X124360000Y-57997524D01*
X124360000Y-57997523D01*
X124560000Y-57997523D01*
X124560000Y-58842476D01*
X124576929Y-59014359D01*
X124587000Y-59047559D01*
X124587000Y-59796250D01*
X124745750Y-59955000D01*
X124995000Y-59958072D01*
X125119482Y-59945812D01*
X125239180Y-59909502D01*
X125299743Y-59877130D01*
X125500640Y-59938071D01*
X125730000Y-59960661D01*
X125959359Y-59938071D01*
X126179905Y-59871169D01*
X126365000Y-59772234D01*
X126550094Y-59871169D01*
X126770640Y-59938071D01*
X127000000Y-59960661D01*
X127229359Y-59938071D01*
X127449905Y-59871169D01*
X127653161Y-59762526D01*
X127831318Y-59616318D01*
X127977526Y-59438162D01*
X128086169Y-59234906D01*
X128153071Y-59014360D01*
X128170000Y-58842477D01*
X128170000Y-57997524D01*
X128153071Y-57825641D01*
X128086169Y-57605094D01*
X127977526Y-57401838D01*
X127831318Y-57223682D01*
X127653162Y-57077474D01*
X127449906Y-56968831D01*
X127229360Y-56901929D01*
X127000000Y-56879339D01*
X126770641Y-56901929D01*
X126550095Y-56968831D01*
X126365000Y-57067766D01*
X126179906Y-56968831D01*
X125959360Y-56901929D01*
X125730000Y-56879339D01*
X125500641Y-56901929D01*
X125299744Y-56962871D01*
X125239180Y-56930498D01*
X125119482Y-56894188D01*
X124995000Y-56881928D01*
X124745750Y-56885000D01*
X124587000Y-57043750D01*
X124587000Y-57792440D01*
X124576929Y-57825640D01*
X124560000Y-57997523D01*
X124360000Y-57997523D01*
X124343071Y-57825641D01*
X124333000Y-57792441D01*
X124333000Y-57043750D01*
X124174250Y-56885000D01*
X123925000Y-56881928D01*
X123800518Y-56894188D01*
X123680820Y-56930498D01*
X123620257Y-56962870D01*
X123419360Y-56901929D01*
X123190000Y-56879339D01*
X122960641Y-56901929D01*
X122740095Y-56968831D01*
X122536839Y-57077474D01*
X122358683Y-57223682D01*
X122212475Y-57401838D01*
X122103831Y-57605094D01*
X122036929Y-57825640D01*
X122020000Y-57997523D01*
X102997000Y-57997523D01*
X102997000Y-54399117D01*
X111295000Y-54399117D01*
X111295000Y-54740883D01*
X111361675Y-55076081D01*
X111492463Y-55391831D01*
X111682337Y-55675998D01*
X111924002Y-55917663D01*
X112208169Y-56107537D01*
X112523919Y-56238325D01*
X112859117Y-56305000D01*
X113200883Y-56305000D01*
X113536081Y-56238325D01*
X113851831Y-56107537D01*
X114135998Y-55917663D01*
X114377663Y-55675998D01*
X114567537Y-55391831D01*
X114698325Y-55076081D01*
X114765000Y-54740883D01*
X114765000Y-54439117D01*
X115105000Y-54439117D01*
X115105000Y-54780883D01*
X115171675Y-55116081D01*
X115302463Y-55431831D01*
X115492337Y-55715998D01*
X115734002Y-55957663D01*
X116018169Y-56147537D01*
X116333919Y-56278325D01*
X116669117Y-56345000D01*
X117010883Y-56345000D01*
X117346081Y-56278325D01*
X117661831Y-56147537D01*
X117945998Y-55957663D01*
X118187663Y-55715998D01*
X118317298Y-55521984D01*
X141145000Y-55521984D01*
X141145000Y-56238016D01*
X141284691Y-56940290D01*
X141558705Y-57601818D01*
X141956511Y-58197177D01*
X142462823Y-58703489D01*
X143058182Y-59101295D01*
X143719710Y-59375309D01*
X144421984Y-59515000D01*
X145138016Y-59515000D01*
X145840290Y-59375309D01*
X146501818Y-59101295D01*
X147097177Y-58703489D01*
X147603489Y-58197177D01*
X148001295Y-57601818D01*
X148275309Y-56940290D01*
X148415000Y-56238016D01*
X148415000Y-55521984D01*
X148275309Y-54819710D01*
X148001295Y-54158182D01*
X147603489Y-53562823D01*
X147097177Y-53056511D01*
X146501818Y-52658705D01*
X145840290Y-52384691D01*
X145138016Y-52245000D01*
X144421984Y-52245000D01*
X143719710Y-52384691D01*
X143058182Y-52658705D01*
X142462823Y-53056511D01*
X141956511Y-53562823D01*
X141558705Y-54158182D01*
X141284691Y-54819710D01*
X141145000Y-55521984D01*
X118317298Y-55521984D01*
X118377537Y-55431831D01*
X118508325Y-55116081D01*
X118575000Y-54780883D01*
X118575000Y-54439117D01*
X118508325Y-54103919D01*
X118377537Y-53788169D01*
X118187663Y-53504002D01*
X117945998Y-53262337D01*
X117661831Y-53072463D01*
X117346081Y-52941675D01*
X117010883Y-52875000D01*
X116669117Y-52875000D01*
X116333919Y-52941675D01*
X116018169Y-53072463D01*
X115734002Y-53262337D01*
X115492337Y-53504002D01*
X115302463Y-53788169D01*
X115171675Y-54103919D01*
X115105000Y-54439117D01*
X114765000Y-54439117D01*
X114765000Y-54399117D01*
X114698325Y-54063919D01*
X114567537Y-53748169D01*
X114377663Y-53464002D01*
X114135998Y-53222337D01*
X113851831Y-53032463D01*
X113536081Y-52901675D01*
X113200883Y-52835000D01*
X112859117Y-52835000D01*
X112523919Y-52901675D01*
X112208169Y-53032463D01*
X111924002Y-53222337D01*
X111682337Y-53464002D01*
X111492463Y-53748169D01*
X111361675Y-54063919D01*
X111295000Y-54399117D01*
X102997000Y-54399117D01*
X102997000Y-53392606D01*
X104192606Y-52197000D01*
X147267394Y-52197000D01*
X148463000Y-53392606D01*
%TA.AperFunction,Conductor*%
D24*
G36*
X148463000Y-53392606D02*
G01*
X148463000Y-96467394D01*
X147267394Y-97663000D01*
X104192606Y-97663000D01*
X102997000Y-96467394D01*
X102997000Y-93621984D01*
X103045000Y-93621984D01*
X103045000Y-94338016D01*
X103184691Y-95040290D01*
X103458705Y-95701818D01*
X103856511Y-96297177D01*
X104362823Y-96803489D01*
X104958182Y-97201295D01*
X105619710Y-97475309D01*
X106321984Y-97615000D01*
X107038016Y-97615000D01*
X107740290Y-97475309D01*
X108401818Y-97201295D01*
X108997177Y-96803489D01*
X109503489Y-96297177D01*
X109901295Y-95701818D01*
X109940615Y-95606890D01*
X138258524Y-95606890D01*
X138303175Y-95754099D01*
X138428359Y-96016920D01*
X138602412Y-96250269D01*
X138818645Y-96445178D01*
X139068748Y-96594157D01*
X139343109Y-96691481D01*
X139573000Y-96570814D01*
X139573000Y-95377000D01*
X139827000Y-95377000D01*
X139827000Y-96570814D01*
X140056891Y-96691481D01*
X140331252Y-96594157D01*
X140581355Y-96445178D01*
X140797588Y-96250269D01*
X140971641Y-96016920D01*
X141096825Y-95754099D01*
X141141476Y-95606890D01*
X141020155Y-95377000D01*
X139827000Y-95377000D01*
X139573000Y-95377000D01*
X138379845Y-95377000D01*
X138258524Y-95606890D01*
X109940615Y-95606890D01*
X110175309Y-95040290D01*
X110315000Y-94338016D01*
X110315000Y-93621984D01*
X110238814Y-93238967D01*
X120285000Y-93238967D01*
X120285000Y-93561033D01*
X120347832Y-93876912D01*
X120471082Y-94174463D01*
X120650013Y-94442252D01*
X120877748Y-94669987D01*
X121145537Y-94848918D01*
X121443088Y-94972168D01*
X121758967Y-95035000D01*
X122081033Y-95035000D01*
X122396912Y-94972168D01*
X122694463Y-94848918D01*
X122962252Y-94669987D01*
X123189987Y-94442252D01*
X123368918Y-94174463D01*
X123492168Y-93876912D01*
X123555000Y-93561033D01*
X123555000Y-93238967D01*
X126785000Y-93238967D01*
X126785000Y-93561033D01*
X126847832Y-93876912D01*
X126971082Y-94174463D01*
X127150013Y-94442252D01*
X127377748Y-94669987D01*
X127645537Y-94848918D01*
X127943088Y-94972168D01*
X128258967Y-95035000D01*
X128581033Y-95035000D01*
X128896912Y-94972168D01*
X129194463Y-94848918D01*
X129462252Y-94669987D01*
X129689987Y-94442252D01*
X129868918Y-94174463D01*
X129992168Y-93876912D01*
X130055000Y-93561033D01*
X130055000Y-93238967D01*
X129992168Y-92923088D01*
X129986177Y-92908624D01*
X137671003Y-85223799D01*
X137700001Y-85200001D01*
X137794974Y-85084276D01*
X137865546Y-84952247D01*
X137909003Y-84808986D01*
X137920000Y-84697333D01*
X137923677Y-84660000D01*
X137920000Y-84622667D01*
X137920000Y-83310000D01*
X138211928Y-83310000D01*
X138211928Y-83400000D01*
X138224188Y-83524482D01*
X138260498Y-83644180D01*
X138319463Y-83754494D01*
X138398815Y-83851185D01*
X138495506Y-83930537D01*
X138605820Y-83989502D01*
X138678380Y-84011513D01*
X138546525Y-84143368D01*
X138384010Y-84386589D01*
X138272068Y-84656842D01*
X138215000Y-84943740D01*
X138215000Y-85236260D01*
X138272068Y-85523158D01*
X138384010Y-85793411D01*
X138546525Y-86036632D01*
X138753368Y-86243475D01*
X138927760Y-86360000D01*
X138753368Y-86476525D01*
X138546525Y-86683368D01*
X138384010Y-86926589D01*
X138272068Y-87196842D01*
X138215000Y-87483740D01*
X138215000Y-87776260D01*
X138272068Y-88063158D01*
X138384010Y-88333411D01*
X138546525Y-88576632D01*
X138753368Y-88783475D01*
X138927760Y-88900000D01*
X138753368Y-89016525D01*
X138546525Y-89223368D01*
X138384010Y-89466589D01*
X138272068Y-89736842D01*
X138215000Y-90023740D01*
X138215000Y-90316260D01*
X138272068Y-90603158D01*
X138384010Y-90873411D01*
X138546525Y-91116632D01*
X138753368Y-91323475D01*
X138927760Y-91440000D01*
X138753368Y-91556525D01*
X138546525Y-91763368D01*
X138384010Y-92006589D01*
X138272068Y-92276842D01*
X138215000Y-92563740D01*
X138215000Y-92856260D01*
X138272068Y-93143158D01*
X138384010Y-93413411D01*
X138546525Y-93656632D01*
X138753368Y-93863475D01*
X138935534Y-93985195D01*
X138818645Y-94054822D01*
X138602412Y-94249731D01*
X138428359Y-94483080D01*
X138303175Y-94745901D01*
X138258524Y-94893110D01*
X138379845Y-95123000D01*
X139573000Y-95123000D01*
X139573000Y-95103000D01*
X139827000Y-95103000D01*
X139827000Y-95123000D01*
X141020155Y-95123000D01*
X141141476Y-94893110D01*
X141096825Y-94745901D01*
X140971641Y-94483080D01*
X140797588Y-94249731D01*
X140581355Y-94054822D01*
X140464466Y-93985195D01*
X140646632Y-93863475D01*
X140853475Y-93656632D01*
X141015990Y-93413411D01*
X141127932Y-93143158D01*
X141185000Y-92856260D01*
X141185000Y-92563740D01*
X141127932Y-92276842D01*
X141015990Y-92006589D01*
X140853475Y-91763368D01*
X140646632Y-91556525D01*
X140472240Y-91440000D01*
X140646632Y-91323475D01*
X140853475Y-91116632D01*
X141015990Y-90873411D01*
X141127932Y-90603158D01*
X141185000Y-90316260D01*
X141185000Y-90023740D01*
X141127932Y-89736842D01*
X141015990Y-89466589D01*
X140853475Y-89223368D01*
X140646632Y-89016525D01*
X140472240Y-88900000D01*
X140646632Y-88783475D01*
X140853475Y-88576632D01*
X141015990Y-88333411D01*
X141127932Y-88063158D01*
X141185000Y-87776260D01*
X141185000Y-87483740D01*
X141127932Y-87196842D01*
X141015990Y-86926589D01*
X140853475Y-86683368D01*
X140646632Y-86476525D01*
X140472240Y-86360000D01*
X140646632Y-86243475D01*
X140853475Y-86036632D01*
X141015990Y-85793411D01*
X141127932Y-85523158D01*
X141185000Y-85236260D01*
X141185000Y-84943740D01*
X141127932Y-84656842D01*
X141015990Y-84386589D01*
X140853475Y-84143368D01*
X140721620Y-84011513D01*
X140794180Y-83989502D01*
X140904494Y-83930537D01*
X141001185Y-83851185D01*
X141080537Y-83754494D01*
X141139502Y-83644180D01*
X141175812Y-83524482D01*
X141188072Y-83400000D01*
X141188072Y-81700000D01*
X141175812Y-81575518D01*
X141139502Y-81455820D01*
X141080537Y-81345506D01*
X141001185Y-81248815D01*
X140904494Y-81169463D01*
X140794180Y-81110498D01*
X140674482Y-81074188D01*
X140550000Y-81061928D01*
X138850000Y-81061928D01*
X138725518Y-81074188D01*
X138605820Y-81110498D01*
X138495506Y-81169463D01*
X138398815Y-81248815D01*
X138319463Y-81345506D01*
X138260498Y-81455820D01*
X138224188Y-81575518D01*
X138211928Y-81700000D01*
X138211928Y-81790000D01*
X137474802Y-81790000D01*
X134110000Y-78425199D01*
X134110000Y-76058665D01*
X134455000Y-76058665D01*
X134455000Y-76341335D01*
X134510147Y-76618574D01*
X134618320Y-76879727D01*
X134775363Y-77114759D01*
X134975241Y-77314637D01*
X135210273Y-77471680D01*
X135471426Y-77579853D01*
X135748665Y-77635000D01*
X136031335Y-77635000D01*
X136308574Y-77579853D01*
X136569727Y-77471680D01*
X136804759Y-77314637D01*
X137004637Y-77114759D01*
X137161680Y-76879727D01*
X137269853Y-76618574D01*
X137325000Y-76341335D01*
X137325000Y-76058665D01*
X137269853Y-75781426D01*
X137161680Y-75520273D01*
X137004637Y-75285241D01*
X136804759Y-75085363D01*
X136569727Y-74928320D01*
X136308574Y-74820147D01*
X136031335Y-74765000D01*
X135748665Y-74765000D01*
X135471426Y-74820147D01*
X135210273Y-74928320D01*
X134975241Y-75085363D01*
X134775363Y-75285241D01*
X134618320Y-75520273D01*
X134510147Y-75781426D01*
X134455000Y-76058665D01*
X134110000Y-76058665D01*
X134110000Y-73518665D01*
X138265000Y-73518665D01*
X138265000Y-73801335D01*
X138320147Y-74078574D01*
X138428320Y-74339727D01*
X138585363Y-74574759D01*
X138785241Y-74774637D01*
X139020273Y-74931680D01*
X139281426Y-75039853D01*
X139558665Y-75095000D01*
X139841335Y-75095000D01*
X140118574Y-75039853D01*
X140379727Y-74931680D01*
X140614759Y-74774637D01*
X140814637Y-74574759D01*
X140971680Y-74339727D01*
X141079853Y-74078574D01*
X141135000Y-73801335D01*
X141135000Y-73518665D01*
X141079853Y-73241426D01*
X140971680Y-72980273D01*
X140814637Y-72745241D01*
X140614759Y-72545363D01*
X140379727Y-72388320D01*
X140118574Y-72280147D01*
X139841335Y-72225000D01*
X139558665Y-72225000D01*
X139281426Y-72280147D01*
X139020273Y-72388320D01*
X138785241Y-72545363D01*
X138585363Y-72745241D01*
X138428320Y-72980273D01*
X138320147Y-73241426D01*
X138265000Y-73518665D01*
X134110000Y-73518665D01*
X134110000Y-72427325D01*
X134113676Y-72390000D01*
X134110000Y-72352675D01*
X134110000Y-72352667D01*
X134099003Y-72241014D01*
X134055546Y-72097753D01*
X133984974Y-71965724D01*
X133890001Y-71849999D01*
X133861003Y-71826201D01*
X133013467Y-70978665D01*
X142075000Y-70978665D01*
X142075000Y-71261335D01*
X142130147Y-71538574D01*
X142238320Y-71799727D01*
X142395363Y-72034759D01*
X142595241Y-72234637D01*
X142830273Y-72391680D01*
X143091426Y-72499853D01*
X143368665Y-72555000D01*
X143651335Y-72555000D01*
X143928574Y-72499853D01*
X144189727Y-72391680D01*
X144424759Y-72234637D01*
X144624637Y-72034759D01*
X144781680Y-71799727D01*
X144889853Y-71538574D01*
X144945000Y-71261335D01*
X144945000Y-70978665D01*
X144889853Y-70701426D01*
X144781680Y-70440273D01*
X144624637Y-70205241D01*
X144424759Y-70005363D01*
X144189727Y-69848320D01*
X143928574Y-69740147D01*
X143651335Y-69685000D01*
X143368665Y-69685000D01*
X143091426Y-69740147D01*
X142830273Y-69848320D01*
X142595241Y-70005363D01*
X142395363Y-70205241D01*
X142238320Y-70440273D01*
X142130147Y-70701426D01*
X142075000Y-70978665D01*
X133013467Y-70978665D01*
X130938688Y-68903887D01*
X130975000Y-68721335D01*
X130975000Y-68438665D01*
X134455000Y-68438665D01*
X134455000Y-68721335D01*
X134510147Y-68998574D01*
X134618320Y-69259727D01*
X134775363Y-69494759D01*
X134975241Y-69694637D01*
X135210273Y-69851680D01*
X135471426Y-69959853D01*
X135748665Y-70015000D01*
X136031335Y-70015000D01*
X136308574Y-69959853D01*
X136569727Y-69851680D01*
X136804759Y-69694637D01*
X137004637Y-69494759D01*
X137161680Y-69259727D01*
X137269853Y-68998574D01*
X137325000Y-68721335D01*
X137325000Y-68438665D01*
X137269853Y-68161426D01*
X137161680Y-67900273D01*
X137004637Y-67665241D01*
X136804759Y-67465363D01*
X136569727Y-67308320D01*
X136308574Y-67200147D01*
X136031335Y-67145000D01*
X135748665Y-67145000D01*
X135471426Y-67200147D01*
X135210273Y-67308320D01*
X134975241Y-67465363D01*
X134775363Y-67665241D01*
X134618320Y-67900273D01*
X134510147Y-68161426D01*
X134455000Y-68438665D01*
X130975000Y-68438665D01*
X130919853Y-68161426D01*
X130811680Y-67900273D01*
X130654637Y-67665241D01*
X130454759Y-67465363D01*
X130219727Y-67308320D01*
X129958574Y-67200147D01*
X129681335Y-67145000D01*
X129398665Y-67145000D01*
X129121426Y-67200147D01*
X128860273Y-67308320D01*
X128625241Y-67465363D01*
X128425363Y-67665241D01*
X128268320Y-67900273D01*
X128160147Y-68161426D01*
X128105000Y-68438665D01*
X128105000Y-68721335D01*
X128160147Y-68998574D01*
X128268320Y-69259727D01*
X128425363Y-69494759D01*
X128625241Y-69694637D01*
X128857759Y-69850000D01*
X128625241Y-70005363D01*
X128425363Y-70205241D01*
X128268320Y-70440273D01*
X128160147Y-70701426D01*
X128105000Y-70978665D01*
X128105000Y-71261335D01*
X128160147Y-71538574D01*
X128268320Y-71799727D01*
X128425363Y-72034759D01*
X128625241Y-72234637D01*
X128857759Y-72390000D01*
X128625241Y-72545363D01*
X128425363Y-72745241D01*
X128268320Y-72980273D01*
X128160147Y-73241426D01*
X128105000Y-73518665D01*
X128105000Y-73801335D01*
X128160147Y-74078574D01*
X128268320Y-74339727D01*
X128425363Y-74574759D01*
X128625241Y-74774637D01*
X128857759Y-74930000D01*
X128625241Y-75085363D01*
X128425363Y-75285241D01*
X128268320Y-75520273D01*
X128160147Y-75781426D01*
X128105000Y-76058665D01*
X128105000Y-76341335D01*
X128160147Y-76618574D01*
X128268320Y-76879727D01*
X128425363Y-77114759D01*
X128625241Y-77314637D01*
X128860273Y-77471680D01*
X129121426Y-77579853D01*
X129398665Y-77635000D01*
X129681335Y-77635000D01*
X129958574Y-77579853D01*
X130219727Y-77471680D01*
X130454759Y-77314637D01*
X130654637Y-77114759D01*
X130811680Y-76879727D01*
X130919853Y-76618574D01*
X130975000Y-76341335D01*
X130975000Y-76058665D01*
X130919853Y-75781426D01*
X130811680Y-75520273D01*
X130654637Y-75285241D01*
X130454759Y-75085363D01*
X130222241Y-74930000D01*
X130454759Y-74774637D01*
X130654637Y-74574759D01*
X130811680Y-74339727D01*
X130919853Y-74078574D01*
X130975000Y-73801335D01*
X130975000Y-73518665D01*
X130919853Y-73241426D01*
X130811680Y-72980273D01*
X130654637Y-72745241D01*
X130454759Y-72545363D01*
X130222241Y-72390000D01*
X130454759Y-72234637D01*
X130654637Y-72034759D01*
X130811680Y-71799727D01*
X130919853Y-71538574D01*
X130975000Y-71261335D01*
X130975000Y-71089802D01*
X132590001Y-72704803D01*
X132590000Y-78702677D01*
X132586324Y-78740000D01*
X132590000Y-78777322D01*
X132590000Y-78777332D01*
X132600997Y-78888985D01*
X132644454Y-79032246D01*
X132715026Y-79164276D01*
X132754871Y-79212826D01*
X132809999Y-79280001D01*
X132839003Y-79303804D01*
X136400000Y-82864802D01*
X136400001Y-84345197D01*
X128911376Y-91833823D01*
X128896912Y-91827832D01*
X128581033Y-91765000D01*
X128258967Y-91765000D01*
X127943088Y-91827832D01*
X127645537Y-91951082D01*
X127377748Y-92130013D01*
X127150013Y-92357748D01*
X126971082Y-92625537D01*
X126847832Y-92923088D01*
X126785000Y-93238967D01*
X123555000Y-93238967D01*
X123492168Y-92923088D01*
X123368918Y-92625537D01*
X123189987Y-92357748D01*
X122962252Y-92130013D01*
X122694463Y-91951082D01*
X122396912Y-91827832D01*
X122081033Y-91765000D01*
X121758967Y-91765000D01*
X121443088Y-91827832D01*
X121145537Y-91951082D01*
X120877748Y-92130013D01*
X120650013Y-92357748D01*
X120471082Y-92625537D01*
X120347832Y-92923088D01*
X120285000Y-93238967D01*
X110238814Y-93238967D01*
X110175309Y-92919710D01*
X109901295Y-92258182D01*
X109503489Y-91662823D01*
X108997177Y-91156511D01*
X108401818Y-90758705D01*
X107740290Y-90484691D01*
X107038016Y-90345000D01*
X106321984Y-90345000D01*
X105619710Y-90484691D01*
X104958182Y-90758705D01*
X104362823Y-91156511D01*
X103856511Y-91662823D01*
X103458705Y-92258182D01*
X103184691Y-92919710D01*
X103045000Y-93621984D01*
X102997000Y-93621984D01*
X102997000Y-88738967D01*
X120285000Y-88738967D01*
X120285000Y-89061033D01*
X120347832Y-89376912D01*
X120471082Y-89674463D01*
X120650013Y-89942252D01*
X120877748Y-90169987D01*
X121145537Y-90348918D01*
X121443088Y-90472168D01*
X121758967Y-90535000D01*
X122081033Y-90535000D01*
X122396912Y-90472168D01*
X122694463Y-90348918D01*
X122962252Y-90169987D01*
X123189987Y-89942252D01*
X123368918Y-89674463D01*
X123492168Y-89376912D01*
X123555000Y-89061033D01*
X123555000Y-88738967D01*
X126785000Y-88738967D01*
X126785000Y-89061033D01*
X126847832Y-89376912D01*
X126971082Y-89674463D01*
X127150013Y-89942252D01*
X127377748Y-90169987D01*
X127645537Y-90348918D01*
X127943088Y-90472168D01*
X128258967Y-90535000D01*
X128581033Y-90535000D01*
X128896912Y-90472168D01*
X129194463Y-90348918D01*
X129462252Y-90169987D01*
X129689987Y-89942252D01*
X129868918Y-89674463D01*
X129992168Y-89376912D01*
X130055000Y-89061033D01*
X130055000Y-88738967D01*
X129992168Y-88423088D01*
X129868918Y-88125537D01*
X129689987Y-87857748D01*
X129462252Y-87630013D01*
X129194463Y-87451082D01*
X128896912Y-87327832D01*
X128581033Y-87265000D01*
X128258967Y-87265000D01*
X127943088Y-87327832D01*
X127645537Y-87451082D01*
X127377748Y-87630013D01*
X127150013Y-87857748D01*
X126971082Y-88125537D01*
X126847832Y-88423088D01*
X126785000Y-88738967D01*
X123555000Y-88738967D01*
X123492168Y-88423088D01*
X123368918Y-88125537D01*
X123189987Y-87857748D01*
X122962252Y-87630013D01*
X122694463Y-87451082D01*
X122396912Y-87327832D01*
X122081033Y-87265000D01*
X121758967Y-87265000D01*
X121443088Y-87327832D01*
X121145537Y-87451082D01*
X120877748Y-87630013D01*
X120650013Y-87857748D01*
X120471082Y-88125537D01*
X120347832Y-88423088D01*
X120285000Y-88738967D01*
X102997000Y-88738967D01*
X102997000Y-85439039D01*
X105288096Y-85439039D01*
X105328754Y-85573087D01*
X105448963Y-85827420D01*
X105616481Y-86053414D01*
X105824869Y-86242385D01*
X106066119Y-86387070D01*
X106330960Y-86481909D01*
X106553000Y-86360624D01*
X106553000Y-85217000D01*
X106807000Y-85217000D01*
X106807000Y-86360624D01*
X107029040Y-86481909D01*
X107293881Y-86387070D01*
X107535131Y-86242385D01*
X107743519Y-86053414D01*
X107911037Y-85827420D01*
X108031246Y-85573087D01*
X108071904Y-85439039D01*
X107949915Y-85217000D01*
X106807000Y-85217000D01*
X106553000Y-85217000D01*
X105410085Y-85217000D01*
X105288096Y-85439039D01*
X102997000Y-85439039D01*
X102997000Y-84740961D01*
X105288096Y-84740961D01*
X105410085Y-84963000D01*
X106553000Y-84963000D01*
X106553000Y-83819376D01*
X106807000Y-83819376D01*
X106807000Y-84963000D01*
X107949915Y-84963000D01*
X107957790Y-84948665D01*
X112865000Y-84948665D01*
X112865000Y-85231335D01*
X112920147Y-85508574D01*
X113028320Y-85769727D01*
X113185363Y-86004759D01*
X113385241Y-86204637D01*
X113620273Y-86361680D01*
X113881426Y-86469853D01*
X114158665Y-86525000D01*
X114441335Y-86525000D01*
X114718574Y-86469853D01*
X114979727Y-86361680D01*
X115214759Y-86204637D01*
X115414637Y-86004759D01*
X115571680Y-85769727D01*
X115679853Y-85508574D01*
X115735000Y-85231335D01*
X115735000Y-84948665D01*
X115679853Y-84671426D01*
X115571680Y-84410273D01*
X115414637Y-84175241D01*
X115214759Y-83975363D01*
X114979727Y-83818320D01*
X114718574Y-83710147D01*
X114441335Y-83655000D01*
X114158665Y-83655000D01*
X113881426Y-83710147D01*
X113620273Y-83818320D01*
X113385241Y-83975363D01*
X113185363Y-84175241D01*
X113028320Y-84410273D01*
X112920147Y-84671426D01*
X112865000Y-84948665D01*
X107957790Y-84948665D01*
X108071904Y-84740961D01*
X108031246Y-84606913D01*
X107911037Y-84352580D01*
X107743519Y-84126586D01*
X107535131Y-83937615D01*
X107293881Y-83792930D01*
X107029040Y-83698091D01*
X106807000Y-83819376D01*
X106553000Y-83819376D01*
X106330960Y-83698091D01*
X106066119Y-83792930D01*
X105824869Y-83937615D01*
X105616481Y-84126586D01*
X105448963Y-84352580D01*
X105328754Y-84606913D01*
X105288096Y-84740961D01*
X102997000Y-84740961D01*
X102997000Y-82408665D01*
X119215000Y-82408665D01*
X119215000Y-82691335D01*
X119270147Y-82968574D01*
X119378320Y-83229727D01*
X119535363Y-83464759D01*
X119735241Y-83664637D01*
X119970273Y-83821680D01*
X120231426Y-83929853D01*
X120508665Y-83985000D01*
X120791335Y-83985000D01*
X121068574Y-83929853D01*
X121329727Y-83821680D01*
X121564759Y-83664637D01*
X121764637Y-83464759D01*
X121921680Y-83229727D01*
X122029853Y-82968574D01*
X122043684Y-82899039D01*
X126878096Y-82899039D01*
X126918754Y-83033087D01*
X127038963Y-83287420D01*
X127206481Y-83513414D01*
X127414869Y-83702385D01*
X127656119Y-83847070D01*
X127920960Y-83941909D01*
X128143000Y-83820624D01*
X128143000Y-82677000D01*
X128397000Y-82677000D01*
X128397000Y-83820624D01*
X128619040Y-83941909D01*
X128883881Y-83847070D01*
X129125131Y-83702385D01*
X129333519Y-83513414D01*
X129501037Y-83287420D01*
X129621246Y-83033087D01*
X129661904Y-82899039D01*
X129539915Y-82677000D01*
X128397000Y-82677000D01*
X128143000Y-82677000D01*
X127000085Y-82677000D01*
X126878096Y-82899039D01*
X122043684Y-82899039D01*
X122085000Y-82691335D01*
X122085000Y-82408665D01*
X122043685Y-82200961D01*
X126878096Y-82200961D01*
X127000085Y-82423000D01*
X128143000Y-82423000D01*
X128143000Y-81279376D01*
X128397000Y-81279376D01*
X128397000Y-82423000D01*
X129539915Y-82423000D01*
X129661904Y-82200961D01*
X129621246Y-82066913D01*
X129501037Y-81812580D01*
X129333519Y-81586586D01*
X129125131Y-81397615D01*
X128883881Y-81252930D01*
X128619040Y-81158091D01*
X128397000Y-81279376D01*
X128143000Y-81279376D01*
X127920960Y-81158091D01*
X127656119Y-81252930D01*
X127414869Y-81397615D01*
X127206481Y-81586586D01*
X127038963Y-81812580D01*
X126918754Y-82066913D01*
X126878096Y-82200961D01*
X122043685Y-82200961D01*
X122029853Y-82131426D01*
X121921680Y-81870273D01*
X121764637Y-81635241D01*
X121564759Y-81435363D01*
X121329727Y-81278320D01*
X121068574Y-81170147D01*
X120791335Y-81115000D01*
X120508665Y-81115000D01*
X120231426Y-81170147D01*
X119970273Y-81278320D01*
X119735241Y-81435363D01*
X119535363Y-81635241D01*
X119378320Y-81870273D01*
X119270147Y-82131426D01*
X119215000Y-82408665D01*
X102997000Y-82408665D01*
X102997000Y-79848967D01*
X106165000Y-79848967D01*
X106165000Y-80171033D01*
X106227832Y-80486912D01*
X106351082Y-80784463D01*
X106530013Y-81052252D01*
X106757748Y-81279987D01*
X107025537Y-81458918D01*
X107323088Y-81582168D01*
X107638967Y-81645000D01*
X107961033Y-81645000D01*
X108276912Y-81582168D01*
X108574463Y-81458918D01*
X108842252Y-81279987D01*
X109069987Y-81052252D01*
X109248918Y-80784463D01*
X109372168Y-80486912D01*
X109435000Y-80171033D01*
X109435000Y-79848967D01*
X112665000Y-79848967D01*
X112665000Y-80171033D01*
X112727832Y-80486912D01*
X112851082Y-80784463D01*
X113030013Y-81052252D01*
X113257748Y-81279987D01*
X113525537Y-81458918D01*
X113823088Y-81582168D01*
X114138967Y-81645000D01*
X114461033Y-81645000D01*
X114776912Y-81582168D01*
X115074463Y-81458918D01*
X115342252Y-81279987D01*
X115569987Y-81052252D01*
X115748918Y-80784463D01*
X115872168Y-80486912D01*
X115935000Y-80171033D01*
X115935000Y-79848967D01*
X115872168Y-79533088D01*
X115748918Y-79235537D01*
X115569987Y-78967748D01*
X115342252Y-78740013D01*
X115074463Y-78561082D01*
X114776912Y-78437832D01*
X114461033Y-78375000D01*
X114138967Y-78375000D01*
X113823088Y-78437832D01*
X113525537Y-78561082D01*
X113257748Y-78740013D01*
X113030013Y-78967748D01*
X112851082Y-79235537D01*
X112727832Y-79533088D01*
X112665000Y-79848967D01*
X109435000Y-79848967D01*
X109372168Y-79533088D01*
X109248918Y-79235537D01*
X109069987Y-78967748D01*
X108842252Y-78740013D01*
X108574463Y-78561082D01*
X108276912Y-78437832D01*
X107961033Y-78375000D01*
X107638967Y-78375000D01*
X107323088Y-78437832D01*
X107025537Y-78561082D01*
X106757748Y-78740013D01*
X106530013Y-78967748D01*
X106351082Y-79235537D01*
X106227832Y-79533088D01*
X106165000Y-79848967D01*
X102997000Y-79848967D01*
X102997000Y-75348967D01*
X106165000Y-75348967D01*
X106165000Y-75671033D01*
X106227832Y-75986912D01*
X106351082Y-76284463D01*
X106530013Y-76552252D01*
X106757748Y-76779987D01*
X107025537Y-76958918D01*
X107323088Y-77082168D01*
X107638967Y-77145000D01*
X107961033Y-77145000D01*
X108276912Y-77082168D01*
X108574463Y-76958918D01*
X108842252Y-76779987D01*
X109069987Y-76552252D01*
X109248918Y-76284463D01*
X109372168Y-75986912D01*
X109435000Y-75671033D01*
X109435000Y-75348967D01*
X112665000Y-75348967D01*
X112665000Y-75671033D01*
X112727832Y-75986912D01*
X112851082Y-76284463D01*
X113030013Y-76552252D01*
X113257748Y-76779987D01*
X113525537Y-76958918D01*
X113823088Y-77082168D01*
X114138967Y-77145000D01*
X114461033Y-77145000D01*
X114776912Y-77082168D01*
X115074463Y-76958918D01*
X115342252Y-76779987D01*
X115569987Y-76552252D01*
X115572133Y-76549039D01*
X120528096Y-76549039D01*
X120568754Y-76683087D01*
X120688963Y-76937420D01*
X120856481Y-77163414D01*
X121064869Y-77352385D01*
X121306119Y-77497070D01*
X121570960Y-77591909D01*
X121793000Y-77470624D01*
X121793000Y-76327000D01*
X122047000Y-76327000D01*
X122047000Y-77470624D01*
X122269040Y-77591909D01*
X122533881Y-77497070D01*
X122775131Y-77352385D01*
X122983519Y-77163414D01*
X123151037Y-76937420D01*
X123271246Y-76683087D01*
X123311904Y-76549039D01*
X123189915Y-76327000D01*
X122047000Y-76327000D01*
X121793000Y-76327000D01*
X120650085Y-76327000D01*
X120528096Y-76549039D01*
X115572133Y-76549039D01*
X115748918Y-76284463D01*
X115872168Y-75986912D01*
X115935000Y-75671033D01*
X115935000Y-75348967D01*
X115872168Y-75033088D01*
X115748918Y-74735537D01*
X115569987Y-74467748D01*
X115342252Y-74240013D01*
X115074463Y-74061082D01*
X114776912Y-73937832D01*
X114461033Y-73875000D01*
X114138967Y-73875000D01*
X113823088Y-73937832D01*
X113525537Y-74061082D01*
X113257748Y-74240013D01*
X113030013Y-74467748D01*
X112851082Y-74735537D01*
X112727832Y-75033088D01*
X112665000Y-75348967D01*
X109435000Y-75348967D01*
X109372168Y-75033088D01*
X109248918Y-74735537D01*
X109069987Y-74467748D01*
X108842252Y-74240013D01*
X108574463Y-74061082D01*
X108276912Y-73937832D01*
X107961033Y-73875000D01*
X107638967Y-73875000D01*
X107323088Y-73937832D01*
X107025537Y-74061082D01*
X106757748Y-74240013D01*
X106530013Y-74467748D01*
X106351082Y-74735537D01*
X106227832Y-75033088D01*
X106165000Y-75348967D01*
X102997000Y-75348967D01*
X102997000Y-68330000D01*
X103016606Y-68330000D01*
X103050105Y-68670119D01*
X103149314Y-68997168D01*
X103310421Y-69298578D01*
X103527234Y-69562766D01*
X103791422Y-69779579D01*
X104092832Y-69940686D01*
X104419881Y-70039895D01*
X104674775Y-70065000D01*
X106145225Y-70065000D01*
X106400119Y-70039895D01*
X106727168Y-69940686D01*
X107028578Y-69779579D01*
X107292766Y-69562766D01*
X107509579Y-69298578D01*
X107670686Y-68997168D01*
X107769895Y-68670119D01*
X107803394Y-68330000D01*
X107769895Y-67989881D01*
X107706229Y-67780000D01*
X120481928Y-67780000D01*
X120481928Y-69380000D01*
X120494188Y-69504482D01*
X120530498Y-69624180D01*
X120589463Y-69734494D01*
X120668815Y-69831185D01*
X120765506Y-69910537D01*
X120875820Y-69969502D01*
X120995518Y-70005812D01*
X121003961Y-70006643D01*
X120805363Y-70205241D01*
X120648320Y-70440273D01*
X120540147Y-70701426D01*
X120485000Y-70978665D01*
X120485000Y-71261335D01*
X120540147Y-71538574D01*
X120648320Y-71799727D01*
X120805363Y-72034759D01*
X121005241Y-72234637D01*
X121237759Y-72390000D01*
X121005241Y-72545363D01*
X120805363Y-72745241D01*
X120648320Y-72980273D01*
X120540147Y-73241426D01*
X120485000Y-73518665D01*
X120485000Y-73801335D01*
X120540147Y-74078574D01*
X120648320Y-74339727D01*
X120805363Y-74574759D01*
X121005241Y-74774637D01*
X121240273Y-74931680D01*
X121250865Y-74936067D01*
X121064869Y-75047615D01*
X120856481Y-75236586D01*
X120688963Y-75462580D01*
X120568754Y-75716913D01*
X120528096Y-75850961D01*
X120650085Y-76073000D01*
X121793000Y-76073000D01*
X121793000Y-76053000D01*
X122047000Y-76053000D01*
X122047000Y-76073000D01*
X123189915Y-76073000D01*
X123311904Y-75850961D01*
X123271246Y-75716913D01*
X123151037Y-75462580D01*
X122983519Y-75236586D01*
X122775131Y-75047615D01*
X122589135Y-74936067D01*
X122599727Y-74931680D01*
X122834759Y-74774637D01*
X123034637Y-74574759D01*
X123191680Y-74339727D01*
X123299853Y-74078574D01*
X123355000Y-73801335D01*
X123355000Y-73518665D01*
X123299853Y-73241426D01*
X123191680Y-72980273D01*
X123034637Y-72745241D01*
X122834759Y-72545363D01*
X122602241Y-72390000D01*
X122834759Y-72234637D01*
X123034637Y-72034759D01*
X123191680Y-71799727D01*
X123299853Y-71538574D01*
X123355000Y-71261335D01*
X123355000Y-70978665D01*
X123299853Y-70701426D01*
X123191680Y-70440273D01*
X123034637Y-70205241D01*
X122836039Y-70006643D01*
X122844482Y-70005812D01*
X122964180Y-69969502D01*
X123074494Y-69910537D01*
X123171185Y-69831185D01*
X123250537Y-69734494D01*
X123309502Y-69624180D01*
X123345812Y-69504482D01*
X123358072Y-69380000D01*
X123358072Y-67780000D01*
X123345812Y-67655518D01*
X123309502Y-67535820D01*
X123250537Y-67425506D01*
X123171185Y-67328815D01*
X123074494Y-67249463D01*
X122964180Y-67190498D01*
X122844482Y-67154188D01*
X122720000Y-67141928D01*
X121120000Y-67141928D01*
X120995518Y-67154188D01*
X120875820Y-67190498D01*
X120765506Y-67249463D01*
X120668815Y-67328815D01*
X120589463Y-67425506D01*
X120530498Y-67535820D01*
X120494188Y-67655518D01*
X120481928Y-67780000D01*
X107706229Y-67780000D01*
X107670686Y-67662832D01*
X107509579Y-67361422D01*
X107292766Y-67097234D01*
X107101006Y-66939861D01*
X107195764Y-66762581D01*
X107274960Y-66501507D01*
X107301701Y-66230000D01*
X107274960Y-65958493D01*
X107195764Y-65697419D01*
X107067157Y-65456812D01*
X106894081Y-65245919D01*
X106874684Y-65230000D01*
X106894081Y-65214081D01*
X107067157Y-65003188D01*
X107195764Y-64762581D01*
X107274960Y-64501507D01*
X107301701Y-64230000D01*
X107288405Y-64094999D01*
X111466928Y-64094999D01*
X111466928Y-65445001D01*
X111483992Y-65618255D01*
X111534528Y-65784851D01*
X111616595Y-65938387D01*
X111727038Y-66072962D01*
X111861613Y-66183405D01*
X112015149Y-66265472D01*
X112181745Y-66316008D01*
X112354999Y-66333072D01*
X113705001Y-66333072D01*
X113878255Y-66316008D01*
X114044851Y-66265472D01*
X114198387Y-66183405D01*
X114332962Y-66072962D01*
X114443405Y-65938387D01*
X114525472Y-65784851D01*
X114576008Y-65618255D01*
X114593072Y-65445001D01*
X114593072Y-64134999D01*
X115276928Y-64134999D01*
X115276928Y-65485001D01*
X115293992Y-65658255D01*
X115344528Y-65824851D01*
X115426595Y-65978387D01*
X115537038Y-66112962D01*
X115671613Y-66223405D01*
X115825149Y-66305472D01*
X115991745Y-66356008D01*
X116164999Y-66373072D01*
X117515001Y-66373072D01*
X117688255Y-66356008D01*
X117854851Y-66305472D01*
X118008387Y-66223405D01*
X118142962Y-66112962D01*
X118253405Y-65978387D01*
X118296017Y-65898665D01*
X138265000Y-65898665D01*
X138265000Y-66181335D01*
X138320147Y-66458574D01*
X138428320Y-66719727D01*
X138585363Y-66954759D01*
X138785241Y-67154637D01*
X139020273Y-67311680D01*
X139281426Y-67419853D01*
X139558665Y-67475000D01*
X139841335Y-67475000D01*
X140118574Y-67419853D01*
X140379727Y-67311680D01*
X140614759Y-67154637D01*
X140814637Y-66954759D01*
X140971680Y-66719727D01*
X141079853Y-66458574D01*
X141135000Y-66181335D01*
X141135000Y-65898665D01*
X141079853Y-65621426D01*
X140971680Y-65360273D01*
X140814637Y-65125241D01*
X140614759Y-64925363D01*
X140379727Y-64768320D01*
X140118574Y-64660147D01*
X139841335Y-64605000D01*
X139558665Y-64605000D01*
X139281426Y-64660147D01*
X139020273Y-64768320D01*
X138785241Y-64925363D01*
X138585363Y-65125241D01*
X138428320Y-65360273D01*
X138320147Y-65621426D01*
X138265000Y-65898665D01*
X118296017Y-65898665D01*
X118335472Y-65824851D01*
X118386008Y-65658255D01*
X118403072Y-65485001D01*
X118403072Y-64134999D01*
X118386008Y-63961745D01*
X118335472Y-63795149D01*
X118253405Y-63641613D01*
X118142962Y-63507038D01*
X118008387Y-63396595D01*
X117937426Y-63358665D01*
X142075000Y-63358665D01*
X142075000Y-63641335D01*
X142130147Y-63918574D01*
X142238320Y-64179727D01*
X142395363Y-64414759D01*
X142595241Y-64614637D01*
X142830273Y-64771680D01*
X143091426Y-64879853D01*
X143368665Y-64935000D01*
X143651335Y-64935000D01*
X143928574Y-64879853D01*
X144189727Y-64771680D01*
X144424759Y-64614637D01*
X144624637Y-64414759D01*
X144781680Y-64179727D01*
X144889853Y-63918574D01*
X144945000Y-63641335D01*
X144945000Y-63358665D01*
X144889853Y-63081426D01*
X144781680Y-62820273D01*
X144624637Y-62585241D01*
X144424759Y-62385363D01*
X144189727Y-62228320D01*
X143928574Y-62120147D01*
X143651335Y-62065000D01*
X143368665Y-62065000D01*
X143091426Y-62120147D01*
X142830273Y-62228320D01*
X142595241Y-62385363D01*
X142395363Y-62585241D01*
X142238320Y-62820273D01*
X142130147Y-63081426D01*
X142075000Y-63358665D01*
X117937426Y-63358665D01*
X117854851Y-63314528D01*
X117688255Y-63263992D01*
X117515001Y-63246928D01*
X116164999Y-63246928D01*
X115991745Y-63263992D01*
X115825149Y-63314528D01*
X115671613Y-63396595D01*
X115537038Y-63507038D01*
X115426595Y-63641613D01*
X115344528Y-63795149D01*
X115293992Y-63961745D01*
X115276928Y-64134999D01*
X114593072Y-64134999D01*
X114593072Y-64094999D01*
X114576008Y-63921745D01*
X114525472Y-63755149D01*
X114443405Y-63601613D01*
X114332962Y-63467038D01*
X114198387Y-63356595D01*
X114044851Y-63274528D01*
X113878255Y-63223992D01*
X113705001Y-63206928D01*
X112354999Y-63206928D01*
X112181745Y-63223992D01*
X112015149Y-63274528D01*
X111861613Y-63356595D01*
X111727038Y-63467038D01*
X111616595Y-63601613D01*
X111534528Y-63755149D01*
X111483992Y-63921745D01*
X111466928Y-64094999D01*
X107288405Y-64094999D01*
X107274960Y-63958493D01*
X107195764Y-63697419D01*
X107071060Y-63464114D01*
X107111185Y-63431185D01*
X107190537Y-63334494D01*
X107249502Y-63224180D01*
X107285812Y-63104482D01*
X107298072Y-62980000D01*
X107295000Y-62515750D01*
X107136250Y-62357000D01*
X105537000Y-62357000D01*
X105537000Y-62377000D01*
X105283000Y-62377000D01*
X105283000Y-62357000D01*
X103683750Y-62357000D01*
X103525000Y-62515750D01*
X103521928Y-62980000D01*
X103534188Y-63104482D01*
X103570498Y-63224180D01*
X103629463Y-63334494D01*
X103708815Y-63431185D01*
X103748940Y-63464114D01*
X103624236Y-63697419D01*
X103545040Y-63958493D01*
X103518299Y-64230000D01*
X103545040Y-64501507D01*
X103624236Y-64762581D01*
X103752843Y-65003188D01*
X103925919Y-65214081D01*
X103945316Y-65230000D01*
X103925919Y-65245919D01*
X103752843Y-65456812D01*
X103624236Y-65697419D01*
X103545040Y-65958493D01*
X103518299Y-66230000D01*
X103545040Y-66501507D01*
X103624236Y-66762581D01*
X103718994Y-66939861D01*
X103527234Y-67097234D01*
X103310421Y-67361422D01*
X103149314Y-67662832D01*
X103050105Y-67989881D01*
X103016606Y-68330000D01*
X102997000Y-68330000D01*
X102997000Y-60130000D01*
X103016606Y-60130000D01*
X103050105Y-60470119D01*
X103149314Y-60797168D01*
X103310421Y-61098578D01*
X103527234Y-61362766D01*
X103533008Y-61367504D01*
X103521928Y-61480000D01*
X103525000Y-61944250D01*
X103683750Y-62103000D01*
X105283000Y-62103000D01*
X105283000Y-62083000D01*
X105537000Y-62083000D01*
X105537000Y-62103000D01*
X107136250Y-62103000D01*
X107295000Y-61944250D01*
X107298072Y-61480000D01*
X107286992Y-61367504D01*
X107292766Y-61362766D01*
X107509579Y-61098578D01*
X107670686Y-60797168D01*
X107769895Y-60470119D01*
X107803394Y-60130000D01*
X107769895Y-59789881D01*
X107670686Y-59462832D01*
X107509579Y-59161422D01*
X107292766Y-58897234D01*
X107028578Y-58680421D01*
X106727168Y-58519314D01*
X106400119Y-58420105D01*
X106145225Y-58395000D01*
X104674775Y-58395000D01*
X104419881Y-58420105D01*
X104092832Y-58519314D01*
X103791422Y-58680421D01*
X103527234Y-58897234D01*
X103310421Y-59161422D01*
X103149314Y-59462832D01*
X103050105Y-59789881D01*
X103016606Y-60130000D01*
X102997000Y-60130000D01*
X102997000Y-57997523D01*
X122020000Y-57997523D01*
X122020000Y-58842476D01*
X122036929Y-59014359D01*
X122103831Y-59234905D01*
X122212474Y-59438161D01*
X122358682Y-59616318D01*
X122536838Y-59762526D01*
X122740094Y-59871169D01*
X122960640Y-59938071D01*
X123190000Y-59960661D01*
X123419359Y-59938071D01*
X123620256Y-59877129D01*
X123680820Y-59909502D01*
X123800518Y-59945812D01*
X123925000Y-59958072D01*
X124174250Y-59955000D01*
X124333000Y-59796250D01*
X124333000Y-59047560D01*
X124343071Y-59014360D01*
X124360000Y-58842477D01*
X124360000Y-57997524D01*
X124360000Y-57997523D01*
X124560000Y-57997523D01*
X124560000Y-58842476D01*
X124576929Y-59014359D01*
X124587000Y-59047559D01*
X124587000Y-59796250D01*
X124745750Y-59955000D01*
X124995000Y-59958072D01*
X125119482Y-59945812D01*
X125239180Y-59909502D01*
X125299743Y-59877130D01*
X125500640Y-59938071D01*
X125730000Y-59960661D01*
X125959359Y-59938071D01*
X126179905Y-59871169D01*
X126365000Y-59772234D01*
X126550094Y-59871169D01*
X126770640Y-59938071D01*
X127000000Y-59960661D01*
X127229359Y-59938071D01*
X127449905Y-59871169D01*
X127653161Y-59762526D01*
X127831318Y-59616318D01*
X127977526Y-59438162D01*
X128086169Y-59234906D01*
X128153071Y-59014360D01*
X128170000Y-58842477D01*
X128170000Y-57997524D01*
X128153071Y-57825641D01*
X128086169Y-57605094D01*
X127977526Y-57401838D01*
X127831318Y-57223682D01*
X127653162Y-57077474D01*
X127449906Y-56968831D01*
X127229360Y-56901929D01*
X127000000Y-56879339D01*
X126770641Y-56901929D01*
X126550095Y-56968831D01*
X126365000Y-57067766D01*
X126179906Y-56968831D01*
X125959360Y-56901929D01*
X125730000Y-56879339D01*
X125500641Y-56901929D01*
X125299744Y-56962871D01*
X125239180Y-56930498D01*
X125119482Y-56894188D01*
X124995000Y-56881928D01*
X124745750Y-56885000D01*
X124587000Y-57043750D01*
X124587000Y-57792440D01*
X124576929Y-57825640D01*
X124560000Y-57997523D01*
X124360000Y-57997523D01*
X124343071Y-57825641D01*
X124333000Y-57792441D01*
X124333000Y-57043750D01*
X124174250Y-56885000D01*
X123925000Y-56881928D01*
X123800518Y-56894188D01*
X123680820Y-56930498D01*
X123620257Y-56962870D01*
X123419360Y-56901929D01*
X123190000Y-56879339D01*
X122960641Y-56901929D01*
X122740095Y-56968831D01*
X122536839Y-57077474D01*
X122358683Y-57223682D01*
X122212475Y-57401838D01*
X122103831Y-57605094D01*
X122036929Y-57825640D01*
X122020000Y-57997523D01*
X102997000Y-57997523D01*
X102997000Y-54399117D01*
X111295000Y-54399117D01*
X111295000Y-54740883D01*
X111361675Y-55076081D01*
X111492463Y-55391831D01*
X111682337Y-55675998D01*
X111924002Y-55917663D01*
X112208169Y-56107537D01*
X112523919Y-56238325D01*
X112859117Y-56305000D01*
X113200883Y-56305000D01*
X113536081Y-56238325D01*
X113851831Y-56107537D01*
X114135998Y-55917663D01*
X114377663Y-55675998D01*
X114567537Y-55391831D01*
X114698325Y-55076081D01*
X114765000Y-54740883D01*
X114765000Y-54439117D01*
X115105000Y-54439117D01*
X115105000Y-54780883D01*
X115171675Y-55116081D01*
X115302463Y-55431831D01*
X115492337Y-55715998D01*
X115734002Y-55957663D01*
X116018169Y-56147537D01*
X116333919Y-56278325D01*
X116669117Y-56345000D01*
X117010883Y-56345000D01*
X117346081Y-56278325D01*
X117661831Y-56147537D01*
X117945998Y-55957663D01*
X118187663Y-55715998D01*
X118317298Y-55521984D01*
X141145000Y-55521984D01*
X141145000Y-56238016D01*
X141284691Y-56940290D01*
X141558705Y-57601818D01*
X141956511Y-58197177D01*
X142462823Y-58703489D01*
X143058182Y-59101295D01*
X143719710Y-59375309D01*
X144421984Y-59515000D01*
X145138016Y-59515000D01*
X145840290Y-59375309D01*
X146501818Y-59101295D01*
X147097177Y-58703489D01*
X147603489Y-58197177D01*
X148001295Y-57601818D01*
X148275309Y-56940290D01*
X148415000Y-56238016D01*
X148415000Y-55521984D01*
X148275309Y-54819710D01*
X148001295Y-54158182D01*
X147603489Y-53562823D01*
X147097177Y-53056511D01*
X146501818Y-52658705D01*
X145840290Y-52384691D01*
X145138016Y-52245000D01*
X144421984Y-52245000D01*
X143719710Y-52384691D01*
X143058182Y-52658705D01*
X142462823Y-53056511D01*
X141956511Y-53562823D01*
X141558705Y-54158182D01*
X141284691Y-54819710D01*
X141145000Y-55521984D01*
X118317298Y-55521984D01*
X118377537Y-55431831D01*
X118508325Y-55116081D01*
X118575000Y-54780883D01*
X118575000Y-54439117D01*
X118508325Y-54103919D01*
X118377537Y-53788169D01*
X118187663Y-53504002D01*
X117945998Y-53262337D01*
X117661831Y-53072463D01*
X117346081Y-52941675D01*
X117010883Y-52875000D01*
X116669117Y-52875000D01*
X116333919Y-52941675D01*
X116018169Y-53072463D01*
X115734002Y-53262337D01*
X115492337Y-53504002D01*
X115302463Y-53788169D01*
X115171675Y-54103919D01*
X115105000Y-54439117D01*
X114765000Y-54439117D01*
X114765000Y-54399117D01*
X114698325Y-54063919D01*
X114567537Y-53748169D01*
X114377663Y-53464002D01*
X114135998Y-53222337D01*
X113851831Y-53032463D01*
X113536081Y-52901675D01*
X113200883Y-52835000D01*
X112859117Y-52835000D01*
X112523919Y-52901675D01*
X112208169Y-53032463D01*
X111924002Y-53222337D01*
X111682337Y-53464002D01*
X111492463Y-53748169D01*
X111361675Y-54063919D01*
X111295000Y-54399117D01*
X102997000Y-54399117D01*
X102997000Y-53392606D01*
X104192606Y-52197000D01*
X147267394Y-52197000D01*
X148463000Y-53392606D01*
G37*
%TD.AperFunction*%
%TD*%
M02*
