solid OpenSCAD_Model
  facet normal 0.987689 0.156432 0
    outer loop
      vertex 7 0 7.5
      vertex 6.6574 2.16312 0
      vertex 6.6574 2.16312 7.5
    endloop
  endfacet
  facet normal 0.987689 0.156432 0
    outer loop
      vertex 6.6574 2.16312 0
      vertex 7 0 7.5
      vertex 7 0 0
    endloop
  endfacet
  facet normal -0.987689 0.156432 0
    outer loop
      vertex -7 0 0
      vertex -6.6574 2.16312 7.5
      vertex -6.6574 2.16312 0
    endloop
  endfacet
  facet normal -0.987689 0.156432 0
    outer loop
      vertex -6.6574 2.16312 7.5
      vertex -7 0 0
      vertex -7 0 7.5
    endloop
  endfacet
  facet normal 0.453991 0.891006 -0
    outer loop
      vertex 4.1145 5.66312 0
      vertex 2.16312 6.6574 7.5
      vertex 4.1145 5.66312 7.5
    endloop
  endfacet
  facet normal 0.453991 0.891006 0
    outer loop
      vertex 2.16312 6.6574 7.5
      vertex 4.1145 5.66312 0
      vertex 2.16312 6.6574 0
    endloop
  endfacet
  facet normal 0.156432 -0.987689 0
    outer loop
      vertex 0 -7 0
      vertex 2.16312 -6.6574 7.5
      vertex 0 -7 7.5
    endloop
  endfacet
  facet normal 0.156432 -0.987689 0
    outer loop
      vertex 2.16312 -6.6574 7.5
      vertex 0 -7 0
      vertex 2.16312 -6.6574 0
    endloop
  endfacet
  facet normal -0.156432 -0.987689 0
    outer loop
      vertex -2.16312 -6.6574 0
      vertex 0 -7 7.5
      vertex -2.16312 -6.6574 7.5
    endloop
  endfacet
  facet normal -0.156432 -0.987689 -0
    outer loop
      vertex 0 -7 7.5
      vertex -2.16312 -6.6574 0
      vertex 0 -7 0
    endloop
  endfacet
  facet normal 0.707107 0.707107 0
    outer loop
      vertex 5.66312 4.1145 7.5
      vertex 4.1145 5.66312 0
      vertex 4.1145 5.66312 7.5
    endloop
  endfacet
  facet normal 0.707107 0.707107 0
    outer loop
      vertex 4.1145 5.66312 0
      vertex 5.66312 4.1145 7.5
      vertex 5.66312 4.1145 0
    endloop
  endfacet
  facet normal 0.891006 0.453991 0
    outer loop
      vertex 6.6574 2.16312 7.5
      vertex 5.66312 4.1145 0
      vertex 5.66312 4.1145 7.5
    endloop
  endfacet
  facet normal 0.891006 0.453991 0
    outer loop
      vertex 5.66312 4.1145 0
      vertex 6.6574 2.16312 7.5
      vertex 6.6574 2.16312 0
    endloop
  endfacet
  facet normal 0.156432 0.987689 -0
    outer loop
      vertex 2.16312 6.6574 0
      vertex 0 7 7.5
      vertex 2.16312 6.6574 7.5
    endloop
  endfacet
  facet normal 0.156432 0.987689 0
    outer loop
      vertex 0 7 7.5
      vertex 2.16312 6.6574 0
      vertex 0 7 0
    endloop
  endfacet
  facet normal -0.156432 0.987689 0
    outer loop
      vertex 0 7 0
      vertex -2.16312 6.6574 7.5
      vertex 0 7 7.5
    endloop
  endfacet
  facet normal -0.156432 0.987689 0
    outer loop
      vertex -2.16312 6.6574 7.5
      vertex 0 7 0
      vertex -2.16312 6.6574 0
    endloop
  endfacet
  facet normal -0.891006 0.453991 0
    outer loop
      vertex -6.6574 2.16312 0
      vertex -5.66312 4.1145 7.5
      vertex -5.66312 4.1145 0
    endloop
  endfacet
  facet normal -0.891006 0.453991 0
    outer loop
      vertex -5.66312 4.1145 7.5
      vertex -6.6574 2.16312 0
      vertex -6.6574 2.16312 7.5
    endloop
  endfacet
  facet normal -0.453991 0.891006 0
    outer loop
      vertex -2.16312 6.6574 0
      vertex -4.1145 5.66312 7.5
      vertex -2.16312 6.6574 7.5
    endloop
  endfacet
  facet normal -0.453991 0.891006 0
    outer loop
      vertex -4.1145 5.66312 7.5
      vertex -2.16312 6.6574 0
      vertex -4.1145 5.66312 0
    endloop
  endfacet
  facet normal -0.987689 -0.156432 0
    outer loop
      vertex -6.6574 -2.16312 0
      vertex -7 0 7.5
      vertex -7 0 0
    endloop
  endfacet
  facet normal -0.987689 -0.156432 0
    outer loop
      vertex -7 0 7.5
      vertex -6.6574 -2.16312 0
      vertex -6.6574 -2.16312 7.5
    endloop
  endfacet
  facet normal 0 0 -1
    outer loop
      vertex 6.6574 -2.16312 0
      vertex 6.6574 2.16312 0
      vertex 7 0 0
    endloop
  endfacet
  facet normal 0 0 -1
    outer loop
      vertex 5.66312 -4.1145 0
      vertex 6.6574 2.16312 0
      vertex 6.6574 -2.16312 0
    endloop
  endfacet
  facet normal 0 0 -1
    outer loop
      vertex 5.66312 -4.1145 0
      vertex 5.66312 4.1145 0
      vertex 6.6574 2.16312 0
    endloop
  endfacet
  facet normal 0 0 -1
    outer loop
      vertex 4.1145 -5.66312 0
      vertex 5.66312 4.1145 0
      vertex 5.66312 -4.1145 0
    endloop
  endfacet
  facet normal 0 0 -1
    outer loop
      vertex 4.1145 -5.66312 0
      vertex 4.1145 5.66312 0
      vertex 5.66312 4.1145 0
    endloop
  endfacet
  facet normal 0 0 -1
    outer loop
      vertex 2.16312 -6.6574 0
      vertex 4.1145 5.66312 0
      vertex 4.1145 -5.66312 0
    endloop
  endfacet
  facet normal 0 0 -1
    outer loop
      vertex 2.16312 -6.6574 0
      vertex 2.16312 6.6574 0
      vertex 4.1145 5.66312 0
    endloop
  endfacet
  facet normal 0 0 -1
    outer loop
      vertex 0 -7 0
      vertex 2.16312 6.6574 0
      vertex 2.16312 -6.6574 0
    endloop
  endfacet
  facet normal 0 0 -1
    outer loop
      vertex 0 -7 0
      vertex 0 7 0
      vertex 2.16312 6.6574 0
    endloop
  endfacet
  facet normal 0 0 -1
    outer loop
      vertex -2.16312 -6.6574 0
      vertex 0 7 0
      vertex 0 -7 0
    endloop
  endfacet
  facet normal 0 0 -1
    outer loop
      vertex -2.16312 -6.6574 0
      vertex -2.16312 6.6574 0
      vertex 0 7 0
    endloop
  endfacet
  facet normal 0 0 -1
    outer loop
      vertex -4.1145 -5.66312 0
      vertex -2.16312 6.6574 0
      vertex -2.16312 -6.6574 0
    endloop
  endfacet
  facet normal 0 0 -1
    outer loop
      vertex -4.1145 -5.66312 0
      vertex -4.1145 5.66312 0
      vertex -2.16312 6.6574 0
    endloop
  endfacet
  facet normal 0 0 -1
    outer loop
      vertex -5.66312 -4.1145 0
      vertex -4.1145 5.66312 0
      vertex -4.1145 -5.66312 0
    endloop
  endfacet
  facet normal 0 0 -1
    outer loop
      vertex -5.66312 -4.1145 0
      vertex -5.66312 4.1145 0
      vertex -4.1145 5.66312 0
    endloop
  endfacet
  facet normal 0 0 -1
    outer loop
      vertex -6.6574 -2.16312 0
      vertex -5.66312 4.1145 0
      vertex -5.66312 -4.1145 0
    endloop
  endfacet
  facet normal 0 0 -1
    outer loop
      vertex -6.6574 -2.16312 0
      vertex -6.6574 2.16312 0
      vertex -5.66312 4.1145 0
    endloop
  endfacet
  facet normal 0 -0 -1
    outer loop
      vertex -6.6574 2.16312 0
      vertex -6.6574 -2.16312 0
      vertex -7 0 0
    endloop
  endfacet
  facet normal 0 0 1
    outer loop
      vertex 4.5 0 7.5
      vertex 7 0 7.5
      vertex 6.6574 2.16312 7.5
    endloop
  endfacet
  facet normal 0 0 1
    outer loop
      vertex 4.27975 1.39058 7.5
      vertex 6.6574 2.16312 7.5
      vertex 5.66312 4.1145 7.5
    endloop
  endfacet
  facet normal 0 0 1
    outer loop
      vertex 7 0 7.5
      vertex 4.5 0 7.5
      vertex 6.6574 -2.16312 7.5
    endloop
  endfacet
  facet normal -0 0 1
    outer loop
      vertex 4.27975 -1.39058 7.5
      vertex 6.6574 -2.16312 7.5
      vertex 4.5 0 7.5
    endloop
  endfacet
  facet normal 0 0 1
    outer loop
      vertex 6.6574 2.16312 7.5
      vertex 4.27975 1.39058 7.5
      vertex 4.5 0 7.5
    endloop
  endfacet
  facet normal 0 0 1
    outer loop
      vertex 3.64058 2.64503 7.5
      vertex 5.66312 4.1145 7.5
      vertex 4.1145 5.66312 7.5
    endloop
  endfacet
  facet normal 0 0 1
    outer loop
      vertex 5.66312 4.1145 7.5
      vertex 3.64058 2.64503 7.5
      vertex 4.27975 1.39058 7.5
    endloop
  endfacet
  facet normal 0 0 1
    outer loop
      vertex 4.1145 5.66312 7.5
      vertex 2.64503 3.64058 7.5
      vertex 3.64058 2.64503 7.5
    endloop
  endfacet
  facet normal 0 0 1
    outer loop
      vertex 2.16312 6.6574 7.5
      vertex 2.64503 3.64058 7.5
      vertex 4.1145 5.66312 7.5
    endloop
  endfacet
  facet normal 0 0 1
    outer loop
      vertex 2.16312 6.6574 7.5
      vertex 1.39058 4.27975 7.5
      vertex 2.64503 3.64058 7.5
    endloop
  endfacet
  facet normal 0 0 1
    outer loop
      vertex 0 7 7.5
      vertex 1.39058 4.27975 7.5
      vertex 2.16312 6.6574 7.5
    endloop
  endfacet
  facet normal 0 0 1
    outer loop
      vertex 0 7 7.5
      vertex 0 4.5 7.5
      vertex 1.39058 4.27975 7.5
    endloop
  endfacet
  facet normal 0 0 1
    outer loop
      vertex 0 7 7.5
      vertex -1.39058 4.27975 7.5
      vertex 0 4.5 7.5
    endloop
  endfacet
  facet normal -0 0 1
    outer loop
      vertex -2.16312 6.6574 7.5
      vertex -1.39058 4.27975 7.5
      vertex 0 7 7.5
    endloop
  endfacet
  facet normal 0 0 1
    outer loop
      vertex -2.16312 6.6574 7.5
      vertex -2.64503 3.64058 7.5
      vertex -1.39058 4.27975 7.5
    endloop
  endfacet
  facet normal -0 0 1
    outer loop
      vertex -4.1145 5.66312 7.5
      vertex -2.64503 3.64058 7.5
      vertex -2.16312 6.6574 7.5
    endloop
  endfacet
  facet normal 0 0 1
    outer loop
      vertex -2.64503 3.64058 7.5
      vertex -4.1145 5.66312 7.5
      vertex -3.64058 2.64503 7.5
    endloop
  endfacet
  facet normal -0 0 1
    outer loop
      vertex -5.66312 4.1145 7.5
      vertex -3.64058 2.64503 7.5
      vertex -4.1145 5.66312 7.5
    endloop
  endfacet
  facet normal 0 0 1
    outer loop
      vertex -3.64058 2.64503 7.5
      vertex -5.66312 4.1145 7.5
      vertex -4.27975 1.39058 7.5
    endloop
  endfacet
  facet normal -0 0 1
    outer loop
      vertex -6.6574 2.16312 7.5
      vertex -4.27975 1.39058 7.5
      vertex -5.66312 4.1145 7.5
    endloop
  endfacet
  facet normal 0 0 1
    outer loop
      vertex 6.6574 -2.16312 7.5
      vertex 4.27975 -1.39058 7.5
      vertex 5.66312 -4.1145 7.5
    endloop
  endfacet
  facet normal -0 0 1
    outer loop
      vertex 3.64058 -2.64503 7.5
      vertex 5.66312 -4.1145 7.5
      vertex 4.27975 -1.39058 7.5
    endloop
  endfacet
  facet normal 0 0 1
    outer loop
      vertex 5.66312 -4.1145 7.5
      vertex 3.64058 -2.64503 7.5
      vertex 4.1145 -5.66312 7.5
    endloop
  endfacet
  facet normal -0 0 1
    outer loop
      vertex 2.64503 -3.64058 7.5
      vertex 4.1145 -5.66312 7.5
      vertex 3.64058 -2.64503 7.5
    endloop
  endfacet
  facet normal 0 0 1
    outer loop
      vertex 2.64503 -3.64058 7.5
      vertex 2.16312 -6.6574 7.5
      vertex 4.1145 -5.66312 7.5
    endloop
  endfacet
  facet normal -0 0 1
    outer loop
      vertex 1.39058 -4.27975 7.5
      vertex 2.16312 -6.6574 7.5
      vertex 2.64503 -3.64058 7.5
    endloop
  endfacet
  facet normal -0 0 1
    outer loop
      vertex 0 -4.5 7.5
      vertex 2.16312 -6.6574 7.5
      vertex 1.39058 -4.27975 7.5
    endloop
  endfacet
  facet normal 0 0 1
    outer loop
      vertex 0 -4.5 7.5
      vertex 0 -7 7.5
      vertex 2.16312 -6.6574 7.5
    endloop
  endfacet
  facet normal 0 0 1
    outer loop
      vertex -1.39058 -4.27975 7.5
      vertex 0 -7 7.5
      vertex 0 -4.5 7.5
    endloop
  endfacet
  facet normal 0 0 1
    outer loop
      vertex -1.39058 -4.27975 7.5
      vertex -2.16312 -6.6574 7.5
      vertex 0 -7 7.5
    endloop
  endfacet
  facet normal 0 0 1
    outer loop
      vertex -2.64503 -3.64058 7.5
      vertex -2.16312 -6.6574 7.5
      vertex -1.39058 -4.27975 7.5
    endloop
  endfacet
  facet normal 0 0 1
    outer loop
      vertex -4.1145 -5.66312 7.5
      vertex -2.64503 -3.64058 7.5
      vertex -3.64058 -2.64503 7.5
    endloop
  endfacet
  facet normal 0 0 1
    outer loop
      vertex -2.64503 -3.64058 7.5
      vertex -4.1145 -5.66312 7.5
      vertex -2.16312 -6.6574 7.5
    endloop
  endfacet
  facet normal 0 0 1
    outer loop
      vertex -5.66312 -4.1145 7.5
      vertex -3.64058 -2.64503 7.5
      vertex -4.27975 -1.39058 7.5
    endloop
  endfacet
  facet normal 0 0 1
    outer loop
      vertex -6.6574 -2.16312 7.5
      vertex -4.27975 -1.39058 7.5
      vertex -4.5 0 7.5
    endloop
  endfacet
  facet normal 0 0 1
    outer loop
      vertex -4.27975 1.39058 7.5
      vertex -6.6574 2.16312 7.5
      vertex -4.5 0 7.5
    endloop
  endfacet
  facet normal 0 0 1
    outer loop
      vertex -3.64058 -2.64503 7.5
      vertex -5.66312 -4.1145 7.5
      vertex -4.1145 -5.66312 7.5
    endloop
  endfacet
  facet normal 0 0 1
    outer loop
      vertex -7 0 7.5
      vertex -4.5 0 7.5
      vertex -6.6574 2.16312 7.5
    endloop
  endfacet
  facet normal 0 0 1
    outer loop
      vertex -4.27975 -1.39058 7.5
      vertex -6.6574 -2.16312 7.5
      vertex -5.66312 -4.1145 7.5
    endloop
  endfacet
  facet normal 0 0 1
    outer loop
      vertex -4.5 0 7.5
      vertex -7 0 7.5
      vertex -6.6574 -2.16312 7.5
    endloop
  endfacet
  facet normal -0.707107 0.707107 0
    outer loop
      vertex -5.66312 4.1145 0
      vertex -4.1145 5.66312 7.5
      vertex -4.1145 5.66312 0
    endloop
  endfacet
  facet normal -0.707107 0.707107 0
    outer loop
      vertex -4.1145 5.66312 7.5
      vertex -5.66312 4.1145 0
      vertex -5.66312 4.1145 7.5
    endloop
  endfacet
  facet normal 0.891006 -0.453991 0
    outer loop
      vertex 5.66312 -4.1145 7.5
      vertex 6.6574 -2.16312 0
      vertex 6.6574 -2.16312 7.5
    endloop
  endfacet
  facet normal 0.891006 -0.453991 0
    outer loop
      vertex 6.6574 -2.16312 0
      vertex 5.66312 -4.1145 7.5
      vertex 5.66312 -4.1145 0
    endloop
  endfacet
  facet normal 0.453991 -0.891006 0
    outer loop
      vertex 2.16312 -6.6574 0
      vertex 4.1145 -5.66312 7.5
      vertex 2.16312 -6.6574 7.5
    endloop
  endfacet
  facet normal 0.453991 -0.891006 0
    outer loop
      vertex 4.1145 -5.66312 7.5
      vertex 2.16312 -6.6574 0
      vertex 4.1145 -5.66312 0
    endloop
  endfacet
  facet normal 0.987689 -0.156432 0
    outer loop
      vertex 6.6574 -2.16312 7.5
      vertex 7 0 0
      vertex 7 0 7.5
    endloop
  endfacet
  facet normal 0.987689 -0.156432 0
    outer loop
      vertex 7 0 0
      vertex 6.6574 -2.16312 7.5
      vertex 6.6574 -2.16312 0
    endloop
  endfacet
  facet normal -0.707107 -0.707107 0
    outer loop
      vertex -4.1145 -5.66312 0
      vertex -5.66312 -4.1145 7.5
      vertex -5.66312 -4.1145 0
    endloop
  endfacet
  facet normal -0.707107 -0.707107 0
    outer loop
      vertex -5.66312 -4.1145 7.5
      vertex -4.1145 -5.66312 0
      vertex -4.1145 -5.66312 7.5
    endloop
  endfacet
  facet normal -0.891006 -0.453991 0
    outer loop
      vertex -5.66312 -4.1145 0
      vertex -6.6574 -2.16312 7.5
      vertex -6.6574 -2.16312 0
    endloop
  endfacet
  facet normal -0.891006 -0.453991 0
    outer loop
      vertex -6.6574 -2.16312 7.5
      vertex -5.66312 -4.1145 0
      vertex -5.66312 -4.1145 7.5
    endloop
  endfacet
  facet normal -0.453991 -0.891006 0
    outer loop
      vertex -4.1145 -5.66312 0
      vertex -2.16312 -6.6574 7.5
      vertex -4.1145 -5.66312 7.5
    endloop
  endfacet
  facet normal -0.453991 -0.891006 -0
    outer loop
      vertex -2.16312 -6.6574 7.5
      vertex -4.1145 -5.66312 0
      vertex -2.16312 -6.6574 0
    endloop
  endfacet
  facet normal 0.707107 -0.707107 0
    outer loop
      vertex 4.1145 -5.66312 7.5
      vertex 5.66312 -4.1145 0
      vertex 5.66312 -4.1145 7.5
    endloop
  endfacet
  facet normal 0.707107 -0.707107 0
    outer loop
      vertex 5.66312 -4.1145 0
      vertex 4.1145 -5.66312 7.5
      vertex 4.1145 -5.66312 0
    endloop
  endfacet
  facet normal 0.987688 0.156437 0
    outer loop
      vertex 4.5 0 11.5
      vertex 4.27975 1.39058 7.5
      vertex 4.27975 1.39058 11.5
    endloop
  endfacet
  facet normal 0.987688 0.156437 0
    outer loop
      vertex 4.27975 1.39058 7.5
      vertex 4.5 0 11.5
      vertex 4.5 0 7.5
    endloop
  endfacet
  facet normal -0.987688 0.156437 0
    outer loop
      vertex -4.5 0 7.5
      vertex -4.27975 1.39058 11.5
      vertex -4.27975 1.39058 7.5
    endloop
  endfacet
  facet normal -0.987688 0.156437 0
    outer loop
      vertex -4.27975 1.39058 11.5
      vertex -4.5 0 7.5
      vertex -4.5 0 11.5
    endloop
  endfacet
  facet normal 0.156437 0.987688 -0
    outer loop
      vertex 1.39058 4.27975 7.5
      vertex 0 4.5 11.5
      vertex 1.39058 4.27975 11.5
    endloop
  endfacet
  facet normal 0.156437 0.987688 0
    outer loop
      vertex 0 4.5 11.5
      vertex 1.39058 4.27975 7.5
      vertex 0 4.5 7.5
    endloop
  endfacet
  facet normal 0.707107 0.707107 0
    outer loop
      vertex 3.64058 2.64503 11.5
      vertex 2.64503 3.64058 7.5
      vertex 2.64503 3.64058 11.5
    endloop
  endfacet
  facet normal 0.707107 0.707107 0
    outer loop
      vertex 2.64503 3.64058 7.5
      vertex 3.64058 2.64503 11.5
      vertex 3.64058 2.64503 7.5
    endloop
  endfacet
  facet normal 0.891008 0.453988 0
    outer loop
      vertex 4.27975 1.39058 11.5
      vertex 3.64058 2.64503 7.5
      vertex 3.64058 2.64503 11.5
    endloop
  endfacet
  facet normal 0.891008 0.453988 0
    outer loop
      vertex 3.64058 2.64503 7.5
      vertex 4.27975 1.39058 11.5
      vertex 4.27975 1.39058 7.5
    endloop
  endfacet
  facet normal 0.453988 0.891008 -0
    outer loop
      vertex 2.64503 3.64058 7.5
      vertex 1.39058 4.27975 11.5
      vertex 2.64503 3.64058 11.5
    endloop
  endfacet
  facet normal 0.453988 0.891008 0
    outer loop
      vertex 1.39058 4.27975 11.5
      vertex 2.64503 3.64058 7.5
      vertex 1.39058 4.27975 7.5
    endloop
  endfacet
  facet normal -0.453988 0.891008 0
    outer loop
      vertex -1.39058 4.27975 7.5
      vertex -2.64503 3.64058 11.5
      vertex -1.39058 4.27975 11.5
    endloop
  endfacet
  facet normal -0.453988 0.891008 0
    outer loop
      vertex -2.64503 3.64058 11.5
      vertex -1.39058 4.27975 7.5
      vertex -2.64503 3.64058 7.5
    endloop
  endfacet
  facet normal -0.707107 0.707107 0
    outer loop
      vertex -3.64058 2.64503 7.5
      vertex -2.64503 3.64058 11.5
      vertex -2.64503 3.64058 7.5
    endloop
  endfacet
  facet normal -0.707107 0.707107 0
    outer loop
      vertex -2.64503 3.64058 11.5
      vertex -3.64058 2.64503 7.5
      vertex -3.64058 2.64503 11.5
    endloop
  endfacet
  facet normal -0.156437 0.987688 0
    outer loop
      vertex 0 4.5 7.5
      vertex -1.39058 4.27975 11.5
      vertex 0 4.5 11.5
    endloop
  endfacet
  facet normal -0.156437 0.987688 0
    outer loop
      vertex -1.39058 4.27975 11.5
      vertex 0 4.5 7.5
      vertex -1.39058 4.27975 7.5
    endloop
  endfacet
  facet normal 0.891008 -0.453988 0
    outer loop
      vertex 3.64058 -2.64503 11.5
      vertex 4.27975 -1.39058 7.5
      vertex 4.27975 -1.39058 11.5
    endloop
  endfacet
  facet normal 0.891008 -0.453988 0
    outer loop
      vertex 4.27975 -1.39058 7.5
      vertex 3.64058 -2.64503 11.5
      vertex 3.64058 -2.64503 7.5
    endloop
  endfacet
  facet normal -0.707107 -0.707107 0
    outer loop
      vertex -2.64503 -3.64058 7.5
      vertex -3.64058 -2.64503 11.5
      vertex -3.64058 -2.64503 7.5
    endloop
  endfacet
  facet normal -0.707107 -0.707107 0
    outer loop
      vertex -3.64058 -2.64503 11.5
      vertex -2.64503 -3.64058 7.5
      vertex -2.64503 -3.64058 11.5
    endloop
  endfacet
  facet normal -0.987688 -0.156437 0
    outer loop
      vertex -4.27975 -1.39058 7.5
      vertex -4.5 0 11.5
      vertex -4.5 0 7.5
    endloop
  endfacet
  facet normal -0.987688 -0.156437 0
    outer loop
      vertex -4.5 0 11.5
      vertex -4.27975 -1.39058 7.5
      vertex -4.27975 -1.39058 11.5
    endloop
  endfacet
  facet normal -0.891008 0.453988 0
    outer loop
      vertex -4.27975 1.39058 7.5
      vertex -3.64058 2.64503 11.5
      vertex -3.64058 2.64503 7.5
    endloop
  endfacet
  facet normal -0.891008 0.453988 0
    outer loop
      vertex -3.64058 2.64503 11.5
      vertex -4.27975 1.39058 7.5
      vertex -4.27975 1.39058 11.5
    endloop
  endfacet
  facet normal 0 0 1
    outer loop
      vertex 4.27975 1.39058 11.5
      vertex 4.27975 -1.39058 11.5
      vertex 4.5 0 11.5
    endloop
  endfacet
  facet normal 0 0 1
    outer loop
      vertex 3.64058 2.64503 11.5
      vertex 4.27975 -1.39058 11.5
      vertex 4.27975 1.39058 11.5
    endloop
  endfacet
  facet normal 0 0 1
    outer loop
      vertex 3.64058 2.64503 11.5
      vertex 3.64058 -2.64503 11.5
      vertex 4.27975 -1.39058 11.5
    endloop
  endfacet
  facet normal 0 0 1
    outer loop
      vertex 2.64503 3.64058 11.5
      vertex 3.64058 -2.64503 11.5
      vertex 3.64058 2.64503 11.5
    endloop
  endfacet
  facet normal 0 0 1
    outer loop
      vertex 2.64503 3.64058 11.5
      vertex 2.64503 -3.64058 11.5
      vertex 3.64058 -2.64503 11.5
    endloop
  endfacet
  facet normal 0 0 1
    outer loop
      vertex 1.39058 4.27975 11.5
      vertex 2.64503 -3.64058 11.5
      vertex 2.64503 3.64058 11.5
    endloop
  endfacet
  facet normal 0 0 1
    outer loop
      vertex 1.39058 4.27975 11.5
      vertex 1.39058 -4.27975 11.5
      vertex 2.64503 -3.64058 11.5
    endloop
  endfacet
  facet normal 0 0 1
    outer loop
      vertex 0 4.5 11.5
      vertex 1.39058 -4.27975 11.5
      vertex 1.39058 4.27975 11.5
    endloop
  endfacet
  facet normal 0 0 1
    outer loop
      vertex 0 4.5 11.5
      vertex 0 -4.5 11.5
      vertex 1.39058 -4.27975 11.5
    endloop
  endfacet
  facet normal -0 0 1
    outer loop
      vertex -1.39058 4.27975 11.5
      vertex 0 -4.5 11.5
      vertex 0 4.5 11.5
    endloop
  endfacet
  facet normal 0 0 1
    outer loop
      vertex -1.39058 4.27975 11.5
      vertex -1.39058 -4.27975 11.5
      vertex 0 -4.5 11.5
    endloop
  endfacet
  facet normal -0 0 1
    outer loop
      vertex -2.64503 3.64058 11.5
      vertex -1.39058 -4.27975 11.5
      vertex -1.39058 4.27975 11.5
    endloop
  endfacet
  facet normal 0 0 1
    outer loop
      vertex -2.64503 3.64058 11.5
      vertex -2.64503 -3.64058 11.5
      vertex -1.39058 -4.27975 11.5
    endloop
  endfacet
  facet normal -0 0 1
    outer loop
      vertex -3.64058 2.64503 11.5
      vertex -2.64503 -3.64058 11.5
      vertex -2.64503 3.64058 11.5
    endloop
  endfacet
  facet normal 0 0 1
    outer loop
      vertex -3.64058 2.64503 11.5
      vertex -3.64058 -2.64503 11.5
      vertex -2.64503 -3.64058 11.5
    endloop
  endfacet
  facet normal -0 0 1
    outer loop
      vertex -4.27975 1.39058 11.5
      vertex -3.64058 -2.64503 11.5
      vertex -3.64058 2.64503 11.5
    endloop
  endfacet
  facet normal 0 0 1
    outer loop
      vertex -4.27975 1.39058 11.5
      vertex -4.27975 -1.39058 11.5
      vertex -3.64058 -2.64503 11.5
    endloop
  endfacet
  facet normal 0 -0 1
    outer loop
      vertex -4.27975 -1.39058 11.5
      vertex -4.27975 1.39058 11.5
      vertex -4.5 0 11.5
    endloop
  endfacet
  facet normal 0.987688 -0.156437 0
    outer loop
      vertex 4.27975 -1.39058 11.5
      vertex 4.5 0 7.5
      vertex 4.5 0 11.5
    endloop
  endfacet
  facet normal 0.987688 -0.156437 0
    outer loop
      vertex 4.5 0 7.5
      vertex 4.27975 -1.39058 11.5
      vertex 4.27975 -1.39058 7.5
    endloop
  endfacet
  facet normal 0.156437 -0.987688 0
    outer loop
      vertex 0 -4.5 7.5
      vertex 1.39058 -4.27975 11.5
      vertex 0 -4.5 11.5
    endloop
  endfacet
  facet normal 0.156437 -0.987688 0
    outer loop
      vertex 1.39058 -4.27975 11.5
      vertex 0 -4.5 7.5
      vertex 1.39058 -4.27975 7.5
    endloop
  endfacet
  facet normal 0.707107 -0.707107 0
    outer loop
      vertex 2.64503 -3.64058 11.5
      vertex 3.64058 -2.64503 7.5
      vertex 3.64058 -2.64503 11.5
    endloop
  endfacet
  facet normal 0.707107 -0.707107 0
    outer loop
      vertex 3.64058 -2.64503 7.5
      vertex 2.64503 -3.64058 11.5
      vertex 2.64503 -3.64058 7.5
    endloop
  endfacet
  facet normal -0.453988 -0.891008 0
    outer loop
      vertex -2.64503 -3.64058 7.5
      vertex -1.39058 -4.27975 11.5
      vertex -2.64503 -3.64058 11.5
    endloop
  endfacet
  facet normal -0.453988 -0.891008 -0
    outer loop
      vertex -1.39058 -4.27975 11.5
      vertex -2.64503 -3.64058 7.5
      vertex -1.39058 -4.27975 7.5
    endloop
  endfacet
  facet normal -0.891008 -0.453988 0
    outer loop
      vertex -3.64058 -2.64503 7.5
      vertex -4.27975 -1.39058 11.5
      vertex -4.27975 -1.39058 7.5
    endloop
  endfacet
  facet normal -0.891008 -0.453988 0
    outer loop
      vertex -4.27975 -1.39058 11.5
      vertex -3.64058 -2.64503 7.5
      vertex -3.64058 -2.64503 11.5
    endloop
  endfacet
  facet normal 0.453988 -0.891008 0
    outer loop
      vertex 1.39058 -4.27975 7.5
      vertex 2.64503 -3.64058 11.5
      vertex 1.39058 -4.27975 11.5
    endloop
  endfacet
  facet normal 0.453988 -0.891008 0
    outer loop
      vertex 2.64503 -3.64058 11.5
      vertex 1.39058 -4.27975 7.5
      vertex 2.64503 -3.64058 7.5
    endloop
  endfacet
  facet normal -0.156437 -0.987688 0
    outer loop
      vertex -1.39058 -4.27975 7.5
      vertex 0 -4.5 11.5
      vertex -1.39058 -4.27975 11.5
    endloop
  endfacet
  facet normal -0.156437 -0.987688 -0
    outer loop
      vertex 0 -4.5 11.5
      vertex -1.39058 -4.27975 7.5
      vertex 0 -4.5 7.5
    endloop
  endfacet
endsolid OpenSCAD_Model
