solid OpenSCAD_Model
  facet normal 0.987688 0.156434 0
    outer loop
      vertex 6.9 0 12
      vertex 6.56229 2.13222 0
      vertex 6.56229 2.13222 12
    endloop
  endfacet
  facet normal 0.987688 0.156434 0
    outer loop
      vertex 6.56229 2.13222 0
      vertex 6.9 0 12
      vertex 6.9 0 0
    endloop
  endfacet
  facet normal -0.987688 0.156434 0
    outer loop
      vertex -6.9 0 0
      vertex -6.56229 2.13222 12
      vertex -6.56229 2.13222 0
    endloop
  endfacet
  facet normal -0.987688 0.156434 0
    outer loop
      vertex -6.56229 2.13222 12
      vertex -6.9 0 0
      vertex -6.9 0 12
    endloop
  endfacet
  facet normal 0.156434 0.987688 -0
    outer loop
      vertex 2.13222 6.56229 0
      vertex 0 6.9 12
      vertex 2.13222 6.56229 12
    endloop
  endfacet
  facet normal 0.156434 0.987688 0
    outer loop
      vertex 0 6.9 12
      vertex 2.13222 6.56229 0
      vertex 0 6.9 0
    endloop
  endfacet
  facet normal -0.156434 -0.987688 0
    outer loop
      vertex -2.13222 -6.56229 0
      vertex 0 -6.9 12
      vertex -2.13222 -6.56229 12
    endloop
  endfacet
  facet normal -0.156434 -0.987688 -0
    outer loop
      vertex 0 -6.9 12
      vertex -2.13222 -6.56229 0
      vertex 0 -6.9 0
    endloop
  endfacet
  facet normal 0 0 -1
    outer loop
      vertex 3.1 0 0
      vertex 6.9 0 0
      vertex 6.56229 -2.13222 0
    endloop
  endfacet
  facet normal 0 0 -1
    outer loop
      vertex 2.94827 -0.957952 0
      vertex 6.56229 -2.13222 0
      vertex 5.58222 -4.05572 0
    endloop
  endfacet
  facet normal 0 0 -1
    outer loop
      vertex 6.9 0 0
      vertex 3.1 0 0
      vertex 6.56229 2.13222 0
    endloop
  endfacet
  facet normal 0 0 -1
    outer loop
      vertex 2.50795 -1.82213 0
      vertex 5.58222 -4.05572 0
      vertex 4.05572 -5.58222 0
    endloop
  endfacet
  facet normal 0 0 -1
    outer loop
      vertex 2.94827 0.957952 0
      vertex 6.56229 2.13222 0
      vertex 3.1 0 0
    endloop
  endfacet
  facet normal -0 0 -1
    outer loop
      vertex 6.56229 2.13222 0
      vertex 2.94827 0.957952 0
      vertex 5.58222 4.05572 0
    endloop
  endfacet
  facet normal 0 0 -1
    outer loop
      vertex 6.56229 -2.13222 0
      vertex 2.94827 -0.957952 0
      vertex 3.1 0 0
    endloop
  endfacet
  facet normal 0 0 -1
    outer loop
      vertex 5.58222 -4.05572 0
      vertex 2.50795 -1.82213 0
      vertex 2.94827 -0.957952 0
    endloop
  endfacet
  facet normal 0 0 -1
    outer loop
      vertex 1.82213 -2.50795 0
      vertex 4.05572 -5.58222 0
      vertex 2.13222 -6.56229 0
    endloop
  endfacet
  facet normal 0 0 -1
    outer loop
      vertex 4.05572 -5.58222 0
      vertex 1.82213 -2.50795 0
      vertex 2.50795 -1.82213 0
    endloop
  endfacet
  facet normal 0 0 -1
    outer loop
      vertex 2.13222 -6.56229 0
      vertex 0.957952 -2.94827 0
      vertex 1.82213 -2.50795 0
    endloop
  endfacet
  facet normal 0 0 -1
    outer loop
      vertex 0 -6.9 0
      vertex 0.957952 -2.94827 0
      vertex 2.13222 -6.56229 0
    endloop
  endfacet
  facet normal 0 0 -1
    outer loop
      vertex 0 -6.9 0
      vertex 0 -3.1 0
      vertex 0.957952 -2.94827 0
    endloop
  endfacet
  facet normal 0 0 -1
    outer loop
      vertex 0 -6.9 0
      vertex -0.957952 -2.94827 0
      vertex 0 -3.1 0
    endloop
  endfacet
  facet normal 0 0 -1
    outer loop
      vertex -2.13222 -6.56229 0
      vertex -0.957952 -2.94827 0
      vertex 0 -6.9 0
    endloop
  endfacet
  facet normal -0 0 -1
    outer loop
      vertex -0.957952 -2.94827 0
      vertex -2.13222 -6.56229 0
      vertex -1.82213 -2.50795 0
    endloop
  endfacet
  facet normal 0 0 -1
    outer loop
      vertex -4.05572 -5.58222 0
      vertex -1.82213 -2.50795 0
      vertex -2.13222 -6.56229 0
    endloop
  endfacet
  facet normal -0 0 -1
    outer loop
      vertex -1.82213 -2.50795 0
      vertex -4.05572 -5.58222 0
      vertex -2.50795 -1.82213 0
    endloop
  endfacet
  facet normal 0 0 -1
    outer loop
      vertex -5.58222 -4.05572 0
      vertex -2.50795 -1.82213 0
      vertex -4.05572 -5.58222 0
    endloop
  endfacet
  facet normal -0 0 -1
    outer loop
      vertex -2.50795 -1.82213 0
      vertex -5.58222 -4.05572 0
      vertex -2.94827 -0.957952 0
    endloop
  endfacet
  facet normal 0 0 -1
    outer loop
      vertex 2.50795 1.82213 0
      vertex 5.58222 4.05572 0
      vertex 2.94827 0.957952 0
    endloop
  endfacet
  facet normal -0 0 -1
    outer loop
      vertex 5.58222 4.05572 0
      vertex 2.50795 1.82213 0
      vertex 4.05572 5.58222 0
    endloop
  endfacet
  facet normal 0 0 -1
    outer loop
      vertex 1.82213 2.50795 0
      vertex 4.05572 5.58222 0
      vertex 2.50795 1.82213 0
    endloop
  endfacet
  facet normal -0 0 -1
    outer loop
      vertex 4.05572 5.58222 0
      vertex 1.82213 2.50795 0
      vertex 2.13222 6.56229 0
    endloop
  endfacet
  facet normal 0 0 -1
    outer loop
      vertex 0.957952 2.94827 0
      vertex 2.13222 6.56229 0
      vertex 1.82213 2.50795 0
    endloop
  endfacet
  facet normal 0 0 -1
    outer loop
      vertex 0 3.1 0
      vertex 2.13222 6.56229 0
      vertex 0.957952 2.94827 0
    endloop
  endfacet
  facet normal 0 0 -1
    outer loop
      vertex 0 3.1 0
      vertex 0 6.9 0
      vertex 2.13222 6.56229 0
    endloop
  endfacet
  facet normal 0 0 -1
    outer loop
      vertex -0.957952 2.94827 0
      vertex 0 6.9 0
      vertex 0 3.1 0
    endloop
  endfacet
  facet normal 0 0 -1
    outer loop
      vertex -2.13222 6.56229 0
      vertex -0.957952 2.94827 0
      vertex -1.82213 2.50795 0
    endloop
  endfacet
  facet normal 0 0 -1
    outer loop
      vertex -0.957952 2.94827 0
      vertex -2.13222 6.56229 0
      vertex 0 6.9 0
    endloop
  endfacet
  facet normal 0 0 -1
    outer loop
      vertex -4.05572 5.58222 0
      vertex -1.82213 2.50795 0
      vertex -2.50795 1.82213 0
    endloop
  endfacet
  facet normal 0 0 -1
    outer loop
      vertex -5.58222 4.05572 0
      vertex -2.50795 1.82213 0
      vertex -2.94827 0.957952 0
    endloop
  endfacet
  facet normal 0 0 -1
    outer loop
      vertex -6.56229 2.13222 0
      vertex -2.94827 0.957952 0
      vertex -3.1 0 0
    endloop
  endfacet
  facet normal 0 0 -1
    outer loop
      vertex -6.56229 -2.13222 0
      vertex -2.94827 -0.957952 0
      vertex -5.58222 -4.05572 0
    endloop
  endfacet
  facet normal 0 0 -1
    outer loop
      vertex -1.82213 2.50795 0
      vertex -4.05572 5.58222 0
      vertex -2.13222 6.56229 0
    endloop
  endfacet
  facet normal -0 0 -1
    outer loop
      vertex -2.94827 -0.957952 0
      vertex -6.56229 -2.13222 0
      vertex -3.1 0 0
    endloop
  endfacet
  facet normal 0 0 -1
    outer loop
      vertex -2.50795 1.82213 0
      vertex -5.58222 4.05572 0
      vertex -4.05572 5.58222 0
    endloop
  endfacet
  facet normal 0 0 -1
    outer loop
      vertex -6.9 0 0
      vertex -3.1 0 0
      vertex -6.56229 -2.13222 0
    endloop
  endfacet
  facet normal 0 0 -1
    outer loop
      vertex -2.94827 0.957952 0
      vertex -6.56229 2.13222 0
      vertex -5.58222 4.05572 0
    endloop
  endfacet
  facet normal 0 0 -1
    outer loop
      vertex -3.1 0 0
      vertex -6.9 0 0
      vertex -6.56229 2.13222 0
    endloop
  endfacet
  facet normal 0.707107 0.707107 0
    outer loop
      vertex 5.58222 4.05572 12
      vertex 4.05572 5.58222 0
      vertex 4.05572 5.58222 12
    endloop
  endfacet
  facet normal 0.707107 0.707107 0
    outer loop
      vertex 4.05572 5.58222 0
      vertex 5.58222 4.05572 12
      vertex 5.58222 4.05572 0
    endloop
  endfacet
  facet normal 0.891007 0.45399 0
    outer loop
      vertex 6.56229 2.13222 12
      vertex 5.58222 4.05572 0
      vertex 5.58222 4.05572 12
    endloop
  endfacet
  facet normal 0.891007 0.45399 0
    outer loop
      vertex 5.58222 4.05572 0
      vertex 6.56229 2.13222 12
      vertex 6.56229 2.13222 0
    endloop
  endfacet
  facet normal 0.45399 0.891007 -0
    outer loop
      vertex 4.05572 5.58222 0
      vertex 2.13222 6.56229 12
      vertex 4.05572 5.58222 12
    endloop
  endfacet
  facet normal 0.45399 0.891007 0
    outer loop
      vertex 2.13222 6.56229 12
      vertex 4.05572 5.58222 0
      vertex 2.13222 6.56229 0
    endloop
  endfacet
  facet normal -0.45399 0.891007 0
    outer loop
      vertex -2.13222 6.56229 0
      vertex -4.05572 5.58222 12
      vertex -2.13222 6.56229 12
    endloop
  endfacet
  facet normal -0.45399 0.891007 0
    outer loop
      vertex -4.05572 5.58222 12
      vertex -2.13222 6.56229 0
      vertex -4.05572 5.58222 0
    endloop
  endfacet
  facet normal -0.707107 0.707107 0
    outer loop
      vertex -5.58222 4.05572 0
      vertex -4.05572 5.58222 12
      vertex -4.05572 5.58222 0
    endloop
  endfacet
  facet normal -0.707107 0.707107 0
    outer loop
      vertex -4.05572 5.58222 12
      vertex -5.58222 4.05572 0
      vertex -5.58222 4.05572 12
    endloop
  endfacet
  facet normal -0.156434 0.987688 0
    outer loop
      vertex 0 6.9 0
      vertex -2.13222 6.56229 12
      vertex 0 6.9 12
    endloop
  endfacet
  facet normal -0.156434 0.987688 0
    outer loop
      vertex -2.13222 6.56229 12
      vertex 0 6.9 0
      vertex -2.13222 6.56229 0
    endloop
  endfacet
  facet normal 0.891007 -0.45399 0
    outer loop
      vertex 5.58222 -4.05572 12
      vertex 6.56229 -2.13222 0
      vertex 6.56229 -2.13222 12
    endloop
  endfacet
  facet normal 0.891007 -0.45399 0
    outer loop
      vertex 6.56229 -2.13222 0
      vertex 5.58222 -4.05572 12
      vertex 5.58222 -4.05572 0
    endloop
  endfacet
  facet normal -0.707107 -0.707107 0
    outer loop
      vertex -4.05572 -5.58222 0
      vertex -5.58222 -4.05572 12
      vertex -5.58222 -4.05572 0
    endloop
  endfacet
  facet normal -0.707107 -0.707107 0
    outer loop
      vertex -5.58222 -4.05572 12
      vertex -4.05572 -5.58222 0
      vertex -4.05572 -5.58222 12
    endloop
  endfacet
  facet normal -0.987688 -0.156434 0
    outer loop
      vertex -6.56229 -2.13222 0
      vertex -6.9 0 12
      vertex -6.9 0 0
    endloop
  endfacet
  facet normal -0.987688 -0.156434 0
    outer loop
      vertex -6.9 0 12
      vertex -6.56229 -2.13222 0
      vertex -6.56229 -2.13222 12
    endloop
  endfacet
  facet normal -0.891007 0.45399 0
    outer loop
      vertex -6.56229 2.13222 0
      vertex -5.58222 4.05572 12
      vertex -5.58222 4.05572 0
    endloop
  endfacet
  facet normal -0.891007 0.45399 0
    outer loop
      vertex -5.58222 4.05572 12
      vertex -6.56229 2.13222 0
      vertex -6.56229 2.13222 12
    endloop
  endfacet
  facet normal 0 0 1
    outer loop
      vertex 5.9 0 12
      vertex 6.9 0 12
      vertex 6.56229 2.13222 12
    endloop
  endfacet
  facet normal 0 0 1
    outer loop
      vertex 6.9 0 12
      vertex 5.9 0 12
      vertex 6.56229 -2.13222 12
    endloop
  endfacet
  facet normal 0 0 1
    outer loop
      vertex 6.56229 2.13222 12
      vertex 5.61123 1.8232 12
      vertex 5.9 0 12
    endloop
  endfacet
  facet normal 0 0 1
    outer loop
      vertex 5.58222 4.05572 12
      vertex 5.61123 1.8232 12
      vertex 6.56229 2.13222 12
    endloop
  endfacet
  facet normal 0 0 1
    outer loop
      vertex 5.58222 4.05572 12
      vertex 4.7732 3.46793 12
      vertex 5.61123 1.8232 12
    endloop
  endfacet
  facet normal 0 0 1
    outer loop
      vertex 4.05572 5.58222 12
      vertex 4.7732 3.46793 12
      vertex 5.58222 4.05572 12
    endloop
  endfacet
  facet normal 0 0 1
    outer loop
      vertex 4.05572 5.58222 12
      vertex 3.46793 4.7732 12
      vertex 4.7732 3.46793 12
    endloop
  endfacet
  facet normal 0 0 1
    outer loop
      vertex 2.13222 6.56229 12
      vertex 3.46793 4.7732 12
      vertex 4.05572 5.58222 12
    endloop
  endfacet
  facet normal 0 0 1
    outer loop
      vertex 2.13222 6.56229 12
      vertex 1.8232 5.61123 12
      vertex 3.46793 4.7732 12
    endloop
  endfacet
  facet normal 0 0 1
    outer loop
      vertex 0 6.9 12
      vertex 1.8232 5.61123 12
      vertex 2.13222 6.56229 12
    endloop
  endfacet
  facet normal 0 0 1
    outer loop
      vertex 0 6.9 12
      vertex 0 5.9 12
      vertex 1.8232 5.61123 12
    endloop
  endfacet
  facet normal 0 0 1
    outer loop
      vertex 0 6.9 12
      vertex -1.8232 5.61123 12
      vertex 0 5.9 12
    endloop
  endfacet
  facet normal -0 0 1
    outer loop
      vertex -2.13222 6.56229 12
      vertex -1.8232 5.61123 12
      vertex 0 6.9 12
    endloop
  endfacet
  facet normal 0 0 1
    outer loop
      vertex -2.13222 6.56229 12
      vertex -3.46793 4.7732 12
      vertex -1.8232 5.61123 12
    endloop
  endfacet
  facet normal -0 0 1
    outer loop
      vertex -4.05572 5.58222 12
      vertex -3.46793 4.7732 12
      vertex -2.13222 6.56229 12
    endloop
  endfacet
  facet normal 0 0 1
    outer loop
      vertex -4.05572 5.58222 12
      vertex -4.7732 3.46793 12
      vertex -3.46793 4.7732 12
    endloop
  endfacet
  facet normal -0 0 1
    outer loop
      vertex -5.58222 4.05572 12
      vertex -4.7732 3.46793 12
      vertex -4.05572 5.58222 12
    endloop
  endfacet
  facet normal 0 0 1
    outer loop
      vertex -5.58222 4.05572 12
      vertex -5.61123 1.8232 12
      vertex -4.7732 3.46793 12
    endloop
  endfacet
  facet normal -0 0 1
    outer loop
      vertex -6.56229 2.13222 12
      vertex -5.61123 1.8232 12
      vertex -5.58222 4.05572 12
    endloop
  endfacet
  facet normal 0 0 1
    outer loop
      vertex -5.61123 1.8232 12
      vertex -6.56229 2.13222 12
      vertex -5.9 0 12
    endloop
  endfacet
  facet normal -0 0 1
    outer loop
      vertex 5.61123 -1.8232 12
      vertex 6.56229 -2.13222 12
      vertex 5.9 0 12
    endloop
  endfacet
  facet normal 0 0 1
    outer loop
      vertex 5.61123 -1.8232 12
      vertex 5.58222 -4.05572 12
      vertex 6.56229 -2.13222 12
    endloop
  endfacet
  facet normal -0 0 1
    outer loop
      vertex 4.7732 -3.46793 12
      vertex 5.58222 -4.05572 12
      vertex 5.61123 -1.8232 12
    endloop
  endfacet
  facet normal 0 0 1
    outer loop
      vertex 4.7732 -3.46793 12
      vertex 4.05572 -5.58222 12
      vertex 5.58222 -4.05572 12
    endloop
  endfacet
  facet normal -0 0 1
    outer loop
      vertex 3.46793 -4.7732 12
      vertex 4.05572 -5.58222 12
      vertex 4.7732 -3.46793 12
    endloop
  endfacet
  facet normal 0 0 1
    outer loop
      vertex 3.46793 -4.7732 12
      vertex 2.13222 -6.56229 12
      vertex 4.05572 -5.58222 12
    endloop
  endfacet
  facet normal -0 0 1
    outer loop
      vertex 1.8232 -5.61123 12
      vertex 2.13222 -6.56229 12
      vertex 3.46793 -4.7732 12
    endloop
  endfacet
  facet normal -0 0 1
    outer loop
      vertex 0 -5.9 12
      vertex 2.13222 -6.56229 12
      vertex 1.8232 -5.61123 12
    endloop
  endfacet
  facet normal 0 0 1
    outer loop
      vertex 0 -5.9 12
      vertex 0 -6.9 12
      vertex 2.13222 -6.56229 12
    endloop
  endfacet
  facet normal 0 0 1
    outer loop
      vertex -1.8232 -5.61123 12
      vertex 0 -6.9 12
      vertex 0 -5.9 12
    endloop
  endfacet
  facet normal 0 0 1
    outer loop
      vertex -1.8232 -5.61123 12
      vertex -2.13222 -6.56229 12
      vertex 0 -6.9 12
    endloop
  endfacet
  facet normal 0 0 1
    outer loop
      vertex -3.46793 -4.7732 12
      vertex -2.13222 -6.56229 12
      vertex -1.8232 -5.61123 12
    endloop
  endfacet
  facet normal 0 0 1
    outer loop
      vertex -3.46793 -4.7732 12
      vertex -4.05572 -5.58222 12
      vertex -2.13222 -6.56229 12
    endloop
  endfacet
  facet normal 0 0 1
    outer loop
      vertex -4.7732 -3.46793 12
      vertex -4.05572 -5.58222 12
      vertex -3.46793 -4.7732 12
    endloop
  endfacet
  facet normal 0 0 1
    outer loop
      vertex -4.7732 -3.46793 12
      vertex -5.58222 -4.05572 12
      vertex -4.05572 -5.58222 12
    endloop
  endfacet
  facet normal 0 0 1
    outer loop
      vertex -5.61123 -1.8232 12
      vertex -5.58222 -4.05572 12
      vertex -4.7732 -3.46793 12
    endloop
  endfacet
  facet normal 0 0 1
    outer loop
      vertex -6.56229 -2.13222 12
      vertex -5.61123 -1.8232 12
      vertex -5.9 0 12
    endloop
  endfacet
  facet normal 0 0 1
    outer loop
      vertex -6.9 0 12
      vertex -5.9 0 12
      vertex -6.56229 2.13222 12
    endloop
  endfacet
  facet normal 0 0 1
    outer loop
      vertex -5.61123 -1.8232 12
      vertex -6.56229 -2.13222 12
      vertex -5.58222 -4.05572 12
    endloop
  endfacet
  facet normal 0 0 1
    outer loop
      vertex -5.9 0 12
      vertex -6.9 0 12
      vertex -6.56229 -2.13222 12
    endloop
  endfacet
  facet normal 0.987688 -0.156434 0
    outer loop
      vertex 6.56229 -2.13222 12
      vertex 6.9 0 0
      vertex 6.9 0 12
    endloop
  endfacet
  facet normal 0.987688 -0.156434 0
    outer loop
      vertex 6.9 0 0
      vertex 6.56229 -2.13222 12
      vertex 6.56229 -2.13222 0
    endloop
  endfacet
  facet normal 0.156434 -0.987688 0
    outer loop
      vertex 0 -6.9 0
      vertex 2.13222 -6.56229 12
      vertex 0 -6.9 12
    endloop
  endfacet
  facet normal 0.156434 -0.987688 0
    outer loop
      vertex 2.13222 -6.56229 12
      vertex 0 -6.9 0
      vertex 2.13222 -6.56229 0
    endloop
  endfacet
  facet normal 0.707107 -0.707107 0
    outer loop
      vertex 4.05572 -5.58222 12
      vertex 5.58222 -4.05572 0
      vertex 5.58222 -4.05572 12
    endloop
  endfacet
  facet normal 0.707107 -0.707107 0
    outer loop
      vertex 5.58222 -4.05572 0
      vertex 4.05572 -5.58222 12
      vertex 4.05572 -5.58222 0
    endloop
  endfacet
  facet normal -0.45399 -0.891007 0
    outer loop
      vertex -4.05572 -5.58222 0
      vertex -2.13222 -6.56229 12
      vertex -4.05572 -5.58222 12
    endloop
  endfacet
  facet normal -0.45399 -0.891007 -0
    outer loop
      vertex -2.13222 -6.56229 12
      vertex -4.05572 -5.58222 0
      vertex -2.13222 -6.56229 0
    endloop
  endfacet
  facet normal -0.891007 -0.45399 0
    outer loop
      vertex -5.58222 -4.05572 0
      vertex -6.56229 -2.13222 12
      vertex -6.56229 -2.13222 0
    endloop
  endfacet
  facet normal -0.891007 -0.45399 0
    outer loop
      vertex -6.56229 -2.13222 12
      vertex -5.58222 -4.05572 0
      vertex -5.58222 -4.05572 12
    endloop
  endfacet
  facet normal 0.45399 -0.891007 0
    outer loop
      vertex 2.13222 -6.56229 0
      vertex 4.05572 -5.58222 12
      vertex 2.13222 -6.56229 12
    endloop
  endfacet
  facet normal 0.45399 -0.891007 0
    outer loop
      vertex 4.05572 -5.58222 12
      vertex 2.13222 -6.56229 0
      vertex 4.05572 -5.58222 0
    endloop
  endfacet
  facet normal 0.987688 0.156436 0
    outer loop
      vertex 5.9 0 30
      vertex 5.61123 1.8232 12
      vertex 5.61123 1.8232 30
    endloop
  endfacet
  facet normal 0.987688 0.156436 0
    outer loop
      vertex 5.61123 1.8232 12
      vertex 5.9 0 30
      vertex 5.9 0 12
    endloop
  endfacet
  facet normal -0.987688 0.156436 0
    outer loop
      vertex -5.9 0 12
      vertex -5.61123 1.8232 30
      vertex -5.61123 1.8232 12
    endloop
  endfacet
  facet normal -0.987688 0.156436 0
    outer loop
      vertex -5.61123 1.8232 30
      vertex -5.9 0 12
      vertex -5.9 0 30
    endloop
  endfacet
  facet normal 0.156436 0.987688 -0
    outer loop
      vertex 1.8232 5.61123 12
      vertex 0 5.9 30
      vertex 1.8232 5.61123 30
    endloop
  endfacet
  facet normal 0.156436 0.987688 0
    outer loop
      vertex 0 5.9 30
      vertex 1.8232 5.61123 12
      vertex 0 5.9 12
    endloop
  endfacet
  facet normal -0.156436 -0.987688 0
    outer loop
      vertex -1.8232 -5.61123 12
      vertex 0 -5.9 30
      vertex -1.8232 -5.61123 30
    endloop
  endfacet
  facet normal -0.156436 -0.987688 -0
    outer loop
      vertex 0 -5.9 30
      vertex -1.8232 -5.61123 12
      vertex 0 -5.9 12
    endloop
  endfacet
  facet normal 0.707107 0.707107 0
    outer loop
      vertex 4.7732 3.46793 30
      vertex 3.46793 4.7732 12
      vertex 3.46793 4.7732 30
    endloop
  endfacet
  facet normal 0.707107 0.707107 0
    outer loop
      vertex 3.46793 4.7732 12
      vertex 4.7732 3.46793 30
      vertex 4.7732 3.46793 12
    endloop
  endfacet
  facet normal 0.891007 0.45399 0
    outer loop
      vertex 5.61123 1.8232 30
      vertex 4.7732 3.46793 12
      vertex 4.7732 3.46793 30
    endloop
  endfacet
  facet normal 0.891007 0.45399 0
    outer loop
      vertex 4.7732 3.46793 12
      vertex 5.61123 1.8232 30
      vertex 5.61123 1.8232 12
    endloop
  endfacet
  facet normal 0.45399 0.891007 -0
    outer loop
      vertex 3.46793 4.7732 12
      vertex 1.8232 5.61123 30
      vertex 3.46793 4.7732 30
    endloop
  endfacet
  facet normal 0.45399 0.891007 0
    outer loop
      vertex 1.8232 5.61123 30
      vertex 3.46793 4.7732 12
      vertex 1.8232 5.61123 12
    endloop
  endfacet
  facet normal -0.45399 0.891007 0
    outer loop
      vertex -1.8232 5.61123 12
      vertex -3.46793 4.7732 30
      vertex -1.8232 5.61123 30
    endloop
  endfacet
  facet normal -0.45399 0.891007 0
    outer loop
      vertex -3.46793 4.7732 30
      vertex -1.8232 5.61123 12
      vertex -3.46793 4.7732 12
    endloop
  endfacet
  facet normal -0.707107 0.707107 0
    outer loop
      vertex -4.7732 3.46793 12
      vertex -3.46793 4.7732 30
      vertex -3.46793 4.7732 12
    endloop
  endfacet
  facet normal -0.707107 0.707107 0
    outer loop
      vertex -3.46793 4.7732 30
      vertex -4.7732 3.46793 12
      vertex -4.7732 3.46793 30
    endloop
  endfacet
  facet normal -0.156436 0.987688 0
    outer loop
      vertex 0 5.9 12
      vertex -1.8232 5.61123 30
      vertex 0 5.9 30
    endloop
  endfacet
  facet normal -0.156436 0.987688 0
    outer loop
      vertex -1.8232 5.61123 30
      vertex 0 5.9 12
      vertex -1.8232 5.61123 12
    endloop
  endfacet
  facet normal 0.891007 -0.45399 0
    outer loop
      vertex 4.7732 -3.46793 30
      vertex 5.61123 -1.8232 12
      vertex 5.61123 -1.8232 30
    endloop
  endfacet
  facet normal 0.891007 -0.45399 0
    outer loop
      vertex 5.61123 -1.8232 12
      vertex 4.7732 -3.46793 30
      vertex 4.7732 -3.46793 12
    endloop
  endfacet
  facet normal -0.707107 -0.707107 0
    outer loop
      vertex -3.46793 -4.7732 12
      vertex -4.7732 -3.46793 30
      vertex -4.7732 -3.46793 12
    endloop
  endfacet
  facet normal -0.707107 -0.707107 0
    outer loop
      vertex -4.7732 -3.46793 30
      vertex -3.46793 -4.7732 12
      vertex -3.46793 -4.7732 30
    endloop
  endfacet
  facet normal -0.987688 -0.156436 0
    outer loop
      vertex -5.61123 -1.8232 12
      vertex -5.9 0 30
      vertex -5.9 0 12
    endloop
  endfacet
  facet normal -0.987688 -0.156436 0
    outer loop
      vertex -5.9 0 30
      vertex -5.61123 -1.8232 12
      vertex -5.61123 -1.8232 30
    endloop
  endfacet
  facet normal -0.891007 0.45399 0
    outer loop
      vertex -5.61123 1.8232 12
      vertex -4.7732 3.46793 30
      vertex -4.7732 3.46793 12
    endloop
  endfacet
  facet normal -0.891007 0.45399 0
    outer loop
      vertex -4.7732 3.46793 30
      vertex -5.61123 1.8232 12
      vertex -5.61123 1.8232 30
    endloop
  endfacet
  facet normal 0 0 1
    outer loop
      vertex 5.61123 1.8232 30
      vertex 5.61123 -1.8232 30
      vertex 5.9 0 30
    endloop
  endfacet
  facet normal 0 0 1
    outer loop
      vertex 4.7732 3.46793 30
      vertex 5.61123 -1.8232 30
      vertex 5.61123 1.8232 30
    endloop
  endfacet
  facet normal 0 0 1
    outer loop
      vertex 4.7732 3.46793 30
      vertex 4.7732 -3.46793 30
      vertex 5.61123 -1.8232 30
    endloop
  endfacet
  facet normal 0 0 1
    outer loop
      vertex 3.46793 4.7732 30
      vertex 4.7732 -3.46793 30
      vertex 4.7732 3.46793 30
    endloop
  endfacet
  facet normal 0 0 1
    outer loop
      vertex 3.46793 4.7732 30
      vertex 3.46793 -4.7732 30
      vertex 4.7732 -3.46793 30
    endloop
  endfacet
  facet normal 0 0 1
    outer loop
      vertex 1.8232 5.61123 30
      vertex 3.46793 -4.7732 30
      vertex 3.46793 4.7732 30
    endloop
  endfacet
  facet normal 0 0 1
    outer loop
      vertex 1.8232 5.61123 30
      vertex 1.8232 -5.61123 30
      vertex 3.46793 -4.7732 30
    endloop
  endfacet
  facet normal 0 0 1
    outer loop
      vertex 0 5.9 30
      vertex 1.8232 -5.61123 30
      vertex 1.8232 5.61123 30
    endloop
  endfacet
  facet normal 0 0 1
    outer loop
      vertex 0 5.9 30
      vertex 0 -5.9 30
      vertex 1.8232 -5.61123 30
    endloop
  endfacet
  facet normal -0 0 1
    outer loop
      vertex -1.8232 5.61123 30
      vertex 0 -5.9 30
      vertex 0 5.9 30
    endloop
  endfacet
  facet normal 0 0 1
    outer loop
      vertex -1.8232 5.61123 30
      vertex -1.8232 -5.61123 30
      vertex 0 -5.9 30
    endloop
  endfacet
  facet normal -0 0 1
    outer loop
      vertex -3.46793 4.7732 30
      vertex -1.8232 -5.61123 30
      vertex -1.8232 5.61123 30
    endloop
  endfacet
  facet normal 0 0 1
    outer loop
      vertex -3.46793 4.7732 30
      vertex -3.46793 -4.7732 30
      vertex -1.8232 -5.61123 30
    endloop
  endfacet
  facet normal -0 0 1
    outer loop
      vertex -4.7732 3.46793 30
      vertex -3.46793 -4.7732 30
      vertex -3.46793 4.7732 30
    endloop
  endfacet
  facet normal 0 0 1
    outer loop
      vertex -4.7732 3.46793 30
      vertex -4.7732 -3.46793 30
      vertex -3.46793 -4.7732 30
    endloop
  endfacet
  facet normal -0 0 1
    outer loop
      vertex -5.61123 1.8232 30
      vertex -4.7732 -3.46793 30
      vertex -4.7732 3.46793 30
    endloop
  endfacet
  facet normal 0 0 1
    outer loop
      vertex -5.61123 1.8232 30
      vertex -5.61123 -1.8232 30
      vertex -4.7732 -3.46793 30
    endloop
  endfacet
  facet normal 0 -0 1
    outer loop
      vertex -5.61123 -1.8232 30
      vertex -5.61123 1.8232 30
      vertex -5.9 0 30
    endloop
  endfacet
  facet normal 0.987688 -0.156436 0
    outer loop
      vertex 5.61123 -1.8232 30
      vertex 5.9 0 12
      vertex 5.9 0 30
    endloop
  endfacet
  facet normal 0.987688 -0.156436 0
    outer loop
      vertex 5.9 0 12
      vertex 5.61123 -1.8232 30
      vertex 5.61123 -1.8232 12
    endloop
  endfacet
  facet normal 0.156436 -0.987688 0
    outer loop
      vertex 0 -5.9 12
      vertex 1.8232 -5.61123 30
      vertex 0 -5.9 30
    endloop
  endfacet
  facet normal 0.156436 -0.987688 0
    outer loop
      vertex 1.8232 -5.61123 30
      vertex 0 -5.9 12
      vertex 1.8232 -5.61123 12
    endloop
  endfacet
  facet normal 0.707107 -0.707107 0
    outer loop
      vertex 3.46793 -4.7732 30
      vertex 4.7732 -3.46793 12
      vertex 4.7732 -3.46793 30
    endloop
  endfacet
  facet normal 0.707107 -0.707107 0
    outer loop
      vertex 4.7732 -3.46793 12
      vertex 3.46793 -4.7732 30
      vertex 3.46793 -4.7732 12
    endloop
  endfacet
  facet normal -0.45399 -0.891007 0
    outer loop
      vertex -3.46793 -4.7732 12
      vertex -1.8232 -5.61123 30
      vertex -3.46793 -4.7732 30
    endloop
  endfacet
  facet normal -0.45399 -0.891007 -0
    outer loop
      vertex -1.8232 -5.61123 30
      vertex -3.46793 -4.7732 12
      vertex -1.8232 -5.61123 12
    endloop
  endfacet
  facet normal -0.891007 -0.45399 0
    outer loop
      vertex -4.7732 -3.46793 12
      vertex -5.61123 -1.8232 30
      vertex -5.61123 -1.8232 12
    endloop
  endfacet
  facet normal -0.891007 -0.45399 0
    outer loop
      vertex -5.61123 -1.8232 30
      vertex -4.7732 -3.46793 12
      vertex -4.7732 -3.46793 30
    endloop
  endfacet
  facet normal 0.45399 -0.891007 0
    outer loop
      vertex 1.8232 -5.61123 12
      vertex 3.46793 -4.7732 30
      vertex 1.8232 -5.61123 30
    endloop
  endfacet
  facet normal 0.45399 -0.891007 0
    outer loop
      vertex 3.46793 -4.7732 30
      vertex 1.8232 -5.61123 12
      vertex 3.46793 -4.7732 12
    endloop
  endfacet
  facet normal -0.987687 -0.15644 0
    outer loop
      vertex 3.1 0 0
      vertex 2.94827 0.957952 11
      vertex 2.94827 0.957952 0
    endloop
  endfacet
  facet normal -0.987687 -0.15644 0
    outer loop
      vertex 2.94827 0.957952 11
      vertex 3.1 0 0
      vertex 3.1 0 11
    endloop
  endfacet
  facet normal 0.987687 -0.15644 0
    outer loop
      vertex -3.1 0 11
      vertex -2.94827 0.957952 0
      vertex -2.94827 0.957952 11
    endloop
  endfacet
  facet normal 0.987687 -0.15644 0
    outer loop
      vertex -2.94827 0.957952 0
      vertex -3.1 0 11
      vertex -3.1 0 0
    endloop
  endfacet
  facet normal -0.15644 -0.987687 0
    outer loop
      vertex 0 3.1 0
      vertex 0.957952 2.94827 11
      vertex 0 3.1 11
    endloop
  endfacet
  facet normal -0.15644 -0.987687 -0
    outer loop
      vertex 0.957952 2.94827 11
      vertex 0 3.1 0
      vertex 0.957952 2.94827 0
    endloop
  endfacet
  facet normal 0.15644 0.987687 -0
    outer loop
      vertex 0 -3.1 0
      vertex -0.957952 -2.94827 11
      vertex 0 -3.1 11
    endloop
  endfacet
  facet normal 0.15644 0.987687 0
    outer loop
      vertex -0.957952 -2.94827 11
      vertex 0 -3.1 0
      vertex -0.957952 -2.94827 0
    endloop
  endfacet
  facet normal -0.15644 0.987687 0
    outer loop
      vertex 0.957952 -2.94827 0
      vertex 0 -3.1 11
      vertex 0.957952 -2.94827 11
    endloop
  endfacet
  facet normal -0.15644 0.987687 0
    outer loop
      vertex 0 -3.1 11
      vertex 0.957952 -2.94827 0
      vertex 0 -3.1 0
    endloop
  endfacet
  facet normal -0.707107 -0.707107 0
    outer loop
      vertex 2.50795 1.82213 0
      vertex 1.82213 2.50795 11
      vertex 1.82213 2.50795 0
    endloop
  endfacet
  facet normal -0.707107 -0.707107 0
    outer loop
      vertex 1.82213 2.50795 11
      vertex 2.50795 1.82213 0
      vertex 2.50795 1.82213 11
    endloop
  endfacet
  facet normal -0.891007 -0.45399 0
    outer loop
      vertex 2.94827 0.957952 0
      vertex 2.50795 1.82213 11
      vertex 2.50795 1.82213 0
    endloop
  endfacet
  facet normal -0.891007 -0.45399 0
    outer loop
      vertex 2.50795 1.82213 11
      vertex 2.94827 0.957952 0
      vertex 2.94827 0.957952 11
    endloop
  endfacet
  facet normal -0.45399 -0.891007 0
    outer loop
      vertex 0.957952 2.94827 0
      vertex 1.82213 2.50795 11
      vertex 0.957952 2.94827 11
    endloop
  endfacet
  facet normal -0.45399 -0.891007 -0
    outer loop
      vertex 1.82213 2.50795 11
      vertex 0.957952 2.94827 0
      vertex 1.82213 2.50795 0
    endloop
  endfacet
  facet normal 0.45399 -0.891007 0
    outer loop
      vertex -1.82213 2.50795 0
      vertex -0.957952 2.94827 11
      vertex -1.82213 2.50795 11
    endloop
  endfacet
  facet normal 0.45399 -0.891007 0
    outer loop
      vertex -0.957952 2.94827 11
      vertex -1.82213 2.50795 0
      vertex -0.957952 2.94827 0
    endloop
  endfacet
  facet normal 0 0 -1
    outer loop
      vertex 2.94827 -0.957952 11
      vertex 2.94827 0.957952 11
      vertex 3.1 0 11
    endloop
  endfacet
  facet normal 0 0 -1
    outer loop
      vertex 2.50795 -1.82213 11
      vertex 2.94827 0.957952 11
      vertex 2.94827 -0.957952 11
    endloop
  endfacet
  facet normal 0 0 -1
    outer loop
      vertex 2.50795 -1.82213 11
      vertex 2.50795 1.82213 11
      vertex 2.94827 0.957952 11
    endloop
  endfacet
  facet normal 0 0 -1
    outer loop
      vertex 1.82213 -2.50795 11
      vertex 2.50795 1.82213 11
      vertex 2.50795 -1.82213 11
    endloop
  endfacet
  facet normal 0 0 -1
    outer loop
      vertex 1.82213 -2.50795 11
      vertex 1.82213 2.50795 11
      vertex 2.50795 1.82213 11
    endloop
  endfacet
  facet normal 0 0 -1
    outer loop
      vertex 0.957952 -2.94827 11
      vertex 1.82213 2.50795 11
      vertex 1.82213 -2.50795 11
    endloop
  endfacet
  facet normal 0 0 -1
    outer loop
      vertex 0.957952 -2.94827 11
      vertex 0.957952 2.94827 11
      vertex 1.82213 2.50795 11
    endloop
  endfacet
  facet normal 0 0 -1
    outer loop
      vertex 0 -3.1 11
      vertex 0.957952 2.94827 11
      vertex 0.957952 -2.94827 11
    endloop
  endfacet
  facet normal 0 0 -1
    outer loop
      vertex 0 -3.1 11
      vertex 0 3.1 11
      vertex 0.957952 2.94827 11
    endloop
  endfacet
  facet normal 0 0 -1
    outer loop
      vertex -0.957952 -2.94827 11
      vertex 0 3.1 11
      vertex 0 -3.1 11
    endloop
  endfacet
  facet normal 0 0 -1
    outer loop
      vertex -0.957952 -2.94827 11
      vertex -0.957952 2.94827 11
      vertex 0 3.1 11
    endloop
  endfacet
  facet normal 0 0 -1
    outer loop
      vertex -1.82213 -2.50795 11
      vertex -0.957952 2.94827 11
      vertex -0.957952 -2.94827 11
    endloop
  endfacet
  facet normal 0 0 -1
    outer loop
      vertex -1.82213 -2.50795 11
      vertex -1.82213 2.50795 11
      vertex -0.957952 2.94827 11
    endloop
  endfacet
  facet normal 0 0 -1
    outer loop
      vertex -2.50795 -1.82213 11
      vertex -1.82213 2.50795 11
      vertex -1.82213 -2.50795 11
    endloop
  endfacet
  facet normal 0 0 -1
    outer loop
      vertex -2.50795 -1.82213 11
      vertex -2.50795 1.82213 11
      vertex -1.82213 2.50795 11
    endloop
  endfacet
  facet normal 0 0 -1
    outer loop
      vertex -2.94827 -0.957952 11
      vertex -2.50795 1.82213 11
      vertex -2.50795 -1.82213 11
    endloop
  endfacet
  facet normal 0 0 -1
    outer loop
      vertex -2.94827 -0.957952 11
      vertex -2.94827 0.957952 11
      vertex -2.50795 1.82213 11
    endloop
  endfacet
  facet normal 0 -0 -1
    outer loop
      vertex -2.94827 0.957952 11
      vertex -2.94827 -0.957952 11
      vertex -3.1 0 11
    endloop
  endfacet
  facet normal 0.15644 -0.987687 0
    outer loop
      vertex -0.957952 2.94827 0
      vertex 0 3.1 11
      vertex -0.957952 2.94827 11
    endloop
  endfacet
  facet normal 0.15644 -0.987687 0
    outer loop
      vertex 0 3.1 11
      vertex -0.957952 2.94827 0
      vertex 0 3.1 0
    endloop
  endfacet
  facet normal -0.891007 0.45399 0
    outer loop
      vertex 2.50795 -1.82213 0
      vertex 2.94827 -0.957952 11
      vertex 2.94827 -0.957952 0
    endloop
  endfacet
  facet normal -0.891007 0.45399 0
    outer loop
      vertex 2.94827 -0.957952 11
      vertex 2.50795 -1.82213 0
      vertex 2.50795 -1.82213 11
    endloop
  endfacet
  facet normal 0.987687 0.15644 0
    outer loop
      vertex -2.94827 -0.957952 11
      vertex -3.1 0 0
      vertex -3.1 0 11
    endloop
  endfacet
  facet normal 0.987687 0.15644 0
    outer loop
      vertex -3.1 0 0
      vertex -2.94827 -0.957952 11
      vertex -2.94827 -0.957952 0
    endloop
  endfacet
  facet normal 0.707107 -0.707107 0
    outer loop
      vertex -2.50795 1.82213 11
      vertex -1.82213 2.50795 0
      vertex -1.82213 2.50795 11
    endloop
  endfacet
  facet normal 0.707107 -0.707107 0
    outer loop
      vertex -1.82213 2.50795 0
      vertex -2.50795 1.82213 11
      vertex -2.50795 1.82213 0
    endloop
  endfacet
  facet normal 0.891007 -0.45399 0
    outer loop
      vertex -2.94827 0.957952 11
      vertex -2.50795 1.82213 0
      vertex -2.50795 1.82213 11
    endloop
  endfacet
  facet normal 0.891007 -0.45399 0
    outer loop
      vertex -2.50795 1.82213 0
      vertex -2.94827 0.957952 11
      vertex -2.94827 0.957952 0
    endloop
  endfacet
  facet normal -0.987687 0.15644 0
    outer loop
      vertex 2.94827 -0.957952 0
      vertex 3.1 0 11
      vertex 3.1 0 0
    endloop
  endfacet
  facet normal -0.987687 0.15644 0
    outer loop
      vertex 3.1 0 11
      vertex 2.94827 -0.957952 0
      vertex 2.94827 -0.957952 11
    endloop
  endfacet
  facet normal 0.707107 0.707107 0
    outer loop
      vertex -1.82213 -2.50795 11
      vertex -2.50795 -1.82213 0
      vertex -2.50795 -1.82213 11
    endloop
  endfacet
  facet normal 0.707107 0.707107 0
    outer loop
      vertex -2.50795 -1.82213 0
      vertex -1.82213 -2.50795 11
      vertex -1.82213 -2.50795 0
    endloop
  endfacet
  facet normal 0.891007 0.45399 0
    outer loop
      vertex -2.50795 -1.82213 11
      vertex -2.94827 -0.957952 0
      vertex -2.94827 -0.957952 11
    endloop
  endfacet
  facet normal 0.891007 0.45399 0
    outer loop
      vertex -2.94827 -0.957952 0
      vertex -2.50795 -1.82213 11
      vertex -2.50795 -1.82213 0
    endloop
  endfacet
  facet normal -0.45399 0.891007 0
    outer loop
      vertex 1.82213 -2.50795 0
      vertex 0.957952 -2.94827 11
      vertex 1.82213 -2.50795 11
    endloop
  endfacet
  facet normal -0.45399 0.891007 0
    outer loop
      vertex 0.957952 -2.94827 11
      vertex 1.82213 -2.50795 0
      vertex 0.957952 -2.94827 0
    endloop
  endfacet
  facet normal -0.707107 0.707107 0
    outer loop
      vertex 1.82213 -2.50795 0
      vertex 2.50795 -1.82213 11
      vertex 2.50795 -1.82213 0
    endloop
  endfacet
  facet normal -0.707107 0.707107 0
    outer loop
      vertex 2.50795 -1.82213 11
      vertex 1.82213 -2.50795 0
      vertex 1.82213 -2.50795 11
    endloop
  endfacet
  facet normal 0.45399 0.891007 -0
    outer loop
      vertex -0.957952 -2.94827 0
      vertex -1.82213 -2.50795 11
      vertex -0.957952 -2.94827 11
    endloop
  endfacet
  facet normal 0.45399 0.891007 0
    outer loop
      vertex -1.82213 -2.50795 11
      vertex -0.957952 -2.94827 0
      vertex -1.82213 -2.50795 0
    endloop
  endfacet
endsolid OpenSCAD_Model
