solid OpenSCAD_Model
  facet normal 0 0 -1
    outer loop
      vertex -6.064 24.59 0
      vertex -4.54 26.59 0
      vertex -4.54 24.59 0
    endloop
  endfacet
  facet normal -0 0 -1
    outer loop
      vertex -4.54 26.59 0
      vertex -6.064 24.59 0
      vertex -6.064 26.59 0
    endloop
  endfacet
  facet normal 0 0 -1
    outer loop
      vertex -6.064 16.59 0
      vertex -4.54 18.59 0
      vertex -4.54 16.59 0
    endloop
  endfacet
  facet normal -0 0 -1
    outer loop
      vertex -4.54 18.59 0
      vertex -6.064 16.59 0
      vertex -6.064 18.59 0
    endloop
  endfacet
  facet normal 0 0 -1
    outer loop
      vertex 39.0069 14.7509 0
      vertex 47.72 16.59 0
      vertex 47.72 0 0
    endloop
  endfacet
  facet normal 0 -0 -1
    outer loop
      vertex 40.8233 17.2509 0
      vertex 47.72 16.59 0
      vertex 40.1131 15.8571 0
    endloop
  endfacet
  facet normal 0 0 -1
    outer loop
      vertex 47.72 16.59 0
      vertex 41.068 18.796 0
      vertex 47.72 18.59 0
    endloop
  endfacet
  facet normal 0 0 -1
    outer loop
      vertex 40.8233 20.3411 0
      vertex 47.72 18.59 0
      vertex 41.068 18.796 0
    endloop
  endfacet
  facet normal 0 0 -1
    outer loop
      vertex 43.18 -4.54 0
      vertex 47.72 0 0
      vertex 47.4978 -1.40294 0
    endloop
  endfacet
  facet normal 0 0 -1
    outer loop
      vertex 40.1131 21.7349 0
      vertex 47.72 24.59 0
      vertex 40.8233 20.3411 0
    endloop
  endfacet
  facet normal 0 0 -1
    outer loop
      vertex 43.18 -4.54 0
      vertex 47.4978 -1.40294 0
      vertex 46.8529 -2.66854 0
    endloop
  endfacet
  facet normal -0 0 -1
    outer loop
      vertex 47.72 24.59 0
      vertex 40.1131 21.7349 0
      vertex 47.72 26.59 0
    endloop
  endfacet
  facet normal 0 0 -1
    outer loop
      vertex 43.18 -4.54 0
      vertex 46.8529 -2.66854 0
      vertex 45.8485 -3.67294 0
    endloop
  endfacet
  facet normal 0 0 -1
    outer loop
      vertex 39.0069 22.8411 0
      vertex 47.72 26.59 0
      vertex 40.1131 21.7349 0
    endloop
  endfacet
  facet normal 0 0 -1
    outer loop
      vertex 43.18 -4.54 0
      vertex 45.8485 -3.67294 0
      vertex 44.5829 -4.3178 0
    endloop
  endfacet
  facet normal 0 0 -1
    outer loop
      vertex 37.6131 23.5513 0
      vertex 47.72 26.59 0
      vertex 39.0069 22.8411 0
    endloop
  endfacet
  facet normal -0 0 -1
    outer loop
      vertex 47.72 0 0
      vertex 43.18 -4.54 0
      vertex 37.6131 14.0407 0
    endloop
  endfacet
  facet normal -0 0 -1
    outer loop
      vertex 47.72 26.59 0
      vertex 37.6131 23.5513 0
      vertex 47.72 43.18 0
    endloop
  endfacet
  facet normal 0 0 -1
    outer loop
      vertex 36.068 23.796 0
      vertex 47.72 43.18 0
      vertex 37.6131 23.5513 0
    endloop
  endfacet
  facet normal 0 0 -1
    outer loop
      vertex 47.72 18.59 0
      vertex 40.8233 20.3411 0
      vertex 47.72 24.59 0
    endloop
  endfacet
  facet normal 0 -0 -1
    outer loop
      vertex 41.068 18.796 0
      vertex 47.72 16.59 0
      vertex 40.8233 17.2509 0
    endloop
  endfacet
  facet normal 0 0 -1
    outer loop
      vertex 47.72 16.59 0
      vertex 39.0069 14.7509 0
      vertex 40.1131 15.8571 0
    endloop
  endfacet
  facet normal 0 0 -1
    outer loop
      vertex 47.72 0 0
      vertex 37.6131 14.0407 0
      vertex 39.0069 14.7509 0
    endloop
  endfacet
  facet normal 0 0 -1
    outer loop
      vertex 43.18 -4.54 0
      vertex 36.068 13.796 0
      vertex 37.6131 14.0407 0
    endloop
  endfacet
  facet normal 0 0 -1
    outer loop
      vertex 26.844 5.588 0
      vertex 36.068 13.796 0
      vertex 43.18 -4.54 0
    endloop
  endfacet
  facet normal -0 0 -1
    outer loop
      vertex 36.068 13.796 0
      vertex 26.844 5.588 0
      vertex 34.5229 14.0407 0
    endloop
  endfacet
  facet normal 0 0 -1
    outer loop
      vertex 26.5993 7.13308 0
      vertex 34.5229 14.0407 0
      vertex 26.844 5.588 0
    endloop
  endfacet
  facet normal -0 0 -1
    outer loop
      vertex 33.1291 14.7509 0
      vertex 25.8891 8.52693 0
      vertex 32.0229 15.8571 0
    endloop
  endfacet
  facet normal 0 0 -1
    outer loop
      vertex 25.8891 8.52693 0
      vertex 33.1291 14.7509 0
      vertex 26.5993 7.13308 0
    endloop
  endfacet
  facet normal -0 0 -1
    outer loop
      vertex 34.5229 14.0407 0
      vertex 26.5993 7.13308 0
      vertex 33.1291 14.7509 0
    endloop
  endfacet
  facet normal 0 0 -1
    outer loop
      vertex 43.18 -4.54 0
      vertex 26.5993 4.04291 0
      vertex 26.844 5.588 0
    endloop
  endfacet
  facet normal 0 0 -1
    outer loop
      vertex 43.18 -4.54 0
      vertex 25.8891 2.64907 0
      vertex 26.5993 4.04291 0
    endloop
  endfacet
  facet normal 0 0 -1
    outer loop
      vertex 43.18 -4.54 0
      vertex 24.7829 1.54291 0
      vertex 25.8891 2.64907 0
    endloop
  endfacet
  facet normal 0 0 -1
    outer loop
      vertex 43.18 -4.54 0
      vertex 23.3891 0.832717 0
      vertex 24.7829 1.54291 0
    endloop
  endfacet
  facet normal 0 0 -1
    outer loop
      vertex 43.18 -4.54 0
      vertex 21.844 0.587999 0
      vertex 23.3891 0.832717 0
    endloop
  endfacet
  facet normal 0 0 -1
    outer loop
      vertex 0 -4.54 0
      vertex 21.844 0.587999 0
      vertex 43.18 -4.54 0
    endloop
  endfacet
  facet normal -0 0 -1
    outer loop
      vertex 17.0887 4.04291 0
      vertex 0 -4.54 0
      vertex 16.844 5.588 0
    endloop
  endfacet
  facet normal -0 0 -1
    outer loop
      vertex 17.7989 2.64907 0
      vertex 0 -4.54 0
      vertex 17.0887 4.04291 0
    endloop
  endfacet
  facet normal -0 0 -1
    outer loop
      vertex 18.9051 1.54291 0
      vertex 0 -4.54 0
      vertex 17.7989 2.64907 0
    endloop
  endfacet
  facet normal -0 0 -1
    outer loop
      vertex 20.2989 0.832717 0
      vertex 0 -4.54 0
      vertex 18.9051 1.54291 0
    endloop
  endfacet
  facet normal -0 0 -1
    outer loop
      vertex 21.844 0.587999 0
      vertex 0 -4.54 0
      vertex 20.2989 0.832717 0
    endloop
  endfacet
  facet normal 0 0 -1
    outer loop
      vertex 47.72 16.59 0
      vertex 49.244 18.59 0
      vertex 49.244 16.59 0
    endloop
  endfacet
  facet normal -0 0 -1
    outer loop
      vertex 49.244 18.59 0
      vertex 47.72 16.59 0
      vertex 47.72 18.59 0
    endloop
  endfacet
  facet normal 0 0 -1
    outer loop
      vertex 47.72 24.59 0
      vertex 49.244 26.59 0
      vertex 49.244 24.59 0
    endloop
  endfacet
  facet normal -0 0 -1
    outer loop
      vertex 49.244 26.59 0
      vertex 47.72 24.59 0
      vertex 47.72 26.59 0
    endloop
  endfacet
  facet normal 0 -0 -1
    outer loop
      vertex 43.18 47.72 0
      vertex 47.72 43.18 0
      vertex 36.068 23.796 0
    endloop
  endfacet
  facet normal 0 0 -1
    outer loop
      vertex 47.4978 44.5829 0
      vertex 43.18 47.72 0
      vertex 46.8529 45.8485 0
    endloop
  endfacet
  facet normal 0 0 -1
    outer loop
      vertex 46.8529 45.8485 0
      vertex 43.18 47.72 0
      vertex 45.8485 46.8529 0
    endloop
  endfacet
  facet normal 0 0 -1
    outer loop
      vertex 45.8485 46.8529 0
      vertex 43.18 47.72 0
      vertex 44.5829 47.4978 0
    endloop
  endfacet
  facet normal 0 0 -1
    outer loop
      vertex 47.72 43.18 0
      vertex 43.18 47.72 0
      vertex 47.4978 44.5829 0
    endloop
  endfacet
  facet normal 0 0 -1
    outer loop
      vertex 34.5229 23.5513 0
      vertex 43.18 47.72 0
      vertex 36.068 23.796 0
    endloop
  endfacet
  facet normal 0 0 -1
    outer loop
      vertex 33.1291 22.8411 0
      vertex 43.18 47.72 0
      vertex 34.5229 23.5513 0
    endloop
  endfacet
  facet normal 0 0 -1
    outer loop
      vertex 0 47.72 0
      vertex 33.1291 22.8411 0
      vertex 32.0229 21.7349 0
    endloop
  endfacet
  facet normal 0 0 -1
    outer loop
      vertex -4.54 26.59 0
      vertex 32.0229 21.7349 0
      vertex 31.3127 20.3411 0
    endloop
  endfacet
  facet normal 0 0 -1
    outer loop
      vertex 24.7829 9.63308 0
      vertex 32.0229 15.8571 0
      vertex 25.8891 8.52693 0
    endloop
  endfacet
  facet normal -0 0 -1
    outer loop
      vertex 32.0229 15.8571 0
      vertex 24.7829 9.63308 0
      vertex 31.3127 17.2509 0
    endloop
  endfacet
  facet normal 0 0 -1
    outer loop
      vertex 23.3891 10.3433 0
      vertex 31.3127 17.2509 0
      vertex 24.7829 9.63308 0
    endloop
  endfacet
  facet normal -0 0 -1
    outer loop
      vertex 31.3127 17.2509 0
      vertex 23.3891 10.3433 0
      vertex 31.068 18.796 0
    endloop
  endfacet
  facet normal 0 0 -1
    outer loop
      vertex 21.844 10.588 0
      vertex 31.068 18.796 0
      vertex 23.3891 10.3433 0
    endloop
  endfacet
  facet normal -0 0 -1
    outer loop
      vertex 31.068 18.796 0
      vertex 21.844 10.588 0
      vertex 31.3127 20.3411 0
    endloop
  endfacet
  facet normal 0 0 -1
    outer loop
      vertex 20.2989 10.3433 0
      vertex 31.3127 20.3411 0
      vertex 21.844 10.588 0
    endloop
  endfacet
  facet normal 0 0 -1
    outer loop
      vertex -4.54 26.59 0
      vertex 31.3127 20.3411 0
      vertex 20.2989 10.3433 0
    endloop
  endfacet
  facet normal 0 0 -1
    outer loop
      vertex -4.54 24.59 0
      vertex 20.2989 10.3433 0
      vertex 18.9051 9.63308 0
    endloop
  endfacet
  facet normal 0 0 -1
    outer loop
      vertex -4.54 18.59 0
      vertex 18.9051 9.63308 0
      vertex 17.7989 8.52693 0
    endloop
  endfacet
  facet normal 0 0 -1
    outer loop
      vertex -4.54 0 0
      vertex 16.844 5.588 0
      vertex 0 -4.54 0
    endloop
  endfacet
  facet normal -0 0 -1
    outer loop
      vertex 16.844 5.588 0
      vertex -4.54 0 0
      vertex 17.0887 7.13308 0
    endloop
  endfacet
  facet normal 0 0 -1
    outer loop
      vertex -4.54 16.59 0
      vertex 17.0887 7.13308 0
      vertex -4.54 0 0
    endloop
  endfacet
  facet normal 0 0 -1
    outer loop
      vertex -4.54 18.59 0
      vertex 17.7989 8.52693 0
      vertex -4.54 16.59 0
    endloop
  endfacet
  facet normal 0 0 -1
    outer loop
      vertex -4.54 0 0
      vertex 0 -4.54 0
      vertex -1.40294 -4.3178 0
    endloop
  endfacet
  facet normal 0 0 -1
    outer loop
      vertex 20.2989 10.3433 0
      vertex -4.54 24.59 0
      vertex -4.54 26.59 0
    endloop
  endfacet
  facet normal 0 0 -1
    outer loop
      vertex -4.54 0 0
      vertex -1.40294 -4.3178 0
      vertex -2.66854 -3.67294 0
    endloop
  endfacet
  facet normal 0 0 -1
    outer loop
      vertex 32.0229 21.7349 0
      vertex -4.54 26.59 0
      vertex 0 47.72 0
    endloop
  endfacet
  facet normal 0 0 -1
    outer loop
      vertex -4.54 0 0
      vertex -2.66854 -3.67294 0
      vertex -3.67294 -2.66854 0
    endloop
  endfacet
  facet normal 0 0 -1
    outer loop
      vertex 33.1291 22.8411 0
      vertex 0 47.72 0
      vertex 43.18 47.72 0
    endloop
  endfacet
  facet normal 0 0 -1
    outer loop
      vertex -4.54 0 0
      vertex -3.67294 -2.66854 0
      vertex -4.3178 -1.40294 0
    endloop
  endfacet
  facet normal 0 0 -1
    outer loop
      vertex 18.9051 9.63308 0
      vertex -4.54 18.59 0
      vertex -4.54 24.59 0
    endloop
  endfacet
  facet normal 0 0 -1
    outer loop
      vertex 17.0887 7.13308 0
      vertex -4.54 16.59 0
      vertex 17.7989 8.52693 0
    endloop
  endfacet
  facet normal 0 0 -1
    outer loop
      vertex -4.54 43.18 0
      vertex 0 47.72 0
      vertex -4.54 26.59 0
    endloop
  endfacet
  facet normal 0 0 -1
    outer loop
      vertex 0 47.72 0
      vertex -4.54 43.18 0
      vertex -1.40294 47.4978 0
    endloop
  endfacet
  facet normal 0 0 -1
    outer loop
      vertex -1.40294 47.4978 0
      vertex -4.54 43.18 0
      vertex -2.66854 46.8529 0
    endloop
  endfacet
  facet normal 0 0 -1
    outer loop
      vertex -2.66854 46.8529 0
      vertex -4.54 43.18 0
      vertex -3.67294 45.8485 0
    endloop
  endfacet
  facet normal 0 0 -1
    outer loop
      vertex -3.67294 45.8485 0
      vertex -4.54 43.18 0
      vertex -4.3178 44.5829 0
    endloop
  endfacet
  facet normal 0 1 0
    outer loop
      vertex -6.064 26.59 0
      vertex -4.54 26.59 14
      vertex -4.54 26.59 0
    endloop
  endfacet
  facet normal 0 1 0
    outer loop
      vertex -4.54 26.59 14
      vertex -6.064 26.59 0
      vertex -10.664 26.59 14
    endloop
  endfacet
  facet normal -0.950031 -0 -0.312156
    outer loop
      vertex -6.064 18.59 0
      vertex -6.064 16.59 0
      vertex -10.0069 18.59 12
    endloop
  endfacet
  facet normal -0.950031 0 -0.312156
    outer loop
      vertex -10.0069 24.59 12
      vertex -6.064 26.59 0
      vertex -6.064 24.59 0
    endloop
  endfacet
  facet normal -0.950032 2.03578e-05 -0.312153
    outer loop
      vertex -6.064 26.59 0
      vertex -10.0069 24.59 12
      vertex -10.664 26.59 14
    endloop
  endfacet
  facet normal -0.950038 0 -0.312135
    outer loop
      vertex -10.0069 18.59 12
      vertex -10.664 26.59 14
      vertex -10.0069 24.59 12
    endloop
  endfacet
  facet normal -0.950038 0 -0.312135
    outer loop
      vertex -10.0069 18.59 12
      vertex -10.664 16.59 14
      vertex -10.664 26.59 14
    endloop
  endfacet
  facet normal -0.950032 -2.03578e-05 -0.312153
    outer loop
      vertex -10.664 16.59 14
      vertex -10.0069 18.59 12
      vertex -6.064 16.59 0
    endloop
  endfacet
  facet normal 0 -1 0
    outer loop
      vertex -6.064 16.59 0
      vertex -4.54 16.59 14
      vertex -10.664 16.59 14
    endloop
  endfacet
  facet normal 0 -1 -0
    outer loop
      vertex -4.54 16.59 14
      vertex -6.064 16.59 0
      vertex -4.54 16.59 0
    endloop
  endfacet
  facet normal -0 0 1
    outer loop
      vertex 45.72 28.7867 14
      vertex 47.72 26.59 14
      vertex 47.72 28.7867 14
    endloop
  endfacet
  facet normal 0 0 1
    outer loop
      vertex 47.72 26.59 14
      vertex 45.72 28.7867 14
      vertex 47.72 16.59 14
    endloop
  endfacet
  facet normal 0 0 1
    outer loop
      vertex 47.72 16.59 14
      vertex 45.72 0 14
      vertex 47.72 0 14
    endloop
  endfacet
  facet normal 0 0 1
    outer loop
      vertex 47.72 0 14
      vertex 45.72 0 14
      vertex 47.4978 -1.40294 14
    endloop
  endfacet
  facet normal -0 0 1
    outer loop
      vertex 45.5957 -0.784903 14
      vertex 47.4978 -1.40294 14
      vertex 45.72 0 14
    endloop
  endfacet
  facet normal 0 0 1
    outer loop
      vertex 47.72 16.59 14
      vertex 45.72 28.7867 14
      vertex 45.72 0 14
    endloop
  endfacet
  facet normal 0 0 1
    outer loop
      vertex 47.4978 -1.40294 14
      vertex 45.5957 -0.784903 14
      vertex 46.8529 -2.66854 14
    endloop
  endfacet
  facet normal -0 0 1
    outer loop
      vertex 45.2349 -1.49297 14
      vertex 46.8529 -2.66854 14
      vertex 45.5957 -0.784903 14
    endloop
  endfacet
  facet normal 0 0 1
    outer loop
      vertex 46.8529 -2.66854 14
      vertex 45.2349 -1.49297 14
      vertex 45.8485 -3.67294 14
    endloop
  endfacet
  facet normal -0 0 1
    outer loop
      vertex 44.673 -2.0549 14
      vertex 45.8485 -3.67294 14
      vertex 45.2349 -1.49297 14
    endloop
  endfacet
  facet normal 0 0 1
    outer loop
      vertex 44.673 -2.0549 14
      vertex 44.5829 -4.3178 14
      vertex 45.8485 -3.67294 14
    endloop
  endfacet
  facet normal -0 0 1
    outer loop
      vertex 43.9649 -2.41568 14
      vertex 44.5829 -4.3178 14
      vertex 44.673 -2.0549 14
    endloop
  endfacet
  facet normal -0 0 1
    outer loop
      vertex 43.18 -2.54 14
      vertex 44.5829 -4.3178 14
      vertex 43.9649 -2.41568 14
    endloop
  endfacet
  facet normal 0 0 1
    outer loop
      vertex 43.18 -2.54 14
      vertex 43.18 -4.54 14
      vertex 44.5829 -4.3178 14
    endloop
  endfacet
  facet normal -0 0 1
    outer loop
      vertex 0 -2.54 14
      vertex 43.18 -4.54 14
      vertex 43.18 -2.54 14
    endloop
  endfacet
  facet normal 0 0 1
    outer loop
      vertex 0 -2.54 14
      vertex 0 -4.54 14
      vertex 43.18 -4.54 14
    endloop
  endfacet
  facet normal 0 0 1
    outer loop
      vertex -0.784903 -2.41568 14
      vertex 0 -4.54 14
      vertex 0 -2.54 14
    endloop
  endfacet
  facet normal 0 0 1
    outer loop
      vertex -0.784903 -2.41568 14
      vertex -1.40294 -4.3178 14
      vertex 0 -4.54 14
    endloop
  endfacet
  facet normal 0 0 1
    outer loop
      vertex -1.49297 -2.0549 14
      vertex -1.40294 -4.3178 14
      vertex -0.784903 -2.41568 14
    endloop
  endfacet
  facet normal 0 0 1
    outer loop
      vertex -2.66854 -3.67294 14
      vertex -1.49297 -2.0549 14
      vertex -2.0549 -1.49297 14
    endloop
  endfacet
  facet normal 0 0 1
    outer loop
      vertex -3.67294 -2.66854 14
      vertex -2.0549 -1.49297 14
      vertex -2.41568 -0.784903 14
    endloop
  endfacet
  facet normal 0 0 1
    outer loop
      vertex -1.49297 -2.0549 14
      vertex -2.66854 -3.67294 14
      vertex -1.40294 -4.3178 14
    endloop
  endfacet
  facet normal 0 0 1
    outer loop
      vertex -4.3178 -1.40294 14
      vertex -2.41568 -0.784903 14
      vertex -2.54 0 14
    endloop
  endfacet
  facet normal 0 0 1
    outer loop
      vertex -2.0549 -1.49297 14
      vertex -3.67294 -2.66854 14
      vertex -2.66854 -3.67294 14
    endloop
  endfacet
  facet normal 0 0 1
    outer loop
      vertex -2.41568 -0.784903 14
      vertex -4.3178 -1.40294 14
      vertex -3.67294 -2.66854 14
    endloop
  endfacet
  facet normal 0 -0 1
    outer loop
      vertex -4.3178 -1.40294 14
      vertex -2.54 0 14
      vertex -4.54 0 14
    endloop
  endfacet
  facet normal 0 0 1
    outer loop
      vertex 53.844 26.59 14
      vertex 52.444 21.59 14
      vertex 53.844 16.59 14
    endloop
  endfacet
  facet normal 0 0 1
    outer loop
      vertex 53.844 26.59 14
      vertex 52.3657 22.0844 14
      vertex 52.444 21.59 14
    endloop
  endfacet
  facet normal 0 0 1
    outer loop
      vertex 53.844 26.59 14
      vertex 52.1384 22.5305 14
      vertex 52.3657 22.0844 14
    endloop
  endfacet
  facet normal 0 0 1
    outer loop
      vertex 53.844 26.59 14
      vertex 51.7845 22.8844 14
      vertex 52.1384 22.5305 14
    endloop
  endfacet
  facet normal 0 0 1
    outer loop
      vertex 53.844 26.59 14
      vertex 51.3384 23.1117 14
      vertex 51.7845 22.8844 14
    endloop
  endfacet
  facet normal 0 0 1
    outer loop
      vertex 53.844 26.59 14
      vertex 50.844 23.19 14
      vertex 51.3384 23.1117 14
    endloop
  endfacet
  facet normal -0 0 1
    outer loop
      vertex 47.72 26.59 14
      vertex 50.844 23.19 14
      vertex 53.844 26.59 14
    endloop
  endfacet
  facet normal 0 0 1
    outer loop
      vertex 50.844 23.19 14
      vertex 47.72 26.59 14
      vertex 50.3496 23.1117 14
    endloop
  endfacet
  facet normal 0 0 1
    outer loop
      vertex 49.3223 22.0844 14
      vertex 47.72 26.59 14
      vertex 49.244 21.59 14
    endloop
  endfacet
  facet normal 0 0 1
    outer loop
      vertex 49.5496 22.5305 14
      vertex 47.72 26.59 14
      vertex 49.3223 22.0844 14
    endloop
  endfacet
  facet normal 0 0 1
    outer loop
      vertex 49.9035 22.8844 14
      vertex 47.72 26.59 14
      vertex 49.5496 22.5305 14
    endloop
  endfacet
  facet normal 0 0 1
    outer loop
      vertex 50.3496 23.1117 14
      vertex 47.72 26.59 14
      vertex 49.9035 22.8844 14
    endloop
  endfacet
  facet normal -0 0 1
    outer loop
      vertex 52.3657 21.0956 14
      vertex 53.844 16.59 14
      vertex 52.444 21.59 14
    endloop
  endfacet
  facet normal -0 0 1
    outer loop
      vertex 52.1384 20.6495 14
      vertex 53.844 16.59 14
      vertex 52.3657 21.0956 14
    endloop
  endfacet
  facet normal -0 0 1
    outer loop
      vertex 51.7845 20.2956 14
      vertex 53.844 16.59 14
      vertex 52.1384 20.6495 14
    endloop
  endfacet
  facet normal -0 0 1
    outer loop
      vertex 51.3384 20.0683 14
      vertex 53.844 16.59 14
      vertex 51.7845 20.2956 14
    endloop
  endfacet
  facet normal -0 0 1
    outer loop
      vertex 50.844 19.99 14
      vertex 53.844 16.59 14
      vertex 51.3384 20.0683 14
    endloop
  endfacet
  facet normal 0 0 1
    outer loop
      vertex 47.72 16.59 14
      vertex 50.844 19.99 14
      vertex 50.3496 20.0683 14
    endloop
  endfacet
  facet normal 0 0 1
    outer loop
      vertex 47.72 16.59 14
      vertex 50.3496 20.0683 14
      vertex 49.9035 20.2956 14
    endloop
  endfacet
  facet normal 0 0 1
    outer loop
      vertex 47.72 16.59 14
      vertex 49.244 21.59 14
      vertex 47.72 26.59 14
    endloop
  endfacet
  facet normal 0 0 1
    outer loop
      vertex 50.844 19.99 14
      vertex 47.72 16.59 14
      vertex 53.844 16.59 14
    endloop
  endfacet
  facet normal 0 0 1
    outer loop
      vertex 49.5496 20.6495 14
      vertex 47.72 16.59 14
      vertex 49.9035 20.2956 14
    endloop
  endfacet
  facet normal 0 0 1
    outer loop
      vertex 49.3223 21.0956 14
      vertex 47.72 16.59 14
      vertex 49.5496 20.6495 14
    endloop
  endfacet
  facet normal 0 0 1
    outer loop
      vertex 49.244 21.59 14
      vertex 47.72 16.59 14
      vertex 49.3223 21.0956 14
    endloop
  endfacet
  facet normal 0 0 1
    outer loop
      vertex -2.54 15.24 14
      vertex -6.064 21.59 14
      vertex -4.54 16.59 14
    endloop
  endfacet
  facet normal 0 0 1
    outer loop
      vertex -4.54 26.59 14
      vertex -6.14231 22.0844 14
      vertex -6.064 21.59 14
    endloop
  endfacet
  facet normal 0 0 1
    outer loop
      vertex -4.54 26.59 14
      vertex -6.36957 22.5305 14
      vertex -6.14231 22.0844 14
    endloop
  endfacet
  facet normal 0 0 1
    outer loop
      vertex -4.54 26.59 14
      vertex -6.72354 22.8844 14
      vertex -6.36957 22.5305 14
    endloop
  endfacet
  facet normal 0 0 1
    outer loop
      vertex -4.54 26.59 14
      vertex -7.16957 23.1117 14
      vertex -6.72354 22.8844 14
    endloop
  endfacet
  facet normal 0 0 1
    outer loop
      vertex -4.54 26.59 14
      vertex -7.664 23.19 14
      vertex -7.16957 23.1117 14
    endloop
  endfacet
  facet normal -0 0 1
    outer loop
      vertex -10.664 26.59 14
      vertex -7.664 23.19 14
      vertex -4.54 26.59 14
    endloop
  endfacet
  facet normal 0 0 1
    outer loop
      vertex -7.664 23.19 14
      vertex -10.664 26.59 14
      vertex -8.15843 23.1117 14
    endloop
  endfacet
  facet normal 0 0 1
    outer loop
      vertex -9.18569 22.0844 14
      vertex -10.664 26.59 14
      vertex -9.264 21.59 14
    endloop
  endfacet
  facet normal 0 0 1
    outer loop
      vertex -8.95843 22.5305 14
      vertex -10.664 26.59 14
      vertex -9.18569 22.0844 14
    endloop
  endfacet
  facet normal 0 0 1
    outer loop
      vertex -8.60446 22.8844 14
      vertex -10.664 26.59 14
      vertex -8.95843 22.5305 14
    endloop
  endfacet
  facet normal 0 0 1
    outer loop
      vertex -8.15843 23.1117 14
      vertex -10.664 26.59 14
      vertex -8.60446 22.8844 14
    endloop
  endfacet
  facet normal 0 0 1
    outer loop
      vertex 47.4978 44.5829 14
      vertex 45.5957 43.9649 14
      vertex 45.72 43.18 14
    endloop
  endfacet
  facet normal 0 0 1
    outer loop
      vertex 46.8529 45.8485 14
      vertex 45.2349 44.673 14
      vertex 45.5957 43.9649 14
    endloop
  endfacet
  facet normal 0 0 1
    outer loop
      vertex 45.8485 46.8529 14
      vertex 44.673 45.2349 14
      vertex 45.2349 44.673 14
    endloop
  endfacet
  facet normal 0 0 1
    outer loop
      vertex 44.5829 47.4978 14
      vertex 44.673 45.2349 14
      vertex 45.8485 46.8529 14
    endloop
  endfacet
  facet normal 0 0 1
    outer loop
      vertex 44.5829 47.4978 14
      vertex 43.9649 45.5957 14
      vertex 44.673 45.2349 14
    endloop
  endfacet
  facet normal 0 0 1
    outer loop
      vertex 43.18 47.72 14
      vertex 43.9649 45.5957 14
      vertex 44.5829 47.4978 14
    endloop
  endfacet
  facet normal 0 0 1
    outer loop
      vertex 43.18 47.72 14
      vertex 43.18 45.72 14
      vertex 43.9649 45.5957 14
    endloop
  endfacet
  facet normal -0 0 1
    outer loop
      vertex 0 47.72 14
      vertex 43.18 45.72 14
      vertex 43.18 47.72 14
    endloop
  endfacet
  facet normal 0 0 1
    outer loop
      vertex 0 47.72 14
      vertex 0 45.72 14
      vertex 43.18 45.72 14
    endloop
  endfacet
  facet normal 0 0 1
    outer loop
      vertex 0 47.72 14
      vertex -0.784903 45.5957 14
      vertex 0 45.72 14
    endloop
  endfacet
  facet normal -0 0 1
    outer loop
      vertex -1.40294 47.4978 14
      vertex -0.784903 45.5957 14
      vertex 0 47.72 14
    endloop
  endfacet
  facet normal 0 0 1
    outer loop
      vertex -1.40294 47.4978 14
      vertex -1.49297 45.2349 14
      vertex -0.784903 45.5957 14
    endloop
  endfacet
  facet normal -0 0 1
    outer loop
      vertex -2.66854 46.8529 14
      vertex -1.49297 45.2349 14
      vertex -1.40294 47.4978 14
    endloop
  endfacet
  facet normal 0 0 1
    outer loop
      vertex -1.49297 45.2349 14
      vertex -2.66854 46.8529 14
      vertex -2.0549 44.673 14
    endloop
  endfacet
  facet normal -0 0 1
    outer loop
      vertex -3.67294 45.8485 14
      vertex -2.0549 44.673 14
      vertex -2.66854 46.8529 14
    endloop
  endfacet
  facet normal 0 0 1
    outer loop
      vertex -2.0549 44.673 14
      vertex -3.67294 45.8485 14
      vertex -2.41568 43.9649 14
    endloop
  endfacet
  facet normal -0 0 1
    outer loop
      vertex -4.3178 44.5829 14
      vertex -2.41568 43.9649 14
      vertex -3.67294 45.8485 14
    endloop
  endfacet
  facet normal 0 0 1
    outer loop
      vertex -2.41568 43.9649 14
      vertex -4.3178 44.5829 14
      vertex -2.54 43.18 14
    endloop
  endfacet
  facet normal 0 0 1
    outer loop
      vertex -2.54 43.18 14
      vertex -4.3178 44.5829 14
      vertex -4.54 43.18 14
    endloop
  endfacet
  facet normal 0 0 1
    outer loop
      vertex -2.54 43.18 14
      vertex -4.54 43.18 14
      vertex -4.54 26.59 14
    endloop
  endfacet
  facet normal 0 0 1
    outer loop
      vertex -2.54 43.18 14
      vertex -4.54 26.59 14
      vertex -2.54 15.24 14
    endloop
  endfacet
  facet normal -0 0 1
    outer loop
      vertex -6.064 21.59 14
      vertex -2.54 15.24 14
      vertex -4.54 26.59 14
    endloop
  endfacet
  facet normal 0 0 1
    outer loop
      vertex -2.54 15.24 14
      vertex -4.54 16.59 14
      vertex -4.54 15.24 14
    endloop
  endfacet
  facet normal 0 0 1
    outer loop
      vertex 45.72 43.18 14
      vertex 47.72 43.18 14
      vertex 47.4978 44.5829 14
    endloop
  endfacet
  facet normal 0 0 1
    outer loop
      vertex 45.5957 43.9649 14
      vertex 47.4978 44.5829 14
      vertex 46.8529 45.8485 14
    endloop
  endfacet
  facet normal 0 0 1
    outer loop
      vertex 45.2349 44.673 14
      vertex 46.8529 45.8485 14
      vertex 45.8485 46.8529 14
    endloop
  endfacet
  facet normal 0 0 1
    outer loop
      vertex 47.72 43.18 14
      vertex 45.72 43.18 14
      vertex 47.72 37.7867 14
    endloop
  endfacet
  facet normal 0 0 1
    outer loop
      vertex 47.72 37.7867 14
      vertex 45.72 43.18 14
      vertex 45.72 37.7867 14
    endloop
  endfacet
  facet normal -0 0 1
    outer loop
      vertex -6.14231 21.0956 14
      vertex -4.54 16.59 14
      vertex -6.064 21.59 14
    endloop
  endfacet
  facet normal -0 0 1
    outer loop
      vertex -6.36957 20.6495 14
      vertex -4.54 16.59 14
      vertex -6.14231 21.0956 14
    endloop
  endfacet
  facet normal -0 0 1
    outer loop
      vertex -6.72354 20.2956 14
      vertex -4.54 16.59 14
      vertex -6.36957 20.6495 14
    endloop
  endfacet
  facet normal -0 0 1
    outer loop
      vertex -7.16957 20.0683 14
      vertex -4.54 16.59 14
      vertex -6.72354 20.2956 14
    endloop
  endfacet
  facet normal -0 0 1
    outer loop
      vertex -7.664 19.99 14
      vertex -4.54 16.59 14
      vertex -7.16957 20.0683 14
    endloop
  endfacet
  facet normal 0 0 1
    outer loop
      vertex -10.664 16.59 14
      vertex -7.664 19.99 14
      vertex -8.15843 20.0683 14
    endloop
  endfacet
  facet normal 0 0 1
    outer loop
      vertex -10.664 16.59 14
      vertex -8.15843 20.0683 14
      vertex -8.60446 20.2956 14
    endloop
  endfacet
  facet normal 0 0 1
    outer loop
      vertex -10.664 16.59 14
      vertex -9.264 21.59 14
      vertex -10.664 26.59 14
    endloop
  endfacet
  facet normal 0 0 1
    outer loop
      vertex -7.664 19.99 14
      vertex -10.664 16.59 14
      vertex -4.54 16.59 14
    endloop
  endfacet
  facet normal 0 0 1
    outer loop
      vertex -8.95843 20.6495 14
      vertex -10.664 16.59 14
      vertex -8.60446 20.2956 14
    endloop
  endfacet
  facet normal 0 0 1
    outer loop
      vertex -9.18569 21.0956 14
      vertex -10.664 16.59 14
      vertex -8.95843 20.6495 14
    endloop
  endfacet
  facet normal 0 0 1
    outer loop
      vertex -9.264 21.59 14
      vertex -10.664 16.59 14
      vertex -9.18569 21.0956 14
    endloop
  endfacet
  facet normal -0.987687 -0.156444 0
    outer loop
      vertex -6.064 21.59 12.2
      vertex -6.14231 22.0844 14
      vertex -6.14231 22.0844 12.2
    endloop
  endfacet
  facet normal -0.987687 -0.156444 0
    outer loop
      vertex -6.14231 22.0844 14
      vertex -6.064 21.59 12.2
      vertex -6.064 21.59 14
    endloop
  endfacet
  facet normal 0.987687 -0.156444 0
    outer loop
      vertex -9.264 21.59 14
      vertex -9.18569 22.0844 12.2
      vertex -9.18569 22.0844 14
    endloop
  endfacet
  facet normal 0.987687 -0.156444 0
    outer loop
      vertex -9.18569 22.0844 12.2
      vertex -9.264 21.59 14
      vertex -9.264 21.59 12.2
    endloop
  endfacet
  facet normal 0.156415 -0.987691 0
    outer loop
      vertex -8.15843 23.1117 12.2
      vertex -7.664 23.19 14
      vertex -8.15843 23.1117 14
    endloop
  endfacet
  facet normal 0.156415 -0.987691 0
    outer loop
      vertex -7.664 23.19 14
      vertex -8.15843 23.1117 12.2
      vertex -7.664 23.19 12.2
    endloop
  endfacet
  facet normal -0.156415 0.987691 0
    outer loop
      vertex -7.16957 20.0683 12.2
      vertex -7.664 19.99 14
      vertex -7.16957 20.0683 14
    endloop
  endfacet
  facet normal -0.156415 0.987691 0
    outer loop
      vertex -7.664 19.99 14
      vertex -7.16957 20.0683 12.2
      vertex -7.664 19.99 12.2
    endloop
  endfacet
  facet normal -0.454048 0.890977 0
    outer loop
      vertex -6.72354 20.2956 12.2
      vertex -7.16957 20.0683 14
      vertex -6.72354 20.2956 14
    endloop
  endfacet
  facet normal -0.454048 0.890977 0
    outer loop
      vertex -7.16957 20.0683 14
      vertex -6.72354 20.2956 12.2
      vertex -7.16957 20.0683 12.2
    endloop
  endfacet
  facet normal -0.707037 -0.707177 0
    outer loop
      vertex -6.72354 22.8844 12.2
      vertex -6.36957 22.5305 14
      vertex -6.72354 22.8844 14
    endloop
  endfacet
  facet normal -0.707037 -0.707177 -0
    outer loop
      vertex -6.36957 22.5305 14
      vertex -6.72354 22.8844 12.2
      vertex -6.36957 22.5305 12.2
    endloop
  endfacet
  facet normal -0.891038 -0.453928 0
    outer loop
      vertex -6.14231 22.0844 12.2
      vertex -6.36957 22.5305 14
      vertex -6.36957 22.5305 12.2
    endloop
  endfacet
  facet normal -0.891038 -0.453928 0
    outer loop
      vertex -6.36957 22.5305 14
      vertex -6.14231 22.0844 12.2
      vertex -6.14231 22.0844 14
    endloop
  endfacet
  facet normal -0.454048 -0.890977 0
    outer loop
      vertex -7.16957 23.1117 12.2
      vertex -6.72354 22.8844 14
      vertex -7.16957 23.1117 14
    endloop
  endfacet
  facet normal -0.454048 -0.890977 -0
    outer loop
      vertex -6.72354 22.8844 14
      vertex -7.16957 23.1117 12.2
      vertex -6.72354 22.8844 12.2
    endloop
  endfacet
  facet normal 0.707037 -0.707177 0
    outer loop
      vertex -8.95843 22.5305 12.2
      vertex -8.60446 22.8844 14
      vertex -8.95843 22.5305 14
    endloop
  endfacet
  facet normal 0.707037 -0.707177 0
    outer loop
      vertex -8.60446 22.8844 14
      vertex -8.95843 22.5305 12.2
      vertex -8.60446 22.8844 12.2
    endloop
  endfacet
  facet normal 0.891038 -0.453928 0
    outer loop
      vertex -9.18569 22.0844 14
      vertex -8.95843 22.5305 12.2
      vertex -8.95843 22.5305 14
    endloop
  endfacet
  facet normal 0.891038 -0.453928 0
    outer loop
      vertex -8.95843 22.5305 12.2
      vertex -9.18569 22.0844 14
      vertex -9.18569 22.0844 12.2
    endloop
  endfacet
  facet normal 0.454048 -0.890977 0
    outer loop
      vertex -8.60446 22.8844 12.2
      vertex -8.15843 23.1117 14
      vertex -8.60446 22.8844 14
    endloop
  endfacet
  facet normal 0.454048 -0.890977 0
    outer loop
      vertex -8.15843 23.1117 14
      vertex -8.60446 22.8844 12.2
      vertex -8.15843 23.1117 12.2
    endloop
  endfacet
  facet normal -0.156415 -0.987691 0
    outer loop
      vertex -7.664 23.19 12.2
      vertex -7.16957 23.1117 14
      vertex -7.664 23.19 14
    endloop
  endfacet
  facet normal -0.156415 -0.987691 -0
    outer loop
      vertex -7.16957 23.1117 14
      vertex -7.664 23.19 12.2
      vertex -7.16957 23.1117 12.2
    endloop
  endfacet
  facet normal -0.987687 0.156444 0
    outer loop
      vertex -6.14231 21.0956 12.2
      vertex -6.064 21.59 14
      vertex -6.064 21.59 12.2
    endloop
  endfacet
  facet normal -0.987687 0.156444 0
    outer loop
      vertex -6.064 21.59 14
      vertex -6.14231 21.0956 12.2
      vertex -6.14231 21.0956 14
    endloop
  endfacet
  facet normal 0 0 1
    outer loop
      vertex -6.14231 22.0844 12.2
      vertex -6.14231 21.0956 12.2
      vertex -6.064 21.59 12.2
    endloop
  endfacet
  facet normal 0 0 1
    outer loop
      vertex -6.36957 22.5305 12.2
      vertex -6.14231 21.0956 12.2
      vertex -6.14231 22.0844 12.2
    endloop
  endfacet
  facet normal 0 0 1
    outer loop
      vertex -6.36957 22.5305 12.2
      vertex -6.36957 20.6495 12.2
      vertex -6.14231 21.0956 12.2
    endloop
  endfacet
  facet normal 0 0 1
    outer loop
      vertex -6.72354 22.8844 12.2
      vertex -6.36957 20.6495 12.2
      vertex -6.36957 22.5305 12.2
    endloop
  endfacet
  facet normal 0 0 1
    outer loop
      vertex -6.72354 22.8844 12.2
      vertex -6.72354 20.2956 12.2
      vertex -6.36957 20.6495 12.2
    endloop
  endfacet
  facet normal 0 0 1
    outer loop
      vertex -7.16957 23.1117 12.2
      vertex -6.72354 20.2956 12.2
      vertex -6.72354 22.8844 12.2
    endloop
  endfacet
  facet normal 0 0 1
    outer loop
      vertex -7.16957 23.1117 12.2
      vertex -7.16957 20.0683 12.2
      vertex -6.72354 20.2956 12.2
    endloop
  endfacet
  facet normal 0 0 1
    outer loop
      vertex -7.664 23.19 12.2
      vertex -7.16957 20.0683 12.2
      vertex -7.16957 23.1117 12.2
    endloop
  endfacet
  facet normal 0 0 1
    outer loop
      vertex -7.664 23.19 12.2
      vertex -7.664 19.99 12.2
      vertex -7.16957 20.0683 12.2
    endloop
  endfacet
  facet normal -0 0 1
    outer loop
      vertex -8.15843 23.1117 12.2
      vertex -7.664 19.99 12.2
      vertex -7.664 23.19 12.2
    endloop
  endfacet
  facet normal 0 0 1
    outer loop
      vertex -8.15843 23.1117 12.2
      vertex -8.15843 20.0683 12.2
      vertex -7.664 19.99 12.2
    endloop
  endfacet
  facet normal -0 0 1
    outer loop
      vertex -8.60446 22.8844 12.2
      vertex -8.15843 20.0683 12.2
      vertex -8.15843 23.1117 12.2
    endloop
  endfacet
  facet normal 0 0 1
    outer loop
      vertex -8.60446 22.8844 12.2
      vertex -8.60446 20.2956 12.2
      vertex -8.15843 20.0683 12.2
    endloop
  endfacet
  facet normal -0 0 1
    outer loop
      vertex -8.95843 22.5305 12.2
      vertex -8.60446 20.2956 12.2
      vertex -8.60446 22.8844 12.2
    endloop
  endfacet
  facet normal 0 0 1
    outer loop
      vertex -8.95843 22.5305 12.2
      vertex -8.95843 20.6495 12.2
      vertex -8.60446 20.2956 12.2
    endloop
  endfacet
  facet normal -0 0 1
    outer loop
      vertex -9.18569 22.0844 12.2
      vertex -8.95843 20.6495 12.2
      vertex -8.95843 22.5305 12.2
    endloop
  endfacet
  facet normal 0 0 1
    outer loop
      vertex -9.18569 22.0844 12.2
      vertex -9.18569 21.0956 12.2
      vertex -8.95843 20.6495 12.2
    endloop
  endfacet
  facet normal 0 -0 1
    outer loop
      vertex -9.18569 21.0956 12.2
      vertex -9.18569 22.0844 12.2
      vertex -9.264 21.59 12.2
    endloop
  endfacet
  facet normal -0.707037 0.707177 0
    outer loop
      vertex -6.72354 20.2956 12.2
      vertex -6.36957 20.6495 14
      vertex -6.36957 20.6495 12.2
    endloop
  endfacet
  facet normal -0.707037 0.707177 0
    outer loop
      vertex -6.36957 20.6495 14
      vertex -6.72354 20.2956 12.2
      vertex -6.72354 20.2956 14
    endloop
  endfacet
  facet normal -0.891038 0.453928 0
    outer loop
      vertex -6.36957 20.6495 12.2
      vertex -6.14231 21.0956 14
      vertex -6.14231 21.0956 12.2
    endloop
  endfacet
  facet normal -0.891038 0.453928 0
    outer loop
      vertex -6.14231 21.0956 14
      vertex -6.36957 20.6495 12.2
      vertex -6.36957 20.6495 14
    endloop
  endfacet
  facet normal 0.454048 0.890977 -0
    outer loop
      vertex -8.15843 20.0683 12.2
      vertex -8.60446 20.2956 14
      vertex -8.15843 20.0683 14
    endloop
  endfacet
  facet normal 0.454048 0.890977 0
    outer loop
      vertex -8.60446 20.2956 14
      vertex -8.15843 20.0683 12.2
      vertex -8.60446 20.2956 12.2
    endloop
  endfacet
  facet normal 0.707037 0.707177 0
    outer loop
      vertex -8.60446 20.2956 14
      vertex -8.95843 20.6495 12.2
      vertex -8.95843 20.6495 14
    endloop
  endfacet
  facet normal 0.707037 0.707177 0
    outer loop
      vertex -8.95843 20.6495 12.2
      vertex -8.60446 20.2956 14
      vertex -8.60446 20.2956 12.2
    endloop
  endfacet
  facet normal 0.987687 0.156444 0
    outer loop
      vertex -9.18569 21.0956 14
      vertex -9.264 21.59 12.2
      vertex -9.264 21.59 14
    endloop
  endfacet
  facet normal 0.987687 0.156444 0
    outer loop
      vertex -9.264 21.59 12.2
      vertex -9.18569 21.0956 14
      vertex -9.18569 21.0956 12.2
    endloop
  endfacet
  facet normal 0.156415 0.987691 -0
    outer loop
      vertex -7.664 19.99 12.2
      vertex -8.15843 20.0683 14
      vertex -7.664 19.99 14
    endloop
  endfacet
  facet normal 0.156415 0.987691 0
    outer loop
      vertex -8.15843 20.0683 14
      vertex -7.664 19.99 12.2
      vertex -8.15843 20.0683 12.2
    endloop
  endfacet
  facet normal 0.891038 0.453928 0
    outer loop
      vertex -8.95843 20.6495 14
      vertex -9.18569 21.0956 12.2
      vertex -9.18569 21.0956 14
    endloop
  endfacet
  facet normal 0.891038 0.453928 0
    outer loop
      vertex -9.18569 21.0956 12.2
      vertex -8.95843 20.6495 14
      vertex -8.95843 20.6495 12.2
    endloop
  endfacet
  facet normal 0 0 -1
    outer loop
      vertex -10.0069 18.59 12
      vertex -4.54 24.59 12
      vertex -4.54 18.59 12
    endloop
  endfacet
  facet normal -0 0 -1
    outer loop
      vertex -4.54 24.59 12
      vertex -10.0069 18.59 12
      vertex -10.0069 24.59 12
    endloop
  endfacet
  facet normal 0 -1 0
    outer loop
      vertex -6.064 24.59 0
      vertex -4.54 24.59 12
      vertex -10.0069 24.59 12
    endloop
  endfacet
  facet normal 0 -1 -0
    outer loop
      vertex -4.54 24.59 12
      vertex -6.064 24.59 0
      vertex -4.54 24.59 0
    endloop
  endfacet
  facet normal 0 1 0
    outer loop
      vertex -6.064 18.59 0
      vertex -4.54 18.59 12
      vertex -4.54 18.59 0
    endloop
  endfacet
  facet normal 0 1 0
    outer loop
      vertex -4.54 18.59 12
      vertex -6.064 18.59 0
      vertex -10.0069 18.59 12
    endloop
  endfacet
  facet normal 0 -1 0
    outer loop
      vertex 49.244 16.59 0
      vertex 47.72 16.59 14
      vertex 47.72 16.59 0
    endloop
  endfacet
  facet normal 0 -1 0
    outer loop
      vertex 47.72 16.59 14
      vertex 49.244 16.59 0
      vertex 53.844 16.59 14
    endloop
  endfacet
  facet normal 0.950032 2.03578e-05 -0.312153
    outer loop
      vertex 53.844 26.59 14
      vertex 53.1869 24.59 12
      vertex 49.244 26.59 0
    endloop
  endfacet
  facet normal 0.950038 0 -0.312135
    outer loop
      vertex 53.844 26.59 14
      vertex 53.1869 18.59 12
      vertex 53.1869 24.59 12
    endloop
  endfacet
  facet normal 0.950038 0 -0.312135
    outer loop
      vertex 53.844 16.59 14
      vertex 53.1869 18.59 12
      vertex 53.844 26.59 14
    endloop
  endfacet
  facet normal 0.950032 -2.03578e-05 -0.312153
    outer loop
      vertex 49.244 16.59 0
      vertex 53.1869 18.59 12
      vertex 53.844 16.59 14
    endloop
  endfacet
  facet normal 0.950031 0 -0.312156
    outer loop
      vertex 53.1869 18.59 12
      vertex 49.244 16.59 0
      vertex 49.244 18.59 0
    endloop
  endfacet
  facet normal 0.950031 0 -0.312156
    outer loop
      vertex 49.244 26.59 0
      vertex 53.1869 24.59 12
      vertex 49.244 24.59 0
    endloop
  endfacet
  facet normal 0 1 -0
    outer loop
      vertex 49.244 26.59 0
      vertex 47.72 26.59 14
      vertex 53.844 26.59 14
    endloop
  endfacet
  facet normal 0 1 0
    outer loop
      vertex 47.72 26.59 14
      vertex 49.244 26.59 0
      vertex 47.72 26.59 0
    endloop
  endfacet
  facet normal 0.98769 0.156424 0
    outer loop
      vertex 49.3223 21.0956 14
      vertex 49.244 21.59 12.2
      vertex 49.244 21.59 14
    endloop
  endfacet
  facet normal 0.98769 0.156424 0
    outer loop
      vertex 49.244 21.59 12.2
      vertex 49.3223 21.0956 14
      vertex 49.3223 21.0956 12.2
    endloop
  endfacet
  facet normal -0.98769 0.156424 0
    outer loop
      vertex 52.3657 21.0956 12.2
      vertex 52.444 21.59 14
      vertex 52.444 21.59 12.2
    endloop
  endfacet
  facet normal -0.98769 0.156424 0
    outer loop
      vertex 52.444 21.59 14
      vertex 52.3657 21.0956 12.2
      vertex 52.3657 21.0956 14
    endloop
  endfacet
  facet normal -0.156424 0.98769 0
    outer loop
      vertex 51.3384 20.0683 12.2
      vertex 50.844 19.99 14
      vertex 51.3384 20.0683 14
    endloop
  endfacet
  facet normal -0.156424 0.98769 0
    outer loop
      vertex 50.844 19.99 14
      vertex 51.3384 20.0683 12.2
      vertex 50.844 19.99 12.2
    endloop
  endfacet
  facet normal 0.156424 -0.98769 0
    outer loop
      vertex 50.3496 23.1117 12.2
      vertex 50.844 23.19 14
      vertex 50.3496 23.1117 14
    endloop
  endfacet
  facet normal 0.156424 -0.98769 0
    outer loop
      vertex 50.844 23.19 14
      vertex 50.3496 23.1117 12.2
      vertex 50.844 23.19 12.2
    endloop
  endfacet
  facet normal 0.453992 -0.891006 0
    outer loop
      vertex 49.9035 22.8844 12.2
      vertex 50.3496 23.1117 14
      vertex 49.9035 22.8844 14
    endloop
  endfacet
  facet normal 0.453992 -0.891006 0
    outer loop
      vertex 50.3496 23.1117 14
      vertex 49.9035 22.8844 12.2
      vertex 50.3496 23.1117 12.2
    endloop
  endfacet
  facet normal 0.707107 0.707107 0
    outer loop
      vertex 49.9035 20.2956 14
      vertex 49.5496 20.6495 12.2
      vertex 49.5496 20.6495 14
    endloop
  endfacet
  facet normal 0.707107 0.707107 0
    outer loop
      vertex 49.5496 20.6495 12.2
      vertex 49.9035 20.2956 14
      vertex 49.9035 20.2956 12.2
    endloop
  endfacet
  facet normal 0.891006 0.453992 0
    outer loop
      vertex 49.5496 20.6495 14
      vertex 49.3223 21.0956 12.2
      vertex 49.3223 21.0956 14
    endloop
  endfacet
  facet normal 0.891006 0.453992 0
    outer loop
      vertex 49.3223 21.0956 12.2
      vertex 49.5496 20.6495 14
      vertex 49.5496 20.6495 12.2
    endloop
  endfacet
  facet normal 0.453992 0.891006 -0
    outer loop
      vertex 50.3496 20.0683 12.2
      vertex 49.9035 20.2956 14
      vertex 50.3496 20.0683 14
    endloop
  endfacet
  facet normal 0.453992 0.891006 0
    outer loop
      vertex 49.9035 20.2956 14
      vertex 50.3496 20.0683 12.2
      vertex 49.9035 20.2956 12.2
    endloop
  endfacet
  facet normal -0.707107 0.707107 0
    outer loop
      vertex 52.1384 20.6495 12.2
      vertex 51.7845 20.2956 14
      vertex 52.1384 20.6495 14
    endloop
  endfacet
  facet normal -0.707107 0.707107 0
    outer loop
      vertex 51.7845 20.2956 14
      vertex 52.1384 20.6495 12.2
      vertex 51.7845 20.2956 12.2
    endloop
  endfacet
  facet normal -0.891006 0.453992 0
    outer loop
      vertex 52.1384 20.6495 12.2
      vertex 52.3657 21.0956 14
      vertex 52.3657 21.0956 12.2
    endloop
  endfacet
  facet normal -0.891006 0.453992 0
    outer loop
      vertex 52.3657 21.0956 14
      vertex 52.1384 20.6495 12.2
      vertex 52.1384 20.6495 14
    endloop
  endfacet
  facet normal -0.453992 0.891006 0
    outer loop
      vertex 51.7845 20.2956 12.2
      vertex 51.3384 20.0683 14
      vertex 51.7845 20.2956 14
    endloop
  endfacet
  facet normal -0.453992 0.891006 0
    outer loop
      vertex 51.3384 20.0683 14
      vertex 51.7845 20.2956 12.2
      vertex 51.3384 20.0683 12.2
    endloop
  endfacet
  facet normal 0.156424 0.98769 -0
    outer loop
      vertex 50.844 19.99 12.2
      vertex 50.3496 20.0683 14
      vertex 50.844 19.99 14
    endloop
  endfacet
  facet normal 0.156424 0.98769 0
    outer loop
      vertex 50.3496 20.0683 14
      vertex 50.844 19.99 12.2
      vertex 50.3496 20.0683 12.2
    endloop
  endfacet
  facet normal 0.98769 -0.156424 0
    outer loop
      vertex 49.244 21.59 14
      vertex 49.3223 22.0844 12.2
      vertex 49.3223 22.0844 14
    endloop
  endfacet
  facet normal 0.98769 -0.156424 0
    outer loop
      vertex 49.3223 22.0844 12.2
      vertex 49.244 21.59 14
      vertex 49.244 21.59 12.2
    endloop
  endfacet
  facet normal 0 0 1
    outer loop
      vertex 52.3657 22.0844 12.2
      vertex 52.3657 21.0956 12.2
      vertex 52.444 21.59 12.2
    endloop
  endfacet
  facet normal 0 0 1
    outer loop
      vertex 52.1384 22.5305 12.2
      vertex 52.3657 21.0956 12.2
      vertex 52.3657 22.0844 12.2
    endloop
  endfacet
  facet normal 0 0 1
    outer loop
      vertex 52.1384 22.5305 12.2
      vertex 52.1384 20.6495 12.2
      vertex 52.3657 21.0956 12.2
    endloop
  endfacet
  facet normal 0 0 1
    outer loop
      vertex 51.7845 22.8844 12.2
      vertex 52.1384 20.6495 12.2
      vertex 52.1384 22.5305 12.2
    endloop
  endfacet
  facet normal 0 0 1
    outer loop
      vertex 51.7845 22.8844 12.2
      vertex 51.7845 20.2956 12.2
      vertex 52.1384 20.6495 12.2
    endloop
  endfacet
  facet normal 0 0 1
    outer loop
      vertex 51.3384 23.1117 12.2
      vertex 51.7845 20.2956 12.2
      vertex 51.7845 22.8844 12.2
    endloop
  endfacet
  facet normal 0 0 1
    outer loop
      vertex 51.3384 23.1117 12.2
      vertex 51.3384 20.0683 12.2
      vertex 51.7845 20.2956 12.2
    endloop
  endfacet
  facet normal 0 0 1
    outer loop
      vertex 50.844 23.19 12.2
      vertex 51.3384 20.0683 12.2
      vertex 51.3384 23.1117 12.2
    endloop
  endfacet
  facet normal 0 0 1
    outer loop
      vertex 50.844 23.19 12.2
      vertex 50.844 19.99 12.2
      vertex 51.3384 20.0683 12.2
    endloop
  endfacet
  facet normal -0 0 1
    outer loop
      vertex 50.3496 23.1117 12.2
      vertex 50.844 19.99 12.2
      vertex 50.844 23.19 12.2
    endloop
  endfacet
  facet normal 0 0 1
    outer loop
      vertex 50.3496 23.1117 12.2
      vertex 50.3496 20.0683 12.2
      vertex 50.844 19.99 12.2
    endloop
  endfacet
  facet normal -0 0 1
    outer loop
      vertex 49.9035 22.8844 12.2
      vertex 50.3496 20.0683 12.2
      vertex 50.3496 23.1117 12.2
    endloop
  endfacet
  facet normal 0 0 1
    outer loop
      vertex 49.9035 22.8844 12.2
      vertex 49.9035 20.2956 12.2
      vertex 50.3496 20.0683 12.2
    endloop
  endfacet
  facet normal -0 0 1
    outer loop
      vertex 49.5496 22.5305 12.2
      vertex 49.9035 20.2956 12.2
      vertex 49.9035 22.8844 12.2
    endloop
  endfacet
  facet normal 0 0 1
    outer loop
      vertex 49.5496 22.5305 12.2
      vertex 49.5496 20.6495 12.2
      vertex 49.9035 20.2956 12.2
    endloop
  endfacet
  facet normal -0 0 1
    outer loop
      vertex 49.3223 22.0844 12.2
      vertex 49.5496 20.6495 12.2
      vertex 49.5496 22.5305 12.2
    endloop
  endfacet
  facet normal 0 0 1
    outer loop
      vertex 49.3223 22.0844 12.2
      vertex 49.3223 21.0956 12.2
      vertex 49.5496 20.6495 12.2
    endloop
  endfacet
  facet normal 0 -0 1
    outer loop
      vertex 49.3223 21.0956 12.2
      vertex 49.3223 22.0844 12.2
      vertex 49.244 21.59 12.2
    endloop
  endfacet
  facet normal 0.707107 -0.707107 0
    outer loop
      vertex 49.5496 22.5305 14
      vertex 49.9035 22.8844 12.2
      vertex 49.9035 22.8844 14
    endloop
  endfacet
  facet normal 0.707107 -0.707107 0
    outer loop
      vertex 49.9035 22.8844 12.2
      vertex 49.5496 22.5305 14
      vertex 49.5496 22.5305 12.2
    endloop
  endfacet
  facet normal 0.891006 -0.453992 0
    outer loop
      vertex 49.3223 22.0844 14
      vertex 49.5496 22.5305 12.2
      vertex 49.5496 22.5305 14
    endloop
  endfacet
  facet normal 0.891006 -0.453992 0
    outer loop
      vertex 49.5496 22.5305 12.2
      vertex 49.3223 22.0844 14
      vertex 49.3223 22.0844 12.2
    endloop
  endfacet
  facet normal -0.453992 -0.891006 0
    outer loop
      vertex 51.3384 23.1117 12.2
      vertex 51.7845 22.8844 14
      vertex 51.3384 23.1117 14
    endloop
  endfacet
  facet normal -0.453992 -0.891006 -0
    outer loop
      vertex 51.7845 22.8844 14
      vertex 51.3384 23.1117 12.2
      vertex 51.7845 22.8844 12.2
    endloop
  endfacet
  facet normal -0.707107 -0.707107 0
    outer loop
      vertex 51.7845 22.8844 12.2
      vertex 52.1384 22.5305 14
      vertex 51.7845 22.8844 14
    endloop
  endfacet
  facet normal -0.707107 -0.707107 -0
    outer loop
      vertex 52.1384 22.5305 14
      vertex 51.7845 22.8844 12.2
      vertex 52.1384 22.5305 12.2
    endloop
  endfacet
  facet normal -0.98769 -0.156424 0
    outer loop
      vertex 52.444 21.59 12.2
      vertex 52.3657 22.0844 14
      vertex 52.3657 22.0844 12.2
    endloop
  endfacet
  facet normal -0.98769 -0.156424 0
    outer loop
      vertex 52.3657 22.0844 14
      vertex 52.444 21.59 12.2
      vertex 52.444 21.59 14
    endloop
  endfacet
  facet normal -0.156424 -0.98769 0
    outer loop
      vertex 50.844 23.19 12.2
      vertex 51.3384 23.1117 14
      vertex 50.844 23.19 14
    endloop
  endfacet
  facet normal -0.156424 -0.98769 -0
    outer loop
      vertex 51.3384 23.1117 14
      vertex 50.844 23.19 12.2
      vertex 51.3384 23.1117 12.2
    endloop
  endfacet
  facet normal -0.891006 -0.453992 0
    outer loop
      vertex 52.3657 22.0844 12.2
      vertex 52.1384 22.5305 14
      vertex 52.1384 22.5305 12.2
    endloop
  endfacet
  facet normal -0.891006 -0.453992 0
    outer loop
      vertex 52.1384 22.5305 14
      vertex 52.3657 22.0844 12.2
      vertex 52.3657 22.0844 14
    endloop
  endfacet
  facet normal 0 0 -1
    outer loop
      vertex 47.72 18.59 12
      vertex 53.1869 24.59 12
      vertex 53.1869 18.59 12
    endloop
  endfacet
  facet normal -0 0 -1
    outer loop
      vertex 53.1869 24.59 12
      vertex 47.72 18.59 12
      vertex 47.72 24.59 12
    endloop
  endfacet
  facet normal 0 1 -0
    outer loop
      vertex 49.244 18.59 0
      vertex 47.72 18.59 12
      vertex 53.1869 18.59 12
    endloop
  endfacet
  facet normal 0 1 0
    outer loop
      vertex 47.72 18.59 12
      vertex 49.244 18.59 0
      vertex 47.72 18.59 0
    endloop
  endfacet
  facet normal 0 -1 0
    outer loop
      vertex 49.244 24.59 0
      vertex 47.72 24.59 12
      vertex 47.72 24.59 0
    endloop
  endfacet
  facet normal 0 -1 0
    outer loop
      vertex 47.72 24.59 12
      vertex 49.244 24.59 0
      vertex 53.1869 24.59 12
    endloop
  endfacet
  facet normal -1 0 0
    outer loop
      vertex -4.54 16.59 0
      vertex -4.54 15.24 11.5
      vertex -4.54 16.59 14
    endloop
  endfacet
  facet normal -1 0 0
    outer loop
      vertex -4.54 0 0
      vertex -4.54 15.24 11.5
      vertex -4.54 16.59 0
    endloop
  endfacet
  facet normal -1 -0 0
    outer loop
      vertex -4.54 15.24 11.5
      vertex -4.54 0 0
      vertex -4.54 0 11.5
    endloop
  endfacet
  facet normal -1 -0 0
    outer loop
      vertex -4.54 16.59 14
      vertex -4.54 15.24 11.5
      vertex -4.54 15.24 14
    endloop
  endfacet
  facet normal -1 0 0
    outer loop
      vertex -4.54 26.59 0
      vertex -4.54 43.18 14
      vertex -4.54 43.18 0
    endloop
  endfacet
  facet normal -1 -0 0
    outer loop
      vertex -4.54 43.18 14
      vertex -4.54 26.59 0
      vertex -4.54 26.59 14
    endloop
  endfacet
  facet normal -1 0 0
    outer loop
      vertex -4.54 18.59 0
      vertex -4.54 24.59 12
      vertex -4.54 24.59 0
    endloop
  endfacet
  facet normal -1 -0 0
    outer loop
      vertex -4.54 24.59 12
      vertex -4.54 18.59 0
      vertex -4.54 18.59 12
    endloop
  endfacet
  facet normal 0 -1 0
    outer loop
      vertex 0 -4.54 0
      vertex 43.18 -4.54 14
      vertex 0 -4.54 14
    endloop
  endfacet
  facet normal 0 -1 -0
    outer loop
      vertex 43.18 -4.54 14
      vertex 0 -4.54 0
      vertex 43.18 -4.54 0
    endloop
  endfacet
  facet normal -0.987688 0.156436 0
    outer loop
      vertex -4.54 43.18 0
      vertex -4.3178 44.5829 14
      vertex -4.3178 44.5829 0
    endloop
  endfacet
  facet normal -0.987688 0.156436 0
    outer loop
      vertex -4.3178 44.5829 14
      vertex -4.54 43.18 0
      vertex -4.54 43.18 14
    endloop
  endfacet
  facet normal 1 -0 0
    outer loop
      vertex 47.72 0 14
      vertex 47.72 16.59 0
      vertex 47.72 16.59 14
    endloop
  endfacet
  facet normal 1 0 0
    outer loop
      vertex 47.72 16.59 0
      vertex 47.72 0 14
      vertex 47.72 0 0
    endloop
  endfacet
  facet normal 1 0 0
    outer loop
      vertex 47.72 28.7867 14
      vertex 47.72 26.59 14
      vertex 47.72 28.7867 9
    endloop
  endfacet
  facet normal 1 0 0
    outer loop
      vertex 47.72 37.7867 9
      vertex 47.72 43.18 14
      vertex 47.72 37.7867 14
    endloop
  endfacet
  facet normal 1 0 0
    outer loop
      vertex 47.72 43.18 14
      vertex 47.72 37.7867 9
      vertex 47.72 43.18 0
    endloop
  endfacet
  facet normal 1 0 0
    outer loop
      vertex 47.72 26.59 0
      vertex 47.72 37.7867 9
      vertex 47.72 28.7867 9
    endloop
  endfacet
  facet normal 1 0 0
    outer loop
      vertex 47.72 37.7867 9
      vertex 47.72 26.59 0
      vertex 47.72 43.18 0
    endloop
  endfacet
  facet normal 1 0 0
    outer loop
      vertex 47.72 26.59 0
      vertex 47.72 28.7867 9
      vertex 47.72 26.59 14
    endloop
  endfacet
  facet normal 1 -0 0
    outer loop
      vertex 47.72 18.59 12
      vertex 47.72 24.59 0
      vertex 47.72 24.59 12
    endloop
  endfacet
  facet normal 1 0 0
    outer loop
      vertex 47.72 24.59 0
      vertex 47.72 18.59 12
      vertex 47.72 18.59 0
    endloop
  endfacet
  facet normal 0.890994 -0.454015 0
    outer loop
      vertex 46.8529 -2.66854 14
      vertex 47.4978 -1.40294 0
      vertex 47.4978 -1.40294 14
    endloop
  endfacet
  facet normal 0.890994 -0.454015 0
    outer loop
      vertex 47.4978 -1.40294 0
      vertex 46.8529 -2.66854 14
      vertex 46.8529 -2.66854 0
    endloop
  endfacet
  facet normal -0.707107 -0.707107 0
    outer loop
      vertex -2.66854 -3.67294 0
      vertex -3.67294 -2.66854 14
      vertex -3.67294 -2.66854 0
    endloop
  endfacet
  facet normal -0.707107 -0.707107 0
    outer loop
      vertex -3.67294 -2.66854 14
      vertex -2.66854 -3.67294 0
      vertex -2.66854 -3.67294 14
    endloop
  endfacet
  facet normal -0.707107 0.707107 0
    outer loop
      vertex -2.66854 46.8529 0
      vertex -3.67294 45.8485 14
      vertex -2.66854 46.8529 14
    endloop
  endfacet
  facet normal -0.707107 0.707107 0
    outer loop
      vertex -3.67294 45.8485 14
      vertex -2.66854 46.8529 0
      vertex -3.67294 45.8485 0
    endloop
  endfacet
  facet normal -0.156432 0.987689 0
    outer loop
      vertex 0 47.72 0
      vertex -1.40294 47.4978 14
      vertex 0 47.72 14
    endloop
  endfacet
  facet normal -0.156432 0.987689 0
    outer loop
      vertex -1.40294 47.4978 14
      vertex 0 47.72 0
      vertex -1.40294 47.4978 0
    endloop
  endfacet
  facet normal 0.707107 0.707107 0
    outer loop
      vertex 46.8529 45.8485 14
      vertex 45.8485 46.8529 0
      vertex 45.8485 46.8529 14
    endloop
  endfacet
  facet normal 0.707107 0.707107 0
    outer loop
      vertex 45.8485 46.8529 0
      vertex 46.8529 45.8485 14
      vertex 46.8529 45.8485 0
    endloop
  endfacet
  facet normal 0.987688 0.156436 0
    outer loop
      vertex 47.72 43.18 14
      vertex 47.4978 44.5829 0
      vertex 47.4978 44.5829 14
    endloop
  endfacet
  facet normal 0.987688 0.156436 0
    outer loop
      vertex 47.4978 44.5829 0
      vertex 47.72 43.18 14
      vertex 47.72 43.18 0
    endloop
  endfacet
  facet normal 0.987689 -0.156432 0
    outer loop
      vertex 47.4978 -1.40294 14
      vertex 47.72 0 0
      vertex 47.72 0 14
    endloop
  endfacet
  facet normal 0.987689 -0.156432 0
    outer loop
      vertex 47.72 0 0
      vertex 47.4978 -1.40294 14
      vertex 47.4978 -1.40294 0
    endloop
  endfacet
  facet normal -0.453993 -0.891005 0
    outer loop
      vertex -2.66854 -3.67294 0
      vertex -1.40294 -4.3178 14
      vertex -2.66854 -3.67294 14
    endloop
  endfacet
  facet normal -0.453993 -0.891005 -0
    outer loop
      vertex -1.40294 -4.3178 14
      vertex -2.66854 -3.67294 0
      vertex -1.40294 -4.3178 0
    endloop
  endfacet
  facet normal -0.987689 -0.156432 0
    outer loop
      vertex -4.3178 -1.40294 0
      vertex -4.54 0 11.5
      vertex -4.54 0 0
    endloop
  endfacet
  facet normal -0.987689 -0.156432 -0
    outer loop
      vertex -4.3178 -1.40294 14
      vertex -4.54 0 11.5
      vertex -4.3178 -1.40294 0
    endloop
  endfacet
  facet normal -0.987689 -0.156432 0
    outer loop
      vertex -4.54 0 11.5
      vertex -4.3178 -1.40294 14
      vertex -4.54 0 14
    endloop
  endfacet
  facet normal -0.891005 0.453993 0
    outer loop
      vertex -4.3178 44.5829 0
      vertex -3.67294 45.8485 14
      vertex -3.67294 45.8485 0
    endloop
  endfacet
  facet normal -0.891005 0.453993 0
    outer loop
      vertex -3.67294 45.8485 14
      vertex -4.3178 44.5829 0
      vertex -4.3178 44.5829 14
    endloop
  endfacet
  facet normal -0.454015 0.890994 0
    outer loop
      vertex -1.40294 47.4978 0
      vertex -2.66854 46.8529 14
      vertex -1.40294 47.4978 14
    endloop
  endfacet
  facet normal -0.454015 0.890994 0
    outer loop
      vertex -2.66854 46.8529 14
      vertex -1.40294 47.4978 0
      vertex -2.66854 46.8529 0
    endloop
  endfacet
  facet normal 0 1 -0
    outer loop
      vertex 43.18 47.72 0
      vertex 0 47.72 14
      vertex 43.18 47.72 14
    endloop
  endfacet
  facet normal 0 1 0
    outer loop
      vertex 0 47.72 14
      vertex 43.18 47.72 0
      vertex 0 47.72 0
    endloop
  endfacet
  facet normal 0.156436 0.987688 -0
    outer loop
      vertex 44.5829 47.4978 0
      vertex 43.18 47.72 14
      vertex 44.5829 47.4978 14
    endloop
  endfacet
  facet normal 0.156436 0.987688 0
    outer loop
      vertex 43.18 47.72 14
      vertex 44.5829 47.4978 0
      vertex 43.18 47.72 0
    endloop
  endfacet
  facet normal 0.890994 0.454015 0
    outer loop
      vertex 47.4978 44.5829 14
      vertex 46.8529 45.8485 0
      vertex 46.8529 45.8485 14
    endloop
  endfacet
  facet normal 0.890994 0.454015 0
    outer loop
      vertex 46.8529 45.8485 0
      vertex 47.4978 44.5829 14
      vertex 47.4978 44.5829 0
    endloop
  endfacet
  facet normal 0.707107 -0.707107 0
    outer loop
      vertex 45.8485 -3.67294 14
      vertex 46.8529 -2.66854 0
      vertex 46.8529 -2.66854 14
    endloop
  endfacet
  facet normal 0.707107 -0.707107 0
    outer loop
      vertex 46.8529 -2.66854 0
      vertex 45.8485 -3.67294 14
      vertex 45.8485 -3.67294 0
    endloop
  endfacet
  facet normal 0.156436 -0.987688 0
    outer loop
      vertex 43.18 -4.54 0
      vertex 44.5829 -4.3178 14
      vertex 43.18 -4.54 14
    endloop
  endfacet
  facet normal 0.156436 -0.987688 0
    outer loop
      vertex 44.5829 -4.3178 14
      vertex 43.18 -4.54 0
      vertex 44.5829 -4.3178 0
    endloop
  endfacet
  facet normal -0.156432 -0.987689 0
    outer loop
      vertex -1.40294 -4.3178 0
      vertex 0 -4.54 14
      vertex -1.40294 -4.3178 14
    endloop
  endfacet
  facet normal -0.156432 -0.987689 -0
    outer loop
      vertex 0 -4.54 14
      vertex -1.40294 -4.3178 0
      vertex 0 -4.54 0
    endloop
  endfacet
  facet normal -0.891005 -0.453993 0
    outer loop
      vertex -3.67294 -2.66854 0
      vertex -4.3178 -1.40294 14
      vertex -4.3178 -1.40294 0
    endloop
  endfacet
  facet normal -0.891005 -0.453993 0
    outer loop
      vertex -4.3178 -1.40294 14
      vertex -3.67294 -2.66854 0
      vertex -3.67294 -2.66854 14
    endloop
  endfacet
  facet normal 0.454015 0.890994 -0
    outer loop
      vertex 45.8485 46.8529 0
      vertex 44.5829 47.4978 14
      vertex 45.8485 46.8529 14
    endloop
  endfacet
  facet normal 0.454015 0.890994 0
    outer loop
      vertex 44.5829 47.4978 14
      vertex 45.8485 46.8529 0
      vertex 44.5829 47.4978 0
    endloop
  endfacet
  facet normal 0.453993 -0.891005 0
    outer loop
      vertex 44.5829 -4.3178 0
      vertex 45.8485 -3.67294 14
      vertex 44.5829 -4.3178 14
    endloop
  endfacet
  facet normal 0.453993 -0.891005 0
    outer loop
      vertex 45.8485 -3.67294 14
      vertex 44.5829 -4.3178 0
      vertex 45.8485 -3.67294 0
    endloop
  endfacet
  facet normal 1 0 0
    outer loop
      vertex -2.54 15.24 11.5
      vertex -2.54 43.18 14
      vertex -2.54 15.24 14
    endloop
  endfacet
  facet normal 1 0 0
    outer loop
      vertex -2.54 43.18 14
      vertex -2.54 15.24 11.5
      vertex -2.54 43.18 2
    endloop
  endfacet
  facet normal 1 0 0
    outer loop
      vertex -2.54 0 2
      vertex -2.54 15.24 11.5
      vertex -2.54 0 11.5
    endloop
  endfacet
  facet normal 1 0 0
    outer loop
      vertex -2.54 15.24 11.5
      vertex -2.54 0 2
      vertex -2.54 43.18 2
    endloop
  endfacet
  facet normal -0.707107 -0.707107 0
    outer loop
      vertex 45.2349 44.673 2
      vertex 44.673 45.2349 14
      vertex 44.673 45.2349 2
    endloop
  endfacet
  facet normal -0.707107 -0.707107 0
    outer loop
      vertex 44.673 45.2349 14
      vertex 45.2349 44.673 2
      vertex 45.2349 44.673 14
    endloop
  endfacet
  facet normal 0 1 -0
    outer loop
      vertex 43.18 -2.54 2
      vertex 0 -2.54 14
      vertex 43.18 -2.54 14
    endloop
  endfacet
  facet normal 0 1 0
    outer loop
      vertex 0 -2.54 14
      vertex 43.18 -2.54 2
      vertex 0 -2.54 2
    endloop
  endfacet
  facet normal 0.707088 -0.707126 0
    outer loop
      vertex -2.0549 44.673 2
      vertex -1.49297 45.2349 14
      vertex -2.0549 44.673 14
    endloop
  endfacet
  facet normal 0.707088 -0.707126 0
    outer loop
      vertex -1.49297 45.2349 14
      vertex -2.0549 44.673 2
      vertex -1.49297 45.2349 2
    endloop
  endfacet
  facet normal -1 0 0
    outer loop
      vertex 45.72 43.18 2
      vertex 45.72 37.7867 9
      vertex 45.72 43.18 14
    endloop
  endfacet
  facet normal -1 0 0
    outer loop
      vertex 45.72 43.18 2
      vertex 45.72 28.7867 9
      vertex 45.72 37.7867 9
    endloop
  endfacet
  facet normal -1 0 0
    outer loop
      vertex 45.72 0 2
      vertex 45.72 28.7867 9
      vertex 45.72 43.18 2
    endloop
  endfacet
  facet normal -1 0 0
    outer loop
      vertex 45.72 0 14
      vertex 45.72 28.7867 9
      vertex 45.72 0 2
    endloop
  endfacet
  facet normal -1 0 0
    outer loop
      vertex 45.72 28.7867 9
      vertex 45.72 0 14
      vertex 45.72 28.7867 14
    endloop
  endfacet
  facet normal -1 -0 0
    outer loop
      vertex 45.72 43.18 14
      vertex 45.72 37.7867 9
      vertex 45.72 37.7867 14
    endloop
  endfacet
  facet normal -0.987691 -0.156415 0
    outer loop
      vertex 45.72 43.18 2
      vertex 45.5957 43.9649 14
      vertex 45.5957 43.9649 2
    endloop
  endfacet
  facet normal -0.987691 -0.156415 0
    outer loop
      vertex 45.5957 43.9649 14
      vertex 45.72 43.18 2
      vertex 45.72 43.18 14
    endloop
  endfacet
  facet normal 0 0 1
    outer loop
      vertex 43.18 45.72 2
      vertex 45.72 43.18 2
      vertex 45.5957 43.9649 2
    endloop
  endfacet
  facet normal 0 0 1
    outer loop
      vertex 45.72 43.18 2
      vertex 41.068 18.796 2
      vertex 45.72 0 2
    endloop
  endfacet
  facet normal 0 0 1
    outer loop
      vertex 43.18 45.72 2
      vertex 45.5957 43.9649 2
      vertex 45.2349 44.673 2
    endloop
  endfacet
  facet normal -0 0 1
    outer loop
      vertex 40.8233 17.2509 2
      vertex 45.72 0 2
      vertex 41.068 18.796 2
    endloop
  endfacet
  facet normal 0 0 1
    outer loop
      vertex 43.18 45.72 2
      vertex 45.2349 44.673 2
      vertex 44.673 45.2349 2
    endloop
  endfacet
  facet normal -0 0 1
    outer loop
      vertex 40.1131 15.8571 2
      vertex 45.72 0 2
      vertex 40.8233 17.2509 2
    endloop
  endfacet
  facet normal 0 0 1
    outer loop
      vertex 43.18 45.72 2
      vertex 44.673 45.2349 2
      vertex 43.9649 45.5957 2
    endloop
  endfacet
  facet normal -0 0 1
    outer loop
      vertex 39.0069 14.7509 2
      vertex 45.72 0 2
      vertex 40.1131 15.8571 2
    endloop
  endfacet
  facet normal 0 0 1
    outer loop
      vertex 45.72 43.18 2
      vertex 43.18 45.72 2
      vertex 36.068 23.796 2
    endloop
  endfacet
  facet normal -0 0 1
    outer loop
      vertex 37.6131 14.0407 2
      vertex 45.72 0 2
      vertex 39.0069 14.7509 2
    endloop
  endfacet
  facet normal 0 -0 1
    outer loop
      vertex 43.18 -2.54 2
      vertex 45.72 0 2
      vertex 37.6131 14.0407 2
    endloop
  endfacet
  facet normal 0 0 1
    outer loop
      vertex 45.72 43.18 2
      vertex 40.8233 20.3411 2
      vertex 41.068 18.796 2
    endloop
  endfacet
  facet normal 0 0 1
    outer loop
      vertex 45.72 43.18 2
      vertex 40.1131 21.7349 2
      vertex 40.8233 20.3411 2
    endloop
  endfacet
  facet normal 0 0 1
    outer loop
      vertex 45.72 43.18 2
      vertex 39.0069 22.8411 2
      vertex 40.1131 21.7349 2
    endloop
  endfacet
  facet normal 0 0 1
    outer loop
      vertex 45.72 43.18 2
      vertex 37.6131 23.5513 2
      vertex 39.0069 22.8411 2
    endloop
  endfacet
  facet normal 0 0 1
    outer loop
      vertex 45.72 43.18 2
      vertex 36.068 23.796 2
      vertex 37.6131 23.5513 2
    endloop
  endfacet
  facet normal 0 0 1
    outer loop
      vertex 43.18 45.72 2
      vertex 34.5229 23.5513 2
      vertex 36.068 23.796 2
    endloop
  endfacet
  facet normal 0 0 1
    outer loop
      vertex 43.18 45.72 2
      vertex 33.1291 22.8411 2
      vertex 34.5229 23.5513 2
    endloop
  endfacet
  facet normal -0 0 1
    outer loop
      vertex 0 45.72 2
      vertex 33.1291 22.8411 2
      vertex 43.18 45.72 2
    endloop
  endfacet
  facet normal 0 0 1
    outer loop
      vertex 33.1291 22.8411 2
      vertex 0 45.72 2
      vertex 32.0229 21.7349 2
    endloop
  endfacet
  facet normal 0 0 1
    outer loop
      vertex 21.844 10.588 2
      vertex 31.068 18.796 2
      vertex 31.3127 20.3411 2
    endloop
  endfacet
  facet normal 0 0 1
    outer loop
      vertex 31.068 18.796 2
      vertex 26.5993 7.13308 2
      vertex 26.844 5.588 2
    endloop
  endfacet
  facet normal 0 0 1
    outer loop
      vertex 31.068 18.796 2
      vertex 25.8891 8.52693 2
      vertex 26.5993 7.13308 2
    endloop
  endfacet
  facet normal 0 0 1
    outer loop
      vertex 31.068 18.796 2
      vertex 24.7829 9.63308 2
      vertex 25.8891 8.52693 2
    endloop
  endfacet
  facet normal 0 0 1
    outer loop
      vertex 32.0229 21.7349 2
      vertex 0 45.72 2
      vertex 31.3127 20.3411 2
    endloop
  endfacet
  facet normal 0 0 1
    outer loop
      vertex 31.068 18.796 2
      vertex 23.3891 10.3433 2
      vertex 24.7829 9.63308 2
    endloop
  endfacet
  facet normal 0 0 1
    outer loop
      vertex 31.068 18.796 2
      vertex 21.844 10.588 2
      vertex 23.3891 10.3433 2
    endloop
  endfacet
  facet normal -0 0 1
    outer loop
      vertex -2.54 43.18 2
      vertex 31.3127 20.3411 2
      vertex 0 45.72 2
    endloop
  endfacet
  facet normal 0 0 1
    outer loop
      vertex 31.3127 20.3411 2
      vertex 20.2989 10.3433 2
      vertex 21.844 10.588 2
    endloop
  endfacet
  facet normal 0 0 1
    outer loop
      vertex 31.3127 20.3411 2
      vertex -2.54 43.18 2
      vertex 20.2989 10.3433 2
    endloop
  endfacet
  facet normal 0 0 1
    outer loop
      vertex -2.54 0 2
      vertex 17.7989 8.52693 2
      vertex -2.54 43.18 2
    endloop
  endfacet
  facet normal 0 0 1
    outer loop
      vertex 18.9051 9.63308 2
      vertex -2.54 43.18 2
      vertex 17.7989 8.52693 2
    endloop
  endfacet
  facet normal 0 0 1
    outer loop
      vertex 20.2989 10.3433 2
      vertex -2.54 43.18 2
      vertex 18.9051 9.63308 2
    endloop
  endfacet
  facet normal 0 0 1
    outer loop
      vertex 45.72 0 2
      vertex 43.18 -2.54 2
      vertex 45.5957 -0.784903 2
    endloop
  endfacet
  facet normal 0 0 1
    outer loop
      vertex 45.5957 -0.784903 2
      vertex 43.18 -2.54 2
      vertex 45.2349 -1.49297 2
    endloop
  endfacet
  facet normal 0 0 1
    outer loop
      vertex 45.2349 -1.49297 2
      vertex 43.18 -2.54 2
      vertex 44.673 -2.0549 2
    endloop
  endfacet
  facet normal 0 0 1
    outer loop
      vertex 44.673 -2.0549 2
      vertex 43.18 -2.54 2
      vertex 43.9649 -2.41568 2
    endloop
  endfacet
  facet normal -0 0 1
    outer loop
      vertex 36.068 13.796 2
      vertex 43.18 -2.54 2
      vertex 37.6131 14.0407 2
    endloop
  endfacet
  facet normal 0 0 1
    outer loop
      vertex 26.844 5.588 2
      vertex 36.068 13.796 2
      vertex 34.5229 14.0407 2
    endloop
  endfacet
  facet normal 0 0 1
    outer loop
      vertex 26.844 5.588 2
      vertex 34.5229 14.0407 2
      vertex 33.1291 14.7509 2
    endloop
  endfacet
  facet normal 0 0 1
    outer loop
      vertex 26.844 5.588 2
      vertex 33.1291 14.7509 2
      vertex 32.0229 15.8571 2
    endloop
  endfacet
  facet normal 0 0 1
    outer loop
      vertex 26.844 5.588 2
      vertex 31.3127 17.2509 2
      vertex 31.068 18.796 2
    endloop
  endfacet
  facet normal 0 0 1
    outer loop
      vertex 26.844 5.588 2
      vertex 32.0229 15.8571 2
      vertex 31.3127 17.2509 2
    endloop
  endfacet
  facet normal 0 0 1
    outer loop
      vertex 36.068 13.796 2
      vertex 26.844 5.588 2
      vertex 43.18 -2.54 2
    endloop
  endfacet
  facet normal -0 0 1
    outer loop
      vertex 26.5993 4.04291 2
      vertex 43.18 -2.54 2
      vertex 26.844 5.588 2
    endloop
  endfacet
  facet normal -0 0 1
    outer loop
      vertex 25.8891 2.64907 2
      vertex 43.18 -2.54 2
      vertex 26.5993 4.04291 2
    endloop
  endfacet
  facet normal -0 0 1
    outer loop
      vertex 24.7829 1.54291 2
      vertex 43.18 -2.54 2
      vertex 25.8891 2.64907 2
    endloop
  endfacet
  facet normal -0 0 1
    outer loop
      vertex 23.3891 0.832717 2
      vertex 43.18 -2.54 2
      vertex 24.7829 1.54291 2
    endloop
  endfacet
  facet normal -0 0 1
    outer loop
      vertex 21.844 0.587999 2
      vertex 43.18 -2.54 2
      vertex 23.3891 0.832717 2
    endloop
  endfacet
  facet normal 0 0 1
    outer loop
      vertex 17.7989 8.52693 2
      vertex -2.54 0 2
      vertex 17.0887 7.13308 2
    endloop
  endfacet
  facet normal 0 0 1
    outer loop
      vertex 21.844 0.587999 2
      vertex 0 -2.54 2
      vertex 43.18 -2.54 2
    endloop
  endfacet
  facet normal 0 0 1
    outer loop
      vertex 20.2989 0.832717 2
      vertex 0 -2.54 2
      vertex 21.844 0.587999 2
    endloop
  endfacet
  facet normal 0 0 1
    outer loop
      vertex 18.9051 1.54291 2
      vertex 0 -2.54 2
      vertex 20.2989 0.832717 2
    endloop
  endfacet
  facet normal 0 0 1
    outer loop
      vertex 17.7989 2.64907 2
      vertex 0 -2.54 2
      vertex 18.9051 1.54291 2
    endloop
  endfacet
  facet normal 0 0 1
    outer loop
      vertex 17.0887 4.04291 2
      vertex 0 -2.54 2
      vertex 17.7989 2.64907 2
    endloop
  endfacet
  facet normal 0 0 1
    outer loop
      vertex 17.0887 7.13308 2
      vertex -2.54 0 2
      vertex 16.844 5.588 2
    endloop
  endfacet
  facet normal 0 0 1
    outer loop
      vertex -2.54 43.18 2
      vertex 0 45.72 2
      vertex -0.784903 45.5957 2
    endloop
  endfacet
  facet normal 0 -0 1
    outer loop
      vertex 0 -2.54 2
      vertex 16.844 5.588 2
      vertex -2.54 0 2
    endloop
  endfacet
  facet normal 0 0 1
    outer loop
      vertex -2.54 43.18 2
      vertex -0.784903 45.5957 2
      vertex -1.49297 45.2349 2
    endloop
  endfacet
  facet normal 0 0 1
    outer loop
      vertex 16.844 5.588 2
      vertex 0 -2.54 2
      vertex 17.0887 4.04291 2
    endloop
  endfacet
  facet normal 0 0 1
    outer loop
      vertex -2.54 43.18 2
      vertex -1.49297 45.2349 2
      vertex -2.0549 44.673 2
    endloop
  endfacet
  facet normal 0 0 1
    outer loop
      vertex 0 -2.54 2
      vertex -2.54 0 2
      vertex -0.784903 -2.41568 2
    endloop
  endfacet
  facet normal 0 0 1
    outer loop
      vertex -2.54 43.18 2
      vertex -2.0549 44.673 2
      vertex -2.41568 43.9649 2
    endloop
  endfacet
  facet normal 0 0 1
    outer loop
      vertex -0.784903 -2.41568 2
      vertex -2.54 0 2
      vertex -1.49297 -2.0549 2
    endloop
  endfacet
  facet normal 0 0 1
    outer loop
      vertex -1.49297 -2.0549 2
      vertex -2.54 0 2
      vertex -2.0549 -1.49297 2
    endloop
  endfacet
  facet normal 0 0 1
    outer loop
      vertex -2.0549 -1.49297 2
      vertex -2.54 0 2
      vertex -2.41568 -0.784903 2
    endloop
  endfacet
  facet normal 0.987688 -0.156439 0
    outer loop
      vertex -2.54 43.18 14
      vertex -2.41568 43.9649 2
      vertex -2.41568 43.9649 14
    endloop
  endfacet
  facet normal 0.987688 -0.156439 0
    outer loop
      vertex -2.41568 43.9649 2
      vertex -2.54 43.18 14
      vertex -2.54 43.18 2
    endloop
  endfacet
  facet normal 0 -1 0
    outer loop
      vertex 0 45.72 2
      vertex 43.18 45.72 14
      vertex 0 45.72 14
    endloop
  endfacet
  facet normal 0 -1 -0
    outer loop
      vertex 43.18 45.72 14
      vertex 0 45.72 2
      vertex 43.18 45.72 2
    endloop
  endfacet
  facet normal -0.156415 -0.987691 0
    outer loop
      vertex 43.18 45.72 2
      vertex 43.9649 45.5957 14
      vertex 43.18 45.72 14
    endloop
  endfacet
  facet normal -0.156415 -0.987691 -0
    outer loop
      vertex 43.9649 45.5957 14
      vertex 43.18 45.72 2
      vertex 43.9649 45.5957 2
    endloop
  endfacet
  facet normal -0.890995 0.454012 0
    outer loop
      vertex 45.2349 -1.49297 2
      vertex 45.5957 -0.784903 14
      vertex 45.5957 -0.784903 2
    endloop
  endfacet
  facet normal -0.890995 0.454012 0
    outer loop
      vertex 45.5957 -0.784903 14
      vertex 45.2349 -1.49297 2
      vertex 45.2349 -1.49297 14
    endloop
  endfacet
  facet normal 0.707107 0.707107 0
    outer loop
      vertex -1.49297 -2.0549 14
      vertex -2.0549 -1.49297 2
      vertex -2.0549 -1.49297 14
    endloop
  endfacet
  facet normal 0.707107 0.707107 0
    outer loop
      vertex -2.0549 -1.49297 2
      vertex -1.49297 -2.0549 14
      vertex -1.49297 -2.0549 2
    endloop
  endfacet
  facet normal 0.987688 0.156439 0
    outer loop
      vertex -2.41568 -0.784903 14
      vertex -2.54 0 11.5
      vertex -2.54 0 14
    endloop
  endfacet
  facet normal 0.987688 0.156439 -0
    outer loop
      vertex -2.41568 -0.784903 2
      vertex -2.54 0 11.5
      vertex -2.41568 -0.784903 14
    endloop
  endfacet
  facet normal 0.987688 0.156439 0
    outer loop
      vertex -2.54 0 11.5
      vertex -2.41568 -0.784903 2
      vertex -2.54 0 2
    endloop
  endfacet
  facet normal 0.891014 -0.453976 0
    outer loop
      vertex -2.41568 43.9649 14
      vertex -2.0549 44.673 2
      vertex -2.0549 44.673 14
    endloop
  endfacet
  facet normal 0.891014 -0.453976 0
    outer loop
      vertex -2.0549 44.673 2
      vertex -2.41568 43.9649 14
      vertex -2.41568 43.9649 2
    endloop
  endfacet
  facet normal 0.454012 -0.890995 0
    outer loop
      vertex -1.49297 45.2349 2
      vertex -0.784903 45.5957 14
      vertex -1.49297 45.2349 14
    endloop
  endfacet
  facet normal 0.454012 -0.890995 0
    outer loop
      vertex -0.784903 45.5957 14
      vertex -1.49297 45.2349 2
      vertex -0.784903 45.5957 2
    endloop
  endfacet
  facet normal 0.156414 -0.987692 0
    outer loop
      vertex -0.784903 45.5957 2
      vertex 0 45.72 14
      vertex -0.784903 45.5957 14
    endloop
  endfacet
  facet normal 0.156414 -0.987692 0
    outer loop
      vertex 0 45.72 14
      vertex -0.784903 45.5957 2
      vertex 0 45.72 2
    endloop
  endfacet
  facet normal -0.891004 -0.453996 0
    outer loop
      vertex 45.5957 43.9649 2
      vertex 45.2349 44.673 14
      vertex 45.2349 44.673 2
    endloop
  endfacet
  facet normal -0.891004 -0.453996 0
    outer loop
      vertex 45.2349 44.673 14
      vertex 45.5957 43.9649 2
      vertex 45.5957 43.9649 14
    endloop
  endfacet
  facet normal -0.987692 0.156414 0
    outer loop
      vertex 45.5957 -0.784903 2
      vertex 45.72 0 14
      vertex 45.72 0 2
    endloop
  endfacet
  facet normal -0.987692 0.156414 0
    outer loop
      vertex 45.72 0 14
      vertex 45.5957 -0.784903 2
      vertex 45.5957 -0.784903 14
    endloop
  endfacet
  facet normal -0.707126 0.707088 0
    outer loop
      vertex 44.673 -2.0549 2
      vertex 45.2349 -1.49297 14
      vertex 45.2349 -1.49297 2
    endloop
  endfacet
  facet normal -0.707126 0.707088 0
    outer loop
      vertex 45.2349 -1.49297 14
      vertex 44.673 -2.0549 2
      vertex 44.673 -2.0549 14
    endloop
  endfacet
  facet normal -0.156439 0.987688 0
    outer loop
      vertex 43.9649 -2.41568 2
      vertex 43.18 -2.54 14
      vertex 43.9649 -2.41568 14
    endloop
  endfacet
  facet normal -0.156439 0.987688 0
    outer loop
      vertex 43.18 -2.54 14
      vertex 43.9649 -2.41568 2
      vertex 43.18 -2.54 2
    endloop
  endfacet
  facet normal 0.453992 0.891006 -0
    outer loop
      vertex -0.784903 -2.41568 2
      vertex -1.49297 -2.0549 14
      vertex -0.784903 -2.41568 14
    endloop
  endfacet
  facet normal 0.453992 0.891006 0
    outer loop
      vertex -1.49297 -2.0549 14
      vertex -0.784903 -2.41568 2
      vertex -1.49297 -2.0549 2
    endloop
  endfacet
  facet normal 0.891006 0.453992 0
    outer loop
      vertex -2.0549 -1.49297 14
      vertex -2.41568 -0.784903 2
      vertex -2.41568 -0.784903 14
    endloop
  endfacet
  facet normal 0.891006 0.453992 0
    outer loop
      vertex -2.41568 -0.784903 2
      vertex -2.0549 -1.49297 14
      vertex -2.0549 -1.49297 2
    endloop
  endfacet
  facet normal -0.453996 -0.891004 0
    outer loop
      vertex 43.9649 45.5957 2
      vertex 44.673 45.2349 14
      vertex 43.9649 45.5957 14
    endloop
  endfacet
  facet normal -0.453996 -0.891004 -0
    outer loop
      vertex 44.673 45.2349 14
      vertex 43.9649 45.5957 2
      vertex 44.673 45.2349 2
    endloop
  endfacet
  facet normal -0.453976 0.891014 0
    outer loop
      vertex 44.673 -2.0549 2
      vertex 43.9649 -2.41568 14
      vertex 44.673 -2.0549 14
    endloop
  endfacet
  facet normal -0.453976 0.891014 0
    outer loop
      vertex 43.9649 -2.41568 14
      vertex 44.673 -2.0549 2
      vertex 43.9649 -2.41568 2
    endloop
  endfacet
  facet normal 0.156439 0.987688 -0
    outer loop
      vertex 0 -2.54 2
      vertex -0.784903 -2.41568 14
      vertex 0 -2.54 14
    endloop
  endfacet
  facet normal 0.156439 0.987688 0
    outer loop
      vertex -0.784903 -2.41568 14
      vertex 0 -2.54 2
      vertex -0.784903 -2.41568 2
    endloop
  endfacet
  facet normal -0.98769 -0.156424 0
    outer loop
      vertex 26.844 5.588 0
      vertex 26.5993 7.13308 2
      vertex 26.5993 7.13308 0
    endloop
  endfacet
  facet normal -0.98769 -0.156424 0
    outer loop
      vertex 26.5993 7.13308 2
      vertex 26.844 5.588 0
      vertex 26.844 5.588 2
    endloop
  endfacet
  facet normal 0.156422 -0.98769 0
    outer loop
      vertex 20.2989 10.3433 0
      vertex 21.844 10.588 2
      vertex 20.2989 10.3433 2
    endloop
  endfacet
  facet normal 0.156422 -0.98769 0
    outer loop
      vertex 21.844 10.588 2
      vertex 20.2989 10.3433 0
      vertex 21.844 10.588 0
    endloop
  endfacet
  facet normal -0.156433 0.987689 0
    outer loop
      vertex 23.3891 0.832717 0
      vertex 21.844 0.587999 2
      vertex 23.3891 0.832717 2
    endloop
  endfacet
  facet normal -0.156433 0.987689 0
    outer loop
      vertex 21.844 0.587999 2
      vertex 23.3891 0.832717 0
      vertex 21.844 0.587999 0
    endloop
  endfacet
  facet normal -0.891006 0.453992 0
    outer loop
      vertex 25.8891 2.64907 0
      vertex 26.5993 4.04291 2
      vertex 26.5993 4.04291 0
    endloop
  endfacet
  facet normal -0.891006 0.453992 0
    outer loop
      vertex 26.5993 4.04291 2
      vertex 25.8891 2.64907 0
      vertex 25.8891 2.64907 2
    endloop
  endfacet
  facet normal -0.454013 -0.890995 0
    outer loop
      vertex 23.3891 10.3433 0
      vertex 24.7829 9.63308 2
      vertex 23.3891 10.3433 2
    endloop
  endfacet
  facet normal -0.454013 -0.890995 -0
    outer loop
      vertex 24.7829 9.63308 2
      vertex 23.3891 10.3433 0
      vertex 24.7829 9.63308 0
    endloop
  endfacet
  facet normal -0.891007 -0.453989 0
    outer loop
      vertex 26.5993 7.13308 0
      vertex 25.8891 8.52693 2
      vertex 25.8891 8.52693 0
    endloop
  endfacet
  facet normal -0.891007 -0.453989 0
    outer loop
      vertex 25.8891 8.52693 2
      vertex 26.5993 7.13308 0
      vertex 26.5993 7.13308 2
    endloop
  endfacet
  facet normal -0.156422 -0.98769 0
    outer loop
      vertex 21.844 10.588 0
      vertex 23.3891 10.3433 2
      vertex 21.844 10.588 2
    endloop
  endfacet
  facet normal -0.156422 -0.98769 -0
    outer loop
      vertex 23.3891 10.3433 2
      vertex 21.844 10.588 0
      vertex 23.3891 10.3433 0
    endloop
  endfacet
  facet normal 0.891007 -0.453989 0
    outer loop
      vertex 17.0887 7.13308 2
      vertex 17.7989 8.52693 0
      vertex 17.7989 8.52693 2
    endloop
  endfacet
  facet normal 0.891007 -0.453989 0
    outer loop
      vertex 17.7989 8.52693 0
      vertex 17.0887 7.13308 2
      vertex 17.0887 7.13308 0
    endloop
  endfacet
  facet normal 0.98769 -0.156424 0
    outer loop
      vertex 16.844 5.588 2
      vertex 17.0887 7.13308 0
      vertex 17.0887 7.13308 2
    endloop
  endfacet
  facet normal 0.98769 -0.156424 0
    outer loop
      vertex 17.0887 7.13308 0
      vertex 16.844 5.588 2
      vertex 16.844 5.588 0
    endloop
  endfacet
  facet normal 0.454013 -0.890995 0
    outer loop
      vertex 18.9051 9.63308 0
      vertex 20.2989 10.3433 2
      vertex 18.9051 9.63308 2
    endloop
  endfacet
  facet normal 0.454013 -0.890995 0
    outer loop
      vertex 20.2989 10.3433 2
      vertex 18.9051 9.63308 0
      vertex 20.2989 10.3433 0
    endloop
  endfacet
  facet normal -0.707091 -0.707123 0
    outer loop
      vertex 24.7829 9.63308 0
      vertex 25.8891 8.52693 2
      vertex 24.7829 9.63308 2
    endloop
  endfacet
  facet normal -0.707091 -0.707123 -0
    outer loop
      vertex 25.8891 8.52693 2
      vertex 24.7829 9.63308 0
      vertex 25.8891 8.52693 0
    endloop
  endfacet
  facet normal 0.98769 0.156423 0
    outer loop
      vertex 17.0887 4.04291 2
      vertex 16.844 5.588 0
      vertex 16.844 5.588 2
    endloop
  endfacet
  facet normal 0.98769 0.156423 0
    outer loop
      vertex 16.844 5.588 0
      vertex 17.0887 4.04291 2
      vertex 17.0887 4.04291 0
    endloop
  endfacet
  facet normal 0.707091 -0.707123 0
    outer loop
      vertex 17.7989 8.52693 2
      vertex 18.9051 9.63308 0
      vertex 18.9051 9.63308 2
    endloop
  endfacet
  facet normal 0.707091 -0.707123 0
    outer loop
      vertex 18.9051 9.63308 0
      vertex 17.7989 8.52693 2
      vertex 17.7989 8.52693 0
    endloop
  endfacet
  facet normal -0.453999 0.891002 0
    outer loop
      vertex 24.7829 1.54291 0
      vertex 23.3891 0.832717 2
      vertex 24.7829 1.54291 2
    endloop
  endfacet
  facet normal -0.453999 0.891002 0
    outer loop
      vertex 23.3891 0.832717 2
      vertex 24.7829 1.54291 0
      vertex 23.3891 0.832717 0
    endloop
  endfacet
  facet normal -0.98769 0.156423 0
    outer loop
      vertex 26.5993 4.04291 0
      vertex 26.844 5.588 2
      vertex 26.844 5.588 0
    endloop
  endfacet
  facet normal -0.98769 0.156423 0
    outer loop
      vertex 26.844 5.588 2
      vertex 26.5993 4.04291 0
      vertex 26.5993 4.04291 2
    endloop
  endfacet
  facet normal 0.891006 0.453992 0
    outer loop
      vertex 17.7989 2.64907 2
      vertex 17.0887 4.04291 0
      vertex 17.0887 4.04291 2
    endloop
  endfacet
  facet normal 0.891006 0.453992 0
    outer loop
      vertex 17.0887 4.04291 0
      vertex 17.7989 2.64907 2
      vertex 17.7989 2.64907 0
    endloop
  endfacet
  facet normal -0.707094 0.70712 0
    outer loop
      vertex 24.7829 1.54291 0
      vertex 25.8891 2.64907 2
      vertex 25.8891 2.64907 0
    endloop
  endfacet
  facet normal -0.707094 0.70712 0
    outer loop
      vertex 25.8891 2.64907 2
      vertex 24.7829 1.54291 0
      vertex 24.7829 1.54291 2
    endloop
  endfacet
  facet normal 0.707094 0.70712 0
    outer loop
      vertex 18.9051 1.54291 2
      vertex 17.7989 2.64907 0
      vertex 17.7989 2.64907 2
    endloop
  endfacet
  facet normal 0.707094 0.70712 0
    outer loop
      vertex 17.7989 2.64907 0
      vertex 18.9051 1.54291 2
      vertex 18.9051 1.54291 0
    endloop
  endfacet
  facet normal 0.156433 0.987689 -0
    outer loop
      vertex 21.844 0.587999 0
      vertex 20.2989 0.832717 2
      vertex 21.844 0.587999 2
    endloop
  endfacet
  facet normal 0.156433 0.987689 0
    outer loop
      vertex 20.2989 0.832717 2
      vertex 21.844 0.587999 0
      vertex 20.2989 0.832717 0
    endloop
  endfacet
  facet normal 0.453999 0.891002 -0
    outer loop
      vertex 20.2989 0.832717 0
      vertex 18.9051 1.54291 2
      vertex 20.2989 0.832717 2
    endloop
  endfacet
  facet normal 0.453999 0.891002 0
    outer loop
      vertex 18.9051 1.54291 2
      vertex 20.2989 0.832717 0
      vertex 18.9051 1.54291 0
    endloop
  endfacet
  facet normal -0.98769 -0.156422 0
    outer loop
      vertex 41.068 18.796 0
      vertex 40.8233 20.3411 2
      vertex 40.8233 20.3411 0
    endloop
  endfacet
  facet normal -0.98769 -0.156422 0
    outer loop
      vertex 40.8233 20.3411 2
      vertex 41.068 18.796 0
      vertex 41.068 18.796 2
    endloop
  endfacet
  facet normal 0.156422 -0.98769 0
    outer loop
      vertex 34.5229 23.5513 0
      vertex 36.068 23.796 2
      vertex 34.5229 23.5513 2
    endloop
  endfacet
  facet normal 0.156422 -0.98769 0
    outer loop
      vertex 36.068 23.796 2
      vertex 34.5229 23.5513 0
      vertex 36.068 23.796 0
    endloop
  endfacet
  facet normal -0.156422 0.98769 0
    outer loop
      vertex 37.6131 14.0407 0
      vertex 36.068 13.796 2
      vertex 37.6131 14.0407 2
    endloop
  endfacet
  facet normal -0.156422 0.98769 0
    outer loop
      vertex 36.068 13.796 2
      vertex 37.6131 14.0407 0
      vertex 36.068 13.796 0
    endloop
  endfacet
  facet normal -0.454002 0.891 0
    outer loop
      vertex 39.0069 14.7509 0
      vertex 37.6131 14.0407 2
      vertex 39.0069 14.7509 2
    endloop
  endfacet
  facet normal -0.454002 0.891 0
    outer loop
      vertex 37.6131 14.0407 2
      vertex 39.0069 14.7509 0
      vertex 37.6131 14.0407 0
    endloop
  endfacet
  facet normal -0.454002 -0.891 0
    outer loop
      vertex 37.6131 23.5513 0
      vertex 39.0069 22.8411 2
      vertex 37.6131 23.5513 2
    endloop
  endfacet
  facet normal -0.454002 -0.891 -0
    outer loop
      vertex 39.0069 22.8411 2
      vertex 37.6131 23.5513 0
      vertex 39.0069 22.8411 0
    endloop
  endfacet
  facet normal -0.891 -0.454002 0
    outer loop
      vertex 40.8233 20.3411 0
      vertex 40.1131 21.7349 2
      vertex 40.1131 21.7349 0
    endloop
  endfacet
  facet normal -0.891 -0.454002 0
    outer loop
      vertex 40.1131 21.7349 2
      vertex 40.8233 20.3411 0
      vertex 40.8233 20.3411 2
    endloop
  endfacet
  facet normal -0.156422 -0.98769 0
    outer loop
      vertex 36.068 23.796 0
      vertex 37.6131 23.5513 2
      vertex 36.068 23.796 2
    endloop
  endfacet
  facet normal -0.156422 -0.98769 -0
    outer loop
      vertex 37.6131 23.5513 2
      vertex 36.068 23.796 0
      vertex 37.6131 23.5513 0
    endloop
  endfacet
  facet normal 0.891 -0.454002 0
    outer loop
      vertex 31.3127 20.3411 2
      vertex 32.0229 21.7349 0
      vertex 32.0229 21.7349 2
    endloop
  endfacet
  facet normal 0.891 -0.454002 0
    outer loop
      vertex 32.0229 21.7349 0
      vertex 31.3127 20.3411 2
      vertex 31.3127 20.3411 0
    endloop
  endfacet
  facet normal 0.98769 -0.156422 0
    outer loop
      vertex 31.068 18.796 2
      vertex 31.3127 20.3411 0
      vertex 31.3127 20.3411 2
    endloop
  endfacet
  facet normal 0.98769 -0.156422 0
    outer loop
      vertex 31.3127 20.3411 0
      vertex 31.068 18.796 2
      vertex 31.068 18.796 0
    endloop
  endfacet
  facet normal 0.454002 -0.891 0
    outer loop
      vertex 33.1291 22.8411 0
      vertex 34.5229 23.5513 2
      vertex 33.1291 22.8411 2
    endloop
  endfacet
  facet normal 0.454002 -0.891 0
    outer loop
      vertex 34.5229 23.5513 2
      vertex 33.1291 22.8411 0
      vertex 34.5229 23.5513 0
    endloop
  endfacet
  facet normal -0.707107 -0.707107 0
    outer loop
      vertex 40.1131 21.7349 0
      vertex 39.0069 22.8411 2
      vertex 39.0069 22.8411 0
    endloop
  endfacet
  facet normal -0.707107 -0.707107 0
    outer loop
      vertex 39.0069 22.8411 2
      vertex 40.1131 21.7349 0
      vertex 40.1131 21.7349 2
    endloop
  endfacet
  facet normal 0.98769 0.156422 0
    outer loop
      vertex 31.3127 17.2509 2
      vertex 31.068 18.796 0
      vertex 31.068 18.796 2
    endloop
  endfacet
  facet normal 0.98769 0.156422 0
    outer loop
      vertex 31.068 18.796 0
      vertex 31.3127 17.2509 2
      vertex 31.3127 17.2509 0
    endloop
  endfacet
  facet normal 0.707107 -0.707107 0
    outer loop
      vertex 32.0229 21.7349 0
      vertex 33.1291 22.8411 2
      vertex 32.0229 21.7349 2
    endloop
  endfacet
  facet normal 0.707107 -0.707107 0
    outer loop
      vertex 33.1291 22.8411 2
      vertex 32.0229 21.7349 0
      vertex 33.1291 22.8411 0
    endloop
  endfacet
  facet normal -0.98769 0.156422 0
    outer loop
      vertex 40.8233 17.2509 0
      vertex 41.068 18.796 2
      vertex 41.068 18.796 0
    endloop
  endfacet
  facet normal -0.98769 0.156422 0
    outer loop
      vertex 41.068 18.796 2
      vertex 40.8233 17.2509 0
      vertex 40.8233 17.2509 2
    endloop
  endfacet
  facet normal 0.891 0.454002 0
    outer loop
      vertex 32.0229 15.8571 2
      vertex 31.3127 17.2509 0
      vertex 31.3127 17.2509 2
    endloop
  endfacet
  facet normal 0.891 0.454002 0
    outer loop
      vertex 31.3127 17.2509 0
      vertex 32.0229 15.8571 2
      vertex 32.0229 15.8571 0
    endloop
  endfacet
  facet normal -0.707107 0.707107 0
    outer loop
      vertex 39.0069 14.7509 0
      vertex 40.1131 15.8571 2
      vertex 40.1131 15.8571 0
    endloop
  endfacet
  facet normal -0.707107 0.707107 0
    outer loop
      vertex 40.1131 15.8571 2
      vertex 39.0069 14.7509 0
      vertex 39.0069 14.7509 2
    endloop
  endfacet
  facet normal -0.891 0.454002 0
    outer loop
      vertex 40.1131 15.8571 0
      vertex 40.8233 17.2509 2
      vertex 40.8233 17.2509 0
    endloop
  endfacet
  facet normal -0.891 0.454002 0
    outer loop
      vertex 40.8233 17.2509 2
      vertex 40.1131 15.8571 0
      vertex 40.1131 15.8571 2
    endloop
  endfacet
  facet normal 0.454002 0.891 -0
    outer loop
      vertex 34.5229 14.0407 0
      vertex 33.1291 14.7509 2
      vertex 34.5229 14.0407 2
    endloop
  endfacet
  facet normal 0.454002 0.891 0
    outer loop
      vertex 33.1291 14.7509 2
      vertex 34.5229 14.0407 0
      vertex 33.1291 14.7509 0
    endloop
  endfacet
  facet normal 0.707107 0.707107 -0
    outer loop
      vertex 33.1291 14.7509 0
      vertex 32.0229 15.8571 2
      vertex 33.1291 14.7509 2
    endloop
  endfacet
  facet normal 0.707107 0.707107 0
    outer loop
      vertex 32.0229 15.8571 2
      vertex 33.1291 14.7509 0
      vertex 32.0229 15.8571 0
    endloop
  endfacet
  facet normal 0.156422 0.98769 -0
    outer loop
      vertex 36.068 13.796 0
      vertex 34.5229 14.0407 2
      vertex 36.068 13.796 2
    endloop
  endfacet
  facet normal 0.156422 0.98769 0
    outer loop
      vertex 34.5229 14.0407 2
      vertex 36.068 13.796 0
      vertex 34.5229 14.0407 0
    endloop
  endfacet
  facet normal -0 0 1
    outer loop
      vertex -4.54 15.24 11.5
      vertex -2.54 0 11.5
      vertex -2.54 15.24 11.5
    endloop
  endfacet
  facet normal 0 0 1
    outer loop
      vertex -2.54 0 11.5
      vertex -4.54 15.24 11.5
      vertex -4.54 0 11.5
    endloop
  endfacet
  facet normal 0 1 -0
    outer loop
      vertex -2.54 0 11.5
      vertex -4.54 0 14
      vertex -2.54 0 14
    endloop
  endfacet
  facet normal 0 1 0
    outer loop
      vertex -4.54 0 14
      vertex -2.54 0 11.5
      vertex -4.54 0 11.5
    endloop
  endfacet
  facet normal 0 -1 0
    outer loop
      vertex -4.54 15.24 11.5
      vertex -2.54 15.24 14
      vertex -4.54 15.24 14
    endloop
  endfacet
  facet normal 0 -1 -0
    outer loop
      vertex -2.54 15.24 14
      vertex -4.54 15.24 11.5
      vertex -2.54 15.24 11.5
    endloop
  endfacet
  facet normal 0 -1 0
    outer loop
      vertex 45.72 37.7867 9
      vertex 47.72 37.7867 14
      vertex 45.72 37.7867 14
    endloop
  endfacet
  facet normal 0 -1 -0
    outer loop
      vertex 47.72 37.7867 14
      vertex 45.72 37.7867 9
      vertex 47.72 37.7867 9
    endloop
  endfacet
  facet normal -0 0 1
    outer loop
      vertex 45.72 37.7867 9
      vertex 47.72 28.7867 9
      vertex 47.72 37.7867 9
    endloop
  endfacet
  facet normal 0 0 1
    outer loop
      vertex 47.72 28.7867 9
      vertex 45.72 37.7867 9
      vertex 45.72 28.7867 9
    endloop
  endfacet
  facet normal 0 1 -0
    outer loop
      vertex 47.72 28.7867 9
      vertex 45.72 28.7867 14
      vertex 47.72 28.7867 14
    endloop
  endfacet
  facet normal 0 1 0
    outer loop
      vertex 45.72 28.7867 14
      vertex 47.72 28.7867 9
      vertex 45.72 28.7867 9
    endloop
  endfacet
endsolid OpenSCAD_Model
